<svg width="1280" height="720" xmlns="http://www.w3.org/2000/svg" xmlns:xlink="http://www.w3.org/1999/xlink" overflow="hidden"><defs><clipPath id="clip0"><rect x="0" y="0" width="1280" height="720"/></clipPath></defs><g clip-path="url(#clip0)"><rect x="0" y="0" width="1280" height="720" fill="#FFFFFF"/><path d="M750.351 360.067C749.547 360.067 748.775 360.204 748.035 360.479 747.295 360.754 746.633 361.108 746.049 361.541 745.465 361.973 745.017 362.432 744.707 362.917 744.397 363.402 744.242 363.865 744.242 364.306 744.242 364.751 744.411 365.169 744.75 365.559 745.089 365.949 745.686 366.144 746.539 366.144 747.116 366.144 747.734 366.016 748.393 365.761 749.052 365.506 749.658 365.176 750.213 364.771 750.767 364.366 751.212 363.917 751.546 363.425 751.881 362.933 752.048 362.45 752.048 361.976 752.048 361.498 751.875 361.061 751.53 360.663 751.184 360.266 750.791 360.067 750.351 360.067ZM748.657 338.606C748.1 338.606 747.526 338.723 746.934 338.955 746.343 339.188 745.837 339.463 745.419 339.782 745.001 340.1 744.665 340.475 744.411 340.904 744.157 341.334 744.03 341.722 744.03 342.069 744.03 342.448 744.155 342.756 744.404 342.99 744.653 343.225 745.153 343.342 745.904 343.342 747.026 343.342 748.037 343.012 748.935 342.353 749.834 341.694 750.284 340.917 750.284 340.021 750.284 339.586 750.133 339.241 749.831 338.987 749.53 338.733 749.139 338.606 748.657 338.606ZM608.892 327.459C612.312 327.459 615.171 327.646 617.467 328.02 619.764 328.394 621.371 329.336 622.29 330.847 623.323 332.361 623.954 333.741 624.183 334.985 624.411 336.229 624.526 337.39 624.526 338.468 624.526 339.855 624.19 340.943 623.518 341.731 622.847 342.519 621.995 342.913 620.963 342.913 620.536 342.913 619.973 342.877 619.277 342.805 618.58 342.733 617.789 342.66 616.905 342.586 616.02 342.513 615.148 342.443 614.289 342.377 613.43 342.31 612.595 342.277 611.786 342.277 610.137 342.277 608.977 342.404 608.306 342.658 607.636 342.911 607.301 343.397 607.301 344.115 607.301 344.741 607.419 345.227 607.656 345.574 607.893 345.922 608.258 346.095 608.751 346.095 609.277 346.095 609.871 346.038 610.533 345.924 611.194 345.81 611.877 345.694 612.583 345.577 613.289 345.459 613.994 345.34 614.698 345.218 615.401 345.097 616.054 345.036 616.657 345.036 617.904 345.036 618.891 345.43 619.62 346.217 620.349 347.004 620.713 348.563 620.713 350.893 620.713 353.375 620.401 355.348 619.778 356.812 619.154 358.276 618.232 359.008 617.01 359.008 616.152 359.008 615.311 358.961 614.487 358.867 613.664 358.773 612.764 358.726 611.786 358.726 610.276 358.726 609.221 358.898 608.622 359.243 608.024 359.588 607.724 360.169 607.724 360.988 607.724 361.481 607.807 361.816 607.972 361.994 608.138 362.172 608.727 362.261 609.739 362.261 611.777 362.261 613.603 362.09 615.217 361.749 616.832 361.408 618.278 361.013 619.555 360.564 620.831 360.115 621.893 359.709 622.739 359.346 623.585 358.983 624.24 358.802 624.705 358.802 625.72 358.802 626.52 359.416 627.106 360.643 627.692 361.87 627.985 363.467 627.985 365.435 627.985 367.986 627.791 370.022 627.405 371.542 627.018 373.062 626.214 374.115 624.992 374.699 624.405 375.02 623.463 375.4 622.167 375.84 620.87 376.281 619.344 376.703 617.587 377.106 615.83 377.51 613.901 377.865 611.798 378.173 609.696 378.48 607.48 378.633 605.151 378.633 602.895 378.633 601.033 378.573 599.566 378.453 598.099 378.333 596.901 378.134 595.97 377.858 595.04 377.581 594.319 377.23 593.807 376.803 593.294 376.376 592.922 375.844 592.691 375.207 592.45 374.531 592.197 373.554 591.931 372.275 591.666 370.996 591.427 369.511 591.216 367.82 591.004 366.129 590.827 364.224 590.684 362.105 590.541 359.986 590.47 357.755 590.47 355.41 590.47 348.528 590.718 343.136 591.214 339.236 591.711 335.335 592.187 332.702 592.642 331.337 593.036 330.205 594.561 329.275 597.217 328.549 599.873 327.822 603.765 327.459 608.892 327.459ZM750.987 327.035C755.527 327.035 759.138 328.025 761.82 330.005 764.502 331.986 765.843 334.712 765.843 338.186 765.843 340.112 765.558 341.757 764.988 343.12 764.418 344.483 763.771 345.615 763.045 346.515 762.32 347.416 761.722 348.05 761.253 348.417L760.73 348.796 760.862 348.76C761.07 348.792 761.382 348.884 761.799 349.036 762.632 349.341 763.648 349.918 764.847 350.768 766.046 351.617 767.159 352.818 768.186 354.371 769.213 355.924 769.726 357.941 769.726 360.423 769.726 362.889 769.086 365.243 767.805 367.484 766.525 369.725 764.805 371.683 762.644 373.358 760.484 375.032 757.965 376.366 755.086 377.357 752.208 378.349 749.124 378.845 745.833 378.845 743.026 378.845 740.512 378.491 738.291 377.783 736.07 377.076 734.183 376.105 732.63 374.873 731.077 373.64 729.878 372.178 729.032 370.488 728.187 368.797 727.764 366.995 727.764 365.082 727.764 362.657 728.182 360.621 729.018 358.973 729.855 357.325 730.779 355.982 731.792 354.945 732.805 353.907 733.669 353.157 734.385 352.694 735.101 352.23 735.459 352.007 735.459 352.022 735.459 352.031 735.206 351.853 734.702 351.49 734.197 351.126 733.56 350.573 732.792 349.829 732.023 349.086 731.323 348.157 730.69 347.043 730.057 345.929 729.741 344.577 729.741 342.986 729.741 340.348 730.37 338.029 731.628 336.03 732.887 334.031 734.517 332.373 736.518 331.055 738.519 329.737 740.797 328.737 743.35 328.056 745.904 327.375 748.45 327.035 750.987 327.035ZM705.445 327.035C707.728 327.035 709.838 327.395 711.776 328.116 713.714 328.836 715.361 329.788 716.715 330.969 718.069 332.151 719.135 333.507 719.913 335.036 720.69 336.566 721.078 338.11 721.078 339.668 721.078 341.334 720.84 342.807 720.363 344.087 719.886 345.368 719.37 346.43 718.816 347.273 718.263 348.115 717.784 348.76 717.379 349.207 716.975 349.654 716.772 349.886 716.772 349.904 716.772 349.809 717.119 349.924 717.813 350.251 718.506 350.577 719.363 351.201 720.385 352.123 721.407 353.045 722.342 354.268 723.192 355.793 724.042 357.317 724.467 359.284 724.467 361.694 724.467 364.112 723.888 366.343 722.73 368.388 721.572 370.433 720.071 372.193 718.227 373.668 716.383 375.144 714.311 376.293 712.011 377.116 709.711 377.939 707.357 378.351 704.951 378.351 701.881 378.351 699.131 377.829 696.702 376.784 694.273 375.74 692.192 374.437 690.461 372.877 688.73 371.316 687.394 369.634 686.455 367.829 685.516 366.024 685.046 364.379 685.046 362.894 685.046 362.018 685.432 361.117 686.203 360.193 686.974 359.268 687.882 358.407 688.927 357.611 689.972 356.814 691.066 356.155 692.211 355.632 693.355 355.11 694.354 354.849 695.209 354.849 696.229 354.849 696.948 355.075 697.366 355.529 697.785 355.982 697.995 356.555 697.995 357.246 697.995 358.039 698.146 358.889 698.448 359.796 698.75 360.703 699.186 361.539 699.754 362.304 700.322 363.069 700.979 363.701 701.725 364.198 702.471 364.695 703.287 364.944 704.174 364.944 705.212 364.944 706.036 364.648 706.648 364.055 707.26 363.463 707.566 362.628 707.566 361.552 707.566 360.39 707.181 359.617 706.412 359.232 705.643 358.848 704.732 358.655 703.68 358.655 703.003 358.655 702.34 358.52 701.692 358.25 701.044 357.981 700.45 357.535 699.91 356.913 699.37 356.292 698.946 355.52 698.638 354.597 698.331 353.674 698.177 352.557 698.177 351.246 698.177 350.418 698.607 349.641 699.468 348.915 700.329 348.189 701.196 347.468 702.068 346.752 702.939 346.037 703.732 345.29 704.447 344.51 705.161 343.731 705.519 342.894 705.519 341.998 705.519 341.526 705.348 341.16 705.008 340.901 704.668 340.642 704.202 340.512 703.61 340.512 702.695 340.512 701.844 340.905 701.059 341.691 700.273 342.476 699.578 343.355 698.973 344.326 698.367 345.297 697.755 346.304 697.135 347.348 696.515 348.391 695.826 348.913 695.068 348.913 694.291 348.913 693.411 348.687 692.429 348.233 691.448 347.78 690.513 347.209 689.626 346.519 688.739 345.83 687.954 345.038 687.271 344.144 686.588 343.251 686.246 342.323 686.246 341.362 686.246 340.109 686.745 338.648 687.741 336.979 688.737 335.31 690.097 333.748 691.82 332.292 693.543 330.836 695.563 329.596 697.88 328.571 700.196 327.547 702.718 327.035 705.445 327.035ZM574.811 326.823C577.547 326.823 579.86 327.276 581.75 328.182 583.64 329.088 584.746 330.453 585.068 332.276 585.204 333.045 585.319 334.159 585.415 335.618 585.511 337.076 585.606 338.637 585.701 340.301 585.796 341.964 585.869 343.705 585.92 345.522 585.972 347.339 585.997 348.73 585.997 349.693 585.997 356.608 585.624 362.174 584.877 366.391 584.13 370.607 583.209 372.831 582.115 373.062 580.402 375.185 578.472 376.515 576.326 377.052 574.179 377.588 572.074 377.857 570.011 377.857 568.48 377.857 567.265 377.175 566.365 375.813 565.465 374.45 564.555 372.824 563.635 370.934 563.371 370.363 562.998 369.476 562.518 368.276 562.038 367.076 561.598 365.819 561.198 364.507 560.798 363.194 560.192 361.699 559.38 360.022 558.569 358.345 557.883 356.924 557.323 355.759 556.763 354.594 556.271 353.668 555.846 352.98 555.422 352.292 555.178 351.949 555.115 351.949 555.043 351.949 555.007 352.797 555.007 354.493 555.007 356.974 555.211 359.204 555.621 361.185 556.031 363.165 556.481 364.96 556.97 366.567 557.459 368.175 557.925 369.581 558.367 370.784 558.809 371.988 559.03 372.934 559.03 373.624 559.03 374.326 558.713 375.009 558.078 375.672 557.442 376.335 556.632 376.907 555.647 377.387 554.662 377.867 553.534 378.253 552.264 378.546 550.994 378.839 549.662 378.986 548.268 378.986 545.465 378.986 543.307 378.595 541.796 377.814 540.285 377.032 539.317 375.686 538.893 373.777 538.697 372.891 538.507 371.828 538.322 370.586 538.138 369.345 537.974 367.947 537.83 366.392 537.686 364.837 537.567 363.226 537.472 361.559 537.376 359.892 537.328 358.243 537.328 356.611 537.328 350.558 537.459 345.627 537.721 341.82 537.983 338.013 538.248 335.357 538.517 333.852 538.732 332.601 539.126 331.595 539.696 330.834 540.267 330.073 540.963 329.546 541.783 329.254 542.124 329.107 542.673 328.975 543.43 328.857 544.186 328.739 545.019 328.632 545.929 328.536 546.838 328.44 547.801 328.354 548.816 328.278 549.832 328.202 550.708 328.164 551.445 328.164 552.252 328.164 553.131 328.254 554.083 328.434 555.035 328.614 555.966 328.944 556.875 329.424 557.784 329.904 558.679 330.571 559.56 331.427 560.441 332.283 561.222 333.343 561.903 334.609 562.162 335.083 562.571 335.911 563.131 337.094 563.692 338.276 564.235 339.449 564.76 340.614 565.285 341.779 565.897 343.117 566.595 344.628 567.294 346.138 567.909 347.422 568.442 348.477 568.975 349.533 569.417 350.365 569.77 350.972L570.111 351.619 570.143 351.278C570.151 351.118 570.154 350.919 570.154 350.681 570.154 348.925 569.887 347.093 569.352 345.184 568.816 343.275 568.224 341.45 567.574 339.709 566.923 337.968 566.32 336.372 565.765 334.922 565.209 333.472 564.931 332.277 564.931 331.338 564.931 330.704 565.242 330.104 565.865 329.538 566.487 328.972 567.259 328.503 568.181 328.129 569.102 327.755 570.147 327.444 571.314 327.196 572.482 326.947 573.647 326.823 574.811 326.823ZM788.774 326.611C789.701 326.611 790.637 326.714 791.583 326.918 792.529 327.123 793.402 327.444 794.202 327.883 795.002 328.321 795.692 328.871 796.274 329.532 796.856 330.193 797.23 330.966 797.396 331.853 797.685 333.444 797.856 335.956 797.907 339.388 797.958 342.82 797.984 346.796 797.984 351.316 797.984 353.768 797.851 356.493 797.585 359.492 797.319 362.49 796.963 365.27 796.516 367.83 796.07 370.39 795.507 372.641 794.826 374.582 794.145 376.524 793.39 377.633 792.562 377.909 791.794 378.183 791.15 378.372 790.63 378.477 790.11 378.581 789.636 378.656 789.21 378.704 788.784 378.751 788.31 378.775 787.79 378.775 787.27 378.775 786.68 378.775 786.021 378.775 785.281 378.775 784.479 378.702 783.614 378.558 782.749 378.414 781.923 378.202 781.136 377.923 780.349 377.643 779.649 377.256 779.036 376.76 778.423 376.264 778.117 375.642 778.117 374.895 778.117 374.466 778.26 373.735 778.547 372.704 778.833 371.672 779.093 370.67 779.325 369.697 779.558 368.724 779.853 367.665 780.213 366.52 780.572 365.376 780.899 364.213 781.194 363.032 781.489 361.85 781.732 360.855 781.924 360.047 782.116 359.238 782.212 358.634 782.212 358.235 782.212 358.061 781.782 357.759 780.922 357.328 780.062 356.898 779.031 356.383 777.83 355.782 776.629 355.182 775.483 354.492 774.39 353.712 773.298 352.932 772.752 351.945 772.752 350.752 772.752 349.957 772.952 349.222 773.352 348.547 773.753 347.871 774.276 347.066 774.924 346.131 775.571 345.196 776.314 344.042 777.152 342.668 777.99 341.294 778.871 339.544 779.796 337.417 780.831 335.036 781.646 333.205 782.242 331.926 782.838 330.646 783.444 329.594 784.062 328.771 784.68 327.947 785.353 327.381 786.081 327.073 786.81 326.765 787.707 326.611 788.774 326.611ZM518.458 326.541C519.717 326.541 521.115 326.838 522.651 327.433 524.188 328.027 525.62 328.792 526.948 329.727 528.275 330.661 529.41 331.739 530.35 332.959 531.291 334.18 531.762 335.451 531.762 336.774 531.762 337.435 531.572 338.183 531.192 339.018 530.812 339.854 530.3 340.717 529.656 341.61 529.012 342.502 528.321 343.398 527.583 344.297 526.845 345.196 526.087 346.083 525.308 346.96 523.338 349.078 521.301 350.914 519.196 352.469 519.541 352.44 520.199 352.747 521.172 353.391 521.52 353.505 522.055 353.848 522.776 354.42 523.497 354.992 524.225 355.776 524.96 356.772 525.56 357.65 526.11 358.576 526.609 359.55 527.109 360.524 527.58 361.409 528.025 362.204 528.469 362.999 528.882 363.648 529.264 364.151 529.646 364.653 530.092 364.974 530.602 365.113 531.562 365.401 532.372 365.984 533.032 366.864 533.691 367.743 534.021 368.655 534.021 369.6 534.021 370.935 533.424 372.121 532.23 373.16 531.035 374.198 529.667 375.048 528.126 375.708 526.584 376.369 525.004 376.88 523.386 377.243 521.767 377.605 520.431 377.786 519.376 377.786 518 377.786 516.75 377.433 515.623 376.725 514.497 376.018 513.484 374.528 512.585 372.256 512.078 370.779 511.62 369.494 511.211 368.403 510.802 367.312 510.382 366.3 509.95 365.368 509.519 364.437 509.099 363.709 508.69 363.184 508.282 362.659 507.914 362.397 507.586 362.397 507.181 362.397 506.814 362.506 506.486 362.724 506.159 362.943 505.995 363.423 505.995 364.164 505.995 365.504 506.118 366.734 506.365 367.856 506.612 368.977 506.904 370.007 507.241 370.947 507.578 371.886 507.878 372.69 508.141 373.36 508.405 374.03 508.536 374.612 508.536 375.106 508.536 375.553 508.346 375.997 507.967 376.441 507.587 376.884 506.972 377.264 506.123 377.583 505.274 377.901 504.217 378.156 502.953 378.347 501.688 378.538 500.08 378.633 498.127 378.633 495.669 378.633 493.742 378.194 492.347 377.315 490.951 376.437 489.961 375.018 489.376 373.06 489.003 371.982 488.616 370.048 488.214 367.258 487.812 364.469 487.611 360.755 487.611 356.116 487.611 349.759 487.84 344.581 488.297 340.581 488.755 336.582 489.515 334.169 490.576 333.341 491.523 332.536 492.598 331.857 493.802 331.303 495.006 330.749 496.259 330.271 497.562 329.868 498.865 329.465 500.188 329.14 501.533 328.891 502.878 328.642 504.001 328.517 504.904 328.517 506.334 328.517 507.38 328.847 508.04 329.508 508.7 330.168 509.03 330.92 509.03 331.762 509.03 332.52 508.87 333.393 508.549 334.381 508.227 335.37 507.896 336.387 507.556 337.432 507.215 338.477 506.893 339.628 506.59 340.886 506.287 342.143 506.136 343.456 506.136 344.822 506.136 345.2 506.149 345.389 506.174 345.389 506.509 345.389 507.139 344.796 508.066 343.61 508.994 342.424 510.013 340.812 511.125 338.774 512.237 336.689 513.117 334.85 513.762 333.258 514.408 331.667 514.774 330.483 514.86 329.709 514.975 328.674 515.362 327.888 516.02 327.349 516.679 326.81 517.492 326.541 518.458 326.541ZM649.669 326.47C652.172 326.47 654.48 326.814 656.592 327.502 658.705 328.19 660.516 329.09 662.025 330.204 663.535 331.317 664.717 332.553 665.572 333.911 666.428 335.27 666.855 336.624 666.855 337.974 666.855 338.994 666.533 340.02 665.888 341.052 665.243 342.084 664.478 343.006 663.594 343.816 662.71 344.627 661.74 345.303 660.685 345.843 659.629 346.384 658.663 346.654 657.787 346.654 656.687 346.654 655.916 346.42 655.475 345.952 655.034 345.483 654.819 344.964 654.831 344.395 653.284 343.063 652.245 342.224 651.717 341.878 651.188 341.532 650.599 341.36 649.951 341.36 649.912 341.36 649.802 341.444 649.62 341.612 649.439 341.781 649.348 341.98 649.348 342.21 649.348 342.926 649.748 343.582 650.547 344.176 651.347 344.77 652.345 345.403 653.543 346.075 654.741 346.747 656.244 347.53 658.051 348.424 659.857 349.318 661.482 350.413 662.925 351.709 664.368 353.005 665.572 354.594 666.537 356.475 667.502 358.355 667.985 360.613 667.985 363.246 667.985 365.666 667.478 367.815 666.463 369.695 665.449 371.575 664.098 373.16 662.411 374.451 660.723 375.741 658.8 376.714 656.642 377.369 654.484 378.024 652.206 378.351 649.81 378.351 647.273 378.351 644.807 377.94 642.413 377.118 640.018 376.295 637.898 375.241 636.054 373.954 634.209 372.668 632.699 371.213 631.525 369.589 630.351 367.965 629.764 366.322 629.764 364.658 629.764 363.358 630.122 362.108 630.837 360.907 631.553 359.706 632.387 358.666 633.341 357.785 634.294 356.905 635.295 356.184 636.343 355.621 637.39 355.059 638.255 354.778 638.938 354.778 639.78 354.778 640.465 355.197 640.991 356.035 641.517 356.872 642.113 357.841 642.778 358.941 643.444 360.042 644.116 360.952 644.796 361.674 645.476 362.395 646.277 362.755 647.198 362.755 647.989 362.755 648.552 362.518 648.887 362.042 649.222 361.566 649.389 361.097 649.389 360.634 649.389 360.188 649.015 359.715 648.268 359.217 647.521 358.718 646.518 358.143 645.261 357.491 644.003 356.839 642.637 356.097 641.163 355.265 639.688 354.432 638.288 353.427 636.963 352.249 635.639 351.072 634.531 349.667 633.641 348.035 632.751 346.402 632.305 344.461 632.305 342.21 632.305 339.835 632.785 337.675 633.745 335.732 634.704 333.788 635.998 332.125 637.626 330.743 639.255 329.361 641.108 328.304 643.187 327.57 645.265 326.837 647.426 326.47 649.669 326.47Z" fill="#5B9BD5" fill-rule="evenodd"/><path d="M750.273 360.59 748.21 360.973 746.405 361.962 745.167 363.201 744.82 364.289 745.2 365.239 745.665 365.577 746.519 365.677 748.241 365.333 749.923 364.405 751.167 363.161 751.566 362.014 751.15 361.045ZM750.26 359.575C750.369 359.555 750.482 359.572 750.581 359.623L751.77 360.239C751.872 360.293 751.953 360.38 751.999 360.486L752.562 361.799C752.611 361.913 752.615 362.042 752.574 362.16L752.074 363.597C752.049 363.669 752.009 363.733 751.956 363.787L750.581 365.162C750.547 365.195 750.51 365.223 750.469 365.246L748.656 366.246C748.611 366.271 748.563 366.288 748.513 366.298L746.638 366.673C746.586 366.684 746.533 366.686 746.481 366.68L745.419 366.555C745.333 366.545 745.252 366.513 745.183 366.463L744.495 365.963C744.419 365.907 744.36 365.831 744.325 365.744L743.825 364.494C743.782 364.386 743.778 364.267 743.813 364.157L744.25 362.782C744.275 362.705 744.317 362.636 744.373 362.58L745.748 361.205C745.782 361.171 745.82 361.143 745.862 361.12L747.799 360.057C747.846 360.032 747.896 360.014 747.948 360.004ZM641.672 356.143 643.219 358.74 645.214 361.333 646.134 362.091 647.167 362.288 648.517 361.688 648.882 360.683 648.739 360.29 647.998 359.655 645.038 357.928ZM650.08 341.929 650.063 341.942 649.889 342.289 650.105 342.979 650.918 343.792 653.873 345.701 655.224 346.417 655.013 346.181 654.434 344.736 652.593 343.191 651.496 342.384ZM748.634 339.125 747.156 339.467 745.786 340.21 744.857 341.193 744.572 342.094 744.776 342.571 745.938 342.861 747.382 342.639 748.671 341.966 749.524 341.06 749.765 340.096 749.478 339.4ZM748.544 338.119C748.633 338.099 748.725 338.103 748.812 338.131L750.007 338.52C750.146 338.566 750.259 338.67 750.314 338.805L750.752 339.868C750.792 339.967 750.8 340.076 750.775 340.179L750.462 341.429C750.441 341.512 750.4 341.589 750.341 341.651L749.341 342.713C749.303 342.754 749.258 342.788 749.208 342.814L747.771 343.564C747.722 343.589 747.67 343.607 747.615 343.615L745.99 343.865C745.925 343.875 745.858 343.872 745.793 343.856L744.293 343.481C744.142 343.443 744.016 343.336 743.955 343.193L743.58 342.318C743.533 342.208 743.527 342.084 743.563 341.97L743.938 340.783C743.96 340.711 743.999 340.645 744.051 340.59L745.114 339.465C745.15 339.426 745.192 339.394 745.239 339.368L746.739 338.556C746.778 338.535 746.82 338.519 746.864 338.509ZM608.906 327.958 605.319 328.057 602.234 328.241 599.572 328.611 597.359 329.042 595.684 329.638 594.366 330.238 593.545 330.894 593.131 331.567 592.841 332.725 592.47 334.455 592.097 336.627 591.725 339.293 591.413 342.529 591.164 346.26 591.039 350.565 590.977 355.414 591.225 362.077 591.72 367.787 592.465 372.2 592.831 373.852 593.182 375.022 594.186 376.416 596.148 377.397 597.664 377.75 599.627 377.996 602.112 378.121 605.127 378.185 611.761 377.691 617.472 376.638 622.047 375.404 623.658 374.785 624.777 374.314 626.131 373.185 626.932 371.412 627.353 368.843 627.538 365.443 627.296 362.903 626.711 360.914 625.795 359.729 624.709 359.334 622.972 359.836 619.733 361.103 615.358 362.291C615.33 362.298 615.302 362.303 615.273 362.306L609.835 362.806C609.812 362.808 609.788 362.809 609.765 362.808L608.515 362.745C608.453 362.742 608.393 362.728 608.336 362.703L607.774 362.453C607.633 362.39 607.529 362.266 607.492 362.117L607.242 361.117C607.223 361.04 607.222 360.959 607.24 360.881L607.49 359.819C607.512 359.728 607.558 359.645 607.623 359.58L608.311 358.892C608.368 358.835 608.437 358.793 608.514 358.769L609.701 358.394C609.74 358.382 609.78 358.374 609.82 358.372L611.812 358.246 614.577 358.372 616.974 358.552 618.346 358.077 619.329 356.657 619.982 354.224 620.225 350.936 619.986 348.186 619.267 346.582 618.16 345.844 616.642 345.563 614.814 345.738 612.677 346.115 610.593 346.43 608.843 346.618C608.755 346.627 608.667 346.613 608.586 346.578L607.461 346.078C607.314 346.012 607.208 345.88 607.175 345.723L606.862 344.223C606.846 344.143 606.849 344.061 606.871 343.983L607.121 343.108C607.151 343.003 607.215 342.911 607.302 342.846L608.052 342.283C608.114 342.237 608.186 342.205 608.263 342.191L609.697 341.934 611.814 341.809 614.325 341.934 616.954 342.122 619.326 342.31 620.942 342.429 622.197 342.156 623.15 341.415 623.806 340.213 624.037 338.485 623.735 335.103 623.083 333.267 621.891 331.181 620.147 329.495 617.367 328.549 613.648 328.12ZM750.973 327.537 747.322 327.799 743.483 328.542 739.992 329.767 736.821 331.474 734.212 333.659 732.098 336.316 730.776 339.441 730.293 343.002 730.529 345.128 731.169 346.814 733.219 349.527 735.027 351.096 735.777 351.658C735.903 351.753 735.977 351.901 735.977 352.058 735.977 352.216 735.903 352.364 735.777 352.458L735.489 352.671 734.711 353.148 733.554 354.001 732.232 355.321 730.761 357.037 729.497 359.204 728.594 361.851 728.292 365.115 728.592 367.757 729.49 370.271 730.992 372.553 732.979 374.54 735.457 376.112 738.441 377.33 741.924 378.124 745.813 378.372 750.583 378 754.941 376.896 758.929 375.178 762.356 372.975 765.225 370.289 767.413 367.25 768.801 363.929 769.224 360.431 768.863 357.185 767.792 354.627 766.239 352.656 764.578 351.227 763.003 350.193 761.674 349.528 760.849 349.308 760.789 349.308C760.574 349.308 760.383 349.17 760.315 348.966 760.247 348.762 760.317 348.537 760.49 348.408L760.958 348.057 762.698 346.257 764.574 342.928 765.169 340.785 765.35 338.253 765.11 335.853 764.4 333.782 763.219 332.009 761.568 330.477 756.96 328.294ZM705.45 327.537 701.644 327.925 698.109 329.083 694.954 330.716 692.176 332.691 689.92 334.948 688.221 337.253 687.144 339.526 686.798 341.374 687.018 342.641 687.694 343.881 689.974 346.161 692.702 347.797 693.974 348.318 695.041 348.425 695.87 348.132 696.757 347.078 698.588 344.056 700.713 341.431C700.74 341.398 700.771 341.368 700.805 341.343L701.993 340.468C702.048 340.427 702.112 340.398 702.179 340.383L703.554 340.071C703.634 340.052 703.717 340.054 703.796 340.076L705.171 340.451C705.316 340.49 705.435 340.593 705.496 340.73L705.996 341.855C706.038 341.95 706.05 342.055 706.03 342.156L705.78 343.406C705.767 343.468 705.743 343.528 705.709 343.581L704.896 344.831C704.875 344.864 704.849 344.894 704.821 344.921L702.417 347.197 699.83 349.291 698.995 350.293 698.735 351.278 699.148 354.464 700.303 356.6 701.935 357.838 703.829 358.194 706.517 358.756C706.612 358.776 706.699 358.823 706.768 358.892L707.643 359.767C707.711 359.835 707.758 359.921 707.778 360.014L708.091 361.452C708.104 361.515 708.106 361.58 708.095 361.644L707.845 363.081C707.833 363.148 707.808 363.211 707.772 363.267L707.084 364.33C707.046 364.389 706.995 364.44 706.936 364.478L705.874 365.165C705.818 365.201 705.756 365.226 705.691 365.238L704.316 365.488C704.239 365.502 704.159 365.497 704.083 365.475L701.583 364.725C701.504 364.701 701.432 364.658 701.373 364.599L699.436 362.662C699.4 362.626 699.37 362.585 699.347 362.541L698.034 360.041C698.01 359.994 697.993 359.944 697.984 359.892L697.554 357.376 697.009 355.902 696.374 355.54 695.225 355.375 693.977 355.546 692.446 356.134 689.281 358.021 686.622 360.56 685.883 361.81 685.61 362.959 685.902 365.178 686.92 367.634 688.621 370.185 690.812 372.559 693.617 374.633 696.917 376.343 700.698 377.502 704.977 377.869 708.452 377.564 711.874 376.647 715.107 375.244 717.91 373.294 720.41 370.917 722.345 368.195 723.551 365.06 723.974 361.737 723.673 358.542 722.777 356.034 721.457 354.055 720.088 352.562 718.748 351.405 717.642 350.762 716.93 350.433 716.789 350.433C716.592 350.433 716.412 350.316 716.332 350.135 716.252 349.954 716.286 349.743 716.42 349.597L717.013 348.948 718.423 347.047 719.932 343.969 720.597 339.678 720.302 337.494 719.466 335.285 718.144 333.242 716.395 331.373 714.223 329.804 711.619 328.593 708.641 327.803ZM574.818 327.326 571.455 327.737 568.43 328.644 566.25 329.94 565.684 330.661 565.485 331.408 565.656 332.889 566.257 334.757 568.078 339.592 569.84 345.075 570.465 347.887C570.47 347.911 570.474 347.936 570.476 347.961L570.664 350.683 570.664 351.308 570.664 351.621C570.664 351.845 570.515 352.043 570.298 352.103 570.081 352.163 569.851 352.071 569.736 351.878L569.347 351.228 568.028 348.716 566.145 344.887 564.336 340.831 562.717 337.344 561.967 335.844 561.486 334.881 559.242 331.789 556.676 329.879 553.993 328.925 551.465 328.684 548.895 328.806 546.039 329.054 543.602 329.355 541.977 329.776 540.969 330.336 540.154 331.151 539.027 333.998 538.849 335.299 538.663 337.037 538.475 339.293 538.226 341.901 538.039 344.942 537.977 348.449 537.852 352.308 537.852 356.608 537.976 361.52 538.348 366.374 538.844 370.534 539.397 373.663 540.39 375.942 542.102 377.425 544.696 378.251 548.279 378.494 552.182 378.067 555.434 376.983 557.739 375.328 558.326 374.474 558.526 373.675 557.942 370.97 556.491 366.738 555.171 361.262 554.665 358.076 554.54 354.479 554.604 352.571 554.667 351.946C554.686 351.754 554.814 351.59 554.996 351.525 555.178 351.46 555.381 351.505 555.518 351.642L555.768 351.892C555.798 351.922 555.825 351.957 555.846 351.994L556.293 352.76 557.802 355.59 558.739 357.527 559.878 359.871 561.699 364.393 562.997 368.107 563.689 369.68 564.11 370.705 565.466 373.36 566.807 375.555 568.226 376.917 570.085 377.367 573.068 377.192 576.2 376.579 579.134 375.261 581.865 372.721 582.532 372.22 583.202 371.046 583.802 369.072 584.42 366.361 584.917 362.948 585.29 359.037 585.477 354.677 585.539 349.746 585.54 347.946 585.478 345.582 585.228 340.341 584.916 335.653 584.794 333.751 584.616 332.447 583.634 330.251 581.553 328.632 578.564 327.676ZM788.793 327.117 786.324 327.587 784.491 329.134 782.746 332.137 781.685 334.51 780.305 337.645 778.912 340.617 777.589 342.948 775.39 346.465 773.815 348.766 773.306 350.803 773.679 352.187 774.735 353.355 778.076 355.361 781.234 356.942 782.172 357.504C782.207 357.525 782.239 357.551 782.268 357.58L782.581 357.892C782.691 358.003 782.744 358.159 782.722 358.314L782.462 360.179 781.708 363.195 780.709 366.69 779.837 369.867 779.088 372.861 778.784 374.129 778.673 374.91 778.876 375.776 779.37 376.417 781.345 377.463 783.717 378.061 786.039 378.308 787.768 378.309 789.141 378.253 790.525 378.015 792.361 377.483 793.382 376.622 794.373 374.477 795.3 371.394 796.043 367.808 797.103 359.459 797.415 355.23 797.54 351.376 797.477 345.001 797.415 339.447 797.293 335.055 796.928 332.014 795.89 329.88 793.978 328.373 791.483 327.423ZM518.464 327.046 517.33 327.226 516.376 327.756 515.747 328.594 515.398 329.872 515.011 331.35 514.247 333.509 513.11 336.098 511.595 339.062 509.95 341.844 508.48 343.947 507.293 345.322C507.261 345.359 507.224 345.391 507.183 345.417L506.495 345.855C506.35 345.948 506.167 345.959 506.011 345.884 505.855 345.81 505.749 345.66 505.73 345.488L505.668 344.926C505.663 344.889 505.663 344.852 505.668 344.815L506.105 340.878C506.108 340.85 506.114 340.823 506.121 340.796L507.128 337.275 508.115 334.312 508.531 331.819 508.322 330.825 507.692 329.933 506.621 329.29 504.909 329.062 501.655 329.42 497.781 330.338 494.078 331.757 490.94 333.748 490.286 334.565 489.704 335.963 489.222 338.002 488.85 340.668 488.539 343.896 488.352 347.511 488.227 351.628 488.164 356.111 488.288 362.388 488.719 367.22 489.337 370.687 489.888 372.891 491.018 375.33 492.631 376.943 495.032 377.88 498.153 378.183 500.794 378.124 502.862 377.884 505.97 377.153 507.576 376.156 508.018 375.074 507.683 373.51 506.808 371.13 505.933 368.005C505.925 367.978 505.92 367.95 505.917 367.921L505.542 364.234C505.538 364.193 505.539 364.153 505.545 364.112L505.67 363.237C505.68 363.164 505.707 363.093 505.748 363.031L506.123 362.468C506.189 362.371 506.286 362.299 506.398 362.266L507.461 361.953C507.603 361.912 507.756 361.935 507.879 362.017L509.004 362.767C509.069 362.81 509.123 362.868 509.161 362.935L510.44 365.182 511.698 368.266 513.047 372.081 514.449 374.823 515.953 376.327 517.614 377.072 519.43 377.306 521.129 377.193 523.264 376.769 527.954 375.288 531.95 372.806 533.14 371.275 533.529 369.608 533.312 368.414 532.635 367.173 531.681 366.219 530.378 365.568C530.355 365.556 530.333 365.543 530.311 365.528L528.999 364.59C528.948 364.553 528.904 364.507 528.869 364.454L527.594 362.473 526.238 359.82 524.576 357.111 522.466 354.819 520.97 353.862 519.784 353.15 519.106 352.981C518.922 352.935 518.781 352.79 518.739 352.605 518.698 352.421 518.764 352.229 518.91 352.109L522.002 349.576 524.969 346.675 527.205 344.004 529.238 341.36 530.76 338.863 531.278 336.794 530.939 335.046 529.953 333.305 526.68 330.154 522.476 327.899 520.375 327.299ZM649.676 326.972 646.503 327.302 643.392 328.095 640.536 329.371 637.992 331.127 635.874 333.366 634.243 335.963 633.218 338.919 632.855 342.248 633.156 345.257 634.106 347.812 637.327 351.944 641.399 354.866 645.541 357.064 648.541 358.814C648.567 358.829 648.592 358.846 648.615 358.866L649.49 359.616C649.555 359.672 649.605 359.744 649.634 359.825L649.884 360.512C649.925 360.623 649.925 360.744 649.884 360.854L649.384 362.229C649.338 362.357 649.242 362.46 649.118 362.515L647.43 363.265C647.337 363.306 647.234 363.318 647.133 363.299L645.821 363.049C645.739 363.034 645.661 362.997 645.597 362.944L644.534 362.069C644.505 362.045 644.478 362.018 644.455 361.988L642.36 359.252 640.642 356.368 639.841 355.567 638.948 355.319 637.93 355.48 636.602 356.057 633.701 358.173 631.282 361.196 630.526 362.883 630.295 364.672 630.706 367.017 631.954 369.335 633.888 371.572 636.358 373.566 639.263 375.297 642.538 376.636 646.185 377.563 649.855 377.869 653.279 377.625 656.518 376.891 659.502 375.734 662.107 374.098 664.344 371.982 666.032 369.511 667.175 366.564 667.537 363.244 667.173 359.733 666.086 356.713 664.575 354.235 662.647 352.126 657.878 348.88 655.367 347.625 653.331 346.541 650.331 344.603C650.301 344.584 650.273 344.562 650.248 344.537L649.311 343.599C649.254 343.542 649.211 343.472 649.187 343.395L648.875 342.395C648.836 342.271 648.847 342.138 648.905 342.022L649.217 341.397C649.25 341.332 649.296 341.275 649.352 341.23L649.665 340.98C649.796 340.875 649.97 340.843 650.13 340.895L651.88 341.457C651.932 341.474 651.98 341.499 652.024 341.531L653.236 342.425 655.173 344.05C655.237 344.103 655.286 344.171 655.316 344.247L655.873 345.64 656.571 346.012 657.789 346.179 659.036 346.009 660.488 345.428 663.26 343.5 665.492 340.784 666.183 339.403 666.408 337.995 666.12 336.147 665.177 334.203 663.678 332.343 661.744 330.651 659.315 329.194 656.481 328.043 653.272 327.241ZM608.878 326.959 613.681 327.121 617.534 327.561C617.569 327.565 617.604 327.573 617.638 327.585L620.576 328.585C620.645 328.609 620.709 328.647 620.762 328.699L622.637 330.511C622.671 330.544 622.7 330.582 622.724 330.623L623.974 332.81C623.988 332.836 624.001 332.863 624.011 332.891L624.698 334.828C624.712 334.868 624.721 334.909 624.725 334.951L625.038 338.451C625.041 338.488 625.04 338.525 625.035 338.562L624.785 340.437C624.777 340.497 624.758 340.556 624.728 340.61L623.978 341.985C623.946 342.045 623.901 342.098 623.846 342.14L622.721 343.015C622.662 343.061 622.594 343.093 622.521 343.109L621.083 343.422C621.036 343.432 620.988 343.435 620.94 343.432L619.253 343.307 616.875 343.119 614.254 342.932 611.765 342.808 609.757 342.932 608.558 343.154 608.037 343.545 607.867 344.139 608.102 345.268 608.87 345.609 610.486 345.436 612.527 345.126 614.64 344.753 616.616 344.56C616.663 344.556 616.71 344.558 616.756 344.566L618.443 344.879C618.51 344.891 618.573 344.917 618.629 344.955L619.942 345.83C620.02 345.882 620.082 345.955 620.121 346.041L620.933 347.854C620.956 347.905 620.97 347.959 620.975 348.015L621.225 350.89C621.227 350.917 621.228 350.943 621.226 350.97L620.976 354.345C620.973 354.376 620.968 354.407 620.96 354.438L620.272 357C620.258 357.056 620.233 357.108 620.201 357.155L619.076 358.78C619.015 358.868 618.928 358.933 618.828 358.968L617.203 359.531C617.139 359.553 617.07 359.562 617.002 359.557L614.502 359.369 611.767 359.245 609.945 359.366 608.932 359.686 608.431 360.186 608.242 360.992 608.403 361.638 608.657 361.751 609.779 361.807 615.138 361.314 619.471 360.138 622.607 358.905 624.588 358.328C624.69 358.298 624.798 358.302 624.898 358.338L626.273 358.838C626.362 358.871 626.44 358.928 626.498 359.002L627.56 360.377C627.598 360.427 627.627 360.482 627.644 360.542L628.269 362.667C628.278 362.698 628.284 362.729 628.287 362.761L628.537 365.386C628.54 365.411 628.54 365.436 628.539 365.46L628.351 368.898 627.908 371.638C627.901 371.682 627.888 371.724 627.87 371.764L626.995 373.701C626.964 373.77 626.918 373.831 626.86 373.88L625.36 375.13C625.322 375.161 625.279 375.187 625.234 375.206L624.046 375.706 622.406 376.337 617.732 377.603 611.943 378.675 605.202 379.182 602.092 379.121 599.577 378.995 597.54 378.742 595.865 378.358C595.826 378.349 595.789 378.336 595.753 378.318L593.628 377.255C593.556 377.219 593.494 377.166 593.446 377.1L592.321 375.538C592.289 375.493 592.264 375.443 592.248 375.389L591.873 374.139 591.489 372.417 590.734 367.954 590.229 362.164 589.977 355.452 590.04 350.552 590.165 346.231 590.416 342.462 590.729 339.198 591.107 336.489 591.484 334.286 591.863 332.516 592.179 331.249C592.192 331.2 592.212 331.152 592.239 331.109L592.739 330.296C592.769 330.247 592.807 330.204 592.852 330.168L593.79 329.418C593.822 329.392 593.857 329.37 593.895 329.353L595.27 328.728 597.059 328.087C597.083 328.079 597.107 328.072 597.132 328.067L599.382 327.63 602.095 327.25 605.26 327.059ZM705.486 326.537 708.768 326.81C708.798 326.812 708.827 326.817 708.855 326.825L711.918 327.637C711.946 327.645 711.974 327.655 712 327.667L714.688 328.917C714.717 328.931 714.744 328.947 714.77 328.965L717.02 330.59C717.046 330.609 717.07 330.631 717.092 330.654L718.905 332.592C718.925 332.613 718.943 332.637 718.959 332.662L720.334 334.787C720.354 334.816 720.37 334.848 720.382 334.881L721.257 337.194C721.271 337.229 721.28 337.266 721.285 337.304L721.598 339.616C721.604 339.664 721.603 339.712 721.596 339.76L720.909 344.197C720.901 344.247 720.886 344.295 720.863 344.341L719.301 347.528C719.288 347.556 719.272 347.582 719.254 347.606L717.816 349.544 717.69 349.683 718.062 349.854 719.29 350.563C719.317 350.579 719.343 350.597 719.366 350.617L720.741 351.805 722.22 353.407C722.238 353.426 722.254 353.447 722.268 353.468L723.643 355.531C723.666 355.565 723.684 355.601 723.698 355.64L724.635 358.265C724.649 358.304 724.658 358.345 724.662 358.386L724.975 361.699C724.978 361.735 724.978 361.772 724.973 361.809L724.536 365.246C724.53 365.286 724.521 365.325 724.506 365.363L723.256 368.613C723.241 368.652 723.221 368.689 723.197 368.723L721.197 371.535C721.178 371.562 721.157 371.586 721.134 371.608L718.572 374.045C718.553 374.063 718.533 374.079 718.513 374.094L715.638 376.094C715.61 376.112 715.581 376.129 715.551 376.142L712.239 377.579C712.216 377.589 712.193 377.597 712.169 377.604L708.669 378.541C708.641 378.549 708.612 378.554 708.583 378.556L705.021 378.869C704.992 378.871 704.963 378.871 704.934 378.869L700.559 378.494C700.524 378.491 700.489 378.484 700.456 378.474L696.581 377.286C696.552 377.277 696.524 377.266 696.497 377.252L693.122 375.502C693.098 375.49 693.076 375.476 693.055 375.46L690.18 373.335C690.154 373.316 690.131 373.295 690.11 373.272L687.86 370.835C687.842 370.815 687.826 370.795 687.811 370.773L686.061 368.148C686.043 368.121 686.028 368.092 686.015 368.062L684.953 365.5C684.936 365.459 684.924 365.417 684.919 365.373L684.606 362.998C684.598 362.938 684.602 362.877 684.616 362.817L684.928 361.505C684.94 361.456 684.959 361.409 684.984 361.366L685.797 359.991C685.82 359.952 685.849 359.916 685.882 359.884L688.632 357.259C688.659 357.233 688.689 357.21 688.721 357.191L691.971 355.254C691.995 355.239 692.021 355.227 692.047 355.216L693.672 354.591C693.709 354.578 693.746 354.568 693.784 354.563L695.159 354.375C695.205 354.369 695.252 354.369 695.298 354.376L696.61 354.563C696.673 354.572 696.733 354.593 696.788 354.624L697.663 355.124C697.764 355.182 697.843 355.274 697.883 355.384L698.508 357.072C698.519 357.101 698.527 357.131 698.532 357.161L698.957 359.646 700.197 362.008 701.991 363.803 704.256 364.482 705.414 364.272 706.303 363.697 706.877 362.81 707.093 361.569 706.832 360.37 706.166 359.705 703.625 359.173 701.635 358.8C701.559 358.785 701.487 358.753 701.425 358.706L699.612 357.331C699.555 357.288 699.509 357.234 699.475 357.171L698.225 354.858C698.195 354.805 698.177 354.746 698.169 354.685L697.731 351.31C697.723 351.246 697.727 351.181 697.743 351.118L698.056 349.931C698.075 349.86 698.109 349.794 698.155 349.738L699.093 348.613C699.114 348.588 699.137 348.565 699.162 348.545L701.787 346.42 704.09 344.236 704.818 343.116 705.018 342.116 704.679 341.353 703.653 341.073 702.502 341.335 701.45 342.11 699.366 344.685 697.592 347.629C697.579 347.652 697.564 347.673 697.547 347.693L696.547 348.88C696.49 348.948 696.415 349 696.331 349.03L695.268 349.405C695.199 349.429 695.125 349.438 695.052 349.431L693.802 349.306C693.754 349.301 693.707 349.289 693.663 349.271L692.288 348.708C692.264 348.699 692.241 348.687 692.22 348.674L689.407 346.987C689.372 346.966 689.34 346.941 689.311 346.912L686.936 344.537C686.902 344.503 686.873 344.465 686.851 344.423L686.101 343.048C686.074 343 686.056 342.948 686.047 342.894L685.797 341.456C685.787 341.397 685.787 341.337 685.798 341.279L686.173 339.279C686.181 339.236 686.194 339.195 686.213 339.157L687.338 336.782C687.351 336.753 687.368 336.725 687.387 336.699L689.137 334.324C689.152 334.304 689.168 334.285 689.186 334.267L691.498 331.955C691.518 331.935 691.54 331.917 691.562 331.901L694.375 329.901 697.684 328.177C697.708 328.164 697.733 328.154 697.759 328.145L701.384 326.958C701.418 326.947 701.453 326.939 701.489 326.936L705.394 326.538C705.425 326.534 705.456 326.534 705.486 326.537ZM750.95 326.536C750.983 326.534 751.017 326.535 751.049 326.539L757.165 327.312C757.217 327.319 757.268 327.334 757.316 327.356L762.066 329.606C762.112 329.628 762.155 329.657 762.192 329.692L763.942 331.317C763.971 331.343 763.996 331.373 764.018 331.406L765.268 333.281C765.292 333.317 765.311 333.355 765.325 333.396L766.075 335.583C766.087 335.62 766.096 335.658 766.099 335.696L766.349 338.196C766.352 338.224 766.353 338.253 766.351 338.281L766.163 340.906C766.161 340.939 766.155 340.972 766.146 341.004L765.521 343.254C765.51 343.293 765.495 343.331 765.475 343.366L763.538 346.804C763.517 346.841 763.491 346.875 763.461 346.906L761.875 348.547 761.981 348.575C762.014 348.584 762.045 348.596 762.076 348.611L763.451 349.298 765.126 350.39 766.927 351.929C766.952 351.95 766.975 351.973 766.995 351.999L768.62 354.061C768.648 354.097 768.671 354.136 768.688 354.178L769.813 356.865C769.832 356.909 769.844 356.956 769.849 357.003L770.224 360.378C770.228 360.416 770.228 360.455 770.223 360.493L769.786 364.118C769.78 364.164 769.769 364.209 769.751 364.251L768.313 367.689C768.299 367.724 768.28 367.757 768.258 367.788L766.008 370.913C765.989 370.939 765.967 370.964 765.944 370.986L763.006 373.736C762.984 373.756 762.96 373.775 762.935 373.791L759.435 376.041C759.412 376.056 759.388 376.069 759.362 376.08L755.3 377.83C755.276 377.84 755.25 377.849 755.225 377.855L750.787 378.98C750.76 378.987 750.732 378.992 750.703 378.994L745.891 379.369 741.821 379.12C741.794 379.118 741.767 379.114 741.741 379.108L738.178 378.296C738.152 378.29 738.126 378.281 738.101 378.271L735.038 377.021C735.011 377.01 734.984 376.996 734.959 376.98L732.397 375.355C732.366 375.336 732.337 375.313 732.311 375.287L730.248 373.224C730.224 373.2 730.203 373.174 730.184 373.145L728.622 370.77C728.6 370.737 728.582 370.701 728.569 370.664L727.631 368.039C727.618 368.003 727.61 367.965 727.605 367.927L727.293 365.177C727.289 365.143 727.288 365.109 727.292 365.075L727.604 361.7C727.608 361.66 727.616 361.622 727.629 361.584L728.566 358.834C728.577 358.803 728.591 358.772 728.608 358.744L729.92 356.494C729.935 356.468 729.953 356.443 729.972 356.42L731.472 354.67 732.873 353.267C732.891 353.249 732.91 353.233 732.93 353.218L734.118 352.343 734.615 352.036 734.427 351.896 732.525 350.249C732.498 350.226 732.474 350.2 732.453 350.172L730.328 347.36C730.299 347.322 730.276 347.28 730.26 347.235L729.572 345.423C729.557 345.384 729.547 345.343 729.543 345.301L729.293 343.051C729.288 343.01 729.289 342.969 729.294 342.928L729.794 339.241C729.8 339.197 729.812 339.154 729.829 339.113L731.204 335.863C731.222 335.822 731.245 335.782 731.273 335.747L733.461 332.997C733.482 332.971 733.505 332.946 733.531 332.925L736.219 330.675C736.245 330.653 736.273 330.634 736.302 330.618L739.552 328.868C739.575 328.856 739.599 328.845 739.624 328.836L743.186 327.586C743.209 327.578 743.233 327.572 743.257 327.567L747.132 326.817ZM574.858 326.325 578.711 326.685C578.747 326.689 578.782 326.696 578.817 326.707L581.942 327.707C581.998 327.725 582.05 327.752 582.096 327.788L584.346 329.538C584.411 329.589 584.462 329.654 584.496 329.729L585.558 332.104C585.578 332.147 585.591 332.193 585.597 332.241L585.785 333.616 585.913 335.588 586.226 340.275 586.476 345.534 586.539 347.92 586.539 349.746 586.477 354.689 586.289 359.08 585.912 363.043 585.409 366.505 584.777 369.294 584.143 371.391C584.132 371.427 584.117 371.461 584.099 371.494L583.349 372.806C583.315 372.865 583.269 372.917 583.214 372.958L582.464 373.521 579.755 376.049C579.715 376.086 579.669 376.117 579.619 376.139L576.557 377.514C576.522 377.53 576.486 377.541 576.448 377.549L573.261 378.174 570.069 378.37C570.02 378.373 569.97 378.368 569.922 378.357L567.859 377.857C567.773 377.836 567.694 377.793 567.631 377.731L566.068 376.231C566.037 376.202 566.01 376.168 565.988 376.131L564.613 373.881 563.219 371.161 562.765 370.061 562.082 368.51 560.755 364.723 558.951 360.245 557.84 357.964 556.902 356.026 555.571 353.532 555.539 354.512 555.664 358.041 556.158 361.104 557.463 366.503 558.887 370.646 559.528 373.577C559.544 373.652 559.543 373.73 559.525 373.804L559.275 374.804C559.26 374.862 559.235 374.917 559.202 374.966L558.514 375.966C558.481 376.014 558.441 376.056 558.394 376.089L555.956 377.839C555.915 377.869 555.87 377.892 555.823 377.908L552.448 379.033C552.414 379.044 552.379 379.051 552.344 379.055L548.344 379.493C548.315 379.496 548.285 379.496 548.256 379.495L544.568 379.245C544.528 379.242 544.489 379.234 544.45 379.222L541.7 378.347C541.636 378.327 541.576 378.293 541.525 378.249L539.65 376.624C539.593 376.575 539.548 376.514 539.519 376.445L538.456 374.008C538.44 373.972 538.429 373.934 538.422 373.895L537.86 370.708 537.356 366.492 536.978 361.596 536.852 356.633 536.852 352.308 536.977 348.417 537.04 344.924 537.228 341.84 537.479 339.198 537.666 336.954 537.855 335.192 538.044 333.803C538.05 333.763 538.06 333.724 538.075 333.687L539.262 330.687C539.287 330.623 539.325 330.565 539.373 330.517L540.311 329.58C540.344 329.547 540.381 329.519 540.422 329.496L541.547 328.871C541.584 328.851 541.623 328.835 541.664 328.824L543.352 328.387 545.915 328.062 548.809 327.81 551.453 327.684C551.477 327.683 551.501 327.683 551.524 327.685L554.149 327.935C554.19 327.939 554.231 327.948 554.27 327.962L557.082 328.962C557.129 328.979 557.173 329.002 557.213 329.032L559.901 331.032C559.941 331.062 559.977 331.099 560.007 331.14L562.319 334.327C562.335 334.349 562.349 334.373 562.362 334.397L562.862 335.397 563.612 336.897 565.243 340.41 567.059 344.479 568.926 348.275 569.583 349.527 569.481 348.068 568.864 345.292 567.126 339.899 565.322 335.109 564.689 333.149C564.679 333.118 564.672 333.086 564.668 333.053L564.48 331.428C564.473 331.366 564.478 331.302 564.494 331.242L564.744 330.304C564.761 330.239 564.792 330.178 564.834 330.124L565.521 329.249C565.559 329.201 565.606 329.16 565.659 329.128L567.971 327.753C568.007 327.732 568.044 327.716 568.083 327.704L571.208 326.767C571.235 326.759 571.263 326.753 571.291 326.749L574.75 326.327C574.786 326.322 574.822 326.322 574.858 326.325ZM788.831 326.115 791.659 326.436C791.7 326.441 791.741 326.451 791.78 326.466L794.405 327.466C794.452 327.484 794.497 327.509 794.536 327.54L796.599 329.165C796.658 329.212 796.706 329.272 796.739 329.339L797.864 331.652C797.888 331.702 797.904 331.756 797.911 331.811L798.286 334.936 798.414 339.419 798.477 344.99 798.539 351.366 798.414 355.262 798.101 359.532 797.036 367.934 796.279 371.597 795.331 374.764 794.244 377.142C794.213 377.209 794.168 377.268 794.112 377.316L792.924 378.316C792.871 378.361 792.808 378.394 792.741 378.413L790.804 378.976 789.313 379.238 787.811 379.308 786.039 379.308 783.612 379.055 781.043 378.418C781.004 378.408 780.966 378.394 780.931 378.375L778.806 377.25C778.742 377.217 778.687 377.17 778.643 377.113L778.018 376.301C777.975 376.244 777.944 376.179 777.928 376.11L777.678 375.048C777.664 374.987 777.661 374.924 777.67 374.862L777.795 373.987 778.116 372.63 778.867 369.624 779.745 366.426 780.746 362.921 781.492 359.937 781.698 358.424 781.604 358.33 780.72 357.799 777.628 356.255 774.157 354.174C774.115 354.149 774.077 354.118 774.044 354.081L772.856 352.769C772.803 352.71 772.765 352.64 772.744 352.563L772.307 350.938C772.285 350.856 772.284 350.769 772.304 350.687L772.867 348.437C772.881 348.379 772.906 348.325 772.939 348.276L774.564 345.901 776.74 342.418 778.042 340.124 779.399 337.221 780.769 334.107 781.833 331.729 783.669 328.557C783.698 328.508 783.736 328.463 783.78 328.426L785.78 326.738C785.845 326.683 785.924 326.646 786.008 326.629L788.681 326.12C788.73 326.111 788.781 326.109 788.831 326.115ZM518.523 326.045 520.543 326.312C520.567 326.316 520.591 326.321 520.614 326.327L522.802 326.952C522.836 326.962 522.869 326.976 522.901 326.992L527.213 329.305C527.254 329.327 527.291 329.354 527.324 329.385L530.699 332.635C530.734 332.669 530.763 332.707 530.787 332.749L531.849 334.624C531.876 334.671 531.895 334.722 531.905 334.776L532.28 336.713C532.294 336.785 532.292 336.859 532.275 336.929L531.712 339.179C531.7 339.228 531.68 339.275 531.654 339.318L530.091 341.881 527.999 344.613 525.735 347.317 522.702 350.29 520.277 352.28 521.484 353.004 523.059 354.012C523.095 354.035 523.128 354.063 523.157 354.094L525.345 356.469C525.367 356.493 525.386 356.519 525.403 356.547L527.091 359.297 528.485 362.018 529.658 363.832 530.861 364.691 532.201 365.361C532.249 365.385 532.293 365.417 532.331 365.455L533.393 366.517C533.427 366.551 533.456 366.589 533.478 366.631L534.228 368.006C534.254 368.053 534.272 368.104 534.281 368.156L534.531 369.531C534.544 369.599 534.542 369.668 534.526 369.734L534.089 371.609C534.073 371.68 534.041 371.746 533.997 371.803L532.684 373.49C532.648 373.537 532.604 373.577 532.553 373.608L528.428 376.17C528.393 376.192 528.355 376.21 528.315 376.222L523.565 377.722 521.325 378.173 519.449 378.307C519.416 378.309 519.383 378.308 519.351 378.304L517.413 378.054C517.365 378.048 517.317 378.034 517.272 378.014L515.46 377.202C515.404 377.177 515.354 377.142 515.311 377.099L513.686 375.474C513.649 375.437 513.618 375.395 513.594 375.348L512.157 372.536 510.756 368.6 509.514 365.56 508.352 363.534 507.519 362.979 506.855 363.174 506.643 363.491 506.543 364.193 506.908 367.777 507.771 370.861 508.634 373.198C508.642 373.22 508.648 373.243 508.653 373.266L509.028 375.016C509.049 375.114 509.04 375.217 509.002 375.31L508.44 376.685C508.4 376.782 508.33 376.865 508.241 376.92L506.428 378.045C506.382 378.074 506.332 378.095 506.279 378.107L503.092 378.857 500.91 379.117 498.176 379.183 494.867 378.868C494.821 378.864 494.776 378.853 494.733 378.836L492.17 377.836C492.106 377.811 492.047 377.773 491.998 377.724L490.248 375.974C490.207 375.933 490.173 375.884 490.148 375.831L488.961 373.268C488.948 373.24 488.937 373.21 488.929 373.179L488.367 370.929 487.735 367.396 487.292 362.478 487.165 356.131 487.227 351.614 487.352 347.48 487.54 343.845 487.854 340.573 488.232 337.864 488.74 335.694C488.747 335.667 488.755 335.641 488.765 335.616L489.39 334.116C489.408 334.073 489.432 334.032 489.462 333.996L490.212 333.058C490.246 333.015 490.287 332.978 490.334 332.948L493.584 330.886C493.612 330.868 493.642 330.853 493.673 330.841L497.423 329.404 501.424 328.447 504.859 328.061C504.9 328.057 504.94 328.057 504.981 328.063L506.856 328.313C506.923 328.322 506.988 328.344 507.047 328.379L508.297 329.129C508.356 329.165 508.408 329.213 508.448 329.27L509.198 330.332C509.237 330.388 509.265 330.451 509.279 330.518L509.529 331.705C509.542 331.766 509.543 331.829 509.533 331.89L509.095 334.515C509.091 334.541 509.085 334.566 509.076 334.591L508.076 337.591 507.094 341.03 506.713 344.464 507.724 343.294 509.129 341.272 510.734 338.554 512.219 335.643 513.332 333.107 514.068 331.017 514.431 329.619 514.807 328.239C514.824 328.178 514.852 328.121 514.89 328.071L515.64 327.071C515.682 327.014 515.735 326.968 515.797 326.934L516.922 326.309C516.973 326.28 517.028 326.261 517.086 326.252L518.379 326.047C518.427 326.039 518.476 326.039 518.523 326.045ZM649.706 325.972 653.389 326.247C653.418 326.249 653.446 326.254 653.473 326.261L656.723 327.073 659.727 328.282C659.751 328.292 659.774 328.303 659.797 328.317L662.297 329.817C662.322 329.832 662.346 329.85 662.369 329.869L664.369 331.619C664.391 331.638 664.411 331.659 664.429 331.682L665.991 333.619C666.015 333.649 666.035 333.681 666.052 333.715L667.052 335.777C667.073 335.822 667.088 335.87 667.096 335.918L667.409 337.918C667.417 337.97 667.417 338.023 667.408 338.075L667.158 339.637C667.15 339.687 667.135 339.736 667.112 339.782L666.362 341.282C666.345 341.315 666.325 341.347 666.301 341.376L663.988 344.188C663.959 344.224 663.925 344.255 663.888 344.281L661.013 346.281C660.981 346.303 660.948 346.321 660.913 346.335L659.35 346.96C659.312 346.975 659.273 346.986 659.232 346.991L657.857 347.179C657.812 347.185 657.767 347.185 657.722 347.179L656.347 346.991 656.315 346.981 658.326 347.986 663.258 351.332C663.29 351.354 663.32 351.38 663.346 351.408L665.346 353.596C665.368 353.62 665.387 353.645 665.404 353.673L666.966 356.235C666.984 356.264 666.999 356.295 667.01 356.326L668.135 359.451C668.149 359.489 668.158 359.529 668.162 359.569L668.537 363.194C668.54 363.229 668.54 363.265 668.537 363.3L668.162 366.737C668.157 366.781 668.146 366.823 668.131 366.864L666.943 369.926C666.929 369.962 666.911 369.996 666.89 370.028L665.14 372.59C665.12 372.62 665.097 372.647 665.071 372.671L662.758 374.859C662.734 374.881 662.708 374.902 662.68 374.919L659.993 376.607C659.966 376.624 659.937 376.638 659.908 376.649L656.845 377.837C656.822 377.846 656.799 377.853 656.775 377.858L653.462 378.608C653.438 378.614 653.413 378.618 653.388 378.619L649.888 378.869C649.862 378.871 649.836 378.871 649.81 378.869L646.06 378.556C646.033 378.554 646.006 378.55 645.979 378.543L642.291 377.605 638.851 376.209C638.828 376.199 638.805 376.188 638.784 376.175L635.846 374.425 633.226 372.323C633.203 372.304 633.181 372.283 633.161 372.26L631.161 369.948C631.137 369.92 631.117 369.89 631.099 369.858L629.787 367.42C629.761 367.373 629.744 367.322 629.734 367.269L629.297 364.769C629.288 364.72 629.287 364.669 629.294 364.619L629.544 362.682C629.55 362.633 629.563 362.586 629.583 362.541L630.396 360.729C630.413 360.69 630.435 360.654 630.462 360.621L632.962 357.496C632.989 357.461 633.022 357.43 633.057 357.404L636.057 355.217C636.087 355.195 636.119 355.177 636.153 355.162L637.59 354.537C637.629 354.52 637.67 354.508 637.712 354.502L638.899 354.314 638.925 354.316 636.686 352.715C636.647 352.687 636.612 352.653 636.583 352.616L633.27 348.366C633.239 348.325 633.214 348.28 633.196 348.233L632.196 345.545C632.181 345.505 632.171 345.463 632.167 345.42L631.854 342.295C631.851 342.261 631.851 342.226 631.855 342.191L632.23 338.754C632.234 338.717 632.242 338.68 632.255 338.644L633.317 335.582C633.33 335.546 633.346 335.512 633.366 335.48L635.054 332.792C635.071 332.764 635.091 332.738 635.114 332.715L637.301 330.402C637.325 330.377 637.352 330.354 637.38 330.334L640.005 328.522C640.031 328.504 640.057 328.489 640.086 328.477L643.023 327.164C643.049 327.153 643.076 327.143 643.104 327.136L646.291 326.324C646.315 326.318 646.339 326.313 646.363 326.311L649.617 325.973C649.647 325.97 649.676 325.969 649.706 325.972Z" fill="#5B9BD5" fill-rule="evenodd"/><path d="M748.249 357.965C747.445 357.965 746.673 358.103 745.933 358.377 745.193 358.652 744.531 359.006 743.947 359.439 743.363 359.871 742.916 360.33 742.605 360.815 742.295 361.3 742.14 361.763 742.14 362.204 742.14 362.649 742.309 363.067 742.648 363.457 742.987 363.847 743.584 364.042 744.437 364.042 745.014 364.042 745.633 363.914 746.291 363.659 746.95 363.404 747.556 363.074 748.111 362.669 748.665 362.264 749.11 361.815 749.444 361.323 749.779 360.831 749.946 360.348 749.946 359.874 749.946 359.396 749.773 358.959 749.428 358.561 749.082 358.164 748.689 357.965 748.249 357.965ZM746.555 336.504C745.998 336.504 745.424 336.621 744.832 336.853 744.241 337.086 743.736 337.361 743.317 337.68 742.899 337.999 742.563 338.373 742.309 338.803 742.055 339.232 741.928 339.62 741.928 339.967 741.928 340.347 742.053 340.654 742.302 340.888 742.551 341.123 743.051 341.24 743.802 341.24 744.924 341.24 745.935 340.911 746.834 340.251 747.732 339.592 748.182 338.815 748.182 337.919 748.182 337.484 748.031 337.139 747.729 336.885 747.428 336.631 747.037 336.504 746.555 336.504ZM606.79 325.357C610.211 325.357 613.069 325.544 615.365 325.918 617.662 326.292 619.27 327.235 620.188 328.745 621.221 330.259 621.852 331.639 622.081 332.883 622.309 334.127 622.424 335.288 622.424 336.366 622.424 337.753 622.088 338.841 621.417 339.629 620.745 340.417 619.893 340.811 618.861 340.811 618.434 340.811 617.871 340.775 617.175 340.703 616.478 340.631 615.687 340.558 614.803 340.484 613.918 340.411 613.046 340.341 612.187 340.275 611.328 340.209 610.493 340.176 609.685 340.176 608.035 340.176 606.875 340.302 606.205 340.556 605.534 340.81 605.199 341.295 605.199 342.014 605.199 342.639 605.317 343.125 605.554 343.472 605.791 343.82 606.156 343.993 606.649 343.993 607.176 343.993 607.769 343.936 608.431 343.822 609.092 343.708 609.775 343.592 610.481 343.475 611.187 343.357 611.892 343.238 612.596 343.116 613.299 342.995 613.953 342.934 614.555 342.934 615.802 342.934 616.79 343.328 617.518 344.115 618.247 344.902 618.611 346.461 618.611 348.791 618.611 351.273 618.3 353.246 617.676 354.71 617.052 356.174 616.13 356.906 614.908 356.906 614.05 356.906 613.209 356.859 612.385 356.765 611.562 356.671 610.662 356.624 609.685 356.624 608.174 356.624 607.119 356.796 606.52 357.141 605.922 357.486 605.622 358.067 605.622 358.886 605.622 359.379 605.705 359.714 605.87 359.892 606.036 360.07 606.625 360.159 607.637 360.159 609.675 360.159 611.501 359.989 613.115 359.647 614.73 359.306 616.176 358.911 617.453 358.462 618.729 358.013 619.791 357.607 620.637 357.244 621.483 356.881 622.139 356.7 622.603 356.7 623.618 356.7 624.418 357.314 625.004 358.541 625.59 359.768 625.883 361.365 625.883 363.333 625.883 365.884 625.689 367.92 625.303 369.44 624.916 370.96 624.112 372.013 622.891 372.597 622.303 372.918 621.361 373.298 620.065 373.738 618.769 374.179 617.242 374.601 615.485 375.004 613.729 375.408 611.799 375.763 609.696 376.071 607.594 376.378 605.378 376.531 603.049 376.531 600.793 376.531 598.931 376.471 597.464 376.351 595.997 376.231 594.799 376.032 593.869 375.756 592.938 375.479 592.217 375.128 591.705 374.701 591.193 374.274 590.821 373.742 590.589 373.105 590.348 372.429 590.095 371.452 589.829 370.173 589.564 368.894 589.325 367.409 589.114 365.718 588.902 364.027 588.725 362.122 588.582 360.003 588.439 357.884 588.368 355.653 588.368 353.309 588.368 346.426 588.616 341.034 589.113 337.134 589.609 333.233 590.085 330.6 590.54 329.235 590.934 328.103 592.459 327.173 595.115 326.447 597.772 325.72 601.663 325.357 606.79 325.357ZM748.885 324.933C753.425 324.933 757.036 325.923 759.718 327.904 762.4 329.884 763.742 332.611 763.742 336.084 763.742 338.01 763.457 339.655 762.887 341.018 762.317 342.381 761.669 343.513 760.943 344.414 760.218 345.314 759.62 345.948 759.151 346.315L758.628 346.694 758.76 346.658C758.968 346.69 759.28 346.782 759.697 346.935 760.53 347.239 761.546 347.817 762.745 348.666 763.944 349.515 765.057 350.716 766.084 352.269 767.111 353.822 767.624 355.839 767.624 358.321 767.624 360.787 766.984 363.141 765.703 365.382 764.423 367.623 762.703 369.581 760.542 371.256 758.382 372.931 755.863 374.264 752.985 375.255 750.106 376.247 747.022 376.743 743.731 376.743 740.924 376.743 738.41 376.389 736.189 375.681 733.968 374.974 732.081 374.004 730.528 372.771 728.975 371.538 727.776 370.076 726.93 368.386 726.085 366.695 725.662 364.893 725.662 362.98 725.662 360.555 726.08 358.519 726.917 356.871 727.753 355.223 728.677 353.88 729.69 352.843 730.703 351.805 731.567 351.055 732.283 350.592 732.999 350.128 733.357 349.905 733.357 349.92 733.357 349.929 733.104 349.751 732.6 349.388 732.095 349.024 731.458 348.471 730.69 347.728 729.922 346.984 729.221 346.055 728.588 344.941 727.955 343.827 727.639 342.475 727.639 340.884 727.639 338.246 728.268 335.927 729.527 333.928 730.785 331.929 732.415 330.271 734.416 328.953 736.417 327.635 738.695 326.636 741.248 325.955 743.802 325.274 746.348 324.933 748.885 324.933ZM703.343 324.933C705.626 324.933 707.736 325.293 709.674 326.014 711.612 326.734 713.259 327.686 714.613 328.868 715.968 330.05 717.033 331.405 717.811 332.934 718.588 334.464 718.977 336.008 718.977 337.566 718.977 339.232 718.738 340.705 718.261 341.986 717.784 343.266 717.268 344.328 716.714 345.171 716.161 346.014 715.682 346.658 715.277 347.105 714.873 347.552 714.671 347.784 714.671 347.802 714.671 347.707 715.017 347.823 715.711 348.149 716.404 348.475 717.262 349.099 718.283 350.021 719.305 350.943 720.24 352.166 721.09 353.691 721.94 355.215 722.365 357.182 722.365 359.592 722.365 362.01 721.786 364.241 720.628 366.286 719.47 368.331 717.969 370.091 716.125 371.566 714.281 373.042 712.209 374.191 709.909 375.014 707.609 375.838 705.256 376.249 702.849 376.249 699.779 376.249 697.029 375.727 694.6 374.682 692.171 373.638 690.09 372.335 688.359 370.775 686.628 369.214 685.292 367.532 684.353 365.727 683.414 363.922 682.944 362.277 682.944 360.792 682.944 359.916 683.33 359.016 684.101 358.091 684.872 357.166 685.78 356.305 686.825 355.509 687.87 354.712 688.964 354.053 690.109 353.53 691.253 353.008 692.252 352.747 693.107 352.747 694.127 352.747 694.846 352.973 695.265 353.427 695.683 353.881 695.893 354.453 695.893 355.144 695.893 355.937 696.044 356.787 696.346 357.694 696.648 358.601 697.084 359.437 697.652 360.202 698.22 360.967 698.878 361.599 699.623 362.096 700.369 362.593 701.186 362.842 702.073 362.842 703.11 362.842 703.935 362.546 704.546 361.953 705.158 361.361 705.464 360.526 705.464 359.451 705.464 358.288 705.079 357.515 704.31 357.13 703.541 356.746 702.63 356.553 701.578 356.553 700.901 356.553 700.238 356.418 699.59 356.149 698.942 355.879 698.348 355.433 697.808 354.812 697.268 354.19 696.844 353.418 696.536 352.495 696.229 351.572 696.075 350.455 696.075 349.144 696.075 348.316 696.505 347.54 697.366 346.813 698.227 346.087 699.094 345.366 699.966 344.651 700.837 343.935 701.63 343.188 702.345 342.409 703.059 341.629 703.417 340.792 703.417 339.896 703.417 339.424 703.247 339.058 702.906 338.799 702.566 338.54 702.1 338.411 701.508 338.411 700.593 338.411 699.742 338.803 698.957 339.589 698.171 340.374 697.476 341.253 696.871 342.224 696.266 343.195 695.653 344.202 695.033 345.246 694.413 346.29 693.724 346.811 692.966 346.811 692.189 346.811 691.309 346.585 690.328 346.132 689.346 345.678 688.411 345.107 687.524 344.417 686.637 343.728 685.852 342.936 685.169 342.042 684.486 341.149 684.144 340.221 684.144 339.26 684.144 338.007 684.643 336.546 685.639 334.877 686.635 333.209 687.995 331.646 689.718 330.19 691.441 328.734 693.461 327.494 695.778 326.47 698.094 325.445 700.616 324.933 703.343 324.933ZM572.709 324.721C575.445 324.721 577.759 325.174 579.648 326.08 581.538 326.986 582.644 328.351 582.966 330.174 583.102 330.943 583.218 332.057 583.313 333.516 583.409 334.974 583.504 336.535 583.599 338.199 583.694 339.862 583.767 341.603 583.819 343.42 583.87 345.237 583.895 346.628 583.895 347.591 583.895 354.506 583.522 360.072 582.775 364.289 582.028 368.505 581.107 370.729 580.013 370.96 578.3 373.083 576.37 374.413 574.224 374.95 572.077 375.486 569.972 375.755 567.909 375.755 566.378 375.755 565.163 375.073 564.263 373.711 563.364 372.348 562.453 370.722 561.533 368.832 561.269 368.261 560.897 367.375 560.416 366.174 559.936 364.974 559.496 363.717 559.096 362.405 558.696 361.092 558.09 359.597 557.279 357.92 556.467 356.243 555.781 354.822 555.221 353.657 554.661 352.492 554.169 351.566 553.744 350.878 553.32 350.191 553.076 349.847 553.013 349.847 552.941 349.847 552.905 350.695 552.905 352.391 552.905 354.872 553.11 357.103 553.519 359.083 553.929 361.063 554.379 362.858 554.868 364.465 555.357 366.073 555.823 367.479 556.265 368.683 556.707 369.886 556.928 370.833 556.928 371.522 556.928 372.224 556.611 372.907 555.976 373.57 555.34 374.233 554.53 374.805 553.545 375.285 552.56 375.765 551.432 376.151 550.162 376.444 548.892 376.738 547.56 376.884 546.166 376.884 543.363 376.884 541.206 376.493 539.694 375.712 538.183 374.93 537.215 373.585 536.791 371.676 536.595 370.789 536.405 369.726 536.221 368.485 536.036 367.243 535.872 365.845 535.728 364.29 535.585 362.735 535.465 361.124 535.37 359.457 535.274 357.79 535.227 356.141 535.227 354.509 535.227 348.456 535.357 343.526 535.619 339.718 535.881 335.911 536.146 333.255 536.415 331.75 536.631 330.499 537.024 329.493 537.594 328.732 538.165 327.971 538.861 327.444 539.681 327.152 540.022 327.005 540.571 326.873 541.328 326.755 542.084 326.637 542.917 326.53 543.827 326.434 544.736 326.338 545.699 326.252 546.714 326.176 547.73 326.1 548.606 326.062 549.343 326.062 550.15 326.062 551.029 326.152 551.981 326.332 552.933 326.512 553.864 326.842 554.773 327.322 555.682 327.802 556.577 328.47 557.458 329.325 558.339 330.181 559.12 331.241 559.801 332.507 560.06 332.981 560.469 333.81 561.03 334.992 561.59 336.174 562.133 337.347 562.658 338.512 563.183 339.677 563.795 341.015 564.494 342.526 565.192 344.037 565.807 345.32 566.34 346.375 566.873 347.431 567.315 348.263 567.668 348.87L568.009 349.517 568.041 349.176C568.049 349.017 568.053 348.817 568.053 348.579 568.053 346.823 567.785 344.991 567.25 343.082 566.715 341.173 566.122 339.348 565.472 337.607 564.821 335.866 564.218 334.27 563.663 332.82 563.107 331.37 562.829 330.175 562.829 329.236 562.829 328.602 563.14 328.002 563.763 327.436 564.385 326.87 565.157 326.401 566.079 326.027 567 325.653 568.045 325.342 569.212 325.094 570.38 324.845 571.545 324.721 572.709 324.721ZM786.672 324.51C787.599 324.51 788.535 324.612 789.481 324.816 790.427 325.021 791.3 325.342 792.1 325.781 792.9 326.219 793.59 326.769 794.172 327.43 794.754 328.091 795.128 328.864 795.294 329.751 795.583 331.343 795.754 333.854 795.805 337.286 795.856 340.718 795.882 344.694 795.882 349.215 795.882 351.666 795.749 354.391 795.483 357.39 795.217 360.388 794.861 363.168 794.415 365.728 793.969 368.288 793.405 370.539 792.724 372.481 792.043 374.422 791.288 375.531 790.46 375.807 789.693 376.081 789.048 376.27 788.528 376.375 788.008 376.479 787.534 376.555 787.108 376.602 786.682 376.649 786.208 376.673 785.688 376.673 785.168 376.673 784.578 376.673 783.919 376.673 783.18 376.673 782.377 376.601 781.512 376.456 780.647 376.312 779.821 376.1 779.034 375.821 778.247 375.541 777.547 375.154 776.934 374.658 776.322 374.162 776.015 373.54 776.015 372.793 776.015 372.364 776.158 371.633 776.445 370.602 776.731 369.57 776.991 368.568 777.223 367.595 777.456 366.622 777.752 365.563 778.111 364.419 778.47 363.274 778.797 362.111 779.092 360.93 779.387 359.748 779.631 358.753 779.822 357.945 780.014 357.136 780.11 356.532 780.11 356.133 780.11 355.959 779.68 355.657 778.82 355.227 777.96 354.796 776.929 354.281 775.728 353.68 774.527 353.08 773.381 352.39 772.288 351.61 771.196 350.83 770.65 349.843 770.65 348.65 770.65 347.855 770.85 347.12 771.25 346.445 771.651 345.77 772.174 344.964 772.822 344.029 773.469 343.094 774.212 341.94 775.05 340.566 775.888 339.192 776.769 337.442 777.694 335.315 778.729 332.934 779.544 331.103 780.14 329.824 780.736 328.544 781.343 327.493 781.96 326.669 782.578 325.845 783.251 325.28 783.979 324.972 784.708 324.664 785.605 324.51 786.672 324.51ZM516.356 324.439C517.615 324.439 519.013 324.736 520.549 325.331 522.086 325.926 523.518 326.69 524.846 327.625 526.173 328.559 527.308 329.637 528.248 330.857 529.189 332.078 529.66 333.35 529.66 334.672 529.66 335.333 529.47 336.081 529.09 336.916 528.71 337.752 528.198 338.616 527.554 339.508 526.91 340.4 526.219 341.296 525.481 342.195 524.744 343.094 523.985 343.982 523.206 344.858 521.236 346.976 519.199 348.812 517.094 350.367 517.439 350.338 518.097 350.645 519.07 351.289 519.418 351.403 519.953 351.746 520.674 352.318 521.395 352.89 522.123 353.674 522.858 354.67 523.459 355.548 524.008 356.474 524.508 357.448 525.007 358.422 525.479 359.307 525.923 360.102 526.367 360.897 526.78 361.546 527.162 362.049 527.544 362.551 527.99 362.872 528.501 363.011 529.46 363.299 530.27 363.883 530.93 364.762 531.589 365.641 531.919 366.553 531.919 367.498 531.919 368.833 531.322 370.019 530.128 371.058 528.933 372.096 527.565 372.946 526.024 373.606 524.482 374.267 522.902 374.779 521.284 375.141 519.665 375.503 518.329 375.684 517.274 375.684 515.899 375.684 514.648 375.331 513.521 374.623 512.395 373.916 511.382 372.426 510.483 370.154 509.976 368.677 509.518 367.392 509.109 366.301 508.7 365.21 508.28 364.198 507.848 363.267 507.417 362.335 506.997 361.607 506.588 361.082 506.18 360.557 505.812 360.295 505.484 360.295 505.079 360.295 504.712 360.404 504.384 360.622 504.057 360.841 503.893 361.321 503.893 362.062 503.893 363.402 504.016 364.633 504.263 365.754 504.51 366.875 504.802 367.905 505.139 368.845 505.476 369.784 505.776 370.588 506.04 371.258 506.303 371.928 506.435 372.51 506.435 373.004 506.435 373.451 506.245 373.896 505.865 374.339 505.485 374.782 504.87 375.163 504.021 375.481 503.172 375.799 502.115 376.054 500.851 376.245 499.586 376.436 497.978 376.531 496.025 376.531 493.567 376.531 491.64 376.092 490.245 375.213 488.849 374.335 487.859 372.916 487.274 370.958 486.901 369.88 486.514 367.946 486.112 365.157 485.71 362.367 485.509 358.653 485.509 354.014 485.509 347.657 485.738 342.479 486.196 338.48 486.653 334.48 487.413 332.067 488.474 331.239 489.421 330.434 490.496 329.755 491.7 329.201 492.904 328.647 494.157 328.169 495.46 327.766 496.763 327.364 498.087 327.038 499.431 326.789 500.776 326.54 501.9 326.415 502.802 326.415 504.232 326.415 505.278 326.745 505.938 327.406 506.598 328.066 506.928 328.818 506.928 329.66 506.928 330.418 506.768 331.291 506.447 332.279 506.125 333.268 505.794 334.285 505.454 335.33 505.113 336.375 504.791 337.526 504.488 338.784 504.185 340.042 504.034 341.354 504.034 342.72 504.034 343.098 504.047 343.287 504.072 343.287 504.407 343.287 505.038 342.694 505.965 341.508 506.892 340.322 507.911 338.71 509.023 336.672 510.135 334.587 511.015 332.748 511.66 331.157 512.306 329.565 512.672 328.382 512.758 327.607 512.873 326.572 513.26 325.786 513.918 325.247 514.577 324.708 515.39 324.439 516.356 324.439ZM647.567 324.368C650.07 324.368 652.378 324.712 654.49 325.4 656.603 326.088 658.414 326.988 659.923 328.102 661.433 329.215 662.615 330.451 663.47 331.809 664.326 333.168 664.753 334.522 664.753 335.872 664.753 336.892 664.431 337.919 663.786 338.951 663.141 339.983 662.376 340.904 661.492 341.714 660.608 342.525 659.638 343.201 658.583 343.741 657.527 344.282 656.561 344.552 655.685 344.552 654.585 344.552 653.814 344.318 653.373 343.85 652.932 343.381 652.717 342.862 652.729 342.293 651.182 340.961 650.144 340.122 649.615 339.776 649.086 339.43 648.497 339.258 647.849 339.258 647.81 339.258 647.7 339.342 647.519 339.511 647.337 339.679 647.246 339.878 647.246 340.108 647.246 340.824 647.646 341.48 648.445 342.074 649.245 342.668 650.243 343.302 651.441 343.974 652.64 344.646 654.142 345.428 655.949 346.322 657.755 347.216 659.38 348.311 660.823 349.607 662.266 350.903 663.47 352.492 664.435 354.373 665.4 356.253 665.883 358.511 665.883 361.145 665.883 363.564 665.376 365.713 664.361 367.593 663.347 369.473 661.996 371.058 660.309 372.349 658.621 373.64 656.698 374.612 654.54 375.267 652.382 375.922 650.104 376.249 647.708 376.249 645.171 376.249 642.705 375.838 640.311 375.016 637.916 374.193 635.797 373.139 633.952 371.852 632.107 370.566 630.597 369.111 629.423 367.487 628.249 365.863 627.662 364.22 627.662 362.556 627.662 361.256 628.02 360.006 628.735 358.805 629.451 357.604 630.285 356.564 631.239 355.683 632.193 354.803 633.193 354.082 634.241 353.52 635.288 352.957 636.154 352.676 636.837 352.676 637.678 352.676 638.363 353.095 638.889 353.933 639.415 354.77 640.011 355.739 640.677 356.839 641.342 357.94 642.014 358.85 642.694 359.572 643.375 360.293 644.175 360.654 645.096 360.654 645.887 360.654 646.45 360.416 646.785 359.94 647.12 359.464 647.287 358.995 647.287 358.533 647.287 358.086 646.914 357.613 646.166 357.115 645.419 356.616 644.416 356.041 643.159 355.389 641.901 354.738 640.535 353.995 639.061 353.163 637.586 352.33 636.186 351.325 634.861 350.148 633.537 348.97 632.429 347.565 631.539 345.933 630.649 344.3 630.203 342.359 630.203 340.108 630.203 337.733 630.683 335.573 631.643 333.63 632.602 331.686 633.896 330.023 635.524 328.641 637.153 327.259 639.006 326.202 641.085 325.468 643.163 324.735 645.324 324.368 647.567 324.368Z" stroke="#FFFFFF" stroke-linejoin="round" stroke-miterlimit="10" fill="#262626" fill-rule="evenodd"/><text fill="#000000" fill-opacity="0" font-family="Arial,Arial_MSFontService,sans-serif" font-size="52.5157" x="485.509" y="370.32">KNES 381</text></g></svg>