<svg width="712" height="211" xmlns="http://www.w3.org/2000/svg" xmlns:xlink="http://www.w3.org/1999/xlink" xml:space="preserve" overflow="hidden"><defs><clipPath id="clip0"><rect x="1844" y="1071" width="712" height="211"/></clipPath></defs><g clip-path="url(#clip0)" transform="translate(-1844 -1071)"><path d="M2425.77 1176.84C2424.12 1176.84 2422.53 1177.12 2421.01 1177.69 2419.48 1178.25 2418.13 1178.98 2416.93 1179.86 2415.74 1180.75 2414.83 1181.68 2414.2 1182.66 2413.57 1183.65 2413.25 1184.58 2413.25 1185.46 2413.25 1186.43 2413.6 1187.31 2414.3 1188.12 2415 1188.93 2416.23 1189.33 2417.98 1189.33 2419.14 1189.33 2420.38 1189.07 2421.72 1188.56 2423.05 1188.04 2424.28 1187.37 2425.41 1186.54 2426.54 1185.72 2427.46 1184.79 2428.16 1183.77 2428.85 1182.74 2429.2 1181.72 2429.2 1180.7 2429.2 1179.74 2428.85 1178.85 2428.15 1178.04 2427.45 1177.24 2426.66 1176.84 2425.77 1176.84ZM2422.31 1133C2421.16 1133 2419.98 1133.24 2418.76 1133.72 2417.54 1134.19 2416.5 1134.76 2415.65 1135.41 2414.79 1136.06 2414.11 1136.82 2413.59 1137.7 2413.08 1138.57 2412.82 1139.35 2412.82 1140.04 2412.82 1140.86 2413.08 1141.52 2413.61 1142.01 2414.13 1142.51 2415.16 1142.75 2416.68 1142.75 2418.94 1142.75 2420.99 1142.08 2422.84 1140.73 2424.68 1139.38 2425.6 1137.75 2425.6 1135.85 2425.6 1134.98 2425.29 1134.28 2424.69 1133.77 2424.08 1133.26 2423.29 1133 2422.31 1133ZM2137.7 1110.31C2144.7 1110.31 2150.54 1110.69 2155.24 1111.45 2159.94 1112.22 2163.48 1114.52 2165.85 1118.34 2167.43 1120.66 2168.44 1123.09 2168.91 1125.61 2169.37 1128.13 2169.6 1130.49 2169.6 1132.68 2169.6 1135.54 2168.92 1137.77 2167.55 1139.38 2166.17 1140.99 2164.45 1141.8 2162.36 1141.8 2161.49 1141.8 2160.34 1141.72 2158.91 1141.57 2157.49 1141.43 2155.93 1141.28 2154.24 1141.14 2152.55 1141 2150.77 1140.86 2148.9 1140.71 2147.03 1140.57 2145.27 1140.5 2143.62 1140.5 2140.23 1140.5 2137.85 1140.76 2136.48 1141.28 2135.1 1141.8 2134.41 1142.78 2134.41 1144.22 2134.41 1145.53 2134.66 1146.55 2135.16 1147.28 2135.66 1148.01 2136.41 1148.38 2137.42 1148.38 2138.48 1148.38 2139.69 1148.26 2141.04 1148.03 2142.4 1147.79 2143.8 1147.56 2145.24 1147.32 2146.68 1147.08 2148.12 1146.83 2149.55 1146.58 2150.99 1146.34 2152.32 1146.21 2153.57 1146.21 2156.12 1146.21 2158.13 1147.01 2159.6 1148.6 2161.08 1150.19 2161.81 1153.35 2161.81 1158.06 2161.81 1163.15 2161.18 1167.19 2159.9 1170.18 2158.62 1173.18 2156.75 1174.67 2154.29 1174.67 2152.53 1174.67 2150.81 1174.58 2149.13 1174.39 2147.45 1174.19 2145.61 1174.1 2143.62 1174.1 2140.51 1174.1 2138.35 1174.45 2137.12 1175.16 2135.89 1175.86 2135.28 1177.04 2135.28 1178.68 2135.28 1179.73 2135.46 1180.45 2135.81 1180.83 2136.16 1181.21 2137.37 1181.4 2139.44 1181.4 2143.58 1181.4 2147.3 1181.05 2150.59 1180.36 2153.88 1179.66 2156.83 1178.85 2159.43 1177.94 2162.03 1177.02 2164.2 1176.19 2165.94 1175.45 2167.68 1174.71 2169.03 1174.33 2170.01 1174.33 2172.08 1174.33 2173.71 1175.58 2174.89 1178.06 2176.08 1180.54 2176.67 1183.78 2176.67 1187.77 2176.67 1192.99 2176.27 1197.16 2175.48 1200.27 2174.69 1203.39 2173.04 1205.55 2170.54 1206.74 2169.35 1207.39 2167.43 1208.17 2164.78 1209.07 2162.13 1209.97 2159.02 1210.83 2155.43 1211.65 2151.84 1212.47 2147.91 1213.2 2143.62 1213.82 2139.33 1214.45 2134.81 1214.76 2130.06 1214.76 2125.45 1214.76 2121.65 1214.64 2118.65 1214.39 2115.65 1214.15 2113.2 1213.74 2111.3 1213.18 2109.4 1212.61 2107.92 1211.89 2106.87 1211.02 2105.82 1210.14 2105.05 1209.05 2104.58 1207.74 2104.09 1206.37 2103.57 1204.37 2103.02 1201.75 2102.48 1199.13 2101.99 1196.09 2101.56 1192.64 2101.13 1189.19 2100.77 1185.3 2100.48 1180.96 2100.19 1176.63 2100.04 1172.07 2100.04 1167.29 2100.04 1153.24 2100.55 1142.24 2101.56 1134.29 2102.57 1126.33 2103.53 1120.98 2104.45 1118.24 2105.25 1115.92 2108.37 1114.02 2113.81 1112.54 2119.25 1111.05 2127.22 1110.31 2137.7 1110.31ZM2427.07 1109.44C2436.35 1109.44 2443.72 1111.46 2449.19 1115.49 2454.65 1119.53 2457.38 1125.06 2457.38 1132.11 2457.38 1136.06 2456.8 1139.43 2455.63 1142.22 2454.46 1145.01 2453.14 1147.33 2451.65 1149.17 2450.17 1151.01 2448.95 1152.31 2447.99 1153.05 2447.04 1153.8 2446.56 1154.07 2446.56 1153.88 2446.56 1153.58 2447.42 1153.75 2449.14 1154.38 2450.86 1155.01 2452.94 1156.19 2455.39 1157.92 2457.83 1159.65 2460.1 1162.09 2462.18 1165.25 2464.27 1168.4 2465.31 1172.5 2465.31 1177.53 2465.31 1182.59 2464 1187.41 2461.38 1191.99 2458.76 1196.58 2455.24 1200.58 2450.83 1204 2446.42 1207.42 2441.28 1210.14 2435.41 1212.16 2429.54 1214.19 2423.25 1215.2 2416.54 1215.2 2410.8 1215.2 2405.66 1214.47 2401.12 1213.03 2396.58 1211.58 2392.72 1209.59 2389.55 1207.07 2386.37 1204.56 2383.92 1201.57 2382.19 1198.11 2380.46 1194.65 2379.6 1190.96 2379.6 1187.05 2379.6 1182.13 2380.45 1178 2382.14 1174.66 2383.84 1171.31 2385.72 1168.58 2387.79 1166.47 2389.85 1164.35 2391.62 1162.82 2393.1 1161.86 2394.58 1160.91 2395.31 1160.41 2395.31 1160.37 2395.31 1160.4 2394.8 1160.05 2393.78 1159.31 2392.75 1158.57 2391.45 1157.44 2389.88 1155.92 2388.31 1154.4 2386.87 1152.49 2385.58 1150.22 2384.28 1147.94 2383.63 1145.17 2383.63 1141.91 2383.63 1136.57 2384.91 1131.86 2387.47 1127.8 2390.03 1123.74 2393.36 1120.36 2397.45 1117.66 2401.54 1114.97 2406.2 1112.93 2411.43 1111.53 2416.66 1110.14 2421.87 1109.44 2427.07 1109.44ZM2335.88 1109.44C2340.55 1109.44 2344.86 1110.18 2348.82 1111.65 2352.77 1113.12 2356.13 1115.06 2358.9 1117.47 2361.66 1119.88 2363.83 1122.64 2365.41 1125.74 2366.99 1128.85 2367.77 1131.98 2367.77 1135.13 2367.77 1138.55 2367.29 1141.57 2366.31 1144.19 2365.33 1146.81 2364.28 1148.98 2363.15 1150.71 2362.01 1152.43 2361.03 1153.75 2360.21 1154.66 2359.39 1155.57 2358.98 1156.03 2358.98 1156.04 2358.98 1155.91 2359.69 1156.18 2361.13 1156.85 2362.56 1157.53 2364.32 1158.8 2366.4 1160.68 2368.48 1162.56 2370.38 1165.05 2372.11 1168.15 2373.83 1171.24 2374.7 1175.24 2374.7 1180.13 2374.7 1185.08 2373.51 1189.65 2371.14 1193.84 2368.77 1198.02 2365.71 1201.62 2361.94 1204.63 2358.18 1207.65 2353.95 1209.99 2349.26 1211.67 2344.57 1213.35 2339.77 1214.19 2334.87 1214.19 2328.59 1214.19 2322.97 1213.12 2318 1210.98 2313.04 1208.85 2308.78 1206.19 2305.24 1203 2301.71 1199.81 2298.98 1196.36 2297.05 1192.67 2295.13 1188.98 2294.17 1185.62 2294.17 1182.58 2294.17 1180.84 2294.95 1179.04 2296.51 1177.17 2298.07 1175.29 2299.92 1173.54 2302.06 1171.92 2304.19 1170.29 2306.44 1168.94 2308.79 1167.87 2311.14 1166.79 2313.2 1166.26 2314.97 1166.26 2317.05 1166.26 2318.52 1166.71 2319.36 1167.62 2320.2 1168.53 2320.62 1169.67 2320.62 1171.04 2320.62 1172.68 2320.93 1174.44 2321.55 1176.31 2322.18 1178.18 2323.07 1179.9 2324.24 1181.47 2325.41 1183.04 2326.76 1184.34 2328.28 1185.35 2329.81 1186.37 2331.47 1186.88 2333.28 1186.88 2335.36 1186.88 2337.03 1186.27 2338.29 1185.05 2339.55 1183.83 2340.18 1182.1 2340.18 1179.84 2340.18 1177.48 2339.39 1175.91 2337.83 1175.13 2336.27 1174.34 2334.42 1173.95 2332.27 1173.95 2330.88 1173.95 2329.52 1173.67 2328.18 1173.12 2326.84 1172.56 2325.63 1171.65 2324.53 1170.4 2323.44 1169.14 2322.58 1167.56 2321.95 1165.66 2321.31 1163.76 2321 1161.47 2321 1158.78 2321 1157.16 2321.87 1155.61 2323.62 1154.13 2325.37 1152.66 2327.13 1151.19 2328.91 1149.73 2330.69 1148.27 2332.31 1146.74 2333.78 1145.13 2335.26 1143.52 2335.99 1141.78 2335.99 1139.89 2335.99 1138.94 2335.65 1138.2 2334.96 1137.68 2334.28 1137.15 2333.33 1136.89 2332.13 1136.89 2330.23 1136.89 2328.48 1137.7 2326.87 1139.31 2325.26 1140.92 2323.84 1142.71 2322.6 1144.7 2321.37 1146.68 2320.12 1148.74 2318.86 1150.86 2317.59 1152.99 2316.2 1154.05 2314.68 1154.05 2313.08 1154.05 2311.28 1153.59 2309.27 1152.66 2307.27 1151.73 2305.35 1150.57 2303.54 1149.15 2301.73 1147.74 2300.12 1146.12 2298.72 1144.3 2297.32 1142.47 2296.62 1140.57 2296.62 1138.59 2296.62 1136.08 2297.64 1133.12 2299.66 1129.74 2301.68 1126.35 2304.45 1123.17 2307.97 1120.19 2311.49 1117.22 2315.62 1114.68 2320.37 1112.59 2325.11 1110.49 2330.28 1109.44 2335.88 1109.44ZM2069.35 1109.01C2074.95 1109.01 2079.67 1109.93 2083.52 1111.78 2087.37 1113.62 2089.62 1116.38 2090.27 1120.05 2090.55 1121.63 2090.78 1123.88 2090.97 1126.81 2091.16 1129.73 2091.36 1132.92 2091.56 1136.36 2091.75 1139.8 2091.9 1143.38 2092.01 1147.1 2092.11 1150.82 2092.16 1153.66 2092.16 1155.61 2092.16 1169.75 2091.4 1181.12 2089.87 1189.75 2088.34 1198.37 2086.28 1203.77 2083.69 1205.93 2080.55 1208.58 2076.79 1210.44 2072.42 1211.54 2068.05 1212.63 2063.75 1213.18 2059.55 1213.18 2056.41 1213.18 2053.92 1211.78 2052.07 1208.99 2050.23 1206.21 2048.38 1202.89 2046.51 1199.06 2045.96 1197.86 2045.19 1196.04 2044.21 1193.59 2043.23 1191.13 2042.14 1188.42 2040.93 1185.44 2039.73 1182.47 2038.5 1179.41 2037.22 1176.28 2035.95 1173.15 2034.74 1170.39 2033.6 1168.02 2032.45 1165.64 2031.45 1163.75 2030.59 1162.35 2029.72 1160.95 2029.23 1160.25 2029.12 1160.25 2028.94 1160.25 2028.86 1161.98 2028.86 1165.42 2028.86 1170.5 2029.28 1175.07 2030.12 1179.12 2030.96 1183.18 2031.88 1186.85 2032.88 1190.14 2033.88 1193.42 2034.83 1196.29 2035.73 1198.74 2036.63 1201.19 2037.08 1203.11 2037.08 1204.5 2037.08 1205.96 2036.43 1207.36 2035.12 1208.72 2033.82 1210.08 2032.17 1211.25 2030.16 1212.23 2028.15 1213.21 2025.85 1213.99 2023.27 1214.59 2020.68 1215.19 2017.97 1215.48 2015.13 1215.48 2009.4 1215.48 2004.98 1214.68 2001.89 1213.08 1998.79 1211.48 1996.81 1208.73 1995.94 1204.82 1995.55 1203.01 1995.16 1200.83 1994.78 1198.3 1994.4 1195.77 1994.07 1192.91 1993.77 1189.73 1993.48 1186.55 1993.24 1183.26 1993.04 1179.85 1992.85 1176.43 1992.75 1173.07 1992.75 1169.74 1992.75 1157.38 1993.02 1147.32 1993.55 1139.55 1994.09 1131.78 1994.59 1126.59 1995.06 1123.96 1995.57 1120.99 1996.4 1118.74 1997.56 1117.2 1998.72 1115.66 2000.14 1114.58 2001.83 1113.98 2002.52 1113.68 2003.65 1113.41 2005.2 1113.17 2006.76 1112.92 2008.47 1112.7 2010.33 1112.51 2012.2 1112.31 2014.16 1112.14 2016.23 1111.98 2018.29 1111.82 2020.09 1111.75 2021.62 1111.75 2023.28 1111.75 2025.08 1111.93 2027.02 1112.3 2028.96 1112.67 2030.86 1113.34 2032.72 1114.32 2034.58 1115.3 2036.4 1116.66 2038.19 1118.4 2039.99 1120.14 2041.57 1122.29 2042.95 1124.85 2043.49 1125.84 2044.33 1127.54 2045.47 1129.96 2046.6 1132.38 2047.71 1134.78 2048.79 1137.16 2049.87 1139.54 2051.12 1142.27 2052.54 1145.35 2053.96 1148.42 2055.22 1151.04 2056.31 1153.2 2057.41 1155.37 2058.32 1157.07 2059.05 1158.32 2059.23 1158.64 2059.38 1158.91 2059.51 1159.15L2059.71 1159.57 2059.78 1158.87C2059.8 1158.54 2059.81 1158.12 2059.81 1157.63 2059.81 1154.05 2059.26 1150.31 2058.17 1146.41 2057.07 1142.51 2055.86 1138.78 2054.53 1135.23 2053.21 1131.67 2051.98 1128.41 2050.84 1125.45 2049.7 1122.48 2049.13 1120.04 2049.13 1118.12 2049.13 1116.88 2049.76 1115.69 2051.02 1114.55 2052.28 1113.41 2053.85 1112.45 2055.74 1111.69 2057.63 1110.92 2059.78 1110.28 2062.17 1109.77 2064.57 1109.26 2066.96 1109.01 2069.35 1109.01ZM2501.38 1108.57C2503.28 1108.57 2505.19 1108.78 2507.13 1109.2 2509.06 1109.62 2510.84 1110.28 2512.47 1111.17 2514.1 1112.07 2515.51 1113.18 2516.69 1114.52 2517.86 1115.86 2518.62 1117.42 2518.95 1119.19 2519.54 1122.44 2519.89 1127.57 2520 1134.59 2520.1 1141.61 2520.15 1149.72 2520.15 1158.93 2520.15 1163.94 2519.88 1169.51 2519.34 1175.63 2518.8 1181.75 2518.07 1187.43 2517.15 1192.67 2516.24 1197.91 2515.09 1202.52 2513.7 1206.49 2512.3 1210.46 2510.76 1212.73 2509.07 1213.29 2507.51 1213.85 2506.2 1214.24 2505.14 1214.45 2504.09 1214.66 2503.13 1214.81 2502.26 1214.91 2501.4 1215 2500.43 1215.05 2499.37 1215.05 2498.3 1215.05 2497.1 1215.05 2495.75 1215.05 2494.24 1215.05 2492.6 1214.91 2490.83 1214.61 2489.07 1214.32 2487.38 1213.89 2485.77 1213.31 2484.16 1212.74 2482.72 1211.95 2481.46 1210.93 2480.2 1209.91 2479.57 1208.63 2479.57 1207.09 2479.57 1206.24 2479.8 1204.94 2480.25 1203.19 2480.69 1201.45 2481.22 1199.4 2481.83 1197.07 2482.44 1194.73 2483.11 1192.39 2483.84 1190.06 2484.58 1187.73 2485.24 1185.36 2485.84 1182.95 2486.44 1180.55 2486.94 1178.51 2487.34 1176.83 2487.74 1175.15 2487.94 1173.89 2487.94 1173.06 2487.94 1172.72 2487.06 1172.11 2485.31 1171.24 2483.56 1170.36 2481.46 1169.31 2479 1168.08 2476.55 1166.86 2474.2 1165.44 2471.97 1163.85 2469.73 1162.25 2468.62 1160.22 2468.62 1157.77 2468.62 1156.19 2469.02 1154.73 2469.82 1153.36 2470.63 1152 2471.69 1150.37 2473.02 1148.45 2474.34 1146.54 2475.86 1144.18 2477.58 1141.37 2479.29 1138.57 2481.1 1134.97 2483.01 1130.58 2485.11 1125.73 2486.77 1122.01 2487.98 1119.41 2489.19 1116.81 2490.43 1114.67 2491.69 1112.99 2492.94 1111.32 2494.32 1110.16 2495.82 1109.53 2497.32 1108.89 2499.17 1108.57 2501.38 1108.57ZM1954.37 1108.43C1956.95 1108.43 1959.81 1109.04 1962.95 1110.25 1966.08 1111.47 1969.01 1113.03 1971.72 1114.94 1974.43 1116.84 1976.74 1119.04 1978.65 1121.51 1980.56 1123.99 1981.51 1126.56 1981.51 1129.22 1981.51 1130.59 1981.12 1132.13 1980.34 1133.84 1979.56 1135.56 1978.52 1137.33 1977.2 1139.15 1975.88 1140.98 1974.46 1142.81 1972.96 1144.63 1971.46 1146.46 1969.91 1148.28 1968.32 1150.08 1964.29 1154.4 1960.13 1158.17 1955.84 1161.38 1956.58 1161.33 1957.67 1161.72 1959.13 1162.55 1960.37 1163.27 1961.73 1164.21 1963.2 1165.38 1964.67 1166.54 1966.15 1168.13 1967.63 1170.14 1968.86 1171.95 1969.99 1173.85 1971.01 1175.84 1972.03 1177.82 1972.99 1179.63 1973.9 1181.25 1974.81 1182.88 1975.65 1184.21 1976.44 1185.25 1977.23 1186.28 1978.14 1186.94 1979.17 1187.22 1981.14 1187.81 1982.79 1188.99 1984.13 1190.77 1985.46 1192.55 1986.13 1194.39 1986.13 1196.28 1986.13 1199.03 1984.9 1201.47 1982.46 1203.59 1980.02 1205.71 1977.23 1207.45 1974.08 1208.8 1970.93 1210.15 1967.71 1211.19 1964.42 1211.93 1961.12 1212.67 1958.4 1213.03 1956.25 1213.03 1953.43 1213.03 1950.87 1212.31 1948.56 1210.86 1946.26 1209.41 1944.18 1206.36 1942.34 1201.71 1941.31 1198.68 1940.37 1196.05 1939.54 1193.84 1938.71 1191.62 1937.85 1189.56 1936.96 1187.65 1936.08 1185.74 1935.22 1184.26 1934.4 1183.19 1933.57 1182.13 1932.82 1181.6 1932.16 1181.6 1931.32 1181.6 1930.56 1181.82 1929.89 1182.27 1929.21 1182.72 1928.88 1183.69 1928.88 1185.17 1928.88 1187.92 1929.13 1190.45 1929.63 1192.75 1930.14 1195.05 1930.74 1197.16 1931.43 1199.09 1932.13 1201.02 1932.74 1202.66 1933.27 1204.02 1933.8 1205.37 1934.07 1206.54 1934.07 1207.53 1934.07 1208.46 1933.68 1209.38 1932.9 1210.29 1932.12 1211.2 1930.87 1211.98 1929.14 1212.63 1927.41 1213.27 1925.26 1213.79 1922.69 1214.18 1920.11 1214.57 1916.83 1214.76 1912.84 1214.76 1907.81 1214.76 1903.87 1213.86 1901.01 1212.07 1898.16 1210.27 1896.13 1207.37 1894.93 1203.36 1894.17 1201.16 1893.38 1197.2 1892.56 1191.5 1891.74 1185.8 1891.33 1178.21 1891.33 1168.73 1891.33 1155.76 1891.79 1145.2 1892.72 1137.06 1893.65 1128.92 1895.21 1123.99 1897.38 1122.27 1899.29 1120.67 1901.47 1119.31 1903.94 1118.17 1906.41 1117.04 1908.97 1116.06 1911.64 1115.23 1914.31 1114.41 1917.02 1113.74 1919.77 1113.23 1922.52 1112.72 1924.82 1112.47 1926.68 1112.47 1929.61 1112.47 1931.74 1113.14 1933.08 1114.47 1934.41 1115.8 1935.08 1117.31 1935.08 1118.98 1935.08 1120.54 1934.75 1122.33 1934.09 1124.35 1933.44 1126.37 1932.76 1128.44 1932.06 1130.58 1931.37 1132.72 1930.71 1135.07 1930.09 1137.64 1929.47 1140.2 1929.17 1142.88 1929.17 1145.66 1929.17 1146.51 1929.2 1146.93 1929.28 1146.93 1929.92 1146.93 1931.19 1145.72 1933.08 1143.31 1934.97 1140.89 1937.07 1137.57 1939.36 1133.36 1941.62 1129.13 1943.41 1125.38 1944.73 1122.12 1946.06 1118.86 1946.81 1116.42 1946.99 1114.8 1947.22 1112.75 1948 1111.18 1949.34 1110.08 1950.69 1108.98 1952.36 1108.43 1954.37 1108.43ZM2222.29 1108.29C2227.41 1108.29 2232.13 1108.99 2236.45 1110.4 2240.76 1111.8 2244.46 1113.64 2247.54 1115.91 2250.61 1118.18 2253.02 1120.69 2254.76 1123.45 2256.49 1126.21 2257.36 1128.95 2257.36 1131.67 2257.36 1133.78 2256.7 1135.88 2255.38 1138 2254.05 1140.12 2252.49 1142 2250.68 1143.66 2248.88 1145.31 2246.9 1146.69 2244.75 1147.79 2242.61 1148.89 2240.65 1149.44 2238.87 1149.44 2236.62 1149.44 2235.04 1148.96 2234.14 1148 2233.24 1147.05 2232.17 1145.81 2230.95 1144.28 2229.03 1141.92 2227.53 1140.38 2226.46 1139.68 2225.38 1138.97 2224.19 1138.62 2222.87 1138.62 2222.76 1138.62 2222.53 1138.8 2222.16 1139.14 2221.78 1139.49 2221.6 1139.88 2221.6 1140.33 2221.6 1141.84 2222.42 1143.21 2224.07 1144.44 2225.72 1145.66 2227.78 1146.94 2230.24 1148.26 2232.7 1149.59 2235.77 1151.19 2239.44 1153.06 2243.12 1154.93 2246.43 1157.19 2249.37 1159.84 2252.31 1162.48 2254.76 1165.71 2256.73 1169.53 2258.69 1173.36 2259.67 1177.95 2259.67 1183.3 2259.67 1188.26 2258.63 1192.66 2256.55 1196.51 2254.48 1200.36 2251.72 1203.6 2248.27 1206.23 2244.83 1208.87 2240.91 1210.85 2236.51 1212.19 2232.11 1213.52 2227.47 1214.19 2222.58 1214.19 2217.39 1214.19 2212.35 1213.35 2207.46 1211.67 2202.56 1209.99 2198.23 1207.83 2194.46 1205.2 2190.69 1202.57 2187.6 1199.59 2185.2 1196.27 2182.8 1192.95 2181.6 1189.59 2181.6 1186.18 2181.6 1183.57 2182.32 1181.05 2183.77 1178.62 2185.22 1176.19 2186.91 1174.07 2188.86 1172.27 2190.81 1170.47 2192.86 1169 2195.01 1167.84 2197.16 1166.69 2198.95 1166.11 2200.37 1166.11 2202.09 1166.11 2203.49 1166.96 2204.56 1168.67 2205.63 1170.37 2206.84 1172.34 2208.2 1174.6 2209.57 1176.85 2210.95 1178.71 2212.34 1180.19 2213.73 1181.67 2215.37 1182.41 2217.24 1182.41 2218.82 1182.41 2219.95 1181.92 2220.65 1180.93 2221.34 1179.94 2221.69 1178.96 2221.69 1177.96 2221.69 1177.06 2220.93 1176.1 2219.4 1175.09 2217.88 1174.08 2215.84 1172.91 2213.28 1171.58 2210.72 1170.25 2207.93 1168.74 2204.91 1167.03 2201.89 1165.32 2199.02 1163.27 2196.31 1160.86 2193.61 1158.45 2191.34 1155.58 2189.52 1152.24 2187.7 1148.9 2186.79 1144.93 2186.79 1140.33 2186.79 1135.51 2187.76 1131.13 2189.71 1127.18 2191.66 1123.23 2194.3 1119.85 2197.62 1117.03 2200.94 1114.21 2204.74 1112.04 2209 1110.54 2213.25 1109.04 2217.69 1108.29 2222.29 1108.29Z" fill="#5B9BD5" fill-rule="evenodd"/><path d="M2425.56 1179.37 2423.84 1179.53 2421.95 1180.03 2418.4 1181.94 2417.2 1183 2416.33 1184.04 2415.92 1184.9 2415.82 1185.5 2415.89 1185.93 2416.15 1186.32 2416.67 1186.66 2418.07 1186.86 2419.32 1186.73 2420.79 1186.25 2423.95 1184.54 2426.14 1182.35 2426.55 1181.49 2426.68 1180.76 2426.58 1180.2 2426.31 1179.75 2425.95 1179.47ZM2143.51 1176.62 2140.18 1176.85 2138.49 1177.39 2138.07 1177.8 2137.86 1178.83 2137.86 1178.85 2139.59 1178.94 2145.23 1178.69 2150.27 1177.9 2153.37 1177.14 2149.03 1176.93ZM2425.53 1174.35C2425.83 1174.32 2426.13 1174.35 2426.41 1174.42L2427.73 1174.77C2428.05 1174.86 2428.36 1175.01 2428.62 1175.21L2429.75 1176.09C2429.99 1176.28 2430.2 1176.51 2430.36 1176.78L2431.11 1178.03C2431.26 1178.29 2431.37 1178.58 2431.42 1178.88L2431.67 1180.32C2431.72 1180.6 2431.72 1180.88 2431.68 1181.16L2431.43 1182.66C2431.39 1182.89 2431.32 1183.12 2431.22 1183.33L2430.47 1184.89C2430.34 1185.15 2430.18 1185.38 2429.98 1185.58L2427.23 1188.33C2427.06 1188.5 2426.87 1188.65 2426.65 1188.76L2422.97 1190.76C2422.83 1190.83 2422.69 1190.89 2422.54 1190.94L2420.6 1191.57C2420.44 1191.62 2420.27 1191.66 2420.09 1191.67L2418.28 1191.86C2418.08 1191.88 2417.88 1191.88 2417.68 1191.85L2415.43 1191.54C2415.07 1191.49 2414.72 1191.36 2414.41 1191.16L2412.97 1190.22C2412.68 1190.03 2412.43 1189.78 2412.24 1189.49L2411.43 1188.24C2411.25 1187.96 2411.12 1187.65 2411.06 1187.32L2410.81 1185.95C2410.76 1185.65 2410.76 1185.35 2410.81 1185.05L2411.06 1183.68C2411.1 1183.46 2411.17 1183.25 2411.27 1183.05L2411.96 1181.61C2412.04 1181.43 2412.15 1181.25 2412.28 1181.1L2413.47 1179.66C2413.56 1179.56 2413.65 1179.46 2413.75 1179.37L2415.31 1178C2415.45 1177.87 2415.61 1177.76 2415.78 1177.67L2419.84 1175.49C2420.01 1175.39 2420.2 1175.32 2420.39 1175.27L2422.76 1174.65C2422.89 1174.61 2423.03 1174.59 2423.16 1174.57ZM2323.32 1172.67 2323.37 1173.19 2323.96 1175.52 2324.94 1177.85 2326.29 1180 2327.88 1181.81 2329.69 1183.26 2331.47 1184.15 2333.32 1184.41 2335.23 1184.11 2336.53 1183.26 2337.38 1181.97 2337.67 1179.96 2337.29 1178.16 2336.48 1177.32 2334.76 1176.77 2332.02 1176.49 2329.91 1176.23C2329.76 1176.21 2329.61 1176.18 2329.47 1176.14L2327.47 1175.51C2327.3 1175.46 2327.13 1175.39 2326.98 1175.3L2325.1 1174.24C2324.94 1174.14 2324.78 1174.03 2324.64 1173.89ZM2209.93 1172.62 2210.37 1173.36 2212.36 1176.37 2214.1 1178.4 2215.69 1179.54 2217.31 1179.89 2218.19 1179.72 2218.7 1179.3 2219.07 1178.65 2219.13 1178.27 2219.05 1178.06 2218 1177.16 2215.48 1175.64 2212.14 1173.82ZM2225.01 1141.76 2225.71 1142.52 2226.73 1143.19 2226.69 1143.15 2225.09 1141.8ZM2422.34 1135.55 2419.65 1136.12 2417.24 1137.42 2415.75 1139.15 2415.42 1139.79 2415.37 1140.07 2415.38 1140.12 2415.48 1140.16 2416.6 1140.24 2419.17 1139.84 2421.31 1138.73 2422.71 1137.25 2423.08 1135.81 2423.07 1135.77 2422.82 1135.64ZM2422.77 1130.54 2424.11 1130.79C2424.36 1130.84 2424.6 1130.92 2424.82 1131.04L2425.88 1131.6C2426.19 1131.77 2426.46 1131.99 2426.68 1132.27L2427.37 1133.14C2427.6 1133.45 2427.77 1133.8 2427.85 1134.17L2428.1 1135.36C2428.18 1135.74 2428.17 1136.13 2428.07 1136.51L2427.38 1139.13C2427.27 1139.54 2427.07 1139.91 2426.78 1140.22L2424.65 1142.47C2424.46 1142.67 2424.24 1142.84 2423.99 1142.97L2421.12 1144.47C2420.88 1144.59 2420.61 1144.68 2420.34 1144.72L2417.09 1145.22C2416.91 1145.25 2416.73 1145.26 2416.55 1145.24L2414.67 1145.12C2414.36 1145.1 2414.05 1145.02 2413.77 1144.88L2412.58 1144.32C2412.19 1144.14 2411.86 1143.86 2411.61 1143.52L2410.99 1142.64C2410.77 1142.33 2410.62 1141.97 2410.56 1141.6L2410.37 1140.47C2410.32 1140.19 2410.33 1139.91 2410.38 1139.63L2410.56 1138.57C2410.6 1138.33 2410.68 1138.1 2410.79 1137.88L2411.41 1136.63C2411.51 1136.45 2411.62 1136.27 2411.76 1136.11L2413.76 1133.8C2413.96 1133.57 2414.19 1133.38 2414.46 1133.24L2417.59 1131.55C2417.8 1131.44 2418.02 1131.35 2418.25 1131.3L2421.79 1130.55C2422.11 1130.49 2422.45 1130.48 2422.77 1130.54ZM2137.75 1112.81 2130.51 1112.93 2124.21 1113.36 2118.93 1114 2114.62 1114.94 2111.31 1116 2108.75 1117.25 2107.4 1118.33 2106.77 1119.29 2106.23 1121.29 2105.55 1124.72 2104.81 1129.15 2104.08 1134.55 2103.46 1140.98 2102.96 1148.57 2102.71 1157.34 2102.59 1167.23 2103.02 1180.82 2103.45 1186.91 2104.06 1192.33 2104.74 1197.07 2105.46 1201.19 2106.23 1204.53 2106.91 1206.81 2107.59 1208.12 2108.52 1209.13 2109.89 1210 2111.9 1210.75 2114.89 1211.46 2118.8 1211.94 2123.8 1212.25 2130 1212.31 2136.77 1212.08 2143.25 1211.41 2149.32 1210.43 2154.86 1209.26 2159.74 1208.04 2163.98 1206.78 2167.18 1205.63 2169.24 1204.62 2171.69 1202.67 2173.13 1199.54 2173.54 1197.43 2173.91 1194.62 2174.15 1191.46 2174.22 1188.01 2173.81 1182.86 2172.61 1179.11 2171.92 1178 2171.28 1177.35 2170.65 1177.02 2170.03 1176.91 2168.91 1177.11 2166.9 1177.82 2163.85 1179.05 2160.21 1180.32 2155.87 1181.68 2151.03 1182.85 2145.44 1183.69 2139.33 1183.93 2136.9 1183.81C2136.64 1183.8 2136.4 1183.75 2136.16 1183.66L2134.97 1183.22C2134.35 1182.99 2133.84 1182.53 2133.57 1181.92L2133.19 1181.11C2133.07 1180.85 2133 1180.57 2132.97 1180.29L2132.85 1178.91C2132.82 1178.67 2132.84 1178.42 2132.89 1178.18L2133.33 1176.06C2133.42 1175.58 2133.66 1175.14 2134.01 1174.8L2135.38 1173.42C2135.66 1173.14 2136.01 1172.93 2136.39 1172.8L2138.96 1171.99C2139.15 1171.93 2139.35 1171.89 2139.55 1171.88L2143.79 1171.63 2149.27 1171.94 2154.22 1172.18 2155.25 1172.03 2156 1171.6 2156.78 1170.74 2157.61 1169.17 2158.36 1167.08 2158.85 1164.65 2159.21 1161.6 2159.34 1158.16 2159.25 1155.22 2158.84 1152.79 2158.31 1151.2 2157.81 1150.41 2156.07 1149.24 2153.48 1148.77 2150.02 1149.09 2145.68 1149.84 2141.3 1150.55 2137.68 1150.87C2137.45 1150.89 2137.22 1150.87 2136.99 1150.83L2135.68 1150.58C2135.25 1150.5 2134.85 1150.3 2134.51 1150.01L2133.57 1149.2C2133.29 1148.95 2133.06 1148.65 2132.91 1148.3L2132.35 1146.99C2132.25 1146.76 2132.19 1146.51 2132.16 1146.27L2131.98 1144.52C2131.94 1144.2 2131.97 1143.89 2132.05 1143.59L2132.55 1141.77C2132.7 1141.22 2133.04 1140.74 2133.5 1140.41L2135.06 1139.28C2135.35 1139.08 2135.68 1138.93 2136.03 1138.86L2139.19 1138.25 2143.77 1138 2149.17 1138.26 2154.51 1138.7 2159.12 1139.13 2161 1139.25 2162.18 1139.3 2164.21 1138.86 2165.65 1137.77 2166.73 1135.78 2167.13 1132.65 2166.5 1126.12 2165.52 1122.91 2163.8 1119.75 2162.1 1117.57 2160.09 1115.92 2157.69 1114.72 2154.94 1113.98 2151.3 1113.49 2147.2 1113.12 2142.74 1112.88ZM2335.84 1111.95 2332.13 1112.16 2328.47 1112.67 2324.91 1113.59 2321.55 1114.84 2315.09 1118.2 2309.76 1122.05 2305.17 1126.46 2301.89 1130.98 2300.65 1133.13 2299.82 1135.12 2299.31 1137.12 2299.17 1138.53 2299.54 1140.69 2300.77 1142.78 2305.22 1147.28 2307.51 1148.92 2310.14 1150.34 2312.74 1151.3 2314.66 1151.54 2314.97 1151.49 2315.36 1151.26 2316 1150.62 2316.77 1149.57 2320.68 1143.21 2324.93 1137.77C2325.09 1137.57 2325.28 1137.39 2325.49 1137.25L2328.05 1135.5C2328.31 1135.32 2328.59 1135.2 2328.9 1135.13L2331.58 1134.5C2331.98 1134.41 2332.4 1134.42 2332.79 1134.52L2335.61 1135.27C2336.12 1135.41 2336.57 1135.7 2336.9 1136.11L2337.71 1137.11C2337.97 1137.43 2338.15 1137.8 2338.23 1138.2L2338.48 1139.45C2338.54 1139.77 2338.54 1140.11 2338.47 1140.44L2337.91 1143.19C2337.85 1143.5 2337.73 1143.79 2337.56 1144.05L2335.93 1146.55C2335.82 1146.72 2335.69 1146.88 2335.55 1147.01L2330.56 1151.67 2325.41 1155.97 2323.96 1157.66 2323.55 1159.09 2323.76 1162.21 2324.35 1164.92 2325.28 1167.09 2326.48 1168.78 2327.82 1170.03 2329.21 1170.82 2330.74 1171.3 2332.53 1171.51 2335.53 1171.83C2335.7 1171.84 2335.87 1171.88 2336.03 1171.93L2338.59 1172.74C2338.99 1172.87 2339.35 1173.09 2339.64 1173.39L2341.39 1175.2C2341.71 1175.54 2341.93 1175.96 2342.03 1176.42L2342.66 1179.36C2342.72 1179.64 2342.73 1179.94 2342.69 1180.24L2342.25 1183.24C2342.2 1183.6 2342.06 1183.94 2341.86 1184.25L2340.43 1186.44C2340.24 1186.72 2340 1186.96 2339.71 1187.15L2337.52 1188.59C2337.22 1188.79 2336.89 1188.92 2336.53 1188.97L2333.72 1189.41C2333.48 1189.45 2333.23 1189.45 2332.98 1189.41L2330.36 1189.04C2330.09 1189 2329.83 1188.92 2329.59 1188.8L2327.22 1187.61C2327.06 1187.53 2326.91 1187.44 2326.78 1187.33L2324.59 1185.58C2324.48 1185.49 2324.37 1185.39 2324.27 1185.28L2322.4 1183.15C2322.31 1183.05 2322.23 1182.94 2322.15 1182.83L2320.59 1180.33C2320.52 1180.21 2320.46 1180.09 2320.41 1179.97L2319.28 1177.28C2319.23 1177.17 2319.2 1177.05 2319.17 1176.93L2318.48 1174.24C2318.45 1174.12 2318.42 1174 2318.41 1173.87L2318.18 1171.47 2317.95 1170.07 2317.59 1169.47 2316.85 1169.05 2315.04 1168.83 2312.73 1169.13 2310 1170.09 2306.8 1171.76 2303.71 1173.84 2300.9 1176.23 2298.5 1178.74 2297.13 1180.9 2296.75 1182.7 2297.33 1186.71 2299.31 1191.52 2302.56 1196.51 2306.94 1201.12 2312.49 1205.25 2319.03 1208.71 2322.49 1209.95 2326.38 1210.9 2330.44 1211.5 2334.68 1211.7 2341.72 1211.09 2348.44 1209.32 2354.75 1206.49 2360.38 1202.74 2365.17 1198.06 2368.99 1192.59 2370.34 1189.9 2371.41 1186.69 2371.97 1183.64 2372.2 1180.16 2371.63 1174.06 2369.9 1169.32 2367.42 1165.53 2364.67 1162.5 2362.07 1160.36 2360.01 1159.11 2358.73 1158.57 2358.42 1158.49C2357.54 1158.27 2356.86 1157.6 2356.62 1156.73 2356.37 1155.86 2356.62 1154.93 2357.26 1154.3L2357.41 1154.16 2358.27 1153.11 2359.53 1151.57 2360.98 1149.51 2362.53 1146.84 2363.92 1143.61 2364.98 1139.6 2365.26 1135.25 2364.76 1131.03 2363.21 1126.88 2360.68 1122.94 2357.26 1119.4 2353.07 1116.42 2347.98 1114.05 2342.21 1112.53ZM2427.25 1111.93 2419.76 1112.45 2412.28 1113.93 2405.03 1116.42 2398.87 1119.77 2393.76 1124.01 2389.62 1129.19 2388.13 1132.01 2387.1 1134.94 2386.39 1138.22 2386.16 1141.88 2386.6 1145.85 2387.83 1149.12 2389.53 1151.73 2391.59 1154.09 2393.63 1155.97 2395.3 1157.29 2396.35 1158.05 2396.72 1158.3C2397.39 1158.74 2397.81 1159.48 2397.84 1160.28 2397.86 1161.09 2397.51 1161.86 2396.87 1162.35L2396.14 1162.91 2394.67 1163.86 2392.44 1165.56 2389.76 1168.09 2386.89 1171.57 2384.44 1175.73 2382.74 1180.83 2382.16 1187.04 2382.73 1192.24 2384.47 1197.01 2387.29 1201.41 2391.15 1205.16 2395.99 1208.27 2401.9 1210.67 2408.76 1212.21 2416.49 1212.75 2421.23 1212.58 2425.72 1212.08 2434.65 1209.81 2442.53 1206.41 2449.3 1202.02 2454.89 1196.84 2459.26 1190.7 2460.84 1187.59 2461.89 1184.5 2462.59 1181.15 2462.84 1177.69 2462.69 1174.41 2462.15 1171.46 2461.28 1168.8 2460.11 1166.62 2457.13 1162.78 2453.89 1159.94 2450.81 1157.94 2448.38 1156.82 2447.07 1156.39 2447 1156.4C2445.65 1156.63 2444.37 1155.73 2444.13 1154.39 2443.94 1153.38 2444.39 1152.4 2445.19 1151.86L2445.84 1151.59 2446.33 1151.23 2447.74 1149.95 2449.6 1147.76 2451.61 1144.86 2453.3 1141.36 2454.49 1137.18 2454.89 1132.15 2454.44 1127.67 2453.08 1123.81 2450.85 1120.44 2447.71 1117.51 2443.7 1115.15 2438.92 1113.42 2433.55 1112.37ZM2069.37 1111.52 2062.83 1112.24 2059.56 1113.06 2056.75 1114 2054.52 1115.14 2052.79 1116.38 2051.92 1117.51 2051.7 1118.31 2052.04 1120.89 2053.24 1124.62 2054.99 1129.24 2056.97 1134.48 2060.66 1145.93 2061.89 1151.99 2062.34 1157.69 2062.34 1158.88C2062.34 1159.01 2062.33 1159.15 2062.3 1159.29L2062.18 1160.04C2062 1161.13 2061.11 1161.97 2060.01 1162.11 2058.91 1162.24 2057.85 1161.63 2057.41 1160.61L2057.32 1160.37 2056.9 1159.59 2055.62 1157.28 2054.09 1154.34 2052.32 1150.69 2050.31 1146.41 2048.31 1142.04 2046.57 1138.23 2043.27 1131.08 2041.82 1128.05 2040.84 1126.2 2038.76 1122.87 2036.45 1120.22 2034.03 1118.14 2031.59 1116.58 2029.12 1115.49 2026.55 1114.78 2021.71 1114.25 2019.31 1114.31 2016.51 1114.49 2010.64 1115.04 2005.67 1115.65 2003.97 1115.95 2002.82 1116.31 2001.05 1117.27 1999.63 1118.74 1998.43 1120.98 1997.56 1124.38 1997.2 1126.71 1996.83 1130.09 1996.46 1134.43 1996.08 1139.71 1995.71 1145.96 1995.46 1153.04 1995.34 1160.96 1995.27 1169.67 1995.58 1179.7 1996.26 1189.48 1996.75 1193.96 1997.31 1197.92 1997.86 1201.41 1998.34 1204.1 1999.14 1206.57 2000.13 1208.41 2001.41 1209.78 2003.08 1210.9 2005.06 1211.7 2007.87 1212.4 2011.16 1212.88 2015 1213 2018.94 1212.78 2022.58 1212.22 2026.03 1211.24 2029.1 1210 2031.5 1208.58 2033.28 1207.06 2034.26 1205.66 2034.55 1204.38 2034.32 1202.59 2033.42 1199.6 2031.95 1195.5 2030.49 1190.85 2029.02 1185.49 2027.68 1179.49 2026.71 1172.8 2026.4 1165.44 2026.4 1163.09 2026.47 1161.4 2026.53 1160.46C2026.55 1160.2 2026.61 1159.94 2026.7 1159.7L2026.83 1159.38C2027.15 1158.58 2027.87 1157.99 2028.73 1157.85 2029.59 1157.7 2030.46 1158.01 2031.03 1158.67L2031.47 1159.17C2031.55 1159.26 2031.63 1159.36 2031.69 1159.47L2032.75 1161.13 2034.25 1163.74 2035.93 1167.03 2037.7 1170.95 2039.59 1175.38 2043.27 1184.55 2045.04 1188.85 2046.52 1192.67 2047.81 1195.8 2048.74 1197.9 2051.48 1203.15 2054.13 1207.55 2055.31 1208.97 2056.63 1209.93 2057.97 1210.49 2059.66 1210.68 2065.49 1210.36 2071.8 1209.14 2077.45 1207.13 2082.04 1204.05 2083.47 1202.38 2084.88 1199.41 2086.2 1195.11 2087.42 1189.4 2088.41 1182.52 2089.15 1174.63 2089.59 1165.66 2089.71 1155.67 2089.65 1152.13 2089.53 1147.23 2089.09 1136.52 2088.53 1127.02 2088.24 1123.37 2087.88 1120.77 2087.22 1118.52 2086.19 1116.84 2084.64 1115.38 2082.49 1114.1 2076.64 1112.21ZM2501.36 1111.09 2498.79 1111.34 2496.87 1111.87 2495.31 1112.88 2493.67 1114.57 2492.06 1117.01 2490.3 1120.48 2489.29 1122.68 2488.13 1125.19 2486.82 1128.19 2485.3 1131.67 2482.45 1137.86 2479.72 1142.68 2477.29 1146.65 2475.1 1149.89 2473.38 1152.47 2472.06 1154.53 2471.4 1156.15 2471.17 1157.85 2471.28 1158.91 2471.72 1159.9 2472.4 1160.88 2473.51 1161.85 2480.13 1165.88 2483.58 1167.58 2486.56 1169.07 2488.56 1170.2C2488.8 1170.33 2489.01 1170.5 2489.19 1170.69L2489.81 1171.38C2490.27 1171.89 2490.51 1172.57 2490.45 1173.25L2490.29 1175.18 2489.83 1177.47 2489.14 1180.28 2488.3 1183.68 2486.3 1190.76 2484.26 1197.73 2483.44 1201.01 2482.71 1203.79 2482.26 1205.79 2482.12 1206.98 2482.39 1208.12 2483.16 1209.07 2484.73 1210.11 2486.6 1210.94 2491.27 1212.15 2495.77 1212.56 2499.29 1212.57 2501.9 1212.47 2504.6 1212.06 2508.07 1211.01 2508.71 1210.63 2509.48 1209.73 2510.32 1208.27 2511.32 1205.78 2513.2 1199.54 2514.74 1192.33 2515.91 1184.24 2516.84 1175.51 2517.46 1166.86 2517.71 1158.94 2517.71 1152.28 2517.65 1145.96 2517.59 1140.09 2517.53 1134.69 2517.4 1129.8 2517.22 1125.72 2516.93 1122.38 2516.52 1119.77 2515.88 1117.8 2514.79 1116.18 2513.2 1114.64 2511.31 1113.38 2509.27 1112.46 2506.65 1111.71ZM1954.44 1110.95 1952.48 1111.27 1951.04 1112.08 1950.04 1113.3 1949.46 1115.36 1948.68 1118.74 1947.07 1123.12 1944.68 1128.58 1941.56 1134.63 1938.13 1140.5 1935.03 1144.88 1933.64 1146.6 1932.64 1147.72C1932.52 1147.86 1932.38 1147.99 1932.23 1148.1L1931.35 1148.72C1931.22 1148.82 1931.07 1148.9 1930.91 1148.97L1930.35 1149.22C1929.73 1149.5 1929.03 1149.51 1928.4 1149.25 1927.77 1149 1927.27 1148.5 1927.02 1147.87L1926.89 1147.55C1926.77 1147.26 1926.71 1146.94 1926.71 1146.63L1926.72 1145.53 1927 1141.2 1927.74 1137.03 1929.71 1129.84 1931.72 1123.79 1932.35 1121.25 1932.56 1119.14 1932.25 1117.65 1931.36 1116.38 1929.7 1115.41 1926.62 1115.01 1923.95 1115.16 1920.37 1115.68 1912.54 1117.59 1905.08 1120.44 1899.09 1124.2 1898.08 1125.47 1897.03 1128.03 1896.06 1131.93 1895.26 1137.3 1894.65 1143.77 1894.21 1151.22 1893.9 1159.52 1893.84 1168.73 1893.9 1175.4 1894.14 1181.39 1894.51 1186.57 1895.06 1191.11 1895.68 1195.07 1896.21 1198.17 1896.81 1200.7 1897.3 1202.49 1898.29 1205.11 1899.45 1207.12 1900.84 1208.77 1902.38 1210.01 1904.33 1210.98 1906.54 1211.66 1909.47 1212.13 1912.84 1212.31 1918.05 1212.2 1922.24 1211.73 1925.55 1211.11 1928.25 1210.29 1930.04 1209.44 1931 1208.64 1931.43 1207.96 1931.55 1207.43 1931.45 1206.48 1930.92 1204.91 1930.12 1202.68 1929.06 1199.81 1927.18 1193.14 1926.59 1189.3 1926.4 1185.3C1926.4 1185.15 1926.4 1185 1926.42 1184.85L1926.67 1183.03C1926.73 1182.64 1926.88 1182.26 1927.11 1181.93L1927.86 1180.87C1928.18 1180.41 1928.65 1180.08 1929.19 1179.92L1931.5 1179.23C1932.07 1179.06 1932.67 1179.1 1933.21 1179.33L1934.21 1179.77C1934.5 1179.9 1934.76 1180.07 1934.98 1180.3L1936.17 1181.48C1936.27 1181.59 1936.36 1181.7 1936.45 1181.82L1937.94 1183.99 1939.33 1186.73 1941.94 1193.02 1943.26 1196.67 1944.68 1200.72 1945.99 1203.67 1947.31 1205.96 1948.7 1207.74 1949.9 1208.72 1952.97 1210.07 1956.37 1210.55 1959.43 1210.36 1963.81 1209.52 1968.45 1208.29 1972.94 1206.59 1977.26 1204.37 1980.82 1201.73 1982.14 1200.41 1983.01 1199.09 1983.45 1197.76 1983.62 1196.38 1983.26 1194.35 1982.14 1192.33 1980.43 1190.63 1978.13 1189.51 1976.7 1188.82C1976.44 1188.7 1976.21 1188.53 1976.01 1188.33L1974.69 1187.02C1974.58 1186.91 1974.48 1186.78 1974.39 1186.65L1973.16 1184.83 1971.69 1182.48 1968.87 1177.15 1965.59 1171.62 1963.63 1169.21 1961.77 1167.48 1957.89 1164.73 1956.46 1164.07 1955.35 1163.81C1954.42 1163.6 1953.69 1162.88 1953.47 1161.95 1953.25 1161.02 1953.58 1160.05 1954.31 1159.44L1960.45 1154.41 1966.44 1148.49 1971.04 1143.17 1975.07 1137.9 1978.13 1132.8 1978.82 1130.87 1979 1129.32 1978.45 1126.18 1976.62 1123.04 1973.78 1119.87 1970.32 1116.98 1966.47 1114.64 1962.23 1112.64 1957.96 1111.34ZM2222.31 1110.8 2215.95 1111.35 2209.86 1112.93 2204.21 1115.49 2199.29 1118.97 2195.19 1123.24 2191.98 1128.28 2189.98 1134.04 2189.35 1140.37 2189.98 1146.24 2191.77 1151.11 2194.62 1155.38 2197.91 1158.93 2201.86 1162.14 2206.16 1164.87 2214.53 1169.43 2218.07 1171.36 2220.76 1172.99C2220.87 1173.06 2220.98 1173.13 2221.08 1173.22L2222.77 1174.66C2223.08 1174.93 2223.33 1175.27 2223.48 1175.65L2224.04 1177.09C2224.2 1177.51 2224.25 1177.97 2224.18 1178.41L2223.93 1179.91C2223.88 1180.2 2223.78 1180.48 2223.64 1180.73L2222.83 1182.17C2222.67 1182.44 2222.47 1182.68 2222.23 1182.87L2220.86 1184C2220.53 1184.26 2220.15 1184.44 2219.74 1184.52L2217.74 1184.9C2217.41 1184.96 2217.07 1184.95 2216.75 1184.88L2214.13 1184.32C2213.79 1184.25 2213.47 1184.1 2213.19 1183.9L2210.94 1182.28C2210.77 1182.16 2210.62 1182.02 2210.49 1181.87L2208.19 1179.13 2206.06 1175.89 2204.23 1172.78 2202.6 1170.23 2201.44 1168.98 2200.3 1168.69 2198.76 1168.97 2196.18 1170.1 2193.5 1171.73 2190.72 1174.02 2188.19 1176.69 2185.97 1179.85 2184.58 1183.05 2184.17 1186.23 2184.37 1188.33 2184.9 1190.51 2185.77 1192.49 2187.23 1194.82 2191.08 1199.26 2195.89 1203.19 2201.55 1206.51 2208.25 1209.31 2215.37 1211.09 2222.6 1211.68 2229.41 1211.21 2235.78 1209.79 2241.64 1207.45 2246.74 1204.26 2251.05 1200.24 2254.4 1195.33 2255.62 1192.68 2256.44 1189.93 2257.03 1186.81 2257.21 1183.37 2256.5 1176.42 2254.5 1170.65 2251.47 1165.78 2247.7 1161.72 2243.43 1158.34 2238.33 1155.29 2233.23 1152.71 2229 1150.46 2225.51 1148.39 2222.7 1146.52C2222.54 1146.41 2222.39 1146.29 2222.26 1146.15L2220.45 1144.21C2220.18 1143.92 2219.99 1143.58 2219.88 1143.21L2219.25 1141.08C2219.08 1140.49 2219.13 1139.86 2219.39 1139.31L2219.95 1138.12C2220.11 1137.78 2220.34 1137.49 2220.63 1137.25L2221.32 1136.69C2221.85 1136.25 2222.54 1136.06 2223.23 1136.15L2225.1 1136.4C2225.37 1136.43 2225.62 1136.51 2225.86 1136.62L2227.55 1137.44C2227.74 1137.53 2227.91 1137.64 2228.07 1137.78L2230.07 1139.46C2230.18 1139.55 2230.28 1139.65 2230.37 1139.76L2232.87 1142.69 2235.77 1146.11 2236.81 1146.7 2238.87 1146.92 2241.06 1146.63 2243.57 1145.6 2249.09 1141.77 2251.34 1139.47 2253.23 1136.74 2254.49 1134.12 2254.87 1131.68 2254.36 1128.38 2252.65 1124.84 2249.82 1121.29 2246.1 1117.96 2241.34 1115.12 2235.69 1112.82 2229.33 1111.29ZM2137.66 1107.81 2142.81 1107.88 2147.47 1108.13 2151.75 1108.51 2155.6 1109.02 2159.23 1109.96C2159.39 1110 2159.55 1110.06 2159.71 1110.14L2162.58 1111.58C2162.75 1111.66 2162.9 1111.76 2163.05 1111.88L2165.49 1113.88C2165.63 1114 2165.76 1114.13 2165.87 1114.27L2167.87 1116.84C2167.95 1116.95 2168.03 1117.06 2168.1 1117.18L2170.03 1120.74C2170.11 1120.89 2170.18 1121.05 2170.23 1121.21L2171.35 1124.9C2171.4 1125.05 2171.43 1125.22 2171.45 1125.38L2172.14 1132.45C2172.16 1132.63 2172.15 1132.82 2172.13 1133.01L2171.63 1136.88C2171.59 1137.19 2171.49 1137.49 2171.35 1137.76L2169.78 1140.63C2169.61 1140.94 2169.38 1141.22 2169.1 1141.43L2166.78 1143.18C2166.49 1143.4 2166.16 1143.55 2165.81 1143.63L2162.93 1144.26C2162.72 1144.3 2162.51 1144.32 2162.3 1144.31L2160.8 1144.25 2158.8 1144.12 2154.04 1143.68 2148.76 1143.24 2143.53 1143 2139.48 1143.25 2137.56 1143.65 2137.14 1143.95 2137 1144.46 2137.1 1145.36 2137.28 1145.8 2137.59 1145.85 2140.87 1145.57 2144.87 1144.91 2149.16 1144.16 2153.35 1143.76C2153.58 1143.74 2153.81 1143.75 2154.03 1143.79L2157.47 1144.42C2157.81 1144.48 2158.13 1144.61 2158.41 1144.8L2161.04 1146.55C2161.33 1146.74 2161.58 1147 2161.77 1147.3L2162.71 1148.8C2162.81 1148.97 2162.9 1149.15 2162.96 1149.33L2163.65 1151.4C2163.69 1151.52 2163.72 1151.65 2163.74 1151.78L2164.18 1154.4 2164.33 1157.97 2164.21 1161.77 2163.82 1165.22 2163.23 1168.24C2163.2 1168.36 2163.17 1168.48 2163.13 1168.6L2162.25 1171.03C2162.21 1171.15 2162.16 1171.26 2162.11 1171.36L2161.04 1173.36C2160.95 1173.54 2160.83 1173.72 2160.69 1173.87L2159.44 1175.24 2159.32 1175.34 2162.2 1174.33 2165.02 1173.18 2167.45 1172.33C2167.57 1172.28 2167.7 1172.25 2167.83 1172.23L2169.58 1171.91C2169.87 1171.86 2170.17 1171.86 2170.45 1171.91L2171.89 1172.16C2172.15 1172.21 2172.39 1172.29 2172.62 1172.41L2173.93 1173.1C2174.16 1173.22 2174.36 1173.37 2174.54 1173.55L2175.67 1174.67C2175.81 1174.81 2175.93 1174.96 2176.03 1175.13L2177.03 1176.75C2177.13 1176.93 2177.22 1177.11 2177.28 1177.3L2178.66 1181.62C2178.71 1181.8 2178.75 1181.98 2178.77 1182.17L2179.2 1187.61 2179.15 1191.54 2178.89 1195 2178.5 1198.07 2177.98 1200.79C2177.94 1200.99 2177.88 1201.18 2177.8 1201.36L2175.98 1205.3C2175.82 1205.65 2175.58 1205.96 2175.27 1206.2L2172.15 1208.7C2172 1208.82 2171.85 1208.92 2171.68 1209L2169.37 1210.12 2165.69 1211.47 2161.18 1212.83 2156.07 1214.11 2150.35 1215.32 2144.05 1216.34 2137.28 1217.05 2130.18 1217.31 2123.75 1217.25 2118.5 1216.93 2114.28 1216.42 2110.77 1215.62 2107.92 1214.6C2107.75 1214.54 2107.59 1214.46 2107.44 1214.36L2105.56 1213.17C2105.38 1213.06 2105.21 1212.91 2105.06 1212.75L2103.68 1211.25C2103.53 1211.09 2103.41 1210.91 2103.3 1210.71L2102.37 1208.9C2102.3 1208.76 2102.24 1208.62 2102.19 1208.47L2101.44 1205.97 2100.59 1202.32 2099.81 1197.93 2099.11 1193.04 2098.48 1187.47 2098.03 1181.18 2097.59 1167.39 2097.71 1157.28 2097.96 1148.43 2098.47 1140.65 2099.1 1134.07 2099.86 1128.48 2100.62 1123.9 2101.32 1120.33 2102.05 1117.6C2102.12 1117.35 2102.22 1117.1 2102.37 1116.88L2103.43 1115.26C2103.58 1115.04 2103.76 1114.84 2103.96 1114.67L2105.84 1113.17C2105.98 1113.06 2106.14 1112.96 2106.3 1112.88L2109.11 1111.5 2113.06 1110.19 2117.86 1109.12 2123.59 1108.39 2130.17 1107.94ZM2426.89 1106.95 2433.88 1107.38 2440.06 1108.55C2440.19 1108.57 2440.31 1108.6 2440.44 1108.65L2445.62 1110.52C2445.77 1110.58 2445.91 1110.64 2446.05 1110.72L2450.48 1113.35C2450.64 1113.44 2450.78 1113.55 2450.91 1113.67L2454.48 1116.98C2454.62 1117.12 2454.75 1117.27 2454.86 1117.43L2457.42 1121.31C2457.54 1121.48 2457.63 1121.66 2457.69 1121.86L2459.26 1126.3C2459.32 1126.48 2459.37 1126.68 2459.39 1126.88L2459.89 1131.88C2459.9 1132.03 2459.9 1132.17 2459.89 1132.32L2459.45 1137.82C2459.44 1137.99 2459.41 1138.15 2459.37 1138.31L2458.05 1142.93C2458.01 1143.07 2457.96 1143.21 2457.9 1143.34L2456.02 1147.21C2455.97 1147.33 2455.9 1147.44 2455.83 1147.55L2453.7 1150.61 2451.79 1152.9 2453.06 1153.48C2453.17 1153.53 2453.28 1153.59 2453.38 1153.65L2456.76 1155.84C2456.86 1155.91 2456.96 1155.98 2457.05 1156.06L2460.61 1159.18C2460.73 1159.29 2460.84 1159.4 2460.94 1159.53L2464.19 1163.72C2464.27 1163.83 2464.35 1163.95 2464.41 1164.07L2465.79 1166.63C2465.86 1166.76 2465.92 1166.9 2465.96 1167.04L2466.9 1169.91 2467.6 1173.47 2467.83 1177.43 2467.58 1181.48 2466.79 1185.5 2465.52 1189.35C2465.48 1189.47 2465.43 1189.59 2465.38 1189.7L2463.63 1193.13C2463.57 1193.24 2463.51 1193.35 2463.44 1193.45L2458.81 1199.95C2458.71 1200.09 2458.6 1200.22 2458.47 1200.33L2452.54 1205.83C2452.43 1205.93 2452.32 1206.02 2452.2 1206.1L2445.07 1210.72C2444.96 1210.8 2444.83 1210.86 2444.7 1210.92L2436.45 1214.48C2436.33 1214.54 2436.2 1214.58 2436.08 1214.61L2426.95 1216.92 2421.81 1217.55 2416.68 1217.75 2408.23 1217.18C2408.1 1217.17 2407.98 1217.16 2407.85 1217.13L2400.6 1215.5C2400.47 1215.47 2400.34 1215.43 2400.21 1215.38L2393.9 1212.82C2393.75 1212.76 2393.62 1212.69 2393.49 1212.6L2388.24 1209.23C2388.1 1209.14 2387.96 1209.04 2387.85 1208.92L2383.6 1204.79C2383.46 1204.66 2383.34 1204.51 2383.23 1204.35L2380.11 1199.47C2380.01 1199.32 2379.93 1199.15 2379.86 1198.98L2377.93 1193.67C2377.86 1193.48 2377.81 1193.28 2377.79 1193.08L2377.16 1187.33C2377.15 1187.17 2377.14 1187 2377.16 1186.83L2377.79 1180.08C2377.8 1179.89 2377.84 1179.7 2377.9 1179.52L2379.78 1173.9C2379.83 1173.73 2379.91 1173.57 2380 1173.42L2382.68 1168.86C2382.75 1168.74 2382.83 1168.63 2382.91 1168.53L2385.91 1164.91 2388.98 1161.94 2391.07 1160.32 2390.54 1159.9 2388.21 1157.78 2385.77 1155.02 2383.5 1151.63C2383.4 1151.47 2383.31 1151.31 2383.25 1151.13L2381.81 1147.32C2381.74 1147.12 2381.69 1146.92 2381.66 1146.71L2381.16 1142.21C2381.15 1142.07 2381.15 1141.92 2381.15 1141.78L2381.4 1137.9 2382.2 1133.93 2383.47 1130.18C2383.52 1130.06 2383.57 1129.94 2383.63 1129.83L2385.31 1126.64C2385.39 1126.51 2385.47 1126.38 2385.57 1126.25L2390.01 1120.69C2390.11 1120.56 2390.23 1120.44 2390.37 1120.33L2395.87 1115.76C2395.99 1115.66 2396.13 1115.57 2396.27 1115.49L2402.83 1111.93C2402.95 1111.86 2403.08 1111.81 2403.21 1111.76L2410.65 1109.2 2418.78 1107.55ZM2335.73 1106.94C2335.85 1106.94 2335.98 1106.94 2336.11 1106.95L2342.88 1107.57C2343.02 1107.59 2343.15 1107.61 2343.28 1107.64L2349.47 1109.27C2349.62 1109.31 2349.76 1109.36 2349.89 1109.42L2355.39 1111.98C2355.53 1112.05 2355.66 1112.13 2355.79 1112.21L2360.35 1115.46C2360.47 1115.55 2360.59 1115.65 2360.7 1115.76L2364.45 1119.64C2364.56 1119.76 2364.66 1119.88 2364.75 1120.02L2367.56 1124.4C2367.66 1124.55 2367.74 1124.71 2367.8 1124.88L2369.55 1129.56C2369.62 1129.75 2369.67 1129.95 2369.69 1130.14L2370.26 1134.89C2370.27 1135.05 2370.28 1135.2 2370.27 1135.35L2369.96 1140.16C2369.95 1140.32 2369.92 1140.48 2369.88 1140.64L2368.75 1144.89 2367.14 1148.78 2365.32 1152 2363.64 1154.43 2363.08 1155.12 2364.82 1156.17C2364.92 1156.24 2365.02 1156.31 2365.12 1156.39L2367.99 1158.76C2368.08 1158.84 2368.17 1158.92 2368.25 1159.01L2371.25 1162.32C2371.34 1162.42 2371.42 1162.52 2371.49 1162.63L2374.24 1166.82C2374.34 1166.98 2374.43 1167.15 2374.5 1167.33L2376.44 1172.64C2376.51 1172.84 2376.56 1173.05 2376.58 1173.27L2377.2 1179.89C2377.21 1180.02 2377.22 1180.16 2377.21 1180.29L2376.96 1183.98 2376.3 1187.75C2376.28 1187.87 2376.25 1187.99 2376.21 1188.1L2375.08 1191.48 2373.39 1194.98C2373.34 1195.09 2373.27 1195.2 2373.2 1195.31L2369.14 1201.12C2369.05 1201.25 2368.94 1201.37 2368.83 1201.48L2363.71 1206.48C2363.6 1206.59 2363.48 1206.68 2363.35 1206.77L2357.35 1210.77C2357.23 1210.84 2357.11 1210.91 2356.99 1210.97L2350.3 1213.97C2350.17 1214.02 2350.04 1214.07 2349.91 1214.11L2342.79 1215.98C2342.65 1216.02 2342.51 1216.04 2342.36 1216.05L2335.11 1216.68 2330.23 1216.5 2325.67 1215.85 2321.31 1214.81 2317.19 1213.36C2317.08 1213.32 2316.96 1213.27 2316.86 1213.21L2309.98 1209.59C2309.87 1209.53 2309.76 1209.46 2309.66 1209.38L2303.78 1205.01C2303.67 1204.92 2303.56 1204.83 2303.46 1204.72L2298.77 1199.78C2298.67 1199.67 2298.57 1199.55 2298.49 1199.43L2294.99 1194.05C2294.91 1193.92 2294.83 1193.78 2294.78 1193.64L2292.59 1188.33C2292.51 1188.14 2292.45 1187.94 2292.43 1187.73L2291.74 1182.98C2291.7 1182.69 2291.71 1182.4 2291.76 1182.11L2292.33 1179.43C2292.39 1179.13 2292.5 1178.85 2292.67 1178.6L2294.42 1175.85C2294.5 1175.71 2294.6 1175.58 2294.72 1175.46L2297.28 1172.78 2300.46 1170.04 2303.99 1167.62 2307.67 1165.66 2311.31 1164.33C2311.47 1164.27 2311.65 1164.23 2311.83 1164.21L2314.7 1163.83C2314.91 1163.81 2315.11 1163.81 2315.32 1163.83L2317.94 1164.14C2318.28 1164.18 2318.6 1164.29 2318.89 1164.45L2319.17 1164.61 2318.83 1163.1C2318.81 1162.98 2318.79 1162.85 2318.78 1162.73L2318.53 1158.98C2318.51 1158.69 2318.54 1158.4 2318.62 1158.12L2319.31 1155.74C2319.41 1155.4 2319.58 1155.08 2319.82 1154.81L2321.75 1152.56C2321.84 1152.45 2321.94 1152.36 2322.05 1152.27L2327.36 1147.83 2331.91 1143.57 2333.11 1141.72 2333.47 1139.93 2333.46 1139.88 2332.11 1139.51 2330.48 1139.89 2328.63 1141.16 2324.62 1146.29 2321.03 1152.18 2319.92 1153.72C2319.84 1153.83 2319.76 1153.93 2319.67 1154.02L2318.67 1155.02C2318.52 1155.17 2318.35 1155.3 2318.17 1155.41L2317.1 1156.03C2316.84 1156.19 2316.55 1156.29 2316.25 1156.34L2315.12 1156.53C2314.89 1156.57 2314.65 1156.57 2314.41 1156.54L2311.85 1156.23C2311.65 1156.21 2311.46 1156.16 2311.28 1156.1L2308.41 1155.03 2305.16 1153.33 2302.15 1151.23C2302.03 1151.15 2301.91 1151.05 2301.81 1150.94L2297 1146.07C2296.85 1145.92 2296.73 1145.76 2296.62 1145.58L2295 1142.83C2294.84 1142.57 2294.74 1142.28 2294.68 1141.98L2294.18 1139.04C2294.15 1138.83 2294.14 1138.6 2294.16 1138.38L2294.35 1136.45C2294.36 1136.32 2294.38 1136.19 2294.42 1136.07L2294.98 1133.88 2296.02 1131.25 2297.53 1128.52 2301.25 1123.35C2301.34 1123.23 2301.43 1123.11 2301.54 1123.01L2306.29 1118.45 2312.3 1114.04C2312.4 1113.97 2312.51 1113.9 2312.62 1113.84L2319.25 1110.41 2323.14 1108.91 2327.2 1107.83 2331.42 1107.21ZM2069.59 1106.52 2077.39 1107.26C2077.57 1107.28 2077.75 1107.32 2077.92 1107.37L2084.29 1109.43C2084.47 1109.49 2084.64 1109.57 2084.8 1109.66L2087.43 1111.23C2087.58 1111.32 2087.73 1111.43 2087.86 1111.55L2089.86 1113.43C2090.02 1113.58 2090.17 1113.76 2090.28 1113.95L2091.66 1116.2C2091.77 1116.38 2091.86 1116.59 2091.92 1116.8L2092.67 1119.36 2093.18 1122.63 2093.52 1126.61 2094.08 1136.23 2094.52 1147.02 2094.65 1152 2094.71 1155.58 2094.59 1165.72 2094.15 1174.87 2093.39 1182.98 2092.37 1190.1 2091.09 1196.15 2089.6 1201.05C2089.57 1201.16 2089.52 1201.27 2089.47 1201.38L2087.85 1204.82C2087.75 1205.02 2087.63 1205.21 2087.49 1205.38L2085.61 1207.56C2085.46 1207.74 2085.29 1207.89 2085.1 1208.01L2079.98 1211.45C2079.81 1211.57 2079.62 1211.66 2079.43 1211.73L2073.3 1213.92C2073.18 1213.96 2073.06 1213.99 2072.93 1214.02L2066.43 1215.27 2059.73 1215.68C2059.59 1215.69 2059.45 1215.69 2059.31 1215.67L2057.06 1215.42C2056.82 1215.4 2056.59 1215.34 2056.37 1215.24L2054.43 1214.43C2054.26 1214.36 2054.09 1214.26 2053.93 1214.15L2052.12 1212.84C2051.95 1212.71 2051.8 1212.57 2051.66 1212.41L2050.16 1210.59C2050.08 1210.5 2050.01 1210.4 2049.95 1210.29L2047.2 1205.73 2044.31 1200.22 2043.24 1197.83 2041.9 1194.58 2040.38 1190.65 2038.65 1186.45 2034.95 1177.24 2033.1 1172.92 2031.58 1169.55 2031.71 1172.58 2032.62 1178.77 2033.9 1184.39 2035.31 1189.53 2036.72 1194 2038.13 1197.9 2039.17 1201.34C2039.21 1201.47 2039.24 1201.61 2039.25 1201.74L2039.57 1204.18C2039.6 1204.47 2039.59 1204.77 2039.52 1205.06L2039.02 1207.24C2038.95 1207.56 2038.82 1207.85 2038.64 1208.12L2037.2 1210.18C2037.08 1210.35 2036.94 1210.51 2036.78 1210.65L2034.59 1212.52C2034.48 1212.62 2034.36 1212.7 2034.23 1212.78L2031.48 1214.4C2031.38 1214.47 2031.26 1214.52 2031.15 1214.57L2027.9 1215.88 2023.97 1217.03 2019.73 1217.72 2015.3 1218 2011.01 1217.87 2007.18 1217.35 2003.87 1216.55 2000.99 1215.45C2000.82 1215.39 2000.65 1215.3 2000.5 1215.2L1998.37 1213.76C1998.22 1213.65 1998.07 1213.53 1997.94 1213.39L1996.26 1211.58C1996.11 1211.42 1995.99 1211.25 1995.89 1211.06L1994.64 1208.75C1994.57 1208.62 1994.51 1208.48 1994.46 1208.34L1993.58 1205.65 1992.94 1202.34 1992.37 1198.7 1991.8 1194.66 1991.29 1190.02 1990.59 1180.05 1990.28 1169.83 1990.34 1160.92 1990.46 1152.96 1990.71 1145.79 1991.09 1139.41 1991.47 1134.07 1991.85 1129.66 1992.23 1126.17 1992.62 1123.62 1993.66 1119.45C1993.71 1119.25 1993.79 1119.06 1993.88 1118.89L1995.38 1116.07C1995.49 1115.87 1995.63 1115.68 1995.79 1115.51L1997.73 1113.51C1997.91 1113.33 1998.11 1113.17 1998.34 1113.05L2000.65 1111.8C2000.79 1111.73 2000.93 1111.67 2001.08 1111.62L2002.45 1111.18 2004.75 1110.73 2010.03 1110.08 2016.04 1109.51 2018.99 1109.32 2021.59 1109.25 2027.28 1109.83C2027.42 1109.84 2027.56 1109.87 2027.69 1109.9L2030.63 1110.72C2030.75 1110.75 2030.86 1110.79 2030.98 1110.84L2033.79 1112.09C2033.9 1112.14 2034.01 1112.2 2034.12 1112.27L2036.87 1114.02C2036.97 1114.08 2037.06 1114.15 2037.16 1114.23L2039.84 1116.54C2039.93 1116.62 2040.02 1116.7 2040.1 1116.79L2042.66 1119.73C2042.75 1119.83 2042.82 1119.94 2042.89 1120.05L2045.08 1123.55 2046.23 1125.7 2047.78 1128.92 2051.11 1136.14 2052.86 1139.96 2054.86 1144.34 2055.04 1144.71 2052.21 1136.02 2050.31 1131.01 2048.56 1126.39 2047.21 1122.21C2047.16 1122.06 2047.13 1121.92 2047.11 1121.77L2046.67 1118.45C2046.63 1118.11 2046.65 1117.77 2046.75 1117.44L2047.25 1115.69C2047.33 1115.39 2047.47 1115.11 2047.66 1114.86L2049.03 1113.05C2049.18 1112.85 2049.37 1112.67 2049.57 1112.53L2051.76 1110.97C2051.86 1110.89 2051.96 1110.83 2052.07 1110.78L2054.63 1109.46C2054.75 1109.41 2054.86 1109.36 2054.98 1109.32L2057.98 1108.32 2061.6 1107.39 2069.07 1106.52C2069.24 1106.51 2069.42 1106.5 2069.59 1106.52ZM2501.13 1106.09C2501.31 1106.07 2501.49 1106.07 2501.67 1106.09L2507.44 1106.77C2507.58 1106.78 2507.71 1106.81 2507.84 1106.85L2510.66 1107.66 2513.53 1108.9C2513.66 1108.96 2513.79 1109.03 2513.91 1109.11L2516.16 1110.61C2516.29 1110.69 2516.4 1110.79 2516.51 1110.89L2518.45 1112.77C2518.57 1112.89 2518.69 1113.02 2518.78 1113.16L2520.22 1115.29C2520.35 1115.48 2520.45 1115.69 2520.53 1115.92L2521.34 1118.42C2521.38 1118.54 2521.41 1118.67 2521.43 1118.8L2521.87 1121.62 2522.2 1125.28 2522.4 1129.58 2522.52 1134.56 2522.59 1140.03 2522.65 1145.91 2522.71 1152.23 2522.71 1158.94 2522.46 1167.02 2521.83 1175.87 2520.89 1184.76 2519.69 1193.05 2518.1 1200.58 2516.11 1207.22 2514.97 1210.11 2513.7 1212.41C2513.62 1212.56 2513.53 1212.7 2513.42 1212.82L2512.23 1214.2C2512.06 1214.4 2511.85 1214.57 2511.62 1214.71L2510.37 1215.46C2510.2 1215.56 2510.01 1215.65 2509.81 1215.71L2505.87 1216.89C2505.76 1216.93 2505.64 1216.95 2505.53 1216.97L2502.65 1217.41 2499.51 1217.56 2495.77 1217.56 2490.62 1217.12C2490.48 1217.1 2490.34 1217.08 2490.21 1217.05L2485.15 1215.73C2485.01 1215.7 2484.88 1215.65 2484.76 1215.6L2482.51 1214.6C2482.38 1214.54 2482.26 1214.47 2482.14 1214.39L2480.08 1213.02C2479.87 1212.88 2479.68 1212.71 2479.52 1212.52L2478.15 1210.83C2477.91 1210.54 2477.74 1210.19 2477.65 1209.82L2477.15 1207.7C2477.09 1207.42 2477.07 1207.13 2477.1 1206.84L2477.29 1205.21 2477.83 1202.71 2478.61 1199.74 2479.41 1196.52 2481.5 1189.36 2483.49 1182.32 2484.28 1179.09 2484.97 1176.28 2485.39 1174.2 2485.39 1174.15 2484.11 1173.43 2481.34 1172.05 2477.92 1170.37 2470.73 1166.01C2470.6 1165.94 2470.49 1165.85 2470.38 1165.76L2468.88 1164.44C2468.72 1164.31 2468.59 1164.16 2468.47 1163.99L2467.47 1162.55C2467.38 1162.42 2467.3 1162.28 2467.24 1162.13L2466.55 1160.57C2466.45 1160.33 2466.38 1160.08 2466.35 1159.83L2466.16 1158.08C2466.14 1157.88 2466.15 1157.68 2466.17 1157.48L2466.48 1155.17C2466.51 1154.95 2466.57 1154.75 2466.65 1154.55L2467.53 1152.42C2467.58 1152.29 2467.65 1152.15 2467.73 1152.03L2469.17 1149.78 2470.94 1147.11 2473.14 1143.85 2475.46 1140.07 2478.1 1135.39 2480.75 1129.58 2482.23 1126.19 2483.55 1123.19 2484.76 1120.57 2485.75 1118.4 2487.61 1114.74 2489.62 1111.63C2489.71 1111.5 2489.81 1111.38 2489.92 1111.26L2491.92 1109.2C2492.05 1109.06 2492.2 1108.94 2492.35 1108.84L2494.48 1107.46C2494.69 1107.33 2494.93 1107.22 2495.17 1107.15L2497.67 1106.46C2497.81 1106.43 2497.95 1106.4 2498.09 1106.39ZM1954.64 1105.94 1958.73 1106.39C1958.89 1106.41 1959.04 1106.44 1959.19 1106.48L1963.69 1107.86 1968.58 1110.11 1973.07 1112.8C1973.17 1112.86 1973.28 1112.94 1973.37 1113.02L1977.12 1116.14C1977.22 1116.22 1977.31 1116.31 1977.39 1116.4L1980.51 1119.9C1980.63 1120.02 1980.72 1120.16 1980.81 1120.3L1983 1124.05C1983.15 1124.31 1983.25 1124.59 1983.3 1124.88L1983.99 1128.82C1984.03 1129.06 1984.04 1129.3 1984.01 1129.53L1983.76 1131.72C1983.74 1131.91 1983.69 1132.1 1983.63 1132.28L1982.75 1134.72C1982.7 1134.87 1982.63 1135.02 1982.54 1135.16L1979.36 1140.47 1975.01 1146.2 1970.23 1151.76 1963.97 1157.96 1960.74 1160.63 1964.66 1163.4 1967.15 1165.66C1967.24 1165.74 1967.32 1165.83 1967.4 1165.92L1969.59 1168.61C1969.67 1168.71 1969.74 1168.81 1969.8 1168.91L1973.17 1174.6 1976.11 1180.14 1977.39 1182.17 1978.4 1183.65 1979.24 1184.49 1980.29 1184.99 1983 1186.32C1983.24 1186.44 1983.47 1186.6 1983.67 1186.8L1985.92 1189.05C1986.08 1189.21 1986.22 1189.39 1986.33 1189.59L1987.83 1192.28C1987.97 1192.52 1988.06 1192.79 1988.11 1193.06L1988.61 1195.88C1988.65 1196.12 1988.66 1196.37 1988.63 1196.62L1988.38 1198.62C1988.36 1198.79 1988.32 1198.95 1988.27 1199.1L1987.65 1200.98C1987.58 1201.18 1987.48 1201.38 1987.37 1201.56L1986.18 1203.37C1986.08 1203.51 1985.98 1203.65 1985.85 1203.77L1984.23 1205.39C1984.14 1205.48 1984.05 1205.56 1983.95 1205.63L1980.08 1208.51C1979.97 1208.59 1979.85 1208.66 1979.73 1208.72L1975.23 1211.04 1970.23 1212.96 1965.11 1214.35 1960.37 1215.27 1956.45 1215.56C1956.27 1215.57 1956.1 1215.56 1955.93 1215.54L1951.93 1214.98C1951.7 1214.94 1951.48 1214.88 1951.27 1214.79L1947.58 1213.16C1947.37 1213.07 1947.18 1212.96 1947.01 1212.81L1945.32 1211.44C1945.18 1211.32 1945.04 1211.19 1944.93 1211.04L1943.37 1209.04 1941.68 1206.2 1940.12 1202.78 1938.54 1198.33 1937.24 1194.73 1934.71 1188.64 1933.49 1186.27 1932.49 1184.87 1931.93 1184.32 1931.53 1184.44 1931.41 1185.3 1931.58 1189.07 1932.12 1192.36 1933.87 1198.44 1934.8 1200.94 1935.63 1203.21 1936.27 1205.15C1936.33 1205.31 1936.36 1205.48 1936.38 1205.65L1936.57 1207.28C1936.6 1207.56 1936.59 1207.84 1936.52 1208.12L1936.21 1209.49C1936.15 1209.77 1936.04 1210.04 1935.88 1210.28L1935.01 1211.66C1934.87 1211.87 1934.7 1212.07 1934.5 1212.23L1933 1213.48C1932.84 1213.62 1932.66 1213.73 1932.47 1213.82L1930.22 1214.89C1930.11 1214.94 1929.99 1214.98 1929.88 1215.02L1927 1215.89 1923.19 1216.64 1918.62 1217.17 1912.96 1217.31 1909.21 1217.12 1905.76 1216.6 1902.69 1215.71C1902.55 1215.67 1902.41 1215.61 1902.28 1215.55L1899.91 1214.36C1899.75 1214.28 1899.59 1214.18 1899.46 1214.07L1897.52 1212.51C1897.39 1212.41 1897.28 1212.3 1897.18 1212.18L1895.49 1210.18C1895.39 1210.06 1895.31 1209.94 1895.24 1209.82L1893.86 1207.44C1893.79 1207.32 1893.73 1207.2 1893.69 1207.07L1892.62 1204.26 1891.99 1202.05 1891.34 1199.33 1890.75 1195.93 1890.12 1191.89 1889.54 1187.18 1889.16 1181.74 1888.9 1175.6 1888.84 1168.77 1888.9 1159.48 1889.21 1151.03 1889.65 1143.48 1890.29 1136.83 1891.11 1131.2 1892.22 1126.65C1892.25 1126.53 1892.29 1126.42 1892.33 1126.31L1893.58 1123.24C1893.68 1123.02 1893.8 1122.81 1893.95 1122.63L1895.45 1120.75C1895.62 1120.53 1895.83 1120.35 1896.07 1120.2L1902.63 1116.07C1902.77 1115.98 1902.92 1115.91 1903.07 1115.85L1910.76 1112.92 1919.18 1110.82 1923.22 1110.21 1926.56 1110C1926.72 1110 1926.88 1110 1927.04 1110.02L1930.85 1110.52C1931.18 1110.57 1931.5 1110.67 1931.79 1110.84L1934.35 1112.34C1934.66 1112.52 1934.92 1112.77 1935.13 1113.06L1936.63 1115.18C1936.83 1115.46 1936.96 1115.78 1937.03 1116.11L1937.53 1118.49C1937.59 1118.74 1937.6 1118.99 1937.57 1119.25L1937.32 1121.75 1936.58 1124.96 1934.46 1131.41 1932.56 1138.35 1932.25 1140.17 1934.04 1137.62 1937.24 1132.12 1940.24 1126.29 1942.48 1121.13 1943.99 1117.01 1944.59 1114.27 1945.37 1111.45C1945.46 1111.12 1945.62 1110.82 1945.83 1110.55L1947.46 1108.55C1947.66 1108.3 1947.91 1108.09 1948.19 1107.94L1950.44 1106.69C1950.69 1106.55 1950.96 1106.45 1951.25 1106.41L1953.97 1105.96C1954.19 1105.93 1954.42 1105.92 1954.64 1105.94ZM2222.47 1105.79 2229.89 1106.32C2230.03 1106.33 2230.16 1106.35 2230.3 1106.38L2237.05 1108.01C2237.17 1108.04 2237.29 1108.07 2237.4 1108.12L2243.4 1110.56C2243.52 1110.61 2243.63 1110.66 2243.74 1110.73L2248.87 1113.79C2249.01 1113.87 2249.13 1113.97 2249.25 1114.07L2253.31 1117.7C2253.42 1117.79 2253.52 1117.9 2253.61 1118.01L2256.73 1121.95C2256.85 1122.09 2256.94 1122.24 2257.02 1122.41L2259.02 1126.53C2259.13 1126.76 2259.21 1127 2259.25 1127.25L2259.87 1131.31C2259.91 1131.56 2259.91 1131.82 2259.87 1132.08L2259.37 1135.26C2259.33 1135.5 2259.26 1135.74 2259.15 1135.96L2257.65 1139.08C2257.6 1139.2 2257.53 1139.32 2257.45 1139.43L2255.33 1142.49C2255.25 1142.6 2255.16 1142.71 2255.06 1142.81L2252.5 1145.43C2252.39 1145.55 2252.27 1145.65 2252.14 1145.74L2246.2 1149.87C2246.05 1149.97 2245.89 1150.06 2245.72 1150.13L2242.66 1151.38C2242.46 1151.46 2242.25 1151.51 2242.04 1151.54L2241.83 1151.57 2245.99 1154.04 2250.95 1157.91C2251.05 1157.99 2251.14 1158.08 2251.23 1158.17L2255.29 1162.55C2255.4 1162.67 2255.5 1162.79 2255.58 1162.93L2258.9 1168.24C2258.99 1168.4 2259.08 1168.57 2259.14 1168.74L2261.32 1175.06C2261.39 1175.24 2261.43 1175.43 2261.45 1175.62L2262.2 1183.06C2262.21 1183.19 2262.22 1183.32 2262.21 1183.44L2262.02 1187.07 2261.36 1190.82 2260.36 1194.27C2260.33 1194.38 2260.28 1194.5 2260.23 1194.6L2258.86 1197.6C2258.8 1197.73 2258.73 1197.86 2258.65 1197.97L2255.03 1203.28C2254.92 1203.44 2254.8 1203.58 2254.67 1203.7L2249.98 1208.08C2249.86 1208.19 2249.74 1208.29 2249.6 1208.37L2244.1 1211.81C2243.97 1211.89 2243.84 1211.95 2243.7 1212.01L2237.45 1214.51C2237.33 1214.56 2237.2 1214.6 2237.07 1214.63L2230.32 1216.13C2230.2 1216.16 2230.07 1216.17 2229.95 1216.18L2222.76 1216.68C2222.63 1216.69 2222.51 1216.69 2222.38 1216.68L2214.76 1216.05C2214.62 1216.04 2214.49 1216.02 2214.36 1215.99L2206.86 1214.11C2206.73 1214.08 2206.61 1214.04 2206.5 1213.99L2199.62 1211.12 2193.21 1207.41C2193.09 1207.35 2192.98 1207.27 2192.88 1207.19L2187.76 1203C2187.65 1202.91 2187.54 1202.81 2187.45 1202.7L2183.32 1197.95C2183.24 1197.85 2183.16 1197.75 2183.09 1197.64L2181.53 1195.14 2180.24 1192.34C2180.18 1192.2 2180.13 1192.05 2180.1 1191.91L2179.47 1189.34C2179.44 1189.23 2179.42 1189.11 2179.41 1188.99L2179.16 1186.43C2179.14 1186.24 2179.15 1186.05 2179.17 1185.86L2179.67 1182.05C2179.7 1181.82 2179.76 1181.59 2179.86 1181.38L2181.48 1177.63C2181.55 1177.47 2181.63 1177.33 2181.73 1177.19L2184.1 1173.81 2187.07 1170.6 2190.3 1167.89 2193.71 1165.75C2193.81 1165.69 2193.91 1165.63 2194.02 1165.58L2196.74 1164.4 2194.77 1162.82 2190.82 1158.65C2190.73 1158.55 2190.65 1158.44 2190.57 1158.32L2187.44 1153.64C2187.34 1153.47 2187.25 1153.3 2187.18 1153.11L2185.18 1147.68C2185.11 1147.48 2185.06 1147.28 2185.04 1147.08L2184.35 1140.64C2184.33 1140.47 2184.33 1140.3 2184.35 1140.13L2185.04 1133.25C2185.06 1133.06 2185.1 1132.87 2185.16 1132.68L2187.35 1126.37C2187.41 1126.19 2187.5 1126.01 2187.6 1125.85L2191.1 1120.35C2191.19 1120.21 2191.29 1120.08 2191.41 1119.96L2195.85 1115.33C2195.96 1115.22 2196.08 1115.11 2196.21 1115.02L2201.52 1111.27C2201.65 1111.18 2201.79 1111.1 2201.93 1111.04L2207.99 1108.29C2208.12 1108.23 2208.26 1108.18 2208.4 1108.14L2214.9 1106.46C2215.03 1106.42 2215.17 1106.4 2215.31 1106.38L2222.07 1105.8C2222.2 1105.79 2222.34 1105.78 2222.47 1105.79Z" fill="#5B9BD5" fill-rule="evenodd"/><path d="M2420.84 1171.91C2419.18 1171.91 2417.59 1172.19 2416.07 1172.75 2414.55 1173.32 2413.19 1174.04 2412 1174.93 2410.81 1175.81 2409.89 1176.75 2409.26 1177.73 2408.63 1178.72 2408.32 1179.65 2408.32 1180.53 2408.32 1181.5 2408.67 1182.38 2409.37 1183.19 2410.07 1183.99 2411.3 1184.4 2413.05 1184.4 2414.21 1184.4 2415.45 1184.14 2416.79 1183.62 2418.12 1183.11 2419.35 1182.44 2420.48 1181.61 2421.61 1180.78 2422.53 1179.86 2423.22 1178.83 2423.92 1177.81 2424.27 1176.79 2424.27 1175.77 2424.27 1174.8 2423.92 1173.92 2423.22 1173.11 2422.52 1172.31 2421.73 1171.91 2420.84 1171.91ZM2417.38 1128.07C2416.23 1128.07 2415.04 1128.31 2413.83 1128.78 2412.61 1129.26 2411.57 1129.83 2410.72 1130.48 2409.86 1131.13 2409.17 1131.89 2408.66 1132.76 2408.14 1133.63 2407.89 1134.41 2407.89 1135.1 2407.89 1135.93 2408.15 1136.58 2408.67 1137.08 2409.2 1137.57 2410.23 1137.82 2411.75 1137.82 2414.01 1137.82 2416.06 1137.14 2417.9 1135.79 2419.74 1134.44 2420.67 1132.82 2420.67 1130.92 2420.67 1130.04 2420.36 1129.35 2419.75 1128.84 2419.15 1128.32 2418.35 1128.07 2417.38 1128.07ZM2132.77 1105.37C2139.76 1105.37 2145.61 1105.76 2150.31 1106.52 2155 1107.29 2158.54 1109.58 2160.92 1113.41 2162.49 1115.73 2163.51 1118.15 2163.97 1120.68 2164.44 1123.2 2164.67 1125.56 2164.67 1127.75 2164.67 1130.6 2163.98 1132.84 2162.61 1134.45 2161.24 1136.06 2159.51 1136.86 2157.43 1136.86 2156.55 1136.86 2155.4 1136.79 2153.98 1136.64 2152.56 1136.49 2151 1136.35 2149.31 1136.21 2147.62 1136.07 2145.84 1135.93 2143.97 1135.78 2142.1 1135.64 2140.34 1135.57 2138.68 1135.57 2135.3 1135.57 2132.92 1135.83 2131.55 1136.35 2130.17 1136.87 2129.48 1137.85 2129.48 1139.29 2129.48 1140.6 2129.73 1141.62 2130.23 1142.35 2130.73 1143.08 2131.48 1143.44 2132.48 1143.44 2133.55 1143.44 2134.76 1143.33 2136.11 1143.09 2137.47 1142.86 2138.86 1142.62 2140.31 1142.38 2141.75 1142.14 2143.19 1141.9 2144.62 1141.65 2146.05 1141.4 2147.39 1141.28 2148.64 1141.28 2151.19 1141.28 2153.2 1142.08 2154.67 1143.67 2156.14 1145.26 2156.88 1148.41 2156.88 1153.13 2156.88 1158.22 2156.24 1162.26 2154.97 1165.25 2153.69 1168.24 2151.82 1169.74 2149.35 1169.74 2147.6 1169.74 2145.88 1169.65 2144.2 1169.45 2142.52 1169.26 2140.68 1169.16 2138.68 1169.16 2135.58 1169.16 2133.42 1169.52 2132.19 1170.22 2130.96 1170.93 2130.35 1172.11 2130.35 1173.75 2130.35 1174.8 2130.52 1175.52 2130.88 1175.9 2131.23 1176.28 2132.44 1176.47 2134.5 1176.47 2138.65 1176.47 2142.37 1176.12 2145.66 1175.42 2148.95 1174.73 2151.9 1173.92 2154.5 1173.01 2157.1 1172.09 2159.27 1171.26 2161.01 1170.52 2162.75 1169.77 2164.1 1169.4 2165.07 1169.4 2167.15 1169.4 2168.77 1170.64 2169.96 1173.12 2171.14 1175.61 2171.73 1178.84 2171.73 1182.84 2171.73 1188.06 2171.34 1192.22 2170.55 1195.34 2169.75 1198.46 2168.11 1200.61 2165.61 1201.81 2164.42 1202.46 2162.5 1203.23 2159.85 1204.13 2157.2 1205.03 2154.08 1205.89 2150.5 1206.72 2146.91 1207.54 2142.97 1208.27 2138.69 1208.89 2134.4 1209.52 2129.88 1209.83 2125.13 1209.83 2120.52 1209.83 2116.71 1209.71 2113.71 1209.46 2110.71 1209.21 2108.26 1208.81 2106.36 1208.24 2104.46 1207.68 2102.99 1206.96 2101.94 1206.08 2100.88 1205.21 2100.12 1204.12 2099.65 1202.81 2099.15 1201.43 2098.64 1199.43 2098.09 1196.81 2097.55 1194.19 2097.06 1191.16 2096.63 1187.71 2096.2 1184.26 2095.84 1180.37 2095.54 1176.03 2095.25 1171.7 2095.11 1167.14 2095.11 1162.36 2095.11 1148.31 2095.61 1137.31 2096.62 1129.35 2097.64 1121.4 2098.6 1116.05 2099.51 1113.31 2100.32 1110.99 2103.44 1109.09 2108.88 1107.6 2114.32 1106.12 2122.28 1105.37 2132.77 1105.37ZM2422.14 1104.51C2431.42 1104.51 2438.79 1106.52 2444.25 1110.56 2449.72 1114.59 2452.45 1120.13 2452.45 1127.17 2452.45 1131.12 2451.86 1134.49 2450.7 1137.29 2449.53 1140.08 2448.2 1142.4 2446.72 1144.24 2445.23 1146.08 2444.01 1147.37 2443.06 1148.12 2442.11 1148.86 2441.63 1149.14 2441.63 1148.95 2441.63 1148.65 2442.49 1148.82 2444.21 1149.45 2445.93 1150.07 2448.01 1151.25 2450.45 1152.98 2452.9 1154.72 2455.16 1157.16 2457.25 1160.31 2459.34 1163.47 2460.38 1167.57 2460.38 1172.6 2460.38 1177.65 2459.07 1182.48 2456.45 1187.06 2453.83 1191.65 2450.31 1195.65 2445.9 1199.07 2441.49 1202.49 2436.35 1205.21 2430.48 1207.23 2424.61 1209.25 2418.32 1210.27 2411.61 1210.27 2405.87 1210.27 2400.73 1209.54 2396.19 1208.09 2391.65 1206.65 2387.79 1204.66 2384.61 1202.14 2381.44 1199.62 2378.99 1196.63 2377.26 1193.17 2375.53 1189.71 2374.66 1186.03 2374.66 1182.12 2374.66 1177.2 2375.51 1173.07 2377.21 1169.73 2378.91 1166.38 2380.79 1163.65 2382.85 1161.53 2384.92 1159.42 2386.69 1157.88 2388.17 1156.93 2389.64 1155.97 2390.38 1155.48 2390.38 1155.44 2390.38 1155.47 2389.87 1155.11 2388.84 1154.38 2387.82 1153.64 2386.52 1152.51 2384.95 1150.99 2383.37 1149.46 2381.94 1147.56 2380.65 1145.28 2379.35 1143 2378.7 1140.24 2378.7 1136.98 2378.7 1131.63 2379.98 1126.93 2382.54 1122.87 2385.1 1118.8 2388.42 1115.42 2392.51 1112.73 2396.6 1110.04 2401.27 1107.99 2406.49 1106.6 2411.72 1105.2 2416.94 1104.51 2422.14 1104.51ZM2330.95 1104.51C2335.61 1104.51 2339.93 1105.24 2343.88 1106.71 2347.84 1108.18 2351.2 1110.13 2353.96 1112.54 2356.73 1114.95 2358.9 1117.71 2360.47 1120.81 2362.05 1123.92 2362.84 1127.05 2362.84 1130.2 2362.84 1133.62 2362.35 1136.64 2361.38 1139.26 2360.4 1141.88 2359.35 1144.05 2358.21 1145.78 2357.08 1147.5 2356.1 1148.82 2355.28 1149.73 2354.46 1150.64 2354.04 1151.1 2354.04 1151.11 2354.04 1150.98 2354.76 1151.25 2356.19 1151.92 2357.63 1152.6 2359.38 1153.87 2361.46 1155.75 2363.54 1157.63 2365.45 1160.12 2367.17 1163.21 2368.9 1166.31 2369.76 1170.3 2369.76 1175.19 2369.76 1180.15 2368.58 1184.72 2366.21 1188.91 2363.84 1193.09 2360.77 1196.69 2357.01 1199.7 2353.24 1202.72 2349.01 1205.06 2344.32 1206.74 2339.63 1208.42 2334.84 1209.25 2329.93 1209.25 2323.66 1209.25 2318.04 1208.19 2313.07 1206.05 2308.1 1203.92 2303.85 1201.25 2300.31 1198.06 2296.77 1194.87 2294.04 1191.43 2292.12 1187.74 2290.2 1184.05 2289.24 1180.69 2289.24 1177.64 2289.24 1175.91 2290.02 1174.11 2291.58 1172.23 2293.14 1170.36 2294.99 1168.61 2297.12 1166.98 2299.26 1165.36 2301.5 1164.01 2303.85 1162.93 2306.2 1161.86 2308.26 1161.33 2310.03 1161.33 2312.12 1161.33 2313.58 1161.78 2314.42 1162.69 2315.27 1163.6 2315.69 1164.74 2315.69 1166.11 2315.69 1167.75 2316 1169.5 2316.62 1171.37 2317.24 1173.24 2318.14 1174.96 2319.31 1176.54 2320.48 1178.11 2321.82 1179.4 2323.35 1180.42 2324.87 1181.44 2326.54 1181.95 2328.35 1181.95 2330.43 1181.95 2332.1 1181.34 2333.36 1180.12 2334.61 1178.9 2335.24 1177.16 2335.24 1174.9 2335.24 1172.55 2334.46 1170.97 2332.9 1170.19 2331.34 1169.41 2329.48 1169.02 2327.34 1169.02 2325.95 1169.02 2324.59 1168.74 2323.25 1168.19 2321.91 1167.63 2320.69 1166.72 2319.6 1165.46 2318.51 1164.21 2317.65 1162.63 2317.01 1160.73 2316.38 1158.83 2316.06 1156.53 2316.06 1153.85 2316.06 1152.23 2316.94 1150.68 2318.69 1149.2 2320.43 1147.73 2322.2 1146.26 2323.98 1144.8 2325.75 1143.34 2327.38 1141.8 2328.85 1140.2 2330.32 1138.59 2331.06 1136.84 2331.06 1134.96 2331.06 1134.01 2330.72 1133.27 2330.03 1132.75 2329.34 1132.22 2328.4 1131.96 2327.19 1131.96 2325.3 1131.96 2323.55 1132.76 2321.94 1134.37 2320.33 1135.98 2318.91 1137.78 2317.67 1139.77 2316.44 1141.75 2315.19 1143.81 2313.92 1145.93 2312.66 1148.06 2311.27 1149.12 2309.74 1149.12 2308.15 1149.12 2306.35 1148.66 2304.34 1147.73 2302.33 1146.8 2300.42 1145.63 2298.61 1144.22 2296.79 1142.81 2295.19 1141.19 2293.79 1139.36 2292.39 1137.53 2291.69 1135.63 2291.69 1133.66 2291.69 1131.14 2292.7 1128.19 2294.73 1124.8 2296.75 1121.41 2299.52 1118.23 2303.04 1115.26 2306.56 1112.29 2310.69 1109.75 2315.43 1107.65 2320.18 1105.56 2325.35 1104.51 2330.95 1104.51ZM2064.42 1104.08C2070.01 1104.08 2074.74 1105 2078.59 1106.84 2082.44 1108.69 2084.69 1111.45 2085.33 1115.12 2085.61 1116.7 2085.85 1118.95 2086.04 1121.88 2086.23 1124.8 2086.43 1127.98 2086.62 1131.43 2086.82 1134.87 2086.97 1138.45 2087.07 1142.17 2087.18 1145.89 2087.23 1148.72 2087.23 1150.68 2087.23 1164.81 2086.47 1176.19 2084.94 1184.82 2083.41 1193.44 2081.35 1198.84 2078.76 1201 2075.62 1203.64 2071.86 1205.51 2067.49 1206.61 2063.11 1207.7 2058.82 1208.25 2054.61 1208.25 2051.47 1208.25 2048.98 1206.85 2047.14 1204.06 2045.3 1201.27 2043.44 1197.96 2041.58 1194.13 2041.03 1192.93 2040.26 1191.11 2039.28 1188.65 2038.29 1186.2 2037.2 1183.49 2036 1180.51 2034.8 1177.53 2033.56 1174.48 2032.29 1171.35 2031.01 1168.22 2029.8 1165.46 2028.66 1163.08 2027.52 1160.71 2026.52 1158.82 2025.65 1157.42 2024.79 1156.02 2024.3 1155.32 2024.19 1155.32 2024.01 1155.32 2023.92 1157.04 2023.92 1160.48 2023.92 1165.56 2024.34 1170.13 2025.18 1174.19 2026.02 1178.25 2026.94 1181.92 2027.94 1185.21 2028.94 1188.49 2029.89 1191.36 2030.79 1193.81 2031.69 1196.26 2032.14 1198.18 2032.14 1199.57 2032.14 1201.02 2031.49 1202.43 2030.19 1203.79 2028.89 1205.15 2027.23 1206.32 2025.23 1207.3 2023.22 1208.27 2020.92 1209.06 2018.33 1209.66 2015.75 1210.25 2013.04 1210.55 2010.2 1210.55 2004.46 1210.55 2000.05 1209.75 1996.96 1208.15 1993.86 1206.55 1991.88 1203.8 1991.01 1199.89 1990.61 1198.07 1990.22 1195.9 1989.85 1193.37 1989.47 1190.83 1989.14 1187.98 1988.84 1184.8 1988.55 1181.62 1988.3 1178.33 1988.11 1174.91 1987.91 1171.5 1987.82 1168.13 1987.82 1164.81 1987.82 1152.45 1988.08 1142.39 1988.62 1134.62 1989.15 1126.85 1989.65 1121.65 1990.12 1119.03 1990.63 1116.06 1991.47 1113.81 1992.63 1112.27 1993.79 1110.72 1995.21 1109.65 1996.9 1109.05 1997.59 1108.75 1998.72 1108.48 2000.27 1108.23 2001.82 1107.99 2003.53 1107.77 2005.4 1107.57 2007.26 1107.38 2009.23 1107.2 2011.29 1107.05 2013.36 1106.89 2015.16 1106.81 2016.69 1106.81 2018.34 1106.81 2020.14 1107 2022.09 1107.37 2024.03 1107.73 2025.93 1108.41 2027.79 1109.39 2029.64 1110.37 2031.47 1111.73 2033.26 1113.47 2035.06 1115.21 2036.64 1117.36 2038.02 1119.92 2038.56 1120.91 2039.4 1122.61 2040.53 1125.03 2041.67 1127.45 2042.78 1129.85 2043.86 1132.23 2044.94 1134.61 2046.19 1137.34 2047.61 1140.41 2049.03 1143.49 2050.29 1146.11 2051.38 1148.27 2052.48 1150.43 2053.39 1152.14 2054.11 1153.39 2054.3 1153.7 2054.45 1153.98 2054.57 1154.21L2054.78 1154.64 2054.85 1153.94C2054.87 1153.6 2054.87 1153.19 2054.87 1152.7 2054.87 1149.12 2054.33 1145.37 2053.23 1141.48 2052.14 1137.58 2050.93 1133.85 2049.6 1130.29 2048.28 1126.74 2047.04 1123.48 2045.91 1120.51 2044.77 1117.55 2044.2 1115.11 2044.2 1113.19 2044.2 1111.95 2044.83 1110.76 2046.09 1109.62 2047.35 1108.47 2048.92 1107.52 2050.81 1106.75 2052.7 1105.99 2054.84 1105.35 2057.24 1104.84 2059.63 1104.33 2062.03 1104.08 2064.42 1104.08ZM2496.45 1103.64C2498.34 1103.64 2500.26 1103.85 2502.19 1104.27 2504.13 1104.69 2505.91 1105.34 2507.54 1106.24 2509.17 1107.14 2510.58 1108.25 2511.75 1109.59 2512.93 1110.93 2513.69 1112.48 2514.02 1114.26 2514.61 1117.51 2514.96 1122.64 2515.06 1129.66 2515.17 1136.67 2515.22 1144.79 2515.22 1154 2515.22 1159.01 2514.95 1164.58 2514.41 1170.7 2513.86 1176.82 2513.14 1182.5 2512.22 1187.74 2511.31 1192.98 2510.16 1197.59 2508.76 1201.56 2507.37 1205.53 2505.83 1207.8 2504.14 1208.36 2502.58 1208.92 2501.27 1209.3 2500.21 1209.51 2499.15 1209.73 2498.19 1209.88 2497.33 1209.98 2496.47 1210.07 2495.5 1210.12 2494.44 1210.12 2493.37 1210.12 2492.17 1210.12 2490.82 1210.12 2489.31 1210.12 2487.67 1209.97 2485.9 1209.68 2484.14 1209.39 2482.45 1208.95 2480.83 1208.38 2479.22 1207.81 2477.79 1207.02 2476.53 1206 2475.27 1204.98 2474.64 1203.7 2474.64 1202.16 2474.64 1201.3 2474.87 1200 2475.31 1198.26 2475.76 1196.51 2476.29 1194.47 2476.9 1192.13 2477.51 1189.8 2478.18 1187.46 2478.91 1185.13 2479.64 1182.79 2480.31 1180.42 2480.91 1178.02 2481.51 1175.62 2482.01 1173.58 2482.41 1171.9 2482.81 1170.21 2483.01 1168.96 2483.01 1168.13 2483.01 1167.79 2482.13 1167.18 2480.38 1166.3 2478.63 1165.43 2476.53 1164.38 2474.07 1163.15 2471.62 1161.92 2469.27 1160.51 2467.04 1158.91 2464.8 1157.31 2463.68 1155.29 2463.68 1152.84 2463.68 1151.26 2464.09 1149.79 2464.89 1148.43 2465.7 1147.07 2466.76 1145.43 2468.09 1143.52 2469.41 1141.61 2470.93 1139.25 2472.64 1136.44 2474.36 1133.63 2476.17 1130.03 2478.07 1125.65 2480.18 1120.8 2481.84 1117.07 2483.05 1114.47 2484.26 1111.87 2485.5 1109.74 2486.75 1108.06 2488.01 1106.38 2489.39 1105.23 2490.89 1104.59 2492.38 1103.96 2494.24 1103.64 2496.45 1103.64ZM1949.44 1103.5C1952.02 1103.5 1954.88 1104.1 1958.01 1105.32 1961.15 1106.53 1964.07 1108.09 1966.79 1110 1969.5 1111.91 1971.81 1114.1 1973.72 1116.58 1975.62 1119.06 1976.58 1121.63 1976.58 1124.29 1976.58 1125.65 1976.19 1127.19 1975.41 1128.91 1974.63 1130.62 1973.58 1132.39 1972.26 1134.22 1970.94 1136.05 1969.53 1137.87 1968.03 1139.7 1966.53 1141.53 1964.98 1143.34 1963.38 1145.14 1959.36 1149.47 1955.2 1153.24 1950.91 1156.44 1951.64 1156.4 1952.74 1156.79 1954.2 1157.62 1955.44 1158.34 1956.8 1159.28 1958.27 1160.44 1959.74 1161.61 1961.21 1163.2 1962.69 1165.21 1963.93 1167.02 1965.06 1168.92 1966.08 1170.9 1967.1 1172.89 1968.06 1174.7 1968.97 1176.32 1969.87 1177.95 1970.72 1179.28 1971.51 1180.31 1972.3 1181.35 1973.21 1182.01 1974.24 1182.29 1976.21 1182.88 1977.86 1184.06 1979.19 1185.84 1980.53 1187.62 1981.19 1189.45 1981.19 1191.35 1981.19 1194.1 1979.97 1196.53 1977.53 1198.66 1975.09 1200.78 1972.29 1202.52 1969.15 1203.86 1966 1205.21 1962.78 1206.26 1959.48 1206.99 1956.19 1207.73 1953.46 1208.1 1951.31 1208.1 1948.5 1208.1 1945.94 1207.38 1943.63 1205.93 1941.33 1204.48 1939.25 1201.43 1937.41 1196.78 1936.37 1193.75 1935.44 1191.12 1934.61 1188.9 1933.77 1186.69 1932.92 1184.63 1932.03 1182.72 1931.15 1180.81 1930.29 1179.33 1929.46 1178.26 1928.64 1177.2 1927.89 1176.66 1927.23 1176.66 1926.39 1176.66 1925.63 1176.89 1924.95 1177.34 1924.28 1177.79 1923.94 1178.75 1923.94 1180.24 1923.94 1182.99 1924.2 1185.51 1924.7 1187.81 1925.21 1190.11 1925.81 1192.23 1926.5 1194.16 1927.2 1196.09 1927.81 1197.73 1928.34 1199.09 1928.87 1200.44 1929.13 1201.61 1929.13 1202.59 1929.13 1203.53 1928.74 1204.45 1927.97 1205.36 1927.19 1206.27 1925.93 1207.04 1924.21 1207.69 1922.48 1208.34 1920.33 1208.86 1917.75 1209.25 1915.18 1209.64 1911.9 1209.83 1907.91 1209.83 1902.88 1209.83 1898.94 1208.93 1896.08 1207.13 1893.22 1205.33 1891.2 1202.43 1890 1198.43 1889.24 1196.22 1888.45 1192.27 1887.62 1186.57 1886.8 1180.86 1886.39 1173.28 1886.39 1163.8 1886.39 1150.82 1886.86 1140.26 1887.79 1132.13 1888.72 1123.99 1890.27 1119.06 1892.45 1117.34 1894.36 1115.74 1896.54 1114.38 1899.01 1113.24 1901.47 1112.11 1904.04 1111.13 1906.71 1110.3 1909.37 1109.48 1912.08 1108.81 1914.83 1108.3 1917.59 1107.79 1919.89 1107.54 1921.75 1107.54 1924.68 1107.54 1926.81 1108.2 1928.14 1109.54 1929.48 1110.87 1930.14 1112.38 1930.14 1114.05 1930.14 1115.61 1929.82 1117.4 1929.16 1119.42 1928.51 1121.43 1927.83 1123.51 1927.13 1125.65 1926.43 1127.78 1925.78 1130.14 1925.16 1132.7 1924.54 1135.27 1924.23 1137.95 1924.23 1140.73 1924.23 1141.58 1924.27 1142 1924.35 1142 1924.99 1142 1926.26 1140.79 1928.15 1138.37 1930.04 1135.95 1932.14 1132.64 1934.43 1128.43 1936.69 1124.2 1938.48 1120.45 1939.8 1117.19 1941.13 1113.92 1941.88 1111.48 1942.06 1109.87 1942.29 1107.82 1943.07 1106.24 1944.41 1105.15 1945.75 1104.05 1947.43 1103.5 1949.44 1103.5ZM2217.36 1103.35C2222.48 1103.35 2227.2 1104.06 2231.51 1105.46 2235.83 1106.87 2239.52 1108.71 2242.6 1110.98 2245.68 1113.25 2248.09 1115.76 2249.82 1118.52 2251.56 1121.27 2252.43 1124.01 2252.43 1126.74 2252.43 1128.84 2251.77 1130.95 2250.44 1133.07 2249.12 1135.19 2247.56 1137.07 2245.75 1138.73 2243.95 1140.38 2241.97 1141.76 2239.82 1142.86 2237.67 1143.96 2235.71 1144.51 2233.94 1144.51 2231.68 1144.51 2230.1 1144.03 2229.2 1143.07 2228.3 1142.11 2227.24 1140.87 2226.01 1139.35 2224.1 1136.98 2222.6 1135.45 2221.53 1134.74 2220.45 1134.04 2219.25 1133.69 2217.93 1133.69 2217.83 1133.69 2217.59 1133.86 2217.22 1134.21 2216.85 1134.55 2216.66 1134.95 2216.66 1135.39 2216.66 1136.91 2217.49 1138.28 2219.14 1139.51 2220.79 1140.73 2222.84 1142.01 2225.31 1143.33 2227.77 1144.65 2230.84 1146.25 2234.51 1148.13 2238.18 1150 2241.49 1152.26 2244.44 1154.9 2247.38 1157.54 2249.83 1160.78 2251.79 1164.6 2253.75 1168.43 2254.73 1173.01 2254.73 1178.37 2254.73 1183.33 2253.7 1187.73 2251.62 1191.58 2249.55 1195.42 2246.79 1198.66 2243.34 1201.3 2239.9 1203.93 2235.97 1205.92 2231.58 1207.25 2227.18 1208.59 2222.53 1209.25 2217.65 1209.25 2212.46 1209.25 2207.42 1208.41 2202.52 1206.73 2197.63 1205.05 2193.3 1202.9 2189.53 1200.27 2185.76 1197.64 2182.67 1194.66 2180.27 1191.34 2177.86 1188.02 2176.66 1184.66 2176.66 1181.25 2176.66 1178.64 2177.39 1176.11 2178.84 1173.68 2180.28 1171.25 2181.98 1169.14 2183.93 1167.34 2185.88 1165.54 2187.93 1164.07 2190.08 1162.91 2192.23 1161.76 2194.02 1161.18 2195.44 1161.18 2197.16 1161.18 2198.55 1162.03 2199.62 1163.73 2200.69 1165.44 2201.91 1167.41 2203.27 1169.66 2204.63 1171.91 2206.01 1173.78 2207.41 1175.26 2208.8 1176.74 2210.44 1177.48 2212.31 1177.48 2213.89 1177.48 2215.02 1176.98 2215.71 1176 2216.41 1175.01 2216.75 1174.02 2216.75 1173.03 2216.75 1172.13 2215.99 1171.17 2214.47 1170.16 2212.95 1169.14 2210.91 1167.97 2208.35 1166.65 2205.79 1165.32 2203 1163.8 2199.98 1162.1 2196.95 1160.39 2194.09 1158.33 2191.38 1155.93 2188.67 1153.52 2186.41 1150.65 2184.59 1147.31 2182.77 1143.97 2181.85 1140 2181.85 1135.39 2181.85 1130.58 2182.83 1126.2 2184.78 1122.25 2186.73 1118.3 2189.36 1114.91 2192.69 1112.09 2196.01 1109.27 2199.8 1107.11 2204.06 1105.61 2208.32 1104.11 2212.75 1103.35 2217.36 1103.35Z" stroke="#FFFFFF" stroke-width="5" stroke-linejoin="round" stroke-miterlimit="10" fill="#262626" fill-rule="evenodd"/><text fill="#000000" fill-opacity="0" font-family="Arial,Arial_MSFontService,sans-serif" font-size="107.198" x="1886.39" y="1197.15">KNES 381</text></g></svg>