<svg width="470" height="144" xmlns="http://www.w3.org/2000/svg" xmlns:xlink="http://www.w3.org/1999/xlink" xml:space="preserve" overflow="hidden"><defs><clipPath id="clip0"><rect x="1965" y="1071" width="470" height="144"/></clipPath></defs><g clip-path="url(#clip0)" transform="translate(-1965 -1071)"><path d="M2342.59 1143.82C2341.55 1143.82 2340.56 1144 2339.61 1144.35 2338.65 1144.71 2337.8 1145.16 2337.06 1145.71 2336.31 1146.27 2335.74 1146.85 2335.34 1147.47 2334.95 1148.08 2334.75 1148.67 2334.75 1149.22 2334.75 1149.82 2334.97 1150.38 2335.41 1150.88 2335.85 1151.39 2336.62 1151.64 2337.71 1151.64 2338.44 1151.64 2339.22 1151.48 2340.05 1151.16 2340.89 1150.83 2341.66 1150.41 2342.36 1149.9 2343.07 1149.38 2343.64 1148.8 2344.08 1148.16 2344.52 1147.52 2344.74 1146.88 2344.74 1146.24 2344.74 1145.64 2344.52 1145.08 2344.08 1144.58 2343.64 1144.07 2343.14 1143.82 2342.59 1143.82ZM2340.42 1116.39C2339.7 1116.39 2338.96 1116.54 2338.2 1116.83 2337.44 1117.13 2336.79 1117.49 2336.25 1117.89 2335.72 1118.3 2335.29 1118.78 2334.97 1119.32 2334.64 1119.87 2334.48 1120.36 2334.48 1120.79 2334.48 1121.3 2334.65 1121.72 2334.97 1122.03 2335.3 1122.33 2335.95 1122.49 2336.9 1122.49 2338.31 1122.49 2339.6 1122.07 2340.75 1121.22 2341.9 1120.38 2342.48 1119.36 2342.48 1118.17 2342.48 1117.62 2342.29 1117.19 2341.91 1116.87 2341.53 1116.55 2341.03 1116.39 2340.42 1116.39ZM2162.16 1102.18C2166.54 1102.18 2170.2 1102.42 2173.14 1102.9 2176.08 1103.38 2178.29 1104.82 2179.78 1107.21 2180.77 1108.67 2181.4 1110.18 2181.69 1111.76 2181.98 1113.34 2182.13 1114.81 2182.13 1116.19 2182.13 1117.97 2181.7 1119.37 2180.84 1120.38 2179.98 1121.39 2178.9 1121.89 2177.6 1121.89 2177.05 1121.89 2176.33 1121.84 2175.44 1121.75 2174.55 1121.66 2173.57 1121.57 2172.52 1121.48 2171.46 1121.39 2170.34 1121.3 2169.17 1121.21 2168 1121.12 2166.9 1121.08 2165.86 1121.08 2163.75 1121.08 2162.26 1121.24 2161.4 1121.57 2160.54 1121.89 2160.11 1122.51 2160.11 1123.41 2160.11 1124.23 2160.26 1124.87 2160.57 1125.32 2160.88 1125.78 2161.35 1126.01 2161.98 1126.01 2162.65 1126.01 2163.41 1125.94 2164.26 1125.79 2165.1 1125.64 2165.98 1125.5 2166.88 1125.35 2167.78 1125.19 2168.68 1125.04 2169.58 1124.89 2170.48 1124.73 2171.31 1124.66 2172.09 1124.66 2173.69 1124.66 2174.95 1125.15 2175.87 1126.15 2176.79 1127.15 2177.25 1129.12 2177.25 1132.07 2177.25 1135.25 2176.85 1137.78 2176.06 1139.66 2175.26 1141.53 2174.09 1142.47 2172.54 1142.47 2171.44 1142.47 2170.37 1142.41 2169.32 1142.29 2168.26 1142.17 2167.11 1142.11 2165.86 1142.11 2163.92 1142.11 2162.57 1142.33 2161.8 1142.77 2161.03 1143.21 2160.65 1143.95 2160.65 1144.98 2160.65 1145.63 2160.76 1146.08 2160.98 1146.32 2161.2 1146.56 2161.96 1146.68 2163.25 1146.68 2165.84 1146.68 2168.17 1146.46 2170.23 1146.02 2172.29 1145.59 2174.13 1145.08 2175.76 1144.51 2177.39 1143.94 2178.75 1143.42 2179.84 1142.95 2180.92 1142.49 2181.77 1142.25 2182.38 1142.25 2183.68 1142.25 2184.7 1143.03 2185.44 1144.58 2186.18 1146.14 2186.55 1148.16 2186.55 1150.66 2186.55 1153.93 2186.3 1156.54 2185.81 1158.49 2185.31 1160.44 2184.28 1161.79 2182.72 1162.54 2181.97 1162.94 2180.77 1163.43 2179.11 1163.99 2177.45 1164.55 2175.5 1165.09 2173.26 1165.61 2171.01 1166.12 2168.55 1166.58 2165.87 1166.97 2163.18 1167.36 2160.35 1167.56 2157.38 1167.56 2154.5 1167.56 2152.11 1167.48 2150.24 1167.33 2148.36 1167.17 2146.83 1166.92 2145.64 1166.57 2144.45 1166.21 2143.52 1165.76 2142.87 1165.21 2142.21 1164.66 2141.73 1163.98 2141.43 1163.16 2141.12 1162.3 2140.8 1161.05 2140.46 1159.41 2140.12 1157.77 2139.81 1155.87 2139.54 1153.71 2139.27 1151.55 2139.05 1149.12 2138.87 1146.4 2138.68 1143.69 2138.59 1140.84 2138.59 1137.85 2138.59 1129.05 2138.91 1122.17 2139.54 1117.19 2140.18 1112.21 2140.78 1108.86 2141.35 1107.15 2141.85 1105.7 2143.81 1104.51 2147.21 1103.58 2150.62 1102.65 2155.6 1102.18 2162.16 1102.18ZM2343.4 1101.64C2349.21 1101.64 2353.82 1102.9 2357.24 1105.43 2360.66 1107.95 2362.37 1111.42 2362.37 1115.83 2362.37 1118.3 2362 1120.41 2361.27 1122.16 2360.54 1123.9 2359.71 1125.35 2358.78 1126.51 2357.86 1127.66 2357.09 1128.47 2356.5 1128.93 2355.9 1129.4 2355.6 1129.57 2355.6 1129.45 2355.6 1129.27 2356.14 1129.37 2357.21 1129.77 2358.29 1130.16 2359.59 1130.9 2361.12 1131.98 2362.65 1133.06 2364.07 1134.59 2365.38 1136.57 2366.68 1138.54 2367.33 1141.11 2367.33 1144.26 2367.33 1147.42 2366.51 1150.44 2364.87 1153.31 2363.23 1156.18 2361.03 1158.68 2358.27 1160.82 2355.51 1162.96 2352.3 1164.66 2348.62 1165.93 2344.95 1167.2 2341.01 1167.83 2336.81 1167.83 2333.22 1167.83 2330 1167.38 2327.16 1166.47 2324.32 1165.56 2321.9 1164.32 2319.92 1162.75 2317.93 1161.17 2316.39 1159.3 2315.31 1157.13 2314.23 1154.97 2313.69 1152.66 2313.69 1150.21 2313.69 1147.14 2314.22 1144.55 2315.28 1142.46 2316.34 1140.36 2317.52 1138.66 2318.81 1137.33 2320.11 1136.01 2321.22 1135.05 2322.14 1134.45 2323.06 1133.85 2323.53 1133.54 2323.53 1133.52 2323.53 1133.53 2323.21 1133.31 2322.56 1132.85 2321.92 1132.39 2321.11 1131.68 2320.12 1130.73 2319.14 1129.78 2318.24 1128.59 2317.43 1127.16 2316.62 1125.73 2316.22 1124 2316.22 1121.96 2316.22 1118.62 2317.02 1115.67 2318.62 1113.13 2320.22 1110.59 2322.3 1108.47 2324.86 1106.79 2327.42 1105.1 2330.34 1103.82 2333.61 1102.95 2336.88 1102.08 2340.15 1101.64 2343.4 1101.64ZM2286.15 1101.64C2289.07 1101.64 2291.77 1102.1 2294.25 1103.02 2296.73 1103.94 2298.83 1105.16 2300.56 1106.67 2302.29 1108.17 2303.64 1109.9 2304.63 1111.84 2305.62 1113.79 2306.11 1115.75 2306.11 1117.72 2306.11 1119.86 2305.81 1121.75 2305.2 1123.39 2304.59 1125.03 2303.93 1126.39 2303.22 1127.47 2302.51 1128.55 2301.89 1129.37 2301.38 1129.94 2300.87 1130.51 2300.61 1130.8 2300.61 1130.81 2300.61 1130.72 2301.06 1130.89 2301.95 1131.31 2302.85 1131.74 2303.95 1132.54 2305.25 1133.71 2306.55 1134.89 2307.74 1136.44 2308.83 1138.38 2309.91 1140.32 2310.45 1142.82 2310.45 1145.88 2310.45 1148.98 2309.7 1151.84 2308.22 1154.46 2306.74 1157.08 2304.82 1159.33 2302.46 1161.22 2300.11 1163.1 2297.46 1164.57 2294.52 1165.62 2291.59 1166.67 2288.59 1167.2 2285.52 1167.2 2281.59 1167.2 2278.07 1166.53 2274.96 1165.19 2271.86 1163.86 2269.19 1162.19 2266.98 1160.19 2264.76 1158.2 2263.06 1156.04 2261.85 1153.73 2260.65 1151.42 2260.05 1149.32 2260.05 1147.41 2260.05 1146.33 2260.54 1145.2 2261.51 1144.03 2262.49 1142.86 2263.65 1141.76 2264.98 1140.74 2266.32 1139.72 2267.73 1138.88 2269.2 1138.21 2270.67 1137.54 2271.96 1137.2 2273.06 1137.2 2274.37 1137.2 2275.29 1137.49 2275.81 1138.05 2276.34 1138.62 2276.6 1139.34 2276.6 1140.19 2276.6 1141.22 2276.8 1142.32 2277.19 1143.49 2277.58 1144.66 2278.14 1145.74 2278.87 1146.72 2279.6 1147.7 2280.44 1148.51 2281.4 1149.15 2282.35 1149.79 2283.39 1150.11 2284.53 1150.11 2285.83 1150.11 2286.87 1149.73 2287.66 1148.96 2288.45 1148.2 2288.84 1147.11 2288.84 1145.7 2288.84 1144.22 2288.35 1143.24 2287.37 1142.75 2286.4 1142.26 2285.24 1142.02 2283.89 1142.02 2283.02 1142.02 2282.17 1141.84 2281.33 1141.49 2280.5 1141.15 2279.74 1140.58 2279.05 1139.79 2278.37 1139 2277.83 1138.02 2277.43 1136.83 2277.04 1135.64 2276.84 1134.2 2276.84 1132.52 2276.84 1131.51 2277.38 1130.53 2278.48 1129.61 2279.57 1128.69 2280.68 1127.77 2281.79 1126.86 2282.9 1125.94 2283.92 1124.98 2284.84 1123.98 2285.76 1122.97 2286.22 1121.88 2286.22 1120.7 2286.22 1120.1 2286.01 1119.64 2285.58 1119.31 2285.15 1118.99 2284.56 1118.82 2283.8 1118.82 2282.62 1118.82 2281.52 1119.33 2280.51 1120.33 2279.51 1121.34 2278.62 1122.46 2277.84 1123.71 2277.07 1124.95 2276.29 1126.24 2275.5 1127.57 2274.71 1128.9 2273.84 1129.56 2272.88 1129.56 2271.89 1129.56 2270.76 1129.27 2269.5 1128.69 2268.24 1128.11 2267.05 1127.38 2265.91 1126.5 2264.78 1125.61 2263.77 1124.6 2262.9 1123.46 2262.02 1122.31 2261.58 1121.12 2261.58 1119.89 2261.58 1118.31 2262.22 1116.46 2263.48 1114.34 2264.75 1112.22 2266.48 1110.23 2268.69 1108.37 2270.89 1106.51 2273.47 1104.92 2276.44 1103.61 2279.41 1102.3 2282.65 1101.64 2286.15 1101.64ZM2119.35 1101.37C2122.85 1101.37 2125.81 1101.95 2128.22 1103.1 2130.63 1104.26 2132.04 1105.99 2132.44 1108.28 2132.62 1109.27 2132.76 1110.68 2132.88 1112.51 2133 1114.34 2133.13 1116.33 2133.25 1118.49 2133.37 1120.64 2133.47 1122.88 2133.53 1125.21 2133.6 1127.54 2133.63 1129.31 2133.63 1130.54 2133.63 1139.38 2133.15 1146.5 2132.2 1151.9 2131.24 1157.3 2129.95 1160.68 2128.33 1162.03 2126.36 1163.68 2124.01 1164.85 2121.27 1165.54 2118.54 1166.22 2115.85 1166.57 2113.21 1166.57 2111.25 1166.57 2109.69 1165.69 2108.54 1163.95 2107.39 1162.2 2106.23 1160.13 2105.06 1157.73 2104.71 1156.98 2104.23 1155.84 2103.62 1154.3 2103 1152.77 2102.32 1151.07 2101.57 1149.21 2100.82 1147.34 2100.04 1145.43 2099.24 1143.47 2098.45 1141.51 2097.69 1139.79 2096.97 1138.3 2096.26 1136.81 2095.63 1135.63 2095.09 1134.76 2094.55 1133.88 2094.24 1133.44 2094.17 1133.44 2094.06 1133.44 2094.01 1134.52 2094.01 1136.67 2094.01 1139.85 2094.27 1142.71 2094.8 1145.25 2095.32 1147.79 2095.9 1150.09 2096.52 1152.15 2097.15 1154.2 2097.74 1156 2098.31 1157.53 2098.87 1159.06 2099.15 1160.26 2099.15 1161.13 2099.15 1162.05 2098.75 1162.93 2097.93 1163.78 2097.12 1164.63 2096.08 1165.36 2094.82 1165.97 2093.57 1166.58 2092.13 1167.08 2090.51 1167.45 2088.89 1167.82 2087.19 1168.01 2085.42 1168.01 2081.83 1168.01 2079.07 1167.51 2077.13 1166.51 2075.19 1165.51 2073.95 1163.78 2073.41 1161.33 2073.16 1160.2 2072.92 1158.84 2072.68 1157.25 2072.45 1155.67 2072.24 1153.88 2072.05 1151.89 2071.87 1149.9 2071.72 1147.84 2071.59 1145.7 2071.47 1143.57 2071.41 1141.46 2071.41 1139.38 2071.41 1131.65 2071.58 1125.35 2071.91 1120.49 2072.25 1115.62 2072.56 1112.37 2072.85 1110.73 2073.17 1108.87 2073.7 1107.46 2074.42 1106.5 2075.15 1105.53 2076.04 1104.86 2077.09 1104.48 2077.53 1104.29 2078.23 1104.12 2079.2 1103.97 2080.18 1103.82 2081.25 1103.68 2082.41 1103.56 2083.58 1103.44 2084.81 1103.33 2086.1 1103.23 2087.4 1103.13 2088.52 1103.08 2089.48 1103.08 2090.52 1103.08 2091.64 1103.2 2092.86 1103.43 2094.08 1103.66 2095.26 1104.08 2096.43 1104.7 2097.59 1105.31 2098.73 1106.16 2099.85 1107.25 2100.98 1108.34 2101.97 1109.69 2102.83 1111.29 2103.17 1111.9 2103.69 1112.97 2104.4 1114.48 2105.12 1116 2105.81 1117.5 2106.49 1118.99 2107.16 1120.48 2107.94 1122.19 2108.83 1124.11 2109.72 1126.04 2110.51 1127.68 2111.19 1129.03 2111.88 1130.38 2112.45 1131.45 2112.9 1132.24L2113.32 1133.02 2113.36 1132.58C2113.37 1132.37 2113.38 1132.11 2113.38 1131.8 2113.38 1129.56 2113.04 1127.22 2112.35 1124.78 2111.67 1122.34 2110.91 1120.01 2110.08 1117.78 2109.25 1115.55 2108.48 1113.51 2107.77 1111.66 2107.05 1109.8 2106.7 1108.27 2106.7 1107.07 2106.7 1106.3 2107.09 1105.56 2107.88 1104.84 2108.67 1104.12 2109.65 1103.53 2110.84 1103.05 2112.02 1102.57 2113.36 1102.17 2114.86 1101.85 2116.36 1101.53 2117.85 1101.37 2119.35 1101.37ZM2389.46 1101.1C2390.65 1101.1 2391.84 1101.23 2393.05 1101.49 2394.26 1101.75 2395.38 1102.16 2396.4 1102.72 2397.42 1103.29 2398.3 1103.98 2399.04 1104.82 2399.78 1105.66 2400.25 1106.63 2400.46 1107.74 2400.83 1109.78 2401.04 1112.99 2401.11 1117.38 2401.17 1121.77 2401.21 1126.85 2401.21 1132.61 2401.21 1135.75 2401.04 1139.24 2400.7 1143.07 2400.36 1146.9 2399.9 1150.45 2399.33 1153.73 2398.76 1157.01 2398.04 1159.9 2397.17 1162.38 2396.29 1164.87 2395.33 1166.28 2394.27 1166.64 2393.3 1166.99 2392.48 1167.23 2391.81 1167.36 2391.15 1167.49 2390.55 1167.59 2390.01 1167.65 2389.47 1167.71 2388.87 1167.74 2388.2 1167.74 2387.53 1167.74 2386.78 1167.74 2385.94 1167.74 2384.99 1167.74 2383.96 1167.65 2382.86 1167.46 2381.75 1167.28 2380.7 1167.01 2379.69 1166.65 2378.68 1166.29 2377.78 1165.8 2376.99 1165.16 2376.21 1164.52 2375.81 1163.72 2375.81 1162.76 2375.81 1162.22 2375.95 1161.41 2376.23 1160.31 2376.51 1159.22 2376.84 1157.95 2377.22 1156.48 2377.61 1155.02 2378.03 1153.56 2378.48 1152.1 2378.94 1150.64 2379.36 1149.15 2379.73 1147.65 2380.11 1146.15 2380.42 1144.87 2380.67 1143.82 2380.92 1142.76 2381.05 1141.98 2381.05 1141.46 2381.05 1141.24 2380.5 1140.86 2379.4 1140.32 2378.31 1139.77 2376.99 1139.11 2375.45 1138.34 2373.92 1137.57 2372.45 1136.69 2371.05 1135.69 2369.65 1134.69 2368.95 1133.42 2368.95 1131.89 2368.95 1130.9 2369.21 1129.98 2369.71 1129.13 2370.21 1128.28 2370.88 1127.26 2371.71 1126.06 2372.54 1124.86 2373.49 1123.38 2374.56 1121.63 2375.63 1119.87 2376.77 1117.62 2377.96 1114.87 2379.28 1111.84 2380.32 1109.51 2381.07 1107.88 2381.83 1106.25 2382.6 1104.91 2383.39 1103.86 2384.18 1102.82 2385.04 1102.09 2385.98 1101.69 2386.92 1101.3 2388.08 1101.1 2389.46 1101.1ZM2047.23 1101.01C2048.84 1101.01 2050.63 1101.39 2052.59 1102.15 2054.56 1102.91 2056.39 1103.89 2058.08 1105.08 2059.78 1106.27 2061.23 1107.65 2062.42 1109.2 2063.62 1110.75 2064.21 1112.35 2064.21 1114.02 2064.21 1114.88 2063.97 1115.84 2063.48 1116.91 2063 1117.99 2062.34 1119.09 2061.51 1120.24 2060.69 1121.38 2059.8 1122.52 2058.86 1123.67 2057.93 1124.81 2056.96 1125.95 2055.96 1127.07 2053.44 1129.78 2050.83 1132.14 2048.15 1134.14 2048.61 1134.11 2049.3 1134.36 2050.21 1134.88 2050.99 1135.33 2051.83 1135.92 2052.75 1136.65 2053.67 1137.38 2054.6 1138.37 2055.52 1139.63 2056.3 1140.76 2057 1141.95 2057.64 1143.19 2058.28 1144.44 2058.88 1145.57 2059.45 1146.59 2060.02 1147.6 2060.55 1148.44 2061.04 1149.08 2061.53 1149.73 2062.1 1150.14 2062.75 1150.32 2063.98 1150.69 2065.02 1151.43 2065.85 1152.54 2066.68 1153.66 2067.1 1154.8 2067.1 1155.99 2067.1 1157.71 2066.34 1159.24 2064.81 1160.56 2063.28 1161.89 2061.53 1162.98 2059.56 1163.82 2057.59 1164.67 2055.58 1165.32 2053.52 1165.78 2051.45 1166.24 2049.75 1166.48 2048.4 1166.48 2046.64 1166.48 2045.04 1166.02 2043.59 1165.12 2042.15 1164.21 2040.85 1162.3 2039.7 1159.39 2039.05 1157.49 2038.47 1155.85 2037.95 1154.46 2037.43 1153.07 2036.89 1151.78 2036.33 1150.59 2035.78 1149.4 2035.25 1148.47 2034.73 1147.8 2034.21 1147.13 2033.74 1146.8 2033.33 1146.8 2032.8 1146.8 2032.33 1146.94 2031.9 1147.22 2031.48 1147.5 2031.27 1148.11 2031.27 1149.04 2031.27 1150.76 2031.43 1152.34 2031.75 1153.78 2032.06 1155.22 2032.44 1156.54 2032.87 1157.75 2033.31 1158.96 2033.69 1159.99 2034.02 1160.83 2034.35 1161.68 2034.52 1162.41 2034.52 1163.03 2034.52 1163.61 2034.28 1164.19 2033.79 1164.76 2033.3 1165.33 2032.52 1165.81 2031.44 1166.22 2030.36 1166.62 2029.01 1166.95 2027.4 1167.19 2025.79 1167.44 2023.73 1167.56 2021.24 1167.56 2018.09 1167.56 2015.62 1166.99 2013.84 1165.87 2012.05 1164.74 2010.78 1162.93 2010.03 1160.42 2009.55 1159.04 2009.06 1156.57 2008.54 1153 2008.03 1149.43 2007.77 1144.68 2007.77 1138.75 2007.77 1130.63 2008.06 1124.02 2008.65 1118.93 2009.23 1113.83 2010.2 1110.75 2011.56 1109.67 2012.75 1108.67 2014.12 1107.82 2015.67 1107.11 2017.21 1106.4 2018.82 1105.78 2020.49 1105.27 2022.15 1104.75 2023.85 1104.33 2025.57 1104.01 2027.29 1103.69 2028.74 1103.54 2029.9 1103.54 2031.73 1103.54 2033.07 1103.95 2033.9 1104.79 2034.74 1105.62 2035.15 1106.57 2035.15 1107.61 2035.15 1108.59 2034.95 1109.71 2034.54 1110.97 2034.13 1112.23 2033.7 1113.53 2033.27 1114.87 2032.83 1116.21 2032.42 1117.68 2032.03 1119.29 2031.65 1120.89 2031.45 1122.57 2031.45 1124.31 2031.45 1124.84 2031.48 1125.11 2031.53 1125.11 2031.93 1125.11 2032.72 1124.35 2033.9 1122.84 2035.09 1121.32 2036.4 1119.25 2037.84 1116.61 2039.25 1113.96 2040.37 1111.62 2041.2 1109.58 2042.03 1107.53 2042.5 1106.01 2042.61 1105 2042.75 1103.71 2043.24 1102.73 2044.08 1102.04 2044.92 1101.35 2045.97 1101.01 2047.23 1101.01ZM2214.16 1100.92C2217.36 1100.92 2220.32 1101.36 2223.02 1102.24 2225.72 1103.12 2228.03 1104.27 2229.96 1105.69 2231.88 1107.11 2233.39 1108.68 2234.48 1110.41 2235.56 1112.13 2236.11 1113.85 2236.11 1115.56 2236.11 1116.87 2235.69 1118.19 2234.86 1119.52 2234.04 1120.84 2233.06 1122.02 2231.93 1123.06 2230.8 1124.09 2229.56 1124.95 2228.22 1125.64 2226.87 1126.33 2225.65 1126.67 2224.54 1126.67 2223.12 1126.67 2222.13 1126.37 2221.57 1125.78 2221.01 1125.18 2220.34 1124.4 2219.58 1123.45 2218.38 1121.97 2217.44 1121.01 2216.77 1120.57 2216.09 1120.12 2215.34 1119.9 2214.52 1119.9 2214.45 1119.9 2214.31 1120.01 2214.07 1120.23 2213.84 1120.45 2213.72 1120.69 2213.72 1120.97 2213.72 1121.92 2214.24 1122.78 2215.27 1123.54 2216.3 1124.31 2217.59 1125.11 2219.13 1125.94 2220.67 1126.77 2222.59 1127.77 2224.89 1128.94 2227.19 1130.11 2229.26 1131.53 2231.1 1133.18 2232.95 1134.83 2234.48 1136.86 2235.71 1139.25 2236.94 1141.64 2237.55 1144.52 2237.55 1147.87 2237.55 1150.97 2236.9 1153.73 2235.6 1156.13 2234.3 1158.54 2232.58 1160.57 2230.42 1162.22 2228.26 1163.87 2225.81 1165.11 2223.06 1165.94 2220.3 1166.78 2217.4 1167.2 2214.34 1167.2 2211.09 1167.2 2207.94 1166.67 2204.87 1165.62 2201.81 1164.57 2199.1 1163.22 2196.74 1161.57 2194.38 1159.93 2192.45 1158.06 2190.94 1155.98 2189.44 1153.91 2188.69 1151.8 2188.69 1149.67 2188.69 1148.03 2189.14 1146.46 2190.05 1144.93 2190.95 1143.41 2192.02 1142.09 2193.24 1140.96 2194.46 1139.84 2195.74 1138.92 2197.08 1138.19 2198.43 1137.47 2199.55 1137.11 2200.44 1137.11 2201.52 1137.11 2202.39 1137.64 2203.06 1138.71 2203.73 1139.77 2204.49 1141.01 2205.34 1142.42 2206.19 1143.83 2207.06 1144.99 2207.93 1145.92 2208.8 1146.85 2209.82 1147.31 2211 1147.31 2211.98 1147.31 2212.69 1147 2213.13 1146.38 2213.56 1145.77 2213.78 1145.15 2213.78 1144.53 2213.78 1143.96 2213.3 1143.36 2212.35 1142.73 2211.4 1142.09 2210.12 1141.36 2208.52 1140.53 2206.92 1139.7 2205.17 1138.75 2203.28 1137.68 2201.39 1136.61 2199.59 1135.33 2197.9 1133.82 2196.21 1132.32 2194.79 1130.52 2193.65 1128.43 2192.51 1126.34 2191.94 1123.85 2191.94 1120.97 2191.94 1117.96 2192.55 1115.22 2193.77 1112.74 2194.99 1110.27 2196.64 1108.15 2198.72 1106.39 2200.8 1104.62 2203.17 1103.27 2205.84 1102.33 2208.5 1101.39 2211.28 1100.92 2214.16 1100.92Z" fill="#5B9BD5" fill-rule="evenodd"/><path d="M2342.07 1146.47 2340.48 1146.78 2338.6 1147.79 2337.56 1148.87 2337.48 1149.09 2337.69 1149.12 2339.2 1148.83 2340.88 1147.88 2341.95 1146.85ZM2209.65 1144.06 2209.74 1144.18 2210.41 1144.68 2210.82 1144.75ZM2280.06 1143.61 2280.91 1145.25 2282.87 1147.11 2283.67 1147.48 2284.54 1147.61 2285.4 1147.46 2285.89 1147.15 2286.19 1146.67 2286.34 1145.76 2286.21 1145.14 2286.13 1145.06 2283.41 1144.47 2280.91 1143.98ZM2342.11 1141.37C2342.65 1141.26 2343.2 1141.34 2343.7 1141.58L2345.24 1142.35C2345.81 1142.63 2346.26 1143.12 2346.48 1143.72L2347.1 1145.41C2347.3 1145.93 2347.31 1146.51 2347.14 1147.04L2346.51 1148.98C2346.39 1149.37 2346.17 1149.73 2345.87 1150.01L2344.12 1151.7C2343.97 1151.84 2343.8 1151.97 2343.62 1152.07L2341.31 1153.39C2341.07 1153.52 2340.81 1153.62 2340.54 1153.67L2338.22 1154.11C2337.96 1154.15 2337.7 1154.16 2337.44 1154.13L2336 1153.94C2335.63 1153.89 2335.28 1153.76 2334.97 1153.56L2334.09 1153C2333.67 1152.73 2333.34 1152.34 2333.14 1151.87L2332.46 1150.25C2332.21 1149.67 2332.19 1149.02 2332.4 1148.43L2333.03 1146.68C2333.15 1146.35 2333.34 1146.04 2333.58 1145.79L2335.27 1144.04C2335.45 1143.85 2335.66 1143.69 2335.89 1143.57L2338.45 1142.2C2338.67 1142.08 2338.91 1141.99 2339.15 1141.95ZM2283.59 1121.45 2283.18 1121.54 2282.31 1122.16 2279.84 1125.27 2279.81 1125.32 2280.22 1124.98 2282.97 1122.39 2283.58 1121.5ZM2339.29 1119.18 2339.12 1119.21 2337.94 1119.84 2338.16 1119.8 2339.21 1119.26ZM2339.91 1113.94C2340.35 1113.85 2340.8 1113.87 2341.22 1114.02L2342.74 1114.53C2343.42 1114.76 2343.96 1115.26 2344.24 1115.91L2344.81 1117.23C2345.03 1117.74 2345.07 1118.32 2344.92 1118.86L2344.49 1120.49C2344.38 1120.87 2344.19 1121.23 2343.92 1121.52L2342.6 1122.96C2342.41 1123.18 2342.17 1123.36 2341.91 1123.49L2340.09 1124.43C2339.86 1124.56 2339.6 1124.64 2339.33 1124.68L2337.33 1124.99C2337.12 1125.03 2336.91 1125.03 2336.7 1125.01L2335.45 1124.89C2335.12 1124.85 2334.79 1124.75 2334.5 1124.59L2333.81 1124.22C2333.31 1123.95 2332.92 1123.52 2332.7 1122.99L2332.2 1121.81C2331.97 1121.25 2331.95 1120.62 2332.14 1120.05L2332.64 1118.55C2332.74 1118.23 2332.91 1117.94 2333.12 1117.7L2334.37 1116.26C2334.57 1116.03 2334.82 1115.83 2335.09 1115.69L2337.09 1114.63C2337.29 1114.52 2337.52 1114.44 2337.75 1114.39ZM2162.21 1104.68 2157.72 1104.77 2153.82 1105 2150.61 1105.4 2148.03 1105.96 2145.9 1106.66 2144.54 1107.33 2143.9 1107.84 2143.7 1108.16 2143.4 1109.26 2142.97 1111.4 2142.49 1114.09 2142.06 1117.47 2141.63 1121.47 2141.38 1126.23 2141.2 1131.67 2141.13 1137.83 2141.38 1146.26 2141.68 1150 2142.05 1153.36 2142.47 1156.32 2142.95 1158.9 2143.42 1160.97 2143.73 1162.11 2144.63 1163.36 2145.21 1163.73 2146.3 1164.16 2148.12 1164.62 2150.41 1164.84 2153.49 1165.02 2157.22 1165.09 2165.45 1164.56 2169.28 1163.88 2172.64 1163.23 2175.72 1162.44 2178.26 1161.68 2180.32 1160.92 2181.45 1160.43 2182.66 1159.45 2183.41 1157.79 2183.89 1154.98 2184.08 1150.89 2183.85 1147.76 2183.2 1145.78 2182.61 1145.01 2182.17 1144.85 2181.95 1144.89 2180.84 1145.27 2178.92 1146.06 2176.47 1146.94 2170.63 1148.5 2167.07 1149.02 2163.15 1149.21 2161.65 1149.15C2161.36 1149.13 2161.07 1149.07 2160.8 1148.96L2160.05 1148.64C2159.31 1148.34 2158.76 1147.69 2158.58 1146.92L2158.26 1145.6C2158.18 1145.23 2158.17 1144.84 2158.26 1144.47L2158.57 1143.09C2158.67 1142.67 2158.88 1142.27 2159.18 1141.95L2159.99 1141.07C2160.28 1140.76 2160.65 1140.52 2161.06 1140.39L2162.62 1139.89C2162.83 1139.83 2163.04 1139.79 2163.26 1139.78L2166.02 1139.65 2169.47 1139.84 2172.24 1140 2173.04 1139.73 2173.76 1138.66 2174.47 1135.99 2174.75 1132.1 2174.49 1129.06 2173.92 1127.85 2173.32 1127.46 2172 1127.23 2170.08 1127.36 2167.29 1127.86 2164.47 1128.33 2162.22 1128.52C2162.02 1128.53 2161.82 1128.52 2161.63 1128.49L2160.82 1128.37C2160.33 1128.3 2159.89 1128.08 2159.52 1127.76L2158.9 1127.19C2158.52 1126.85 2158.25 1126.4 2158.14 1125.9L2157.7 1124.03C2157.61 1123.63 2157.61 1123.22 2157.72 1122.83L2158.03 1121.64C2158.18 1121.06 2158.54 1120.55 2159.03 1120.21L2160.03 1119.53C2160.3 1119.34 2160.6 1119.21 2160.92 1119.14L2162.67 1118.77C2162.81 1118.74 2162.94 1118.72 2163.08 1118.71L2166.03 1118.59 2169.38 1118.78 2172.79 1119.03 2175.59 1119.28 2177.45 1119.38 2178.37 1119.19 2178.91 1118.77 2179.4 1117.83 2179.62 1116.17 2179.23 1112.23 2178.74 1110.41 2177.79 1108.71 2175.68 1106.49 2172.63 1105.41 2168.11 1104.9ZM2286.16 1104.15 2281.65 1104.61 2277.42 1105.96 2273.76 1107.88 2270.31 1110.32 2267.66 1112.97 2265.67 1115.68 2264.53 1118.12 2264.18 1119.93 2264.34 1120.85 2264.96 1121.94 2267.52 1124.55 2270.58 1126.44 2271.93 1126.9 2272.66 1127.02 2272.83 1126.96 2273.38 1126.28 2275.93 1122.15 2278.62 1118.78C2278.76 1118.6 2278.92 1118.44 2279.11 1118.31L2280.67 1117.18C2280.95 1116.98 2281.26 1116.84 2281.59 1116.77L2283.28 1116.4C2283.68 1116.31 2284.09 1116.32 2284.49 1116.43L2286.3 1116.93C2287.01 1117.12 2287.6 1117.63 2287.91 1118.3L2288.53 1119.68C2288.74 1120.14 2288.81 1120.65 2288.72 1121.15L2288.41 1122.9C2288.35 1123.25 2288.21 1123.58 2288.01 1123.87L2286.95 1125.43C2286.85 1125.58 2286.73 1125.72 2286.59 1125.85L2283.42 1128.82 2280.26 1131.44 2279.53 1132.28 2279.43 1132.68 2279.87 1136.05 2281 1138.15 2282.41 1139.18 2284.48 1139.58 2287.92 1140.33C2288.38 1140.43 2288.81 1140.67 2289.15 1141.01L2290.28 1142.13C2290.62 1142.48 2290.86 1142.91 2290.96 1143.39L2291.33 1145.2C2291.39 1145.51 2291.4 1145.82 2291.35 1146.12L2291.04 1148C2290.98 1148.33 2290.86 1148.65 2290.68 1148.93L2289.81 1150.3C2289.61 1150.61 2289.35 1150.87 2289.04 1151.07L2287.66 1151.95C2287.39 1152.12 2287.08 1152.24 2286.76 1152.3L2285.01 1152.61C2284.74 1152.66 2284.46 1152.66 2284.19 1152.62L2282.57 1152.37C2282.34 1152.33 2282.11 1152.27 2281.9 1152.17L2280.4 1151.48C2280.15 1151.37 2279.92 1151.21 2279.72 1151.02L2277.16 1148.59C2276.96 1148.39 2276.79 1148.17 2276.67 1147.93L2274.98 1144.68C2274.86 1144.45 2274.78 1144.2 2274.73 1143.94L2274.16 1140.6 2274.06 1139.95 2274.06 1139.95 2273.91 1139.86 2273.06 1139.74 2271.92 1139.9 2270.28 1140.48 2266.55 1142.76 2263.5 1145.7 2262.79 1146.77 2262.61 1147.56 2262.94 1149.79 2264.1 1152.6 2266.04 1155.53 2268.69 1158.35 2271.97 1160.84 2275.95 1162.88 2280.43 1164.24 2285.58 1164.7 2289.7 1164.36 2293.73 1163.29 2297.55 1161.58 2300.93 1159.32 2303.78 1156.53 2306.05 1153.25 2307.5 1149.77 2307.93 1145.87 2307.61 1142.25 2306.63 1139.53 2305.16 1137.32 2303.52 1135.52 2302.18 1134.39 2300.86 1133.57 2300.22 1133.3 2300.14 1133.29C2299.3 1133.12 2298.6 1132.53 2298.3 1131.73 2297.99 1130.93 2298.12 1130.02 2298.63 1129.34L2298.96 1128.91 2299.4 1128.44 2301.16 1126.16 2301.95 1124.69 2302.78 1122.77 2303.41 1120.35 2303.62 1117.83 2303.32 1115.45 2302.39 1113.03 2300.9 1110.69 2298.92 1108.6 2296.42 1106.81 2293.4 1105.39 2289.96 1104.5ZM2343.57 1104.14 2339.07 1104.41 2334.46 1105.32 2330.03 1106.88 2326.28 1108.92 2323.17 1111.42 2320.81 1114.43 2319.32 1117.94 2318.78 1121.99 2319.02 1124.26 2319.69 1126.07 2320.67 1127.53 2321.93 1129.02 2323.96 1130.82 2324.44 1131.16 2324.69 1131.29C2325.44 1131.67 2325.96 1132.4 2326.05 1133.24 2326.15 1134.07 2325.82 1134.9 2325.17 1135.44L2324.52 1135.96 2323.71 1136.45 2322.34 1137.48 2320.66 1139.04 2319.15 1140.94 2317.6 1143.52 2316.59 1146.5 2316.21 1150.19 2316.58 1153.26 2317.58 1156.03 2319.26 1158.61 2321.51 1160.81 2324.42 1162.67 2327.95 1164.13 2332.11 1165.04 2336.64 1165.34 2342.55 1164.92 2347.82 1163.59 2352.64 1161.5 2356.78 1158.85 2360.12 1155.75 2362.69 1152.11 2364.33 1148.23 2364.86 1144.25 2364.44 1140.68 2363.21 1137.86 2361.55 1135.68 2359.78 1134.12 2357.89 1132.88 2356.32 1132.1 2355.88 1131.96 2355.88 1131.96 2355.63 1131.96C2354.32 1131.96 2353.23 1130.95 2353.14 1129.64 2353.09 1128.98 2353.3 1128.37 2353.69 1127.89L2354.42 1127.47 2354.32 1127.51 2354.85 1127.09 2355.78 1126.27 2356.75 1125.12 2357.9 1123.47 2358.98 1121.3 2359.66 1118.9 2359.88 1115.87 2359.61 1113.25 2358.87 1111.08 2357.6 1109.16 2355.77 1107.49 2353.38 1106.11 2350.56 1105.06 2347.42 1104.39ZM2119.38 1103.89 2115.39 1104.36 2111.9 1105.39 2109.58 1106.79 2109.35 1107.1 2109.3 1107.28 2109.46 1108.62 2110.16 1110.83 2112.51 1117.07 2114.83 1124.32 2115.63 1128.22 2115.88 1131.84 2115.88 1132.59C2115.88 1132.7 2115.88 1132.82 2115.86 1132.94L2115.8 1133.38C2115.64 1134.46 2114.8 1135.32 2113.72 1135.49 2112.64 1135.67 2111.57 1135.12 2111.09 1134.14L2110.75 1133.48 2108.94 1130.15 2107.87 1127.89 2106.62 1125.2 2104.24 1120.07 2102.2 1115.61 2101.27 1113.7 2100.77 1112.67 2099.49 1110.64 2098.17 1109.12 2095.26 1106.94 2092.32 1105.91 2089.44 1105.59 2086.34 1105.76 2082.79 1106.06 2079.75 1106.48 2078.7 1106.68 2078.11 1106.85 2077.19 1107.36 2076.46 1108.06 2075.86 1109.18 2075.35 1111.18 2075.12 1112.49 2074.94 1114.69 2074.69 1117.33 2074.44 1120.64 2074.26 1124.57 2074.07 1128.93 2074.01 1133.86 2073.95 1139.32 2074.13 1145.53 2074.55 1151.61 2075.16 1156.86 2075.52 1159.02 2075.85 1160.6 2076.84 1163.01 2078.36 1164.29 2081.18 1165.18 2085.41 1165.51 2089.98 1165.01 2093.74 1163.77 2096.15 1162.04 2096.56 1161.48 2096.65 1161.07 2096.51 1160.16 2095.94 1158.35 2094.17 1152.84 2093.19 1149.45 2092.34 1145.62 2091.76 1141.35 2091.51 1136.71 2091.51 1135.12 2091.58 1134.03 2091.65 1133.4C2091.66 1133.22 2091.7 1133.03 2091.76 1132.86L2091.82 1132.67C2092.1 1131.85 2092.78 1131.23 2093.62 1131.03 2094.47 1130.83 2095.35 1131.08 2095.96 1131.69L2096.28 1132.01C2096.41 1132.14 2096.53 1132.29 2096.63 1132.45L2097.32 1133.55 2098.24 1135.22 2099.3 1137.34 2100.37 1139.78 2101.57 1142.58 2103.89 1148.28 2105.95 1153.4 2106.74 1155.34 2107.28 1156.61 2108.96 1159.79 2110.55 1162.41 2111.83 1163.69 2113.47 1164.07 2116.8 1163.88 2120.67 1163.17 2124.01 1161.96 2126.69 1160.2 2127.39 1159.36 2128.24 1157.6 2129 1155.15 2129.72 1151.61 2130.33 1147.34 2130.82 1142.41 2131.07 1136.87 2131.13 1130.59 2131.13 1128.39 2131.07 1125.33 2130.76 1118.68 2130.39 1112.72 2130.22 1110.44 2130 1108.88 2129.64 1107.71 2129.22 1106.97 2127.1 1105.4 2123.69 1104.3ZM2389.53 1103.62 2386.93 1104.09 2386.26 1104.51 2385.42 1105.44 2384.48 1106.85 2383.4 1108.96 2382.05 1111.83 2380.27 1115.96 2378.44 1119.87 2376.7 1122.96 2375.16 1125.46 2373.85 1127.45 2372.07 1130.19 2371.59 1131.94 2371.79 1132.81 2372.67 1133.76 2376.61 1136.16 2380.7 1138.17 2381.89 1138.86C2382.07 1138.97 2382.25 1139.1 2382.4 1139.26L2382.84 1139.69C2383.35 1140.2 2383.61 1140.9 2383.57 1141.62L2383.5 1142.62C2383.5 1142.75 2383.48 1142.88 2383.45 1143.02L2383.12 1144.43 2382.17 1148.32 2380.91 1152.84 2379.68 1157.16 2378.7 1160.87 2378.43 1162.08 2378.36 1162.63 2378.44 1162.98 2378.66 1163.26 2380.61 1164.3 2383.33 1164.99 2385.95 1165.27 2388.09 1165.28 2389.72 1165.17 2391.28 1164.95 2393.32 1164.34 2393.45 1164.26 2393.77 1163.89 2394.19 1163.14 2394.8 1161.69 2395.94 1157.87 2396.9 1153.47 2398.2 1142.89 2398.63 1137.52 2398.76 1132.67 2398.7 1124.55 2398.63 1117.45 2398.57 1114.46 2398.46 1111.92 2398.28 1109.88 2398.06 1108.34 2397.74 1107.32 2397.22 1106.56 2395.21 1104.98 2392.48 1103.97ZM2047.26 1103.53 2046.37 1103.67 2045.8 1104.01 2045.39 1104.52 2045.07 1105.57 2044.64 1107.51C2044.61 1107.63 2044.57 1107.74 2044.53 1107.85L2043.49 1110.58 2041.99 1114.02 2040.04 1117.92 2037.87 1121.58 2035.84 1124.46 2034.34 1126.21C2034.19 1126.4 2034 1126.56 2033.8 1126.69L2032.92 1127.25C2032.27 1127.67 2031.47 1127.76 2030.74 1127.51 2030.01 1127.25 2029.44 1126.67 2029.2 1125.94L2029.14 1125.75C2029.05 1125.5 2029.01 1125.23 2029.01 1124.96L2029.02 1124.06 2029.59 1119.06C2029.6 1118.92 2029.63 1118.79 2029.67 1118.66L2030.94 1114.13 2032.11 1110.57 2032.65 1107.68 2032.54 1107.17 2032.23 1106.73 2031.5 1106.31 2029.86 1106.1 2028.27 1106.19 2026.17 1106.45 2021.42 1107.6 2016.82 1109.39 2013.26 1111.6 2012.82 1112.16 2012.31 1113.46 2011.67 1115.88 2011.19 1119.19 2010.82 1123.19 2010.51 1127.77 2010.38 1132.99 2010.32 1138.74 2010.38 1142.94 2010.5 1146.59 2010.74 1149.88 2011.04 1152.65 2011.41 1155.08 2011.76 1157.02 2012.09 1158.49 2012.34 1159.41 2013.64 1162.23 2015.25 1163.75 2017.67 1164.7 2021.21 1165.09 2024.41 1165.04 2026.96 1164.76 2028.97 1164.36 2030.57 1163.92 2031.5 1163.48 2031.76 1163.25 2031.95 1162.82 2031.67 1161.56 2030.48 1158.46 2029.36 1154.52C2029.31 1154.37 2029.28 1154.22 2029.27 1154.07L2028.83 1149.32C2028.82 1149.15 2028.82 1148.99 2028.84 1148.82L2028.96 1147.64C2029.01 1147.16 2029.2 1146.71 2029.49 1146.34L2029.99 1145.71C2030.31 1145.32 2030.74 1145.03 2031.22 1144.88L2032.66 1144.44C2033.2 1144.28 2033.78 1144.3 2034.31 1144.52L2034.94 1144.77C2035.25 1144.89 2035.54 1145.08 2035.78 1145.32L2036.53 1146.07C2036.64 1146.18 2036.73 1146.3 2036.82 1146.42L2037.81 1147.91 2038.7 1149.7 2040.29 1153.6 2042.05 1158.4 2042.8 1160.15 2043.58 1161.51 2045.08 1163.05 2046.64 1163.72 2048.54 1164.01 2050.32 1163.87 2052.95 1163.41 2058.6 1161.52 2061.06 1160.27 2063.09 1158.76 2064.27 1157.33 2064.58 1155.96 2064.43 1155.12 2063.87 1154.11 2063.03 1153.27 2061.64 1152.57 2060.77 1152.13C2060.53 1152.01 2060.31 1151.86 2060.12 1151.67L2059.3 1150.85C2059.17 1150.72 2059.05 1150.57 2058.95 1150.41L2057.31 1147.77 2055.55 1144.49 2053.56 1141.16 2051.11 1138.55 2049.09 1137.14 2047.34 1136.5C2046.5 1136.19 2045.89 1135.46 2045.73 1134.57 2045.58 1133.69 2045.91 1132.79 2046.6 1132.22L2050.38 1129.12 2054.11 1125.47 2056.91 1122.17 2059.41 1119.01 2061.17 1116 2061.7 1113.93 2061.44 1112.46 2060.46 1110.77 2056.65 1107.13 2051.69 1104.48 2049.31 1103.79ZM2214.17 1103.43 2210.37 1103.75 2206.73 1104.7 2203.32 1106.26 2200.39 1108.31 2197.93 1110.88 2196.09 1113.86 2194.9 1117.27 2194.46 1121.03 2194.83 1124.43 2195.93 1127.3 2197.6 1129.78 2199.61 1131.96 2204.52 1135.52 2209.79 1138.4 2211.97 1139.62 2213.66 1140.62C2213.79 1140.7 2213.92 1140.8 2214.04 1140.9L2215.1 1141.84C2215.38 1142.08 2215.6 1142.39 2215.74 1142.73L2216.12 1143.6C2216.37 1144.2 2216.39 1144.87 2216.16 1145.47L2215.47 1147.29C2215.31 1147.71 2215.04 1148.08 2214.68 1148.36L2213.8 1149.05C2213.5 1149.29 2213.13 1149.46 2212.75 1149.54L2211.5 1149.79C2211.18 1149.85 2210.85 1149.85 2210.54 1149.79L2208.91 1149.48C2208.54 1149.41 2208.2 1149.26 2207.9 1149.03L2206.46 1147.97C2206.26 1147.82 2206.08 1147.64 2205.93 1147.44L2203.26 1143.77 2201.08 1140.24 2200.63 1139.77 2200.34 1139.7 2199.68 1139.81 2198.39 1140.39 2194.99 1142.85 2192.23 1146.27 2191.49 1147.97 2191.23 1149.68 2191.65 1152.07 2193.01 1154.59 2195.25 1157.15 2198.19 1159.53 2201.54 1161.53 2205.68 1163.27 2209.98 1164.36 2214.39 1164.7 2218.46 1164.42 2222.34 1163.56 2225.88 1162.16 2228.92 1160.28 2231.46 1157.9 2233.4 1155 2234.62 1151.75 2235.06 1147.87 2234.67 1143.75 2233.5 1140.38 2231.64 1137.49 2229.42 1135.04 2226.92 1133.05 2223.81 1131.19 2220.6 1129.55 2217.89 1128.13 2215.67 1126.84 2213.92 1125.66C2213.79 1125.57 2213.67 1125.47 2213.55 1125.35L2212.37 1124.17C2212.06 1123.86 2211.84 1123.48 2211.72 1123.06L2211.35 1121.68C2211.2 1121.15 2211.24 1120.58 2211.45 1120.06L2211.76 1119.31C2211.96 1118.83 2212.31 1118.43 2212.75 1118.15L2213.25 1117.84C2213.84 1117.47 2214.56 1117.36 2215.24 1117.55L2217.49 1118.18C2217.86 1118.28 2218.2 1118.47 2218.49 1118.72L2219.87 1119.98 2221.55 1121.86 2223.21 1123.83 2223.59 1124.05 2224.57 1124.19 2225.65 1124.03 2227.05 1123.45 2230.24 1121.23 2232.76 1118.16 2233.41 1116.83 2233.6 1115.6 2233.29 1113.77 2232.36 1111.77 2230.74 1109.68 2228.52 1107.73 2225.7 1106.02 2222.32 1104.66 2218.44 1103.75ZM2119.59 1098.88 2124.44 1099.35C2124.62 1099.36 2124.79 1099.4 2124.97 1099.46L2129.03 1100.77C2129.28 1100.85 2129.53 1100.98 2129.74 1101.14L2132.62 1103.26C2132.9 1103.47 2133.14 1103.74 2133.31 1104.04L2134.12 1105.48C2134.21 1105.64 2134.28 1105.8 2134.34 1105.98L2134.84 1107.6C2134.87 1107.73 2134.9 1107.85 2134.92 1107.98L2135.17 1109.73 2135.38 1112.33 2135.75 1118.37 2136.07 1125.09 2136.13 1128.29 2136.13 1130.59 2136.07 1136.92 2135.82 1142.63 2135.31 1147.83 2134.67 1152.31 2133.9 1156.15 2132.96 1159.25C2132.93 1159.38 2132.88 1159.5 2132.82 1159.62L2131.76 1161.8C2131.67 1161.98 2131.57 1162.14 2131.44 1162.29L2130.32 1163.67C2130.16 1163.87 2129.97 1164.04 2129.75 1164.18L2126.5 1166.3C2126.34 1166.41 2126.16 1166.5 2125.98 1166.56L2122.17 1167.94C2122.04 1167.98 2121.91 1168.02 2121.78 1168.04L2117.71 1168.79 2113.41 1169.08C2113.17 1169.1 2112.93 1169.08 2112.69 1169.02L2110.01 1168.4C2109.55 1168.29 2109.13 1168.06 2108.8 1167.73L2106.8 1165.73C2106.66 1165.59 2106.54 1165.43 2106.44 1165.26L2104.69 1162.39 2102.86 1158.94 2102.15 1157.33 2101.32 1155.28 2099.25 1150.14 2097.51 1145.85 2098.07 1148.35 2098.97 1151.46 2100.7 1156.82 2101.33 1158.84C2101.37 1158.96 2101.4 1159.07 2101.42 1159.19L2101.67 1160.75C2101.72 1161.07 2101.71 1161.39 2101.63 1161.7L2101.32 1163.08C2101.25 1163.4 2101.11 1163.71 2100.92 1163.98L2099.98 1165.29C2099.82 1165.51 2099.62 1165.71 2099.4 1165.87L2096.34 1168.06C2096.13 1168.21 2095.9 1168.32 2095.66 1168.4L2091.29 1169.84C2091.13 1169.89 2090.96 1169.93 2090.78 1169.95L2085.72 1170.51C2085.57 1170.53 2085.41 1170.53 2085.25 1170.52L2080.5 1170.14C2080.31 1170.13 2080.12 1170.09 2079.94 1170.03L2076.38 1168.91C2076.07 1168.81 2075.78 1168.65 2075.52 1168.44L2073.15 1166.44C2072.84 1166.18 2072.6 1165.85 2072.45 1165.48L2071.13 1162.29C2071.08 1162.14 2071.03 1162 2071 1161.84L2070.62 1160.03 2070.23 1157.68 2069.59 1152.19 2069.14 1145.89 2068.95 1139.47 2069.01 1133.81 2069.07 1128.87 2069.26 1124.36 2069.45 1120.4 2069.7 1116.96 2069.96 1114.23 2070.14 1112.06 2070.42 1110.36 2071.08 1107.67C2071.13 1107.47 2071.21 1107.27 2071.31 1107.09L2072.24 1105.34C2072.37 1105.11 2072.53 1104.89 2072.72 1104.71L2073.97 1103.52C2074.12 1103.38 2074.29 1103.26 2074.47 1103.16L2075.9 1102.35C2076.08 1102.25 2076.26 1102.17 2076.45 1102.12L2077.32 1101.87 2078.77 1101.57 2082.11 1101.11 2085.92 1100.78 2089.37 1100.59C2089.51 1100.58 2089.65 1100.59 2089.78 1100.6L2093.16 1100.98C2093.35 1101 2093.53 1101.04 2093.71 1101.1L2097.27 1102.35C2097.51 1102.44 2097.74 1102.56 2097.94 1102.71L2101.38 1105.27C2101.52 1105.38 2101.66 1105.5 2101.77 1105.64L2103.4 1107.51C2103.48 1107.61 2103.56 1107.71 2103.63 1107.82L2104.5 1109.21 2104.28 1107.39C2104.24 1107.06 2104.26 1106.73 2104.35 1106.42L2104.66 1105.29C2104.75 1104.98 2104.89 1104.7 2105.09 1104.44L2105.9 1103.38C2106.09 1103.13 2106.32 1102.92 2106.59 1102.76L2109.59 1100.95C2109.77 1100.84 2109.97 1100.75 2110.17 1100.69L2114.17 1099.5C2114.31 1099.46 2114.45 1099.43 2114.59 1099.42L2119.06 1098.89C2119.24 1098.87 2119.41 1098.87 2119.59 1098.88ZM2389.75 1098.62 2393.36 1099.04C2393.56 1099.06 2393.75 1099.11 2393.94 1099.18L2397.31 1100.43C2397.56 1100.52 2397.79 1100.65 2397.99 1100.81L2400.62 1102.87C2400.82 1103.03 2400.99 1103.22 2401.14 1103.43L2402.07 1104.8C2402.21 1105 2402.32 1105.22 2402.39 1105.45L2402.89 1107.01C2402.93 1107.15 2402.96 1107.28 2402.98 1107.42L2403.23 1109.17 2403.44 1111.5 2403.57 1114.22 2403.63 1117.35 2403.7 1124.5 2403.76 1132.63 2403.63 1137.65 2403.19 1143.28 2401.87 1154.08 2400.83 1158.93 2399.59 1163.11 2398.82 1165.03 2398.01 1166.54C2397.93 1166.69 2397.83 1166.83 2397.72 1166.96L2396.97 1167.84C2396.79 1168.05 2396.57 1168.23 2396.33 1168.37L2395.58 1168.81C2395.41 1168.91 2395.23 1168.99 2395.04 1169.04L2392.54 1169.79C2392.42 1169.83 2392.3 1169.86 2392.17 1169.87L2390.42 1170.12 2388.43 1170.27 2385.95 1170.27 2382.63 1169.95C2382.51 1169.94 2382.39 1169.91 2382.27 1169.88L2379.08 1169.07C2378.88 1169.02 2378.7 1168.95 2378.52 1168.85L2375.83 1167.42C2375.52 1167.25 2375.25 1167.02 2375.04 1166.75L2374.16 1165.62C2373.94 1165.34 2373.78 1165.01 2373.7 1164.67L2373.39 1163.35C2373.32 1163.06 2373.3 1162.76 2373.34 1162.46L2373.47 1161.46 2373.82 1159.81 2374.84 1155.89 2376.1 1151.46 2377.35 1146.98 2378.27 1143.24 2378.41 1142.62 2378.19 1142.5 2374.41 1140.64 2369.78 1137.85C2369.58 1137.73 2369.4 1137.58 2369.24 1137.41L2367.79 1135.84 2369.18 1139.02C2369.27 1139.25 2369.34 1139.49 2369.37 1139.73L2369.87 1143.98C2369.89 1144.19 2369.89 1144.4 2369.86 1144.61L2369.24 1149.23C2369.21 1149.45 2369.15 1149.67 2369.06 1149.87L2367.19 1154.31C2367.12 1154.48 2367.03 1154.63 2366.92 1154.78L2364.05 1158.84C2363.95 1158.98 2363.84 1159.11 2363.71 1159.23L2360.03 1162.66C2359.92 1162.77 2359.8 1162.86 2359.67 1162.94L2355.17 1165.82C2355.06 1165.89 2354.94 1165.95 2354.82 1166L2349.63 1168.25C2349.5 1168.31 2349.38 1168.35 2349.25 1168.39L2343.56 1169.82C2343.42 1169.86 2343.27 1169.88 2343.12 1169.89L2337 1170.33 2331.6 1170.02C2331.48 1170.01 2331.35 1169.99 2331.22 1169.97L2326.66 1168.97C2326.52 1168.93 2326.38 1168.89 2326.24 1168.83L2322.31 1167.21C2322.17 1167.15 2322.03 1167.08 2321.91 1167L2318.6 1164.88C2318.45 1164.79 2318.32 1164.68 2318.2 1164.56L2315.57 1162C2315.44 1161.87 2315.33 1161.73 2315.23 1161.58L2313.23 1158.52C2313.12 1158.35 2313.03 1158.18 2312.97 1157.99L2311.78 1154.68C2311.72 1154.5 2311.67 1154.32 2311.65 1154.14L2311.53 1153.11 2310.57 1155.42C2310.5 1155.58 2310.41 1155.74 2310.31 1155.89L2307.75 1159.58C2307.66 1159.7 2307.56 1159.82 2307.45 1159.93L2304.26 1163.06C2304.15 1163.17 2304.03 1163.27 2303.9 1163.35L2300.15 1165.85C2300.03 1165.93 2299.91 1166 2299.78 1166.06L2295.59 1167.93C2295.47 1167.98 2295.35 1168.03 2295.22 1168.06L2290.78 1169.25C2290.64 1169.29 2290.49 1169.32 2290.34 1169.33L2285.78 1169.7C2285.63 1169.71 2285.49 1169.71 2285.35 1169.7L2279.73 1169.2C2279.55 1169.19 2279.38 1169.15 2279.22 1169.1L2274.28 1167.6C2274.14 1167.56 2274 1167.5 2273.87 1167.43L2269.49 1165.18C2269.36 1165.12 2269.24 1165.04 2269.12 1164.95L2265.5 1162.2C2265.39 1162.12 2265.28 1162.03 2265.19 1161.92L2262.25 1158.8C2262.15 1158.69 2262.06 1158.58 2261.99 1158.46L2259.8 1155.15C2259.71 1155.02 2259.64 1154.88 2259.57 1154.73L2258.2 1151.42C2258.12 1151.23 2258.06 1151.03 2258.04 1150.82L2257.6 1147.82C2257.55 1147.52 2257.56 1147.22 2257.63 1146.92L2258.01 1145.23C2258.07 1144.93 2258.2 1144.64 2258.37 1144.39L2259.49 1142.7C2259.59 1142.55 2259.71 1142.41 2259.84 1142.29L2263.27 1138.97C2263.4 1138.85 2263.55 1138.74 2263.7 1138.64L2267.89 1136.08C2268.04 1135.99 2268.2 1135.91 2268.36 1135.85L2270.49 1135.1C2270.64 1135.05 2270.8 1135.01 2270.97 1134.99L2272.72 1134.74C2272.96 1134.7 2273.2 1134.7 2273.44 1134.74L2274.68 1134.92 2274.4 1132.85C2274.36 1132.53 2274.38 1132.2 2274.46 1131.89L2274.52 1131.66 2273.71 1131.95C2273.31 1132.08 2272.9 1132.12 2272.49 1132.05L2270.93 1131.8C2270.78 1131.78 2270.64 1131.75 2270.51 1131.7L2268.69 1131.07C2268.52 1131.02 2268.36 1130.94 2268.2 1130.84L2264.64 1128.65C2264.46 1128.55 2264.3 1128.42 2264.16 1128.27L2261.16 1125.21C2261.01 1125.06 2260.88 1124.89 2260.78 1124.7L2259.78 1122.95C2259.63 1122.7 2259.53 1122.42 2259.48 1122.14L2259.17 1120.32C2259.12 1120.02 2259.12 1119.72 2259.18 1119.42L2259.68 1116.86C2259.72 1116.66 2259.78 1116.46 2259.87 1116.28L2261.24 1113.34C2261.31 1113.19 2261.4 1113.05 2261.49 1112.92L2263.74 1109.86C2263.82 1109.75 2263.9 1109.66 2263.99 1109.57L2266.93 1106.63C2267.03 1106.53 2267.14 1106.44 2267.25 1106.36L2270.88 1103.79 2275.28 1101.44C2275.41 1101.37 2275.54 1101.31 2275.68 1101.27L2280.37 1099.77C2280.54 1099.71 2280.71 1099.68 2280.88 1099.66L2285.9 1099.15C2286.06 1099.14 2286.22 1099.14 2286.38 1099.15L2290.61 1099.53C2290.74 1099.55 2290.88 1099.57 2291.01 1099.6L2294.88 1100.6C2295.04 1100.64 2295.18 1100.7 2295.33 1100.76L2298.76 1102.39C2298.9 1102.45 2299.03 1102.53 2299.15 1102.62L2302.03 1104.68C2302.16 1104.77 2302.28 1104.88 2302.39 1104.99L2304.7 1107.43C2304.81 1107.54 2304.91 1107.67 2304.99 1107.81L2306.74 1110.56C2306.83 1110.7 2306.91 1110.85 2306.97 1111L2308.09 1113.94C2308.16 1114.13 2308.21 1114.32 2308.24 1114.52L2308.61 1117.46C2308.64 1117.63 2308.64 1117.81 2308.63 1117.98L2308.38 1120.98C2308.36 1121.13 2308.34 1121.27 2308.3 1121.41L2307.61 1124.03 2306.57 1126.61 2305.46 1128.7C2305.4 1128.82 2305.32 1128.94 2305.24 1129.05L2304.53 1129.97 2304.83 1130.15 2306.85 1131.78C2306.94 1131.86 2307.03 1131.94 2307.11 1132.03L2308.98 1134.09C2309.07 1134.18 2309.14 1134.28 2309.21 1134.39L2310.96 1137.01C2311.08 1137.18 2311.17 1137.36 2311.24 1137.56L2312.42 1140.87C2312.5 1141.07 2312.54 1141.28 2312.56 1141.49L2312.66 1142.54 2312.95 1141.66C2313.01 1141.49 2313.09 1141.33 2313.18 1141.18L2314.87 1138.36 2316.85 1135.79C2316.93 1135.69 2317.02 1135.6 2317.12 1135.51L2318.93 1133.82 2319.41 1133.45 2318.49 1132.66C2318.4 1132.58 2318.31 1132.49 2318.23 1132.39L2316.85 1130.76 2315.38 1128.61C2315.26 1128.45 2315.17 1128.27 2315.1 1128.08L2314.23 1125.7C2314.16 1125.51 2314.11 1125.31 2314.09 1125.11L2313.77 1122.23C2313.75 1122.03 2313.75 1121.83 2313.78 1121.63L2314.41 1116.94C2314.44 1116.72 2314.49 1116.5 2314.58 1116.3L2316.33 1112.17C2316.42 1111.97 2316.53 1111.78 2316.67 1111.6L2319.42 1108.1C2319.54 1107.95 2319.67 1107.82 2319.82 1107.7L2323.32 1104.89C2323.43 1104.79 2323.56 1104.71 2323.69 1104.64L2327.81 1102.39C2327.93 1102.33 2328.05 1102.27 2328.18 1102.23L2332.81 1100.6 2338.08 1099.51 2343.23 1099.15 2347.73 1099.4 2351.76 1100.2C2351.88 1100.22 2352.01 1100.26 2352.13 1100.31L2355.32 1101.49C2355.45 1101.54 2355.58 1101.6 2355.7 1101.67L2358.51 1103.3C2358.67 1103.39 2358.81 1103.5 2358.95 1103.62L2361.2 1105.68C2361.35 1105.82 2361.48 1105.97 2361.59 1106.14L2363.21 1108.57C2363.33 1108.75 2363.43 1108.95 2363.5 1109.15L2364.44 1111.9C2364.5 1112.09 2364.54 1112.27 2364.56 1112.46L2364.87 1115.59C2364.89 1115.73 2364.89 1115.87 2364.88 1116.01L2364.63 1119.51C2364.62 1119.68 2364.59 1119.85 2364.54 1120.02L2363.73 1122.89C2363.68 1123.04 2363.63 1123.19 2363.56 1123.33L2362.37 1125.7 2360.89 1127.93 2360.36 1128.56 2362.49 1129.92 2365.02 1132.07C2365.15 1132.18 2365.27 1132.31 2365.37 1132.45L2367.23 1134.88 2367.08 1134.6 2366.58 1132.47C2366.48 1132.07 2366.49 1131.64 2366.6 1131.24L2367.35 1128.49C2367.42 1128.24 2367.52 1128 2367.67 1127.78L2369.67 1124.72 2370.98 1122.71 2372.44 1120.34 2374.08 1117.42 2375.74 1113.84 2377.46 1109.85 2378.87 1106.84 2380.04 1104.57 2381.36 1102.53C2381.43 1102.42 2381.51 1102.32 2381.59 1102.22L2382.78 1100.91C2382.93 1100.74 2383.1 1100.6 2383.29 1100.48L2384.67 1099.6C2384.94 1099.43 2385.25 1099.31 2385.57 1099.25L2389.02 1098.64C2389.26 1098.59 2389.51 1098.59 2389.75 1098.62ZM2047.54 1098.53 2050.14 1098.86C2050.26 1098.87 2050.39 1098.9 2050.52 1098.93L2053.33 1099.75C2053.5 1099.8 2053.66 1099.86 2053.81 1099.94L2059.31 1102.88C2059.51 1102.99 2059.7 1103.12 2059.86 1103.28L2064.17 1107.4C2064.34 1107.57 2064.49 1107.75 2064.61 1107.96L2065.98 1110.33C2066.13 1110.58 2066.23 1110.86 2066.28 1111.14L2066.72 1113.58C2066.78 1113.93 2066.77 1114.3 2066.68 1114.64L2065.93 1117.58C2065.87 1117.81 2065.78 1118.02 2065.67 1118.22L2063.73 1121.54 2060.85 1125.25 2057.91 1128.71 2053.89 1132.68 2052.77 1133.61 2054.19 1134.6C2054.33 1134.7 2054.46 1134.81 2054.58 1134.94L2057.4 1137.94C2057.52 1138.07 2057.63 1138.21 2057.72 1138.37L2059.84 1141.93 2061.71 1145.4 2063.04 1147.52 2063.36 1147.84 2063.88 1148.1 2065.63 1148.98C2065.87 1149.1 2066.09 1149.25 2066.28 1149.44L2067.65 1150.82C2067.82 1150.98 2067.96 1151.17 2068.07 1151.37L2069.01 1153.06C2069.14 1153.3 2069.23 1153.56 2069.28 1153.83L2069.59 1155.58C2069.65 1155.92 2069.65 1156.26 2069.57 1156.59L2069.01 1159.02C2068.92 1159.4 2068.75 1159.75 2068.5 1160.05L2066.75 1162.18C2066.62 1162.33 2066.48 1162.47 2066.31 1162.59L2063.88 1164.4C2063.76 1164.49 2063.65 1164.56 2063.52 1164.62L2060.71 1166.06C2060.6 1166.12 2060.48 1166.17 2060.36 1166.21L2054.36 1168.21C2054.25 1168.25 2054.13 1168.28 2054.01 1168.3L2051.2 1168.8 2048.65 1169.02C2048.46 1169.03 2048.27 1169.02 2048.08 1169L2045.58 1168.62C2045.36 1168.59 2045.15 1168.53 2044.95 1168.44L2042.64 1167.44C2042.34 1167.31 2042.07 1167.13 2041.84 1166.89L2039.78 1164.77C2039.63 1164.62 2039.51 1164.45 2039.41 1164.27L2038.47 1162.65 2037.47 1160.4 2035.6 1155.32 2034.07 1151.6 2034.06 1151.58 2034.23 1153.37 2035.29 1157.09 2036.4 1159.93C2036.45 1160.05 2036.48 1160.17 2036.51 1160.29L2037.01 1162.54C2037.13 1163.07 2037.07 1163.61 2036.86 1164.1L2036.11 1165.79C2035.96 1166.12 2035.74 1166.42 2035.46 1166.66L2034.52 1167.48C2034.35 1167.62 2034.16 1167.75 2033.96 1167.84L2032.53 1168.53C2032.39 1168.59 2032.25 1168.64 2032.11 1168.68L2030.3 1169.18 2027.94 1169.66 2024.98 1170.01 2021.3 1170.09 2016.81 1169.64C2016.59 1169.61 2016.37 1169.56 2016.16 1169.48L2012.97 1168.23C2012.67 1168.11 2012.4 1167.94 2012.17 1167.71L2009.85 1165.53C2009.62 1165.31 2009.43 1165.05 2009.3 1164.76L2007.8 1161.51 2007.3 1159.93 2006.89 1158.15 2006.49 1155.97 2006.1 1153.39 2005.77 1150.42 2005.52 1146.96 2005.39 1143.11 2005.32 1138.81 2005.38 1132.93 2005.51 1127.65 2005.83 1122.86 2006.21 1118.73 2006.72 1115.16 2007.46 1112.22 2008.3 1110C2008.39 1109.76 2008.52 1109.55 2008.67 1109.35L2009.61 1108.16C2009.79 1107.93 2010.01 1107.74 2010.25 1107.59L2014.38 1105.03C2014.51 1104.94 2014.65 1104.88 2014.79 1104.82L2019.6 1102.94 2024.97 1101.6 2027.62 1101.23 2029.79 1101.09C2029.95 1101.08 2030.11 1101.09 2030.27 1101.11L2032.65 1101.42C2032.97 1101.46 2033.29 1101.57 2033.57 1101.73L2035.2 1102.67C2035.51 1102.85 2035.77 1103.09 2035.98 1103.38L2036.92 1104.7C2037.12 1104.98 2037.26 1105.3 2037.33 1105.64L2037.64 1107.14C2037.71 1107.46 2037.71 1107.78 2037.65 1108.1L2037.03 1111.48 2035.9 1115.04 2037.52 1111.78 2038.9 1108.59 2039.8 1106.24 2040.2 1104.47 2040.74 1102.63C2040.83 1102.32 2040.98 1102.03 2041.18 1101.77L2042.18 1100.52C2042.37 1100.29 2042.6 1100.09 2042.86 1099.93L2044.24 1099.12C2044.51 1098.96 2044.81 1098.85 2045.13 1098.8L2046.85 1098.54C2047.08 1098.5 2047.31 1098.5 2047.54 1098.53ZM2214.35 1098.43 2219.01 1098.78C2219.14 1098.79 2219.27 1098.81 2219.39 1098.84L2223.64 1099.84C2223.77 1099.87 2223.88 1099.91 2224 1099.95L2227.75 1101.45C2227.88 1101.5 2228 1101.57 2228.12 1101.64L2231.31 1103.57C2231.43 1103.65 2231.55 1103.74 2231.66 1103.83L2234.22 1106.08C2234.34 1106.19 2234.45 1106.3 2234.55 1106.43L2236.48 1108.93C2236.6 1109.08 2236.7 1109.24 2236.78 1109.41L2237.96 1111.97C2238.06 1112.17 2238.12 1112.39 2238.16 1112.6L2238.6 1115.17C2238.64 1115.43 2238.65 1115.7 2238.6 1115.97L2238.29 1117.97C2238.25 1118.22 2238.18 1118.45 2238.07 1118.68L2237.13 1120.61C2237.05 1120.79 2236.94 1120.96 2236.81 1121.11L2233.88 1124.68C2233.73 1124.85 2233.56 1125.01 2233.37 1125.14L2229.69 1127.7C2229.54 1127.8 2229.39 1127.89 2229.23 1127.95L2228.59 1128.22 2229.48 1128.75 2232.68 1131.25C2232.79 1131.33 2232.89 1131.43 2232.98 1131.53L2235.48 1134.28C2235.58 1134.38 2235.66 1134.49 2235.74 1134.61L2237.86 1137.92C2237.97 1138.09 2238.05 1138.27 2238.12 1138.45L2239.49 1142.39C2239.56 1142.58 2239.6 1142.78 2239.62 1142.98L2240.06 1147.67C2240.08 1147.84 2240.07 1148.01 2240.06 1148.18L2239.56 1152.62C2239.53 1152.82 2239.48 1153.02 2239.41 1153.22L2237.97 1157.03C2237.91 1157.21 2237.82 1157.38 2237.71 1157.54L2235.46 1160.91C2235.36 1161.07 2235.23 1161.22 2235.09 1161.35L2232.16 1164.1C2232.03 1164.21 2231.9 1164.31 2231.76 1164.4L2228.32 1166.53C2228.2 1166.6 2228.07 1166.67 2227.93 1166.72L2223.99 1168.29C2223.87 1168.33 2223.74 1168.37 2223.61 1168.4L2219.36 1169.34C2219.24 1169.37 2219.12 1169.38 2219 1169.39L2214.56 1169.71C2214.44 1169.71 2214.31 1169.71 2214.19 1169.7L2209.38 1169.33C2209.24 1169.32 2209.1 1169.29 2208.96 1169.26L2204.27 1168.07C2204.15 1168.04 2204.03 1168 2203.92 1167.95L2199.6 1166.14 2195.49 1163.74C2195.38 1163.68 2195.28 1163.61 2195.19 1163.53L2191.94 1160.91C2191.83 1160.81 2191.72 1160.71 2191.62 1160.6L2189.06 1157.67C2188.94 1157.53 2188.83 1157.37 2188.75 1157.21L2188.6 1156.95 2188.29 1158.93C2188.25 1159.14 2188.19 1159.35 2188.1 1159.55L2186.98 1162.05C2186.81 1162.41 2186.57 1162.72 2186.27 1162.97L2184.33 1164.53C2184.15 1164.67 2183.96 1164.79 2183.76 1164.88L2182.32 1165.5 2180 1166.37 2177.17 1167.23 2173.88 1168.07 2170.24 1168.79 2166.32 1169.49 2157.55 1170.08 2153.41 1170.02 2150.11 1169.83 2147.45 1169.57C2147.33 1169.56 2147.21 1169.54 2147.09 1169.51L2145.09 1169.01 2143.17 1168.29C2143.02 1168.24 2142.87 1168.16 2142.74 1168.08L2141.55 1167.33C2141.28 1167.15 2141.04 1166.93 2140.85 1166.67L2139.42 1164.67C2139.25 1164.43 2139.12 1164.17 2139.04 1163.89L2138.6 1162.32 2138.07 1160.02 2137.55 1157.23 2137.1 1154.06 2136.71 1150.54 2136.39 1146.67 2136.14 1137.97 2136.2 1131.62 2136.39 1126.06 2136.64 1121.21 2137.09 1116.95 2137.53 1113.46 2138.05 1110.52 2138.49 1108.28 2138.97 1106.5C2139.03 1106.26 2139.13 1106.03 2139.26 1105.82L2139.89 1104.82C2140.04 1104.58 2140.23 1104.36 2140.46 1104.19L2141.65 1103.25C2141.78 1103.14 2141.93 1103.05 2142.08 1102.98L2143.83 1102.1C2143.94 1102.04 2144.06 1102 2144.18 1101.96L2146.49 1101.21 2149.53 1100.52 2153.19 1100.04 2157.42 1099.78 2162.11 1099.68 2168.29 1099.9 2173.48 1100.48C2173.67 1100.5 2173.85 1100.54 2174.03 1100.61L2177.91 1101.98C2178.28 1102.11 2178.61 1102.33 2178.88 1102.61L2181.63 1105.48C2181.78 1105.64 2181.9 1105.81 2182.01 1106L2183.26 1108.25C2183.36 1108.42 2183.43 1108.61 2183.48 1108.81L2184.11 1111.12C2184.15 1111.26 2184.17 1111.39 2184.18 1111.53L2184.62 1115.97C2184.64 1116.16 2184.64 1116.35 2184.61 1116.54L2184.3 1118.91C2184.26 1119.2 2184.18 1119.48 2184.04 1119.73L2183.1 1121.55C2182.94 1121.87 2182.71 1122.15 2182.42 1122.37L2180.99 1123.49C2180.68 1123.73 2180.33 1123.89 2179.95 1123.97L2178.14 1124.35 2177.54 1124.39 2178.14 1125.08 2179.21 1127.33C2179.33 1127.6 2179.41 1127.89 2179.44 1128.19L2179.75 1131.88C2179.76 1132.01 2179.76 1132.14 2179.75 1132.27L2179.44 1136.58C2179.43 1136.73 2179.4 1136.89 2179.36 1137.04L2178.49 1140.35 2178.22 1140.95 2178.93 1140.65 2180.5 1140.1C2180.63 1140.06 2180.76 1140.02 2180.89 1140L2181.95 1139.81C2182.38 1139.74 2182.82 1139.77 2183.22 1139.92L2184.97 1140.54C2185.42 1140.7 2185.82 1140.99 2186.11 1141.36L2187.42 1143.05C2187.6 1143.28 2187.73 1143.54 2187.82 1143.81L2187.84 1143.86 2188.13 1143.39 2191.32 1139.45C2191.45 1139.28 2191.61 1139.13 2191.79 1139L2195.67 1136.19C2195.8 1136.09 2195.95 1136 2196.11 1135.93L2196.41 1135.8 2196.11 1135.53 2193.8 1133.03C2193.71 1132.94 2193.63 1132.84 2193.56 1132.73L2191.62 1129.86C2191.52 1129.7 2191.43 1129.53 2191.36 1129.35L2190.05 1125.92C2189.97 1125.72 2189.92 1125.51 2189.9 1125.3L2189.46 1121.3C2189.44 1121.11 2189.44 1120.92 2189.46 1120.74L2189.96 1116.42C2189.98 1116.24 2190.03 1116.06 2190.09 1115.89L2191.46 1111.95C2191.52 1111.78 2191.6 1111.61 2191.69 1111.46L2193.82 1108.02C2193.91 1107.87 2194.02 1107.73 2194.14 1107.61L2196.95 1104.67C2197.07 1104.55 2197.19 1104.44 2197.33 1104.35L2200.64 1102.04C2200.76 1101.95 2200.89 1101.88 2201.03 1101.81L2204.84 1100.06C2204.97 1100 2205.11 1099.95 2205.25 1099.92L2209.31 1098.86C2209.45 1098.82 2209.59 1098.79 2209.74 1098.78L2213.95 1098.43C2214.08 1098.42 2214.21 1098.42 2214.35 1098.43Z" fill="#5B9BD5" fill-rule="evenodd"/><path d="M2338.96 1140.19C2337.92 1140.19 2336.93 1140.37 2335.98 1140.72 2335.02 1141.08 2334.17 1141.53 2333.43 1142.08 2332.68 1142.64 2332.11 1143.22 2331.71 1143.84 2331.32 1144.46 2331.12 1145.04 2331.12 1145.59 2331.12 1146.2 2331.34 1146.75 2331.78 1147.25 2332.22 1147.76 2332.99 1148.01 2334.08 1148.01 2334.81 1148.01 2335.59 1147.85 2336.42 1147.53 2337.26 1147.2 2338.03 1146.78 2338.74 1146.27 2339.44 1145.75 2340.01 1145.17 2340.45 1144.53 2340.89 1143.89 2341.11 1143.25 2341.11 1142.61 2341.11 1142.01 2340.89 1141.45 2340.45 1140.95 2340.01 1140.44 2339.51 1140.19 2338.96 1140.19ZM2336.79 1112.76C2336.07 1112.76 2335.33 1112.91 2334.57 1113.2 2333.81 1113.5 2333.16 1113.86 2332.62 1114.27 2332.09 1114.67 2331.66 1115.15 2331.34 1115.7 2331.01 1116.24 2330.85 1116.73 2330.85 1117.16 2330.85 1117.68 2331.02 1118.09 2331.35 1118.4 2331.67 1118.71 2332.32 1118.86 2333.27 1118.86 2334.69 1118.86 2335.97 1118.44 2337.12 1117.59 2338.27 1116.75 2338.85 1115.73 2338.85 1114.54 2338.85 1113.99 2338.66 1113.56 2338.28 1113.24 2337.9 1112.92 2337.4 1112.76 2336.79 1112.76ZM2158.54 1098.55C2162.91 1098.55 2166.57 1098.79 2169.51 1099.27 2172.45 1099.75 2174.66 1101.19 2176.15 1103.58 2177.14 1105.04 2177.77 1106.55 2178.06 1108.13 2178.35 1109.71 2178.5 1111.18 2178.5 1112.56 2178.5 1114.34 2178.07 1115.74 2177.21 1116.75 2176.35 1117.76 2175.27 1118.26 2173.97 1118.26 2173.42 1118.26 2172.7 1118.22 2171.81 1118.12 2170.92 1118.03 2169.94 1117.94 2168.89 1117.85 2167.83 1117.76 2166.72 1117.68 2165.54 1117.59 2164.37 1117.49 2163.27 1117.45 2162.24 1117.45 2160.12 1117.45 2158.63 1117.61 2157.77 1117.94 2156.91 1118.26 2156.48 1118.88 2156.48 1119.78 2156.48 1120.6 2156.63 1121.24 2156.94 1121.69 2157.26 1122.15 2157.73 1122.38 2158.36 1122.38 2159.02 1122.38 2159.78 1122.31 2160.63 1122.16 2161.47 1122.02 2162.35 1121.87 2163.25 1121.72 2164.15 1121.57 2165.05 1121.41 2165.95 1121.26 2166.85 1121.1 2167.69 1121.03 2168.46 1121.03 2170.06 1121.03 2171.32 1121.52 2172.24 1122.52 2173.16 1123.52 2173.62 1125.49 2173.62 1128.44 2173.62 1131.63 2173.23 1134.15 2172.43 1136.03 2171.63 1137.9 2170.46 1138.84 2168.91 1138.84 2167.81 1138.84 2166.74 1138.78 2165.69 1138.66 2164.63 1138.54 2163.48 1138.48 2162.24 1138.48 2160.29 1138.48 2158.94 1138.7 2158.17 1139.14 2157.4 1139.58 2157.02 1140.32 2157.02 1141.35 2157.02 1142.01 2157.13 1142.45 2157.35 1142.69 2157.57 1142.93 2158.33 1143.05 2159.62 1143.05 2162.21 1143.05 2164.54 1142.83 2166.6 1142.39 2168.66 1141.96 2170.51 1141.45 2172.13 1140.88 2173.76 1140.31 2175.12 1139.79 2176.21 1139.32 2177.3 1138.86 2178.14 1138.63 2178.75 1138.63 2180.05 1138.63 2181.07 1139.4 2181.81 1140.96 2182.55 1142.51 2182.92 1144.54 2182.92 1147.04 2182.92 1150.3 2182.67 1152.91 2182.18 1154.86 2181.68 1156.81 2180.65 1158.16 2179.09 1158.91 2178.34 1159.32 2177.14 1159.8 2175.48 1160.36 2173.83 1160.93 2171.87 1161.46 2169.63 1161.98 2167.39 1162.5 2164.92 1162.95 2162.24 1163.34 2159.55 1163.73 2156.73 1163.93 2153.75 1163.93 2150.87 1163.93 2148.49 1163.85 2146.61 1163.7 2144.73 1163.54 2143.2 1163.29 2142.01 1162.94 2140.82 1162.58 2139.9 1162.13 2139.24 1161.58 2138.58 1161.03 2138.1 1160.35 2137.8 1159.53 2137.5 1158.67 2137.17 1157.42 2136.83 1155.78 2136.49 1154.14 2136.19 1152.24 2135.92 1150.08 2135.65 1147.92 2135.42 1145.49 2135.24 1142.78 2135.05 1140.06 2134.96 1137.21 2134.96 1134.22 2134.96 1125.43 2135.28 1118.54 2135.91 1113.56 2136.55 1108.58 2137.15 1105.24 2137.72 1103.52 2138.23 1102.07 2140.18 1100.88 2143.58 1099.95 2146.99 1099.02 2151.97 1098.55 2158.54 1098.55ZM2339.77 1098.01C2345.58 1098.01 2350.19 1099.27 2353.61 1101.8 2357.03 1104.32 2358.74 1107.79 2358.74 1112.2 2358.74 1114.67 2358.38 1116.78 2357.65 1118.53 2356.91 1120.27 2356.08 1121.72 2355.16 1122.88 2354.23 1124.03 2353.46 1124.84 2352.87 1125.31 2352.27 1125.77 2351.97 1125.95 2351.97 1125.82 2351.97 1125.64 2352.51 1125.74 2353.58 1126.14 2354.66 1126.53 2355.96 1127.27 2357.49 1128.35 2359.02 1129.43 2360.44 1130.96 2361.75 1132.94 2363.05 1134.91 2363.71 1137.48 2363.71 1140.63 2363.71 1143.79 2362.88 1146.81 2361.24 1149.68 2359.6 1152.55 2357.4 1155.05 2354.64 1157.19 2351.88 1159.33 2348.67 1161.04 2344.99 1162.3 2341.32 1163.57 2337.38 1164.2 2333.18 1164.2 2329.59 1164.2 2326.37 1163.75 2323.53 1162.84 2320.69 1161.94 2318.28 1160.69 2316.29 1159.12 2314.3 1157.54 2312.77 1155.67 2311.68 1153.5 2310.6 1151.34 2310.06 1149.03 2310.06 1146.58 2310.06 1143.51 2310.59 1140.92 2311.65 1138.83 2312.71 1136.74 2313.89 1135.03 2315.19 1133.7 2316.48 1132.38 2317.59 1131.42 2318.51 1130.82 2319.44 1130.22 2319.9 1129.91 2319.9 1129.89 2319.9 1129.91 2319.58 1129.68 2318.93 1129.22 2318.29 1128.76 2317.48 1128.05 2316.5 1127.1 2315.51 1126.15 2314.61 1124.96 2313.8 1123.53 2312.99 1122.1 2312.59 1120.37 2312.59 1118.33 2312.59 1114.99 2313.39 1112.05 2314.99 1109.5 2316.59 1106.96 2318.67 1104.84 2321.23 1103.16 2323.79 1101.47 2326.71 1100.19 2329.98 1099.32 2333.25 1098.45 2336.52 1098.01 2339.77 1098.01ZM2282.52 1098.01C2285.44 1098.01 2288.14 1098.47 2290.62 1099.39 2293.1 1100.31 2295.2 1101.53 2296.93 1103.04 2298.66 1104.55 2300.02 1106.27 2301 1108.22 2301.99 1110.16 2302.48 1112.12 2302.48 1114.09 2302.48 1116.23 2302.18 1118.12 2301.57 1119.76 2300.96 1121.4 2300.3 1122.76 2299.59 1123.84 2298.88 1124.92 2298.27 1125.74 2297.75 1126.31 2297.24 1126.88 2296.98 1127.17 2296.98 1127.18 2296.98 1127.09 2297.43 1127.26 2298.32 1127.69 2299.22 1128.11 2300.32 1128.91 2301.62 1130.08 2302.92 1131.26 2304.12 1132.81 2305.2 1134.75 2306.28 1136.69 2306.82 1139.19 2306.82 1142.25 2306.82 1145.35 2306.08 1148.21 2304.59 1150.83 2303.11 1153.45 2301.19 1155.7 2298.83 1157.59 2296.48 1159.48 2293.83 1160.94 2290.9 1161.99 2287.96 1163.04 2284.96 1163.57 2281.89 1163.57 2277.96 1163.57 2274.44 1162.9 2271.33 1161.56 2268.23 1160.23 2265.56 1158.56 2263.35 1156.56 2261.14 1154.57 2259.43 1152.41 2258.22 1150.1 2257.02 1147.79 2256.42 1145.69 2256.42 1143.78 2256.42 1142.7 2256.91 1141.57 2257.89 1140.4 2258.86 1139.23 2260.02 1138.13 2261.36 1137.11 2262.69 1136.09 2264.1 1135.25 2265.57 1134.58 2267.04 1133.91 2268.33 1133.57 2269.43 1133.57 2270.74 1133.57 2271.66 1133.86 2272.18 1134.43 2272.71 1134.99 2272.97 1135.71 2272.97 1136.57 2272.97 1137.59 2273.17 1138.69 2273.56 1139.86 2273.95 1141.03 2274.51 1142.11 2275.24 1143.09 2275.97 1144.08 2276.81 1144.89 2277.77 1145.52 2278.72 1146.16 2279.77 1146.48 2280.9 1146.48 2282.2 1146.48 2283.24 1146.1 2284.03 1145.33 2284.82 1144.57 2285.21 1143.48 2285.21 1142.07 2285.21 1140.59 2284.72 1139.61 2283.74 1139.12 2282.77 1138.63 2281.61 1138.39 2280.26 1138.39 2279.4 1138.39 2278.54 1138.21 2277.7 1137.86 2276.87 1137.52 2276.11 1136.95 2275.42 1136.16 2274.74 1135.38 2274.2 1134.39 2273.8 1133.2 2273.41 1132.01 2273.21 1130.57 2273.21 1128.89 2273.21 1127.88 2273.76 1126.91 2274.85 1125.98 2275.94 1125.06 2277.05 1124.14 2278.16 1123.23 2279.27 1122.31 2280.29 1121.35 2281.21 1120.35 2282.13 1119.34 2282.59 1118.25 2282.59 1117.07 2282.59 1116.47 2282.38 1116.01 2281.95 1115.68 2281.52 1115.36 2280.93 1115.19 2280.17 1115.19 2278.99 1115.19 2277.89 1115.7 2276.89 1116.7 2275.88 1117.71 2274.99 1118.84 2274.21 1120.08 2273.44 1121.32 2272.66 1122.61 2271.87 1123.94 2271.08 1125.27 2270.21 1125.93 2269.25 1125.93 2268.26 1125.93 2267.13 1125.64 2265.87 1125.06 2264.62 1124.48 2263.42 1123.75 2262.28 1122.87 2261.15 1121.98 2260.14 1120.97 2259.27 1119.83 2258.39 1118.68 2257.96 1117.49 2257.96 1116.26 2257.96 1114.68 2258.59 1112.83 2259.85 1110.71 2261.12 1108.59 2262.85 1106.6 2265.06 1104.74 2267.26 1102.88 2269.84 1101.29 2272.81 1099.98 2275.78 1098.67 2279.02 1098.01 2282.52 1098.01ZM2115.72 1097.74C2119.23 1097.74 2122.18 1098.32 2124.59 1099.47 2127 1100.63 2128.41 1102.36 2128.81 1104.65 2128.99 1105.64 2129.14 1107.05 2129.26 1108.88 2129.38 1110.71 2129.5 1112.7 2129.62 1114.86 2129.74 1117.01 2129.84 1119.26 2129.9 1121.58 2129.97 1123.91 2130 1125.68 2130 1126.91 2130 1135.75 2129.52 1142.88 2128.57 1148.27 2127.61 1153.67 2126.32 1157.05 2124.7 1158.4 2122.73 1160.06 2120.38 1161.22 2117.64 1161.91 2114.91 1162.59 2112.22 1162.94 2109.59 1162.94 2107.62 1162.94 2106.06 1162.06 2104.91 1160.32 2103.76 1158.57 2102.6 1156.5 2101.43 1154.1 2101.08 1153.35 2100.6 1152.21 2099.99 1150.67 2099.37 1149.14 2098.69 1147.44 2097.94 1145.58 2097.19 1143.72 2096.41 1141.8 2095.61 1139.84 2094.82 1137.88 2094.06 1136.16 2093.34 1134.67 2092.63 1133.19 2092 1132 2091.46 1131.13 2090.92 1130.25 2090.61 1129.81 2090.54 1129.81 2090.43 1129.81 2090.38 1130.89 2090.38 1133.05 2090.38 1136.22 2090.64 1139.08 2091.17 1141.62 2091.69 1144.16 2092.27 1146.46 2092.9 1148.52 2093.52 1150.57 2094.12 1152.37 2094.68 1153.9 2095.24 1155.43 2095.52 1156.64 2095.52 1157.5 2095.52 1158.42 2095.12 1159.3 2094.3 1160.15 2093.49 1161 2092.45 1161.73 2091.19 1162.34 2089.94 1162.95 2088.5 1163.45 2086.88 1163.82 2085.26 1164.19 2083.56 1164.38 2081.79 1164.38 2078.2 1164.38 2075.44 1163.88 2073.5 1162.88 2071.56 1161.88 2070.32 1160.15 2069.78 1157.71 2069.53 1156.57 2069.29 1155.21 2069.05 1153.62 2068.82 1152.04 2068.61 1150.25 2068.42 1148.26 2068.24 1146.27 2068.09 1144.21 2067.96 1142.07 2067.84 1139.94 2067.78 1137.83 2067.78 1135.75 2067.78 1128.02 2067.95 1121.72 2068.28 1116.86 2068.62 1112 2068.93 1108.74 2069.23 1107.1 2069.55 1105.24 2070.07 1103.83 2070.79 1102.87 2071.52 1101.9 2072.41 1101.23 2073.46 1100.85 2073.9 1100.67 2074.6 1100.5 2075.58 1100.34 2076.55 1100.19 2077.62 1100.05 2078.79 1099.93 2079.95 1099.81 2081.18 1099.7 2082.47 1099.6 2083.77 1099.5 2084.89 1099.46 2085.85 1099.46 2086.89 1099.46 2088.01 1099.57 2089.23 1099.8 2090.45 1100.03 2091.64 1100.45 2092.8 1101.07 2093.96 1101.68 2095.1 1102.53 2096.22 1103.62 2097.35 1104.71 2098.34 1106.06 2099.2 1107.66 2099.54 1108.27 2100.06 1109.34 2100.77 1110.86 2101.49 1112.37 2102.18 1113.87 2102.86 1115.36 2103.53 1116.85 2104.32 1118.56 2105.2 1120.48 2106.09 1122.41 2106.88 1124.05 2107.56 1125.4 2108.25 1126.76 2108.82 1127.82 2109.27 1128.61L2109.69 1129.4 2109.73 1128.95C2109.74 1128.74 2109.75 1128.48 2109.75 1128.17 2109.75 1125.93 2109.41 1123.59 2108.72 1121.15 2108.04 1118.71 2107.28 1116.38 2106.45 1114.15 2105.62 1111.93 2104.85 1109.89 2104.14 1108.03 2103.43 1106.17 2103.07 1104.65 2103.07 1103.44 2103.07 1102.67 2103.46 1101.93 2104.25 1101.21 2105.04 1100.49 2106.02 1099.9 2107.21 1099.42 2108.39 1098.94 2109.73 1098.54 2111.23 1098.22 2112.73 1097.9 2114.23 1097.74 2115.72 1097.74ZM2385.83 1097.47C2387.02 1097.47 2388.22 1097.6 2389.43 1097.86 2390.64 1098.12 2391.75 1098.54 2392.77 1099.1 2393.79 1099.66 2394.67 1100.36 2395.41 1101.19 2396.15 1102.03 2396.62 1103 2396.83 1104.11 2397.2 1106.15 2397.41 1109.36 2397.48 1113.75 2397.55 1118.14 2397.58 1123.22 2397.58 1128.98 2397.58 1132.12 2397.41 1135.61 2397.07 1139.44 2396.73 1143.27 2396.27 1146.82 2395.7 1150.1 2395.13 1153.38 2394.41 1156.27 2393.54 1158.75 2392.67 1161.24 2391.7 1162.66 2390.64 1163.01 2389.67 1163.36 2388.85 1163.6 2388.19 1163.73 2387.52 1163.86 2386.92 1163.96 2386.38 1164.02 2385.84 1164.08 2385.24 1164.11 2384.57 1164.11 2383.9 1164.11 2383.15 1164.11 2382.31 1164.11 2381.36 1164.11 2380.33 1164.02 2379.23 1163.83 2378.12 1163.65 2377.07 1163.38 2376.06 1163.02 2375.05 1162.66 2374.15 1162.17 2373.36 1161.53 2372.58 1160.89 2372.18 1160.09 2372.18 1159.13 2372.18 1158.59 2372.32 1157.78 2372.6 1156.69 2372.88 1155.59 2373.21 1154.32 2373.6 1152.85 2373.98 1151.39 2374.4 1149.93 2374.85 1148.47 2375.31 1147.01 2375.73 1145.52 2376.11 1144.02 2376.48 1142.52 2376.79 1141.24 2377.04 1140.19 2377.29 1139.13 2377.42 1138.35 2377.42 1137.83 2377.42 1137.62 2376.87 1137.23 2375.77 1136.69 2374.68 1136.14 2373.36 1135.48 2371.83 1134.71 2370.29 1133.95 2368.82 1133.06 2367.42 1132.06 2366.02 1131.06 2365.32 1129.79 2365.32 1128.26 2365.32 1127.27 2365.58 1126.35 2366.08 1125.5 2366.58 1124.65 2367.25 1123.63 2368.08 1122.43 2368.91 1121.23 2369.86 1119.75 2370.93 1118 2372 1116.24 2373.14 1113.99 2374.33 1111.24 2375.65 1108.21 2376.69 1105.88 2377.45 1104.25 2378.2 1102.62 2378.98 1101.28 2379.76 1100.24 2380.55 1099.19 2381.41 1098.46 2382.35 1098.07 2383.29 1097.67 2384.45 1097.47 2385.83 1097.47ZM2043.6 1097.38C2045.21 1097.38 2047 1097.76 2048.97 1098.52 2050.93 1099.28 2052.76 1100.26 2054.46 1101.45 2056.15 1102.65 2057.6 1104.02 2058.79 1105.57 2059.99 1107.12 2060.58 1108.73 2060.58 1110.39 2060.58 1111.25 2060.34 1112.21 2059.85 1113.28 2059.37 1114.36 2058.71 1115.47 2057.88 1116.61 2057.06 1117.75 2056.18 1118.89 2055.24 1120.04 2054.3 1121.18 2053.33 1122.32 2052.33 1123.44 2049.81 1126.15 2047.21 1128.51 2044.52 1130.52 2044.98 1130.49 2045.67 1130.73 2046.58 1131.25 2047.36 1131.7 2048.2 1132.29 2049.12 1133.02 2050.04 1133.75 2050.97 1134.74 2051.9 1136 2052.67 1137.13 2053.38 1138.32 2054.01 1139.57 2054.65 1140.81 2055.25 1141.94 2055.82 1142.96 2056.39 1143.97 2056.92 1144.81 2057.41 1145.45 2057.9 1146.1 2058.48 1146.51 2059.12 1146.69 2060.36 1147.06 2061.39 1147.8 2062.22 1148.91 2063.06 1150.03 2063.47 1151.18 2063.47 1152.36 2063.47 1154.08 2062.71 1155.61 2061.18 1156.94 2059.65 1158.26 2057.9 1159.35 2055.93 1160.19 2053.96 1161.04 2051.95 1161.69 2049.89 1162.15 2047.82 1162.62 2046.12 1162.85 2044.77 1162.85 2043.01 1162.85 2041.41 1162.39 2039.97 1161.49 2038.52 1160.58 2037.22 1158.67 2036.07 1155.76 2035.42 1153.86 2034.84 1152.22 2034.32 1150.83 2033.8 1149.44 2033.26 1148.15 2032.71 1146.96 2032.15 1145.77 2031.62 1144.84 2031.1 1144.17 2030.58 1143.5 2030.11 1143.17 2029.7 1143.17 2029.17 1143.17 2028.7 1143.31 2028.27 1143.59 2027.85 1143.87 2027.64 1144.48 2027.64 1145.41 2027.64 1147.13 2027.8 1148.71 2028.12 1150.15 2028.43 1151.59 2028.81 1152.91 2029.24 1154.12 2029.68 1155.33 2030.06 1156.36 2030.39 1157.2 2030.73 1158.05 2030.89 1158.78 2030.89 1159.4 2030.89 1159.98 2030.65 1160.56 2030.16 1161.13 2029.67 1161.7 2028.89 1162.18 2027.81 1162.59 2026.73 1163 2025.38 1163.32 2023.77 1163.56 2022.16 1163.81 2020.1 1163.93 2017.61 1163.93 2014.46 1163.93 2011.99 1163.37 2010.21 1162.24 2008.42 1161.11 2007.15 1159.3 2006.4 1156.79 2005.92 1155.41 2005.43 1152.94 2004.91 1149.37 2004.4 1145.8 2004.14 1141.05 2004.14 1135.12 2004.14 1127 2004.43 1120.39 2005.02 1115.3 2005.6 1110.2 2006.57 1107.12 2007.93 1106.04 2009.13 1105.04 2010.49 1104.19 2012.04 1103.48 2013.58 1102.77 2015.19 1102.16 2016.86 1101.64 2018.53 1101.12 2020.22 1100.7 2021.94 1100.38 2023.66 1100.07 2025.11 1099.91 2026.27 1099.91 2028.1 1099.91 2029.44 1100.32 2030.27 1101.16 2031.11 1101.99 2031.52 1102.94 2031.52 1103.98 2031.52 1104.96 2031.32 1106.08 2030.91 1107.34 2030.5 1108.6 2030.08 1109.9 2029.64 1111.24 2029.2 1112.58 2028.79 1114.05 2028.4 1115.66 2028.02 1117.27 2027.82 1118.94 2027.82 1120.68 2027.82 1121.21 2027.85 1121.48 2027.9 1121.48 2028.3 1121.48 2029.09 1120.72 2030.28 1119.21 2031.46 1117.69 2032.77 1115.62 2034.21 1112.98 2035.62 1110.33 2036.74 1107.99 2037.57 1105.95 2038.4 1103.9 2038.87 1102.38 2038.98 1101.37 2039.12 1100.08 2039.61 1099.1 2040.45 1098.41 2041.29 1097.72 2042.34 1097.38 2043.6 1097.38ZM2210.53 1097.29C2213.73 1097.29 2216.69 1097.73 2219.39 1098.61 2222.09 1099.49 2224.4 1100.64 2226.33 1102.06 2228.25 1103.48 2229.76 1105.05 2230.85 1106.78 2231.93 1108.5 2232.48 1110.22 2232.48 1111.93 2232.48 1113.24 2232.06 1114.56 2231.24 1115.89 2230.41 1117.21 2229.43 1118.39 2228.3 1119.43 2227.17 1120.46 2225.93 1121.32 2224.59 1122.01 2223.24 1122.7 2222.02 1123.04 2220.91 1123.04 2219.49 1123.04 2218.51 1122.75 2217.94 1122.15 2217.38 1121.55 2216.71 1120.77 2215.95 1119.82 2214.75 1118.34 2213.81 1117.38 2213.14 1116.94 2212.46 1116.5 2211.71 1116.28 2210.89 1116.28 2210.83 1116.28 2210.68 1116.38 2210.44 1116.6 2210.21 1116.82 2210.09 1117.06 2210.09 1117.34 2210.09 1118.29 2210.61 1119.15 2211.64 1119.92 2212.67 1120.68 2213.96 1121.48 2215.5 1122.31 2217.04 1123.14 2218.96 1124.14 2221.26 1125.31 2223.56 1126.48 2225.63 1127.9 2227.48 1129.55 2229.32 1131.21 2230.85 1133.23 2232.08 1135.62 2233.31 1138.02 2233.92 1140.89 2233.92 1144.24 2233.92 1147.34 2233.27 1150.1 2231.97 1152.5 2230.67 1154.91 2228.95 1156.94 2226.79 1158.59 2224.63 1160.24 2222.18 1161.48 2219.43 1162.31 2216.67 1163.15 2213.77 1163.57 2210.71 1163.57 2207.46 1163.57 2204.31 1163.04 2201.25 1161.99 2198.18 1160.94 2195.47 1159.59 2193.11 1157.94 2190.75 1156.3 2188.82 1154.43 2187.32 1152.36 2185.81 1150.28 2185.06 1148.17 2185.06 1146.04 2185.06 1144.41 2185.51 1142.83 2186.42 1141.31 2187.33 1139.78 2188.39 1138.46 2189.61 1137.34 2190.83 1136.21 2192.11 1135.29 2193.46 1134.56 2194.8 1133.84 2195.92 1133.48 2196.81 1133.48 2197.89 1133.48 2198.76 1134.01 2199.43 1135.08 2200.1 1136.14 2200.86 1137.38 2201.71 1138.79 2202.57 1140.2 2203.43 1141.37 2204.3 1142.29 2205.17 1143.22 2206.2 1143.68 2207.37 1143.68 2208.35 1143.68 2209.07 1143.37 2209.5 1142.75 2209.93 1142.14 2210.15 1141.52 2210.15 1140.9 2210.15 1140.33 2209.67 1139.73 2208.72 1139.1 2207.77 1138.46 2206.49 1137.73 2204.89 1136.9 2203.29 1136.07 2201.54 1135.12 2199.65 1134.05 2197.76 1132.99 2195.97 1131.7 2194.27 1130.19 2192.58 1128.69 2191.16 1126.89 2190.02 1124.8 2188.88 1122.71 2188.31 1120.22 2188.31 1117.34 2188.31 1114.33 2188.92 1111.59 2190.14 1109.12 2191.36 1106.64 2193.01 1104.53 2195.09 1102.76 2197.17 1100.99 2199.54 1099.64 2202.21 1098.7 2204.87 1097.76 2207.65 1097.29 2210.53 1097.29Z" stroke="#FFFFFF" stroke-width="5" stroke-linejoin="round" stroke-miterlimit="10" fill="#262626" fill-rule="evenodd"/><text fill="#000000" fill-opacity="0" font-family="Arial,Arial_MSFontService,sans-serif" font-size="67.0896" x="2004.14" y="1155.99">KNES 381</text></g></svg>