<svg width="1246" height="333" xmlns="http://www.w3.org/2000/svg" xmlns:xlink="http://www.w3.org/1999/xlink" xml:space="preserve" overflow="hidden"><defs><clipPath id="clip0"><rect x="788.5" y="535.5" width="623" height="166.5"/></clipPath></defs><g clip-path="url(#clip0)" transform="translate(-1577 -1071)"><path d="M2579.82 1236.53C2577.03 1236.53 2574.35 1237 2571.78 1237.96 2569.21 1238.91 2566.92 1240.13 2564.91 1241.63 2562.89 1243.12 2561.35 1244.7 2560.29 1246.36 2559.23 1248.02 2558.7 1249.59 2558.7 1251.08 2558.7 1252.71 2559.29 1254.2 2560.47 1255.56 2561.65 1256.92 2563.72 1257.6 2566.68 1257.6 2568.63 1257.6 2570.73 1257.17 2572.98 1256.3 2575.23 1255.43 2577.31 1254.29 2579.22 1252.9 2581.12 1251.51 2582.67 1249.95 2583.84 1248.21 2585.02 1246.48 2585.61 1244.76 2585.61 1243.05 2585.61 1241.42 2585.02 1239.92 2583.84 1238.56 2582.66 1237.21 2581.32 1236.53 2579.82 1236.53ZM2573.98 1162.57C2572.04 1162.57 2570.04 1162.97 2567.99 1163.78 2565.93 1164.58 2564.19 1165.54 2562.74 1166.64 2561.3 1167.74 2560.14 1169.02 2559.27 1170.49 2558.4 1171.96 2557.97 1173.28 2557.97 1174.44 2557.97 1175.83 2558.41 1176.94 2559.3 1177.77 2560.18 1178.61 2561.91 1179.02 2564.49 1179.02 2568.3 1179.02 2571.76 1177.88 2574.87 1175.6 2577.97 1173.33 2579.53 1170.59 2579.53 1167.39 2579.53 1165.9 2579.01 1164.73 2577.99 1163.87 2576.96 1163 2575.63 1162.57 2573.98 1162.57ZM2093.89 1124.28C2105.69 1124.28 2115.55 1124.93 2123.48 1126.22 2131.41 1127.51 2137.37 1131.39 2141.38 1137.84 2144.04 1141.76 2145.76 1145.84 2146.54 1150.1 2147.32 1154.35 2147.71 1158.33 2147.71 1162.03 2147.71 1166.85 2146.55 1170.62 2144.24 1173.33 2141.93 1176.05 2139.01 1177.41 2135.5 1177.41 2134.02 1177.41 2132.08 1177.29 2129.68 1177.04 2127.28 1176.79 2124.65 1176.54 2121.8 1176.31 2118.95 1176.07 2115.95 1175.83 2112.79 1175.59 2109.63 1175.34 2106.66 1175.22 2103.87 1175.22 2098.16 1175.22 2094.15 1175.66 2091.83 1176.54 2089.51 1177.42 2088.35 1179.07 2088.35 1181.5 2088.35 1183.71 2088.77 1185.43 2089.6 1186.66 2090.44 1187.9 2091.71 1188.51 2093.41 1188.51 2095.21 1188.51 2097.25 1188.32 2099.53 1187.92 2101.82 1187.53 2104.17 1187.13 2106.61 1186.72 2109.04 1186.32 2111.46 1185.91 2113.88 1185.49 2116.3 1185.07 2118.56 1184.86 2120.66 1184.86 2124.96 1184.86 2128.36 1186.2 2130.84 1188.89 2133.33 1191.58 2134.57 1196.9 2134.57 1204.85 2134.57 1213.43 2133.49 1220.25 2131.34 1225.3 2129.19 1230.35 2126.03 1232.88 2121.87 1232.88 2118.91 1232.88 2116.01 1232.72 2113.17 1232.39 2110.34 1232.07 2107.24 1231.9 2103.87 1231.9 2098.64 1231.9 2094.98 1232.5 2092.91 1233.69 2090.84 1234.89 2089.81 1236.87 2089.81 1239.64 2089.81 1241.42 2090.1 1242.62 2090.7 1243.26 2091.3 1243.9 2093.33 1244.22 2096.82 1244.22 2103.81 1244.22 2110.08 1243.64 2115.64 1242.46 2121.19 1241.29 2126.16 1239.93 2130.55 1238.39 2134.93 1236.84 2138.6 1235.44 2141.53 1234.19 2144.46 1232.93 2146.75 1232.3 2148.39 1232.3 2151.89 1232.3 2154.63 1234.4 2156.63 1238.59 2158.63 1242.77 2159.63 1248.24 2159.63 1254.97 2159.63 1263.78 2158.96 1270.81 2157.62 1276.07 2156.29 1281.32 2153.51 1284.96 2149.3 1286.98 2147.29 1288.08 2144.05 1289.38 2139.58 1290.9 2135.11 1292.42 2129.85 1293.87 2123.8 1295.26 2117.75 1296.65 2111.11 1297.87 2103.87 1298.93 2096.64 1299.98 2089.02 1300.51 2081 1300.51 2073.22 1300.51 2066.8 1300.3 2061.74 1299.89 2056.68 1299.47 2052.55 1298.79 2049.34 1297.84 2046.14 1296.88 2043.65 1295.67 2041.87 1294.19 2040.1 1292.71 2038.81 1290.87 2038.01 1288.67 2037.18 1286.34 2036.31 1282.97 2035.39 1278.55 2034.47 1274.13 2033.65 1269.01 2032.92 1263.19 2032.19 1257.37 2031.58 1250.8 2031.09 1243.49 2030.6 1236.18 2030.35 1228.49 2030.35 1220.42 2030.35 1196.72 2031.21 1178.16 2032.91 1164.74 2034.62 1151.32 2036.25 1142.3 2037.79 1137.67 2039.15 1133.76 2044.41 1130.56 2053.59 1128.05 2062.77 1125.54 2076.2 1124.28 2093.89 1124.28ZM2582.01 1122.82C2597.67 1122.82 2610.1 1126.23 2619.32 1133.03 2628.54 1139.84 2633.15 1149.18 2633.15 1161.06 2633.15 1167.72 2632.16 1173.41 2630.19 1178.12 2628.22 1182.84 2625.98 1186.74 2623.48 1189.85 2620.98 1192.96 2618.92 1195.14 2617.31 1196.4 2616.91 1196.71 2616.56 1196.98 2616.26 1197.19L2615.63 1197.6 2615.99 1197.63C2616.71 1197.77 2617.8 1198.11 2619.25 1198.64 2622.14 1199.7 2625.66 1201.69 2629.78 1204.61 2633.9 1207.53 2637.73 1211.65 2641.25 1216.97 2644.77 1222.3 2646.53 1229.21 2646.53 1237.7 2646.53 1246.23 2644.32 1254.36 2639.89 1262.1 2635.47 1269.83 2629.54 1276.58 2622.1 1282.35 2614.66 1288.12 2605.99 1292.71 2596.08 1296.12 2586.18 1299.54 2575.57 1301.24 2564.25 1301.24 2554.57 1301.24 2545.89 1300.02 2538.23 1297.58 2530.57 1295.14 2524.06 1291.79 2518.71 1287.54 2513.35 1283.29 2509.21 1278.25 2506.29 1272.41 2503.38 1266.57 2501.92 1260.36 2501.92 1253.76 2501.92 1245.46 2503.35 1238.49 2506.21 1232.85 2509.07 1227.21 2512.25 1222.6 2515.73 1219.03 2519.22 1215.46 2522.21 1212.87 2524.7 1211.26 2527.19 1209.65 2528.44 1208.81 2528.44 1208.75 2528.44 1208.8 2527.57 1208.2 2525.84 1206.95 2524.11 1205.71 2521.92 1203.8 2519.27 1201.23 2516.61 1198.67 2514.19 1195.46 2512.01 1191.61 2509.82 1187.77 2508.73 1183.1 2508.73 1177.6 2508.73 1168.59 2510.89 1160.65 2515.21 1153.8 2519.52 1146.94 2525.13 1141.24 2532.03 1136.7 2538.93 1132.15 2546.8 1128.7 2555.62 1126.35 2564.44 1124 2573.24 1122.82 2582.01 1122.82ZM2428.25 1122.82C2436.13 1122.82 2443.4 1124.06 2450.08 1126.55 2456.76 1129.03 2462.42 1132.3 2467.09 1136.37 2471.75 1140.44 2475.41 1145.09 2478.07 1150.33 2480.73 1155.57 2482.06 1160.85 2482.06 1166.17 2482.06 1171.93 2481.24 1177.03 2479.59 1181.45 2477.94 1185.87 2476.17 1189.54 2474.25 1192.45 2472.34 1195.35 2470.69 1197.58 2469.3 1199.11 2467.91 1200.64 2467.22 1201.42 2467.22 1201.45 2467.22 1201.22 2468.43 1201.68 2470.85 1202.81 2473.26 1203.95 2476.23 1206.1 2479.74 1209.27 2483.25 1212.44 2486.46 1216.64 2489.37 1221.86 2492.28 1227.09 2493.74 1233.83 2493.74 1242.08 2493.74 1250.44 2491.74 1258.15 2487.74 1265.21 2483.75 1272.27 2478.57 1278.34 2472.22 1283.42 2465.87 1288.51 2458.73 1292.46 2450.82 1295.29 2442.91 1298.12 2434.82 1299.54 2426.54 1299.54 2415.96 1299.54 2406.47 1297.74 2398.09 1294.14 2389.71 1290.53 2382.54 1286.04 2376.57 1280.66 2370.6 1275.28 2365.99 1269.47 2362.75 1263.25 2359.51 1257.02 2357.89 1251.34 2357.89 1246.21 2357.89 1243.28 2359.21 1240.24 2361.84 1237.08 2364.47 1233.92 2367.59 1230.97 2371.19 1228.22 2374.8 1225.48 2378.58 1223.2 2382.55 1221.39 2386.51 1219.58 2389.99 1218.68 2392.97 1218.68 2396.49 1218.68 2398.96 1219.45 2400.38 1220.98 2401.8 1222.52 2402.51 1224.44 2402.51 1226.75 2402.51 1229.52 2403.03 1232.47 2404.09 1235.63 2405.14 1238.79 2406.65 1241.69 2408.62 1244.34 2410.59 1246.99 2412.86 1249.18 2415.44 1250.89 2418.01 1252.61 2420.82 1253.47 2423.87 1253.47 2427.38 1253.47 2430.2 1252.44 2432.32 1250.39 2434.44 1248.33 2435.5 1245.4 2435.5 1241.59 2435.5 1237.61 2434.18 1234.96 2431.55 1233.64 2428.91 1232.32 2425.78 1231.66 2422.17 1231.66 2419.82 1231.66 2417.52 1231.19 2415.26 1230.25 2413.01 1229.31 2410.96 1227.78 2409.11 1225.66 2407.27 1223.54 2405.81 1220.88 2404.75 1217.67 2403.68 1214.46 2403.14 1210.6 2403.14 1206.07 2403.14 1203.33 2404.62 1200.71 2407.57 1198.22 2410.52 1195.74 2413.49 1193.26 2416.49 1190.8 2419.49 1188.33 2422.23 1185.75 2424.72 1183.04 2427.2 1180.32 2428.44 1177.38 2428.44 1174.2 2428.44 1172.59 2427.86 1171.35 2426.71 1170.46 2425.55 1169.58 2423.95 1169.14 2421.92 1169.14 2418.73 1169.14 2415.77 1170.49 2413.06 1173.21 2410.34 1175.93 2407.94 1178.96 2405.86 1182.31 2403.77 1185.66 2401.66 1189.12 2399.53 1192.71 2397.4 1196.29 2395.05 1198.09 2392.48 1198.09 2389.79 1198.09 2386.76 1197.31 2383.37 1195.74 2379.98 1194.18 2376.76 1192.2 2373.7 1189.82 2370.64 1187.44 2367.93 1184.71 2365.57 1181.63 2363.21 1178.54 2362.03 1175.34 2362.03 1172.01 2362.03 1167.76 2363.73 1162.78 2367.15 1157.06 2370.56 1151.35 2375.23 1145.98 2381.17 1140.96 2387.1 1135.95 2394.07 1131.67 2402.08 1128.13 2410.09 1124.59 2418.81 1122.82 2428.25 1122.82ZM1978.1 1122.09C1987.54 1122.09 1995.51 1123.65 2002 1126.77 2008.5 1129.88 2012.29 1134.53 2013.38 1140.73 2013.85 1143.39 2014.25 1147.19 2014.57 1152.12 2014.9 1157.06 2015.23 1162.43 2015.56 1168.24 2015.89 1174.05 2016.14 1180.09 2016.32 1186.36 2016.49 1192.63 2016.58 1197.42 2016.58 1200.72 2016.58 1224.56 2015.29 1243.76 2012.72 1258.31 2010.14 1272.86 2006.66 1281.96 2002.29 1285.62 1996.99 1290.07 1990.65 1293.22 1983.27 1295.07 1975.9 1296.91 1968.65 1297.84 1961.55 1297.84 1956.26 1297.84 1952.06 1295.48 1948.95 1290.78 1945.84 1286.07 1942.71 1280.49 1939.56 1274.02 1938.63 1272 1937.34 1268.92 1935.68 1264.78 1934.02 1260.65 1932.18 1256.07 1930.16 1251.05 1928.13 1246.02 1926.04 1240.87 1923.89 1235.59 1921.74 1230.3 1919.7 1225.66 1917.77 1221.65 1915.85 1217.64 1914.15 1214.45 1912.7 1212.09 1911.24 1209.73 1910.41 1208.55 1910.22 1208.55 1909.93 1208.55 1909.78 1211.45 1909.78 1217.26 1909.78 1225.83 1910.49 1233.54 1911.9 1240.39 1913.32 1247.23 1914.87 1253.43 1916.56 1258.97 1918.25 1264.51 1919.85 1269.35 1921.37 1273.48 1922.89 1277.61 1923.65 1280.85 1923.65 1283.19 1923.65 1285.65 1922.55 1288.03 1920.35 1290.32 1918.16 1292.61 1915.36 1294.59 1911.98 1296.24 1908.59 1297.88 1904.71 1299.21 1900.35 1300.22 1895.98 1301.23 1891.41 1301.73 1886.62 1301.73 1876.95 1301.73 1869.5 1300.38 1864.28 1297.68 1859.06 1294.98 1855.72 1290.33 1854.25 1283.74 1853.58 1280.68 1852.93 1277.01 1852.29 1272.74 1851.65 1268.46 1851.09 1263.64 1850.59 1258.28 1850.1 1252.92 1849.68 1247.36 1849.36 1241.6 1849.03 1235.84 1848.86 1230.16 1848.86 1224.56 1848.86 1203.71 1849.32 1186.73 1850.22 1173.62 1851.12 1160.52 1851.96 1151.75 1852.75 1147.32 1853.62 1142.32 1855.03 1138.51 1856.98 1135.91 1858.93 1133.31 1861.34 1131.5 1864.18 1130.48 1865.35 1129.98 1867.25 1129.52 1869.87 1129.11 1872.49 1128.7 1875.38 1128.33 1878.53 1128 1881.67 1127.67 1884.99 1127.37 1888.47 1127.11 1891.95 1126.84 1894.99 1126.71 1897.57 1126.71 1900.36 1126.71 1903.4 1127.02 1906.68 1127.65 1909.96 1128.27 1913.17 1129.4 1916.3 1131.06 1919.43 1132.71 1922.51 1135 1925.53 1137.94 1928.56 1140.88 1931.23 1144.51 1933.56 1148.82 1934.47 1150.49 1935.88 1153.36 1937.8 1157.44 1939.72 1161.53 1941.59 1165.58 1943.41 1169.59 1945.24 1173.61 1947.35 1178.21 1949.74 1183.4 1952.13 1188.59 1954.25 1193.01 1956.1 1196.66 1957.95 1200.3 1959.49 1203.18 1960.71 1205.29 1961.02 1205.82 1961.28 1206.28 1961.49 1206.68L1961.84 1207.41 1961.9 1206.98C1961.96 1206.32 1961.99 1205.37 1961.99 1204.12 1961.99 1198.08 1961.07 1191.77 1959.23 1185.19 1957.38 1178.61 1955.34 1172.33 1953.1 1166.33 1950.86 1160.33 1948.78 1154.83 1946.86 1149.83 1944.95 1144.83 1943.99 1140.71 1943.99 1137.46 1943.99 1135.38 1945.05 1133.38 1947.17 1131.45 1949.29 1129.52 1951.95 1127.9 1955.14 1126.61 1958.33 1125.32 1961.94 1124.24 1965.98 1123.38 1970.02 1122.52 1974.06 1122.09 1978.1 1122.09ZM2708.6 1121.36C2711.8 1121.36 2715.03 1121.72 2718.3 1122.42 2721.56 1123.13 2724.56 1124.23 2727.32 1125.75 2730.07 1127.26 2732.44 1129.14 2734.42 1131.4 2736.41 1133.65 2737.69 1136.28 2738.25 1139.27 2739.24 1144.75 2739.83 1153.41 2740.01 1165.25 2740.18 1177.09 2740.27 1190.78 2740.27 1206.31 2740.27 1214.77 2739.81 1224.16 2738.9 1234.49 2737.98 1244.82 2736.75 1254.41 2735.21 1263.25 2733.67 1272.09 2731.73 1279.86 2729.38 1286.56 2727.03 1293.26 2724.43 1297.08 2721.58 1298.03 2718.94 1298.97 2716.73 1299.62 2714.95 1299.98 2713.17 1300.33 2711.55 1300.59 2710.09 1300.76 2708.63 1300.92 2707.01 1301 2705.21 1301 2703.41 1301 2701.38 1301 2699.11 1301 2696.55 1301 2693.79 1300.75 2690.81 1300.26 2687.83 1299.76 2684.98 1299.03 2682.26 1298.07 2679.54 1297.1 2677.12 1295.76 2675 1294.04 2672.87 1292.32 2671.81 1290.17 2671.81 1287.57 2671.81 1286.13 2672.19 1283.93 2672.95 1280.99 2673.7 1278.04 2674.59 1274.6 2675.62 1270.66 2676.65 1266.71 2677.78 1262.77 2679.02 1258.83 2680.25 1254.9 2681.38 1250.9 2682.39 1246.85 2683.4 1242.79 2684.25 1239.35 2684.92 1236.51 2685.59 1233.68 2685.93 1231.56 2685.93 1230.16 2685.93 1229.58 2684.45 1228.55 2681.49 1227.08 2678.54 1225.6 2674.99 1223.83 2670.85 1221.76 2666.71 1219.69 2662.75 1217.3 2658.98 1214.61 2655.21 1211.91 2653.32 1208.5 2653.32 1204.36 2653.32 1201.7 2654 1199.22 2655.36 1196.93 2656.72 1194.63 2658.52 1191.87 2660.75 1188.64 2662.99 1185.41 2665.55 1181.43 2668.44 1176.7 2671.33 1171.96 2674.39 1165.89 2677.6 1158.48 2681.16 1150.31 2683.96 1144.02 2686 1139.64 2688.04 1135.25 2690.12 1131.64 2692.25 1128.82 2694.37 1125.99 2696.69 1124.04 2699.22 1122.97 2701.75 1121.9 2704.87 1121.36 2708.6 1121.36ZM1784.2 1121.12C1788.55 1121.12 1793.37 1122.14 1798.66 1124.19 1803.96 1126.24 1808.89 1128.87 1813.46 1132.09 1818.04 1135.31 1821.93 1139.01 1825.15 1143.19 1828.37 1147.37 1829.98 1151.7 1829.98 1156.19 1829.98 1158.5 1829.33 1161.1 1828.01 1163.99 1826.7 1166.88 1824.93 1169.87 1822.7 1172.95 1820.48 1176.03 1818.1 1179.11 1815.57 1182.2 1813.03 1185.28 1810.42 1188.34 1807.72 1191.38 1800.93 1198.68 1793.92 1205.03 1786.68 1210.44 1787.92 1210.36 1789.77 1211.02 1792.23 1212.42 1794.32 1213.64 1796.61 1215.23 1799.09 1217.19 1801.57 1219.16 1804.06 1221.84 1806.56 1225.23 1808.65 1228.28 1810.55 1231.48 1812.27 1234.84 1813.99 1238.19 1815.61 1241.24 1817.14 1243.98 1818.68 1246.72 1820.1 1248.97 1821.43 1250.71 1822.76 1252.46 1824.3 1253.57 1826.04 1254.05 1829.37 1255.04 1832.15 1257.04 1834.4 1260.04 1836.65 1263.04 1837.77 1266.13 1837.77 1269.33 1837.77 1273.97 1835.71 1278.08 1831.59 1281.66 1827.47 1285.24 1822.75 1288.17 1817.45 1290.45 1812.14 1292.72 1806.71 1294.48 1801.15 1295.73 1795.58 1296.97 1790.99 1297.59 1787.36 1297.59 1782.61 1297.59 1778.29 1296.37 1774.4 1293.93 1770.51 1291.49 1767.01 1286.34 1763.9 1278.49 1762.16 1273.37 1760.58 1268.95 1759.18 1265.21 1757.77 1261.47 1756.32 1257.99 1754.83 1254.77 1753.34 1251.55 1751.9 1249.05 1750.5 1247.25 1749.1 1245.45 1747.85 1244.56 1746.73 1244.56 1745.31 1244.56 1744.02 1244.93 1742.89 1245.69 1741.75 1246.45 1741.19 1248.08 1741.19 1250.59 1741.19 1255.23 1741.61 1259.49 1742.47 1263.37 1743.32 1267.25 1744.33 1270.82 1745.5 1274.07 1746.67 1277.33 1747.71 1280.1 1748.6 1282.38 1749.5 1284.66 1749.94 1286.64 1749.94 1288.3 1749.94 1289.88 1749.29 1291.43 1747.97 1292.96 1746.66 1294.5 1744.55 1295.81 1741.63 1296.9 1738.72 1298 1735.09 1298.87 1730.74 1299.53 1726.4 1300.18 1720.86 1300.51 1714.13 1300.51 1705.65 1300.51 1699 1298.99 1694.18 1295.96 1689.36 1292.93 1685.94 1288.03 1683.92 1281.27 1682.63 1277.55 1681.3 1270.89 1679.91 1261.26 1678.53 1251.64 1677.84 1238.84 1677.84 1222.86 1677.84 1200.96 1678.62 1183.15 1680.19 1169.42 1681.76 1155.69 1684.38 1147.37 1688.06 1144.47 1691.27 1141.78 1694.96 1139.47 1699.12 1137.56 1703.28 1135.65 1707.61 1133.99 1712.11 1132.6 1716.61 1131.2 1721.18 1130.08 1725.82 1129.22 1730.46 1128.36 1734.35 1127.93 1737.49 1127.93 1742.43 1127.93 1746.02 1129.06 1748.27 1131.31 1750.52 1133.56 1751.65 1136.1 1751.65 1138.92 1751.65 1141.55 1751.09 1144.57 1749.99 1147.97 1748.88 1151.38 1747.74 1154.88 1746.57 1158.49 1745.39 1162.09 1744.28 1166.06 1743.24 1170.39 1742.19 1174.73 1741.67 1179.24 1741.67 1183.93 1741.67 1185.36 1741.74 1186.08 1741.87 1186.08 1742.95 1186.08 1745.09 1184.04 1748.28 1179.96 1751.47 1175.87 1755.01 1170.28 1758.88 1163.18 1762.69 1156.04 1765.71 1149.72 1767.94 1144.21 1770.17 1138.71 1771.44 1134.59 1771.75 1131.87 1772.13 1128.41 1773.45 1125.75 1775.72 1123.9 1777.98 1122.05 1780.81 1121.12 1784.2 1121.12ZM2235.57 1120.88C2244.21 1120.88 2252.17 1122.06 2259.45 1124.44 2266.73 1126.81 2272.97 1129.91 2278.16 1133.74 2283.35 1137.57 2287.42 1141.81 2290.35 1146.46 2293.27 1151.11 2294.74 1155.73 2294.74 1160.33 2294.74 1163.88 2293.62 1167.44 2291.39 1171.01 2289.16 1174.58 2286.52 1177.76 2283.48 1180.55 2280.43 1183.34 2277.09 1185.67 2273.47 1187.52 2269.85 1189.38 2266.54 1190.3 2263.55 1190.3 2259.74 1190.3 2257.07 1189.5 2255.56 1187.88 2254.04 1186.27 2252.24 1184.17 2250.18 1181.61 2246.94 1177.61 2244.42 1175.02 2242.6 1173.84 2240.79 1172.65 2238.77 1172.06 2236.54 1172.06 2236.37 1172.06 2235.97 1172.35 2235.34 1172.93 2234.72 1173.51 2234.4 1174.18 2234.4 1174.93 2234.4 1177.49 2235.79 1179.8 2238.58 1181.87 2241.36 1183.94 2244.83 1186.09 2248.98 1188.32 2253.14 1190.55 2258.31 1193.25 2264.51 1196.41 2270.71 1199.58 2276.29 1203.39 2281.25 1207.84 2286.22 1212.3 2290.36 1217.76 2293.67 1224.21 2296.98 1230.66 2298.63 1238.4 2298.63 1247.43 2298.63 1255.8 2296.88 1263.22 2293.38 1269.71 2289.88 1276.21 2285.22 1281.67 2279.41 1286.12 2273.6 1290.56 2266.98 1293.91 2259.56 1296.16 2252.14 1298.41 2244.3 1299.54 2236.06 1299.54 2227.31 1299.54 2218.8 1298.12 2210.55 1295.29 2202.29 1292.45 2194.98 1288.81 2188.62 1284.38 2182.26 1279.94 2177.05 1274.92 2173 1269.31 2168.95 1263.71 2166.92 1258.04 2166.92 1252.29 2166.92 1247.89 2168.14 1243.63 2170.58 1239.53 2173.03 1235.43 2175.89 1231.86 2179.18 1228.83 2182.46 1225.79 2185.92 1223.3 2189.55 1221.35 2193.18 1219.41 2196.19 1218.44 2198.59 1218.44 2201.49 1218.44 2203.85 1219.87 2205.65 1222.74 2207.46 1225.61 2209.51 1228.95 2211.81 1232.75 2214.11 1236.54 2216.43 1239.69 2218.78 1242.18 2221.14 1244.68 2223.89 1245.93 2227.05 1245.93 2229.71 1245.93 2231.63 1245.1 2232.8 1243.43 2233.97 1241.77 2234.55 1240.1 2234.55 1238.43 2234.55 1236.9 2233.27 1235.29 2230.7 1233.58 2228.13 1231.87 2224.69 1229.89 2220.37 1227.66 2216.05 1225.42 2211.35 1222.86 2206.25 1219.98 2201.15 1217.1 2196.32 1213.63 2191.75 1209.57 2187.18 1205.51 2183.36 1200.66 2180.29 1195.03 2177.21 1189.4 2175.68 1182.7 2175.68 1174.93 2175.68 1166.81 2177.32 1159.42 2180.61 1152.75 2183.9 1146.09 2188.35 1140.38 2193.95 1135.62 2199.56 1130.86 2205.96 1127.22 2213.14 1124.68 2220.33 1122.15 2227.8 1120.88 2235.57 1120.88Z" fill="#5B9BD5" fill-rule="evenodd"/><path d="M2579.64 1239.06 2576.19 1239.41 2572.64 1240.36 2569.2 1241.91 2566.41 1243.65 2564.05 1245.68 2562.43 1247.72 2561.52 1249.58 2561.28 1251.09 2561.55 1252.52 2562.32 1253.77 2563.81 1254.72 2566.72 1255.11 2569.24 1254.85 2572.02 1254 2577.83 1250.86 2580.07 1248.99 2581.75 1246.89 2582.77 1244.9 2583.08 1243.09 2582.8 1241.66 2581.95 1240.24 2580.86 1239.36ZM2579.57 1234.04C2579.85 1234.01 2580.14 1234.03 2580.42 1234.1L2582.59 1234.64C2582.94 1234.72 2583.27 1234.89 2583.55 1235.11L2585.43 1236.61C2585.66 1236.8 2585.86 1237.02 2586.01 1237.28L2587.32 1239.47C2587.47 1239.72 2587.58 1240 2587.63 1240.29L2588.07 1242.6C2588.13 1242.89 2588.13 1243.19 2588.08 1243.48L2587.64 1246.1C2587.6 1246.35 2587.52 1246.6 2587.4 1246.83L2586.09 1249.39C2586.01 1249.54 2585.92 1249.68 2585.82 1249.81L2583.82 1252.31C2583.71 1252.44 2583.59 1252.56 2583.46 1252.67L2580.84 1254.86C2580.71 1254.97 2580.57 1255.06 2580.43 1255.14L2574.18 1258.51C2574.03 1258.59 2573.88 1258.66 2573.72 1258.7L2570.47 1259.7C2570.32 1259.75 2570.16 1259.78 2569.99 1259.8L2566.93 1260.11C2566.74 1260.13 2566.54 1260.13 2566.35 1260.1L2562.6 1259.6C2562.23 1259.56 2561.89 1259.43 2561.58 1259.23L2559.14 1257.67C2558.82 1257.47 2558.56 1257.2 2558.36 1256.88L2557.05 1254.75C2556.89 1254.49 2556.78 1254.2 2556.72 1253.9L2556.28 1251.59C2556.23 1251.31 2556.23 1251.01 2556.27 1250.73L2556.65 1248.41C2556.69 1248.17 2556.76 1247.94 2556.87 1247.72L2558.05 1245.28C2558.13 1245.12 2558.23 1244.96 2558.34 1244.82L2560.28 1242.38C2560.38 1242.26 2560.49 1242.15 2560.61 1242.04L2563.3 1239.73C2563.4 1239.65 2563.5 1239.57 2563.62 1239.5L2567.15 1237.35 2570.78 1235.72C2570.9 1235.67 2571.02 1235.62 2571.15 1235.59L2575.09 1234.53C2575.22 1234.49 2575.35 1234.47 2575.49 1234.45ZM2209.95 1224.86 2210.73 1226.11 2214 1231.45 2217.39 1236.56 2220.6 1240.44 2222.15 1241.78 2223.71 1242.71 2225.33 1243.23 2227.02 1243.41 2229.46 1242.97 2230.82 1241.84 2231.72 1240.12 2232 1238.5 2231.95 1238.23 2231.6 1237.63 2230.76 1236.76 2229.25 1235.64 2224.94 1233.01 2219.22 1229.88 2212.49 1226.27ZM2404.44 1223.17 2404.45 1223.18 2405.01 1226.31 2405.4 1230.64 2406.49 1234.88 2408.27 1239.02 2410.69 1242.89 2413.54 1246.19 2416.82 1248.81 2420.28 1250.46 2424.01 1250.99 2426.03 1250.84 2427.82 1250.39 2429.28 1249.68 2430.6 1248.65 2431.62 1247.4 2432.38 1245.82 2432.89 1243.91 2433.04 1241.65 2432.84 1239.39 2432.31 1237.8 2431.53 1236.74 2430.39 1235.93 2426.7 1234.65 2421.93 1234.18 2418.47 1233.8C2418.31 1233.78 2418.15 1233.75 2418 1233.7L2414.56 1232.64C2414.4 1232.59 2414.24 1232.52 2414.08 1232.44L2410.83 1230.62C2410.66 1230.52 2410.49 1230.4 2410.34 1230.26L2407.41 1227.51C2407.27 1227.39 2407.15 1227.24 2407.04 1227.08L2404.6 1223.46ZM2237.2 1174.68 2237.18 1174.7 2236.99 1174.94 2236.97 1175.06 2237.11 1176.12 2237.65 1177.33 2238.62 1178.58 2240.25 1179.98 2244.71 1183 2250.25 1186.22 2251.17 1186.7 2248.26 1183.23 2245.99 1180.46 2244.05 1178.4 2242.38 1176.8 2241.33 1176.03 2239.01 1174.93ZM2573.93 1165.09 2571.56 1165.4 2568.95 1166.14 2564.2 1168.74 2562.67 1170.12 2561.46 1171.78 2560.71 1173.38 2560.52 1174.5 2560.68 1175.41 2560.97 1175.84 2561.97 1176.31 2564.53 1176.56 2566.91 1176.4 2569.19 1175.81 2571.33 1174.91 2573.53 1173.51 2575.07 1172.18 2576.16 1170.65 2576.81 1169.1 2577.02 1167.5 2576.83 1166.48 2576.33 1165.82 2575.43 1165.34ZM2573.66 1160.09C2573.9 1160.06 2574.15 1160.06 2574.38 1160.1L2576.64 1160.47C2576.91 1160.52 2577.18 1160.61 2577.42 1160.74L2579.17 1161.67C2579.49 1161.84 2579.76 1162.08 2579.98 1162.36L2581.17 1163.93C2581.4 1164.24 2581.56 1164.6 2581.63 1164.98L2582.01 1166.98C2582.06 1167.24 2582.07 1167.51 2582.03 1167.77L2581.72 1170.09C2581.69 1170.3 2581.63 1170.51 2581.55 1170.7L2580.68 1172.83C2580.6 1173.01 2580.51 1173.18 2580.39 1173.34L2578.96 1175.34C2578.84 1175.5 2578.7 1175.65 2578.54 1175.78L2576.2 1177.74 2573.82 1179.24C2573.71 1179.31 2573.59 1179.38 2573.47 1179.43L2570.97 1180.49C2570.85 1180.54 2570.73 1180.58 2570.61 1180.61L2567.92 1181.3C2567.77 1181.34 2567.62 1181.36 2567.47 1181.37L2564.66 1181.56C2564.52 1181.57 2564.38 1181.57 2564.25 1181.55L2561.06 1181.24C2560.77 1181.21 2560.5 1181.14 2560.24 1181.02L2558.24 1180.08C2557.84 1179.89 2557.5 1179.6 2557.25 1179.24L2556.25 1177.8C2556.04 1177.5 2555.9 1177.15 2555.84 1176.79L2555.52 1174.91C2555.48 1174.64 2555.48 1174.36 2555.52 1174.09L2555.84 1172.22C2555.87 1171.99 2555.94 1171.77 2556.04 1171.56L2557.04 1169.44C2557.11 1169.29 2557.19 1169.16 2557.28 1169.03L2558.78 1166.97C2558.88 1166.83 2559 1166.7 2559.13 1166.58L2561.06 1164.83C2561.21 1164.7 2561.37 1164.59 2561.54 1164.5L2566.79 1161.62C2566.95 1161.53 2567.12 1161.46 2567.3 1161.41L2570.36 1160.54C2570.49 1160.5 2570.61 1160.47 2570.74 1160.46ZM2093.93 1126.78 2087.57 1126.88 2081.6 1127.06 2076.01 1127.31 2070.87 1127.74 2066.12 1128.22 2061.76 1128.9 2057.83 1129.62 2054.39 1130.44 2048.44 1132.39 2044.13 1134.51 2041.44 1136.58 2040.11 1138.72 2039.67 1140.2 2039.11 1142.56 2038.51 1145.19 2037.95 1148.37 2037.33 1151.89 2036.71 1155.88 2036.03 1160.26 2035.41 1165.05 2034.79 1170.22 2034.3 1175.99 2033.86 1182.14 2033.49 1188.84 2033.24 1196 2033.05 1203.66 2032.93 1211.83 2032.86 1220.4 2033.05 1232.13 2033.61 1243.31 2034.41 1253.67 2035.4 1262.83 2036.57 1270.99 2037.87 1278.03 2038.54 1281.08 2039.22 1283.79 2039.81 1285.98 2040.37 1287.73 2041.68 1290.29 2043.54 1292.25 2046.25 1294.01 2050.09 1295.48 2055.16 1296.64 2061.96 1297.44 2065.97 1297.69 2070.49 1297.88 2075.52 1298 2080.96 1298.07 2092.54 1297.64 2103.53 1296.47 2113.8 1294.8 2123.18 1292.89 2131.59 1290.73 2138.81 1288.57 2141.8 1287.56 2144.38 1286.52 2146.43 1285.64 2147.99 1284.87 2150.65 1283.23 2152.55 1281.23 2154.1 1278.67 2155.23 1275.56 2156.07 1271.5 2156.68 1266.71 2157.05 1261.2 2157.18 1255.1 2157.01 1250.51 2156.5 1246.46 2155.66 1242.91 2154.42 1239.72 2153.05 1237.4 2151.59 1235.89 2150.12 1235.1 2148.45 1234.85 2146.11 1235.24 2142.52 1236.5 2137.46 1238.6 2131.28 1240.83 2124.15 1242.99 2116.04 1244.97 2106.91 1246.31 2096.8 1246.75 2094.23 1246.68 2092.19 1246.45 2090.94 1246.2C2090.63 1246.14 2090.35 1246.03 2090.08 1245.86L2089.4 1245.42C2089 1245.17 2088.69 1244.82 2088.48 1244.39L2087.8 1242.96C2087.67 1242.68 2087.59 1242.39 2087.56 1242.09L2087.37 1239.9C2087.36 1239.75 2087.36 1239.6 2087.38 1239.45L2087.56 1237.51C2087.58 1237.31 2087.62 1237.12 2087.69 1236.93L2088.25 1235.31C2088.33 1235.08 2088.44 1234.87 2088.58 1234.67L2089.52 1233.36C2089.66 1233.16 2089.83 1232.99 2090.02 1232.84L2091.4 1231.77C2091.56 1231.65 2091.74 1231.54 2091.93 1231.46L2093.81 1230.65C2093.95 1230.58 2094.09 1230.54 2094.24 1230.5L2096.99 1229.89 2100.22 1229.57 2103.99 1229.44 2108.95 1229.57 2113.3 1229.94 2121.78 1230.37 2124.04 1229.98 2125.86 1229.01 2127.5 1227.17 2129.07 1224.29 2130.36 1220.67 2131.32 1216.15 2131.93 1210.93 2132.12 1204.99 2131.89 1199.82 2131.24 1195.53 2130.22 1192.54 2128.97 1190.61 2127.37 1189.26 2125.47 1188.21 2123.3 1187.6 2120.69 1187.39 2114.35 1187.97 2107.03 1189.22 2099.81 1190.43 2093.68 1191.05C2093.43 1191.08 2093.18 1191.06 2092.94 1191.02L2090.75 1190.58C2090.32 1190.49 2089.91 1190.29 2089.58 1190L2087.96 1188.56C2087.68 1188.32 2087.46 1188.01 2087.32 1187.67L2086.38 1185.49C2086.28 1185.26 2086.22 1185.01 2086.19 1184.76L2085.88 1181.76C2085.86 1181.55 2085.86 1181.33 2085.89 1181.12L2086.14 1179.5C2086.18 1179.27 2086.24 1179.05 2086.34 1178.84L2086.96 1177.47C2087.09 1177.19 2087.26 1176.95 2087.47 1176.73L2088.6 1175.61C2088.77 1175.44 2088.96 1175.29 2089.17 1175.18L2090.67 1174.37C2090.84 1174.27 2091.02 1174.2 2091.21 1174.15L2093.53 1173.53 2096.43 1173.07 2099.89 1172.81 2104.03 1172.75 2112.99 1173.13 2122.04 1173.83 2129.91 1174.58 2133.05 1174.88 2135.3 1174.95 2137.54 1174.73 2139.29 1174.16 2140.87 1173.15 2142.33 1171.75 2143.59 1169.93 2144.47 1167.75 2145.07 1165.15 2145.24 1162.2 2144.95 1156.66 2144.1 1150.66 2142.36 1144.84 2139.32 1139.24 2136.25 1135.26 2132.56 1132.24 2128.17 1130.04 2123.15 1128.73 2116.98 1127.87 2110.06 1127.31 2102.38 1126.94ZM2582.1 1125.32 2575.69 1125.55 2569.26 1126.22 2562.88 1127.25 2556.42 1128.76 2550.14 1130.71 2544.22 1132.99 2538.7 1135.71 2533.53 1138.77 2528.79 1142.23 2524.56 1146.02 2520.78 1150.32 2517.45 1154.97 2514.78 1160.03 2512.78 1165.61 2511.67 1171.23 2511.24 1177.51 2511.39 1181.2 2511.94 1184.5 2512.95 1187.72 2514.15 1190.27 2517.49 1195.43 2521.01 1199.42 2524.5 1202.68 2527.28 1204.94 2529.15 1206.23 2529.78 1206.61C2530.49 1207.04 2530.94 1207.79 2530.99 1208.62 2531.03 1209.45 2530.66 1210.25 2529.99 1210.75L2529.71 1210.96 2528.96 1211.5 2527.73 1212.34 2526.19 1213.35 2524.36 1214.64 2522.33 1216.25 2517.63 1220.7 2515.24 1223.44 2512.9 1226.54 2510.62 1230.08 2508.55 1233.84 2506.77 1238.05 2505.46 1242.68 2504.67 1247.92 2504.42 1253.69 2504.64 1258.24 2505.45 1262.72 2506.73 1267.03 2508.46 1271.18 2510.76 1275.15 2513.47 1278.89 2516.57 1282.36 2520.18 1285.52 2524.23 1288.4 2528.74 1290.99 2533.59 1293.28 2538.9 1295.22 2544.61 1296.79 2550.78 1297.89 2557.33 1298.5 2564.21 1298.75 2572.39 1298.46 2580.23 1297.55 2587.84 1295.98 2595.22 1293.79 2602.22 1291.12 2608.8 1287.96 2614.85 1284.46 2620.5 1280.47 2625.64 1276.13 2630.21 1271.46 2634.2 1266.4 2637.69 1261.01 2640.5 1255.44 2642.47 1249.78 2643.62 1243.89 2644.06 1237.88 2643.78 1232.14 2642.81 1226.81 2641.31 1222.3 2639.29 1218.48 2636.65 1214.87 2633.97 1211.71 2631.31 1209.02 2628.44 1206.72 2623.06 1203.2 2618.47 1201.05 2616.81 1200.44 2615.5 1200.14 2615.19 1200.08C2614.17 1199.88 2613.39 1199.07 2613.21 1198.05 2613.04 1197.04 2613.5 1196.01 2614.39 1195.48L2614.78 1195.27 2615.64 1194.63 2618.16 1192.25 2621.42 1188.47 2624.81 1183.53 2627.9 1177.23 2629.96 1169.93 2630.68 1161.17 2630.52 1157.16 2629.89 1153.29 2628.94 1149.72 2627.57 1146.43 2625.8 1143.31 2623.64 1140.38 2621.02 1137.68 2617.93 1135.12 2610.73 1130.9 2602.44 1127.85 2593.03 1126ZM2428.38 1125.32 2421.73 1125.66 2415.31 1126.61 2409.12 1128.22 2403.18 1130.45 2397.55 1133.11 2392.23 1136.16 2387.34 1139.34 2382.86 1142.85 2378.8 1146.54 2375.2 1150.3 2372.06 1154.27 2369.38 1158.25 2367.23 1162.22 2365.68 1165.93 2364.83 1169.18 2364.56 1172.05 2364.77 1174.06 2365.29 1176.09 2366.23 1178.08 2367.51 1180 2371.08 1184.19 2375.16 1187.82 2379.59 1190.91 2384.28 1193.4 2388.85 1195.07 2392.47 1195.6 2393.5 1195.42 2394.66 1194.75 2396.02 1193.43 2397.41 1191.46 2403.83 1180.87 2407.38 1175.89 2411.46 1171.37 2413.53 1169.56C2413.65 1169.45 2413.79 1169.35 2413.94 1169.27L2416.12 1168.02C2416.27 1167.94 2416.42 1167.87 2416.57 1167.82L2418.82 1167.07C2418.99 1167.01 2419.17 1166.97 2419.35 1166.95L2421.66 1166.7C2421.84 1166.68 2422.03 1166.68 2422.21 1166.71L2424.96 1167.02C2425.24 1167.05 2425.51 1167.13 2425.77 1167.25L2427.83 1168.25C2428.16 1168.41 2428.45 1168.64 2428.68 1168.93L2430 1170.56C2430.25 1170.87 2430.42 1171.23 2430.5 1171.62L2430.94 1173.75C2430.99 1174 2431 1174.26 2430.97 1174.52L2430.72 1176.83C2430.71 1176.99 2430.68 1177.14 2430.63 1177.29L2429.94 1179.54C2429.89 1179.7 2429.83 1179.86 2429.75 1180.01L2428.56 1182.19C2428.49 1182.32 2428.42 1182.44 2428.33 1182.55L2426.52 1184.82 2422.44 1188.95 2418.1 1192.73 2409.35 1200.05 2407.6 1201.75 2406.49 1203.36 2405.86 1204.74 2405.69 1206.2 2406.03 1212.01 2407.19 1216.9 2408.88 1220.86 2411.03 1224.06 2413.54 1226.41 2416.29 1227.94 2419.25 1228.86 2422.42 1229.2 2427.49 1229.7C2427.68 1229.72 2427.87 1229.76 2428.06 1229.83L2432.37 1231.33C2432.6 1231.41 2432.81 1231.52 2433 1231.66L2434.75 1232.91C2434.97 1233.06 2435.16 1233.24 2435.31 1233.45L2436.56 1235.14C2436.72 1235.35 2436.84 1235.59 2436.92 1235.84L2437.67 1238.09C2437.73 1238.27 2437.77 1238.46 2437.79 1238.65L2438.04 1241.4C2438.05 1241.53 2438.06 1241.67 2438.05 1241.8L2437.86 1244.49C2437.85 1244.64 2437.82 1244.8 2437.78 1244.95L2437.16 1247.33C2437.12 1247.48 2437.06 1247.63 2436.99 1247.78L2435.99 1249.84C2435.9 1250.02 2435.8 1250.18 2435.68 1250.33L2434.3 1252.02C2434.19 1252.16 2434.05 1252.29 2433.91 1252.41L2432.16 1253.78C2432.02 1253.89 2431.86 1253.99 2431.7 1254.06L2429.77 1255C2429.61 1255.08 2429.45 1255.14 2429.28 1255.18L2427.03 1255.74C2426.9 1255.77 2426.76 1255.8 2426.61 1255.81L2424.11 1255.99C2423.93 1256.01 2423.75 1256 2423.57 1255.98L2419.2 1255.35C2418.95 1255.32 2418.7 1255.24 2418.48 1255.13L2414.41 1253.2C2414.24 1253.11 2414.08 1253.01 2413.93 1252.89L2410.24 1249.96C2410.12 1249.86 2410.01 1249.75 2409.91 1249.63L2406.78 1246.01C2406.7 1245.91 2406.63 1245.81 2406.56 1245.7L2403.93 1241.52C2403.87 1241.41 2403.81 1241.3 2403.76 1241.18L2401.82 1236.68C2401.77 1236.56 2401.73 1236.44 2401.69 1236.31L2400.51 1231.69C2400.47 1231.55 2400.45 1231.42 2400.44 1231.28L2400.09 1227.19 2399.61 1224.52 2398.51 1222.67 2397.9 1222.18 2396.72 1221.7 2395.07 1221.3 2393.1 1221.2 2388.79 1221.82 2383.72 1223.65 2378.15 1226.57 2372.85 1230.17 2368.01 1234.21 2363.86 1238.64 2362.24 1240.77 2361.24 1242.72 2360.63 1244.54 2360.44 1246.3 2360.68 1249.64 2361.54 1253.56 2362.94 1257.63 2364.96 1262 2367.52 1266.42 2370.57 1270.68 2374.11 1274.77 2378.21 1278.76 2382.73 1282.51 2387.66 1285.95 2393.12 1289.06 2398.95 1291.83 2405.21 1294.07 2411.85 1295.72 2418.9 1296.75 2426.45 1297.07 2432.41 1296.84 2438.33 1296.06 2444.12 1294.8 2449.93 1292.99 2455.5 1290.77 2460.82 1288.11 2465.87 1285.06 2470.59 1281.56 2475 1277.71 2478.94 1273.61 2482.44 1269.04 2485.55 1264.16 2488.06 1259.02 2489.87 1253.57 2490.87 1248.1 2491.24 1242.23 2491.02 1236.63 2490.28 1231.57 2489.01 1227.14 2487.29 1223.18 2485.13 1219.63 2482.88 1216.41 2480.62 1213.67 2478.09 1211.2 2475.7 1209.09 2473.62 1207.44 2469.86 1205.1 2468.29 1204.41 2467.34 1203.99 2466.87 1203.86 2466.32 1203.83C2465.84 1203.64 2465.43 1203.3 2465.14 1202.85 2464.56 1201.95 2464.62 1200.78 2465.29 1199.94L2465.87 1199.21 2467.37 1197.54 2469.57 1194.87 2472.12 1191.29 2474.75 1186.59 2477.24 1180.7 2479.01 1173.9 2479.62 1166.35 2479.41 1162.66 2478.73 1159.01 2477.58 1155.33 2475.91 1151.56 2471.36 1144.44 2468.69 1141.37 2465.51 1138.31 2458.21 1133.09 2453.97 1130.87 2449.36 1128.95 2444.47 1127.39 2439.37 1126.3 2433.99 1125.62ZM1978.24 1124.59 1972.46 1124.91 1966.6 1125.86 1961.11 1127.24 1956.3 1128.86 1952.12 1130.95 1948.84 1133.38 1947.76 1134.51 1947.02 1135.62 1946.62 1136.58 1946.51 1137.48 1947.19 1142.52 1949.2 1148.99 1952.2 1156.87 1955.47 1165.54 1958.76 1174.85 1961.68 1184.71 1963.81 1194.34C1963.83 1194.45 1963.85 1194.57 1963.86 1194.69L1964.55 1204.22 1964.49 1205.95 1964.4 1207.36 1964.34 1207.79C1964.18 1208.88 1963.34 1209.73 1962.26 1209.91 1961.19 1210.08 1960.12 1209.54 1959.63 1208.56L1959.29 1207.89 1958.55 1206.52 1956.46 1202.73 1953.86 1197.78 1950.92 1191.71 1947.47 1184.48 1944.09 1177.1 1941.16 1170.68 1935.53 1158.54 1934.23 1155.7 1933.14 1153.4 1932.15 1151.47 1931.5 1150.21 1927.85 1144.43 1923.92 1139.89 1919.49 1136.07 1915.12 1133.28 1910.72 1131.36 1906.38 1130.16 1901.85 1129.5 1897.69 1129.25 1893.49 1129.37 1888.71 1129.62 1878.88 1130.48 1870.43 1131.58 1867.26 1132.21 1865.2 1132.82 1861.81 1134.65 1858.96 1137.51 1857.83 1139.3 1856.88 1141.48 1856 1144.33 1855.27 1147.79 1854.97 1149.6 1854.66 1151.79 1854.35 1154.44 1854.04 1157.47 1853.73 1160.95 1853.42 1164.81 1853.11 1169.14 1852.74 1173.76 1852.18 1184.28 1851.74 1196.25 1851.43 1209.7 1851.36 1224.49 1851.86 1241.44 1853.1 1258.05 1853.91 1265.62 1854.77 1272.34 1855.75 1278.26 1856.69 1283.01 1858.05 1287.37 1859.96 1290.71 1862.39 1293.41 1865.48 1295.47 1869.3 1297.02 1874.11 1298.27 1879.89 1299 1886.54 1299.26 1893.26 1298.91 1899.68 1297.85 1905.6 1296.19 1910.73 1294.09 1915.17 1291.51 1918.57 1288.62 1919.76 1287.18 1920.59 1285.81 1921.03 1284.52 1921.16 1283.29 1920.66 1279.6 1919.07 1274.34 1916.67 1267.56 1914.2 1259.67 1911.74 1250.75 1909.45 1240.81 1907.8 1229.6 1907.3 1217.31 1907.3 1213.39 1907.43 1210.56 1907.56 1208.94C1907.57 1208.73 1907.62 1208.53 1907.68 1208.34L1907.87 1207.77C1908.14 1206.95 1908.82 1206.33 1909.67 1206.13 1910.51 1205.93 1911.39 1206.18 1912.01 1206.8L1912.44 1207.25 1913.07 1208.05 1913.85 1209.22 1914.91 1210.89 1917.35 1215.2 1920.07 1220.64 1923.11 1227.22 1926.24 1234.69 1932.49 1250.12 1935.44 1257.32 1938.05 1263.86 1939.25 1266.76 1940.21 1269.18 1941.16 1271.33 1941.83 1272.92 1946.44 1281.83 1951.03 1289.35 1953.29 1292.06 1955.73 1293.93 1958.42 1294.99 1961.62 1295.37 1971.9 1294.73 1982.57 1292.74 1987.64 1291.2 1992.37 1289.21 1996.67 1286.76 2000.53 1283.86 2002.01 1282.38 2003.23 1280.68 2004.55 1278.3 2005.82 1275.23 2007.08 1271.73 2008.18 1267.61 2009.28 1263.03 2010.27 1257.93 2011.14 1252.29 2011.94 1246.3 2012.62 1239.82 2013.12 1232.85 2013.55 1225.53 2013.87 1217.7 2014.05 1209.42 2014.11 1200.75 2014.11 1198.05 2014.05 1194.73 2013.99 1190.88 2013.87 1186.48 2013.12 1168.4 2012.62 1160.04 2012.12 1152.3 2011.88 1148.89 2011.57 1145.92 2011.26 1143.29 2010.98 1141.29 2009.82 1137.42 2007.79 1134.22 2004.9 1131.44 2000.93 1129.06 1996.32 1127.18 1990.83 1125.79 1984.8 1124.94ZM2708.64 1123.87 2703.94 1124.28 2700.26 1125.31 2697.22 1127.2 2694.28 1130.36 2691.34 1134.83 2688.32 1140.74 2686.65 1144.33 2684.71 1148.7 2682.46 1153.77 2679.9 1159.52 2677.49 1164.9 2675.14 1169.78 2672.85 1174.18 2670.6 1178.09 2666.46 1184.62 2662.87 1190.1 2659.85 1194.53 2657.59 1198.09 2656.3 1201.22 2655.89 1204.38 2656.18 1206.7 2657.02 1208.87 2658.42 1210.82 2660.36 1212.54 2666.02 1216.26 2671.97 1219.57 2677.79 1222.45 2682.7 1224.91 2684.83 1226.02 2686.48 1227.09 2687.29 1227.78C2687.55 1228 2687.76 1228.27 2687.91 1228.57L2688.16 1229.07C2688.37 1229.49 2688.46 1229.96 2688.42 1230.43L2688.13 1233.3 2687.36 1237.15 2686.23 1241.85 2684.83 1247.55 2681.46 1259.56 2678.1 1271.31 2676.66 1276.89 2675.44 1281.51 2674.66 1285.16 2674.38 1287.64 2674.51 1288.93 2674.92 1290.05 2675.62 1291.1 2676.66 1292.13 2679.66 1294.19 2683.13 1295.76 2691.28 1297.84 2699.11 1298.5 2702.36 1298.5 2705.14 1298.5 2709.7 1298.35 2714.38 1297.58 2717.21 1296.88 2720.56 1295.78 2722.04 1294.88 2723.63 1293.05 2725.3 1290.13 2727.05 1285.79 2728.7 1280.73 2730.18 1275.2 2731.54 1269.21 2732.77 1262.88 2734.82 1249.17 2736.43 1234.32 2737.49 1219.69 2737.8 1206.31 2737.8 1195.02 2737.74 1184.46 2737.68 1174.54 2737.55 1165.31 2737.37 1157.13 2737 1150.09 2736.52 1144.36 2735.86 1139.89 2734.66 1136.24 2732.51 1133.06 2729.6 1130.27 2726.14 1127.94 2722.36 1126.22 2717.89 1124.91 2713.29 1124.12ZM1784.32 1123.63 1780.37 1124.22 1777.39 1125.88 1775.33 1128.47 1774.26 1132.34 1773.78 1134.82 1772.98 1137.87 1771.82 1141.28 1770.27 1145.27 1766.28 1154.26 1761.1 1164.42 1758.2 1169.53 1755.43 1174.15 1752.77 1178.09 1750.24 1181.58 1747.91 1184.43 1745.94 1186.46 1744.56 1187.64C1744.34 1187.84 1744.08 1187.99 1743.8 1188.09L1742.8 1188.47C1742.17 1188.71 1741.46 1188.68 1740.85 1188.38 1740.24 1188.09 1739.77 1187.56 1739.56 1186.92L1739.37 1186.35C1739.29 1186.13 1739.25 1185.9 1739.24 1185.66L1739.18 1183.78 1739.65 1176.65 1740.82 1169.81 1742.48 1163.45 1744.23 1157.74 1747.57 1147.37 1748.77 1142.74 1749.17 1138.92 1749.02 1137.38 1748.56 1135.95 1747.75 1134.51 1746.57 1133.13 1745.1 1132 1743.17 1131.21 1740.57 1130.61 1737.64 1130.43 1732.63 1130.72 1726.46 1131.68 1712.94 1134.99 1706.45 1137.25 1700.37 1139.76 1694.77 1142.78 1689.74 1146.41 1688.73 1147.42 1687.8 1148.78 1686.77 1150.87 1685.77 1153.55 1684.87 1156.76 1684.08 1160.54 1683.34 1164.88 1682.73 1169.7 1682.17 1175.01 1681.73 1180.68 1681.3 1186.75 1680.99 1193.24 1680.68 1200.07 1680.49 1207.27 1680.43 1214.9 1680.36 1222.85 1680.49 1234.16 1680.86 1244.31 1681.54 1253.22 1682.4 1260.94 1683.38 1267.53 1684.43 1272.95 1685.4 1277.27 1686.26 1280.41 1688 1284.93 1690.11 1288.62 1692.6 1291.56 1695.59 1293.88 1699.12 1295.68 1703.37 1297 1708.31 1297.76 1714.14 1298.06 1718.88 1298 1723.17 1297.82 1726.99 1297.52 1730.31 1297.11 1736.04 1295.98 1740.78 1294.6 1744.07 1293.01 1746.1 1291.32 1747.14 1289.72 1747.46 1288.2 1747.22 1286.17 1746.28 1283.32 1744.83 1279.48 1743.17 1274.88 1741.5 1269.62 1740.02 1263.76 1739.05 1257.43 1738.74 1250.74C1738.73 1250.59 1738.74 1250.43 1738.76 1250.27L1739.2 1247.21C1739.26 1246.83 1739.4 1246.46 1739.62 1246.15L1740.87 1244.33C1741.11 1243.98 1741.45 1243.69 1741.84 1243.5L1743.65 1242.63C1743.87 1242.52 1744.11 1242.44 1744.35 1242.41L1746.35 1242.09C1746.78 1242.03 1747.22 1242.07 1747.63 1242.23L1749.44 1242.91C1749.77 1243.04 1750.07 1243.23 1750.32 1243.48L1752.32 1245.48C1752.44 1245.61 1752.55 1245.74 1752.64 1245.88L1754.91 1249.37 1757.15 1253.81 1759.38 1258.9 1761.52 1264.39 1763.79 1270.55 1766.2 1277.47 1768.52 1282.61 1770.99 1286.83 1773.41 1289.86 1775.83 1291.86 1778.46 1293.28 1781.06 1294.24 1784.04 1294.88 1787.37 1295.12 1793.09 1294.73 1800.52 1293.34 1808.56 1291.16 1816.33 1288.29 1823.66 1284.44 1829.97 1279.8 1832.34 1277.37 1833.99 1274.81 1834.98 1272.17 1835.29 1269.34 1835.14 1267.42 1834.63 1265.47 1833.74 1263.54 1832.49 1261.67 1829.15 1258.38 1824.96 1256.31 1822.52 1255.12C1822.27 1255 1822.04 1254.84 1821.85 1254.64L1819.72 1252.52C1819.62 1252.42 1819.53 1252.31 1819.45 1252.2L1817.21 1249.01 1814.98 1245.19 1812.59 1240.79 1810.15 1236.15 1804.56 1226.68 1801.18 1222.53 1797.61 1219.25 1794.2 1216.67 1791.14 1214.68 1788.26 1213.27 1786.27 1212.9C1785.32 1212.72 1784.56 1212 1784.32 1211.06 1784.08 1210.12 1784.4 1209.13 1785.15 1208.51L1795.67 1199.85 1805.84 1189.81 1813.63 1180.73 1820.65 1171.63 1823.52 1167.28 1825.75 1163.01 1827.05 1159.29 1827.47 1156.2 1827.21 1153.32 1826.44 1150.48 1825.11 1147.6 1823.2 1144.73 1818.14 1139.13 1812.17 1134.25 1805.33 1129.96 1797.96 1126.59 1790.68 1124.4 1787.41 1123.81ZM2235.68 1123.38 2230.19 1123.61 2224.7 1124.32 2219.33 1125.46 2214.11 1127.01 2209.06 1129.04 2204.33 1131.42 2199.89 1134.23 2195.7 1137.45 2191.88 1141.01 2188.48 1144.93 2185.48 1149.22 2182.92 1153.77 2180.89 1158.64 2179.39 1163.72 2178.49 1169.13 2178.17 1174.8 2178.46 1180.15 2179.26 1185.1 2180.58 1189.6 2182.5 1193.86 2187.46 1201.38 2193.5 1207.78 2200.21 1213.14 2207.51 1217.81 2214.86 1221.86 2221.63 1225.5 2227.54 1228.74 2232.23 1231.62 2233.92 1232.87C2234.03 1232.95 2234.14 1233.05 2234.24 1233.15L2235.43 1234.4C2235.56 1234.55 2235.68 1234.7 2235.78 1234.87L2236.47 1236.06C2236.59 1236.28 2236.69 1236.52 2236.74 1236.77L2236.99 1237.9C2237.06 1238.22 2237.07 1238.55 2237.01 1238.87L2236.58 1241.37C2236.53 1241.63 2236.45 1241.87 2236.33 1242.1L2235.02 1244.6C2234.86 1244.89 2234.65 1245.15 2234.4 1245.36L2232.15 1247.23C2231.82 1247.51 2231.42 1247.7 2231 1247.77L2227.56 1248.4C2227.33 1248.44 2227.08 1248.45 2226.85 1248.42L2224.53 1248.17C2224.36 1248.16 2224.2 1248.12 2224.03 1248.07L2221.91 1247.38C2221.73 1247.32 2221.56 1247.25 2221.4 1247.15L2219.4 1245.96C2219.27 1245.89 2219.15 1245.8 2219.04 1245.7L2217.16 1244.08C2217.06 1243.99 2216.96 1243.89 2216.87 1243.78L2213.22 1239.32 2209.73 1234.06 2206.5 1228.77 2203.69 1224.27 2202.43 1222.63 2201.24 1221.66 2200.02 1221.13 2198.69 1220.97 2195.29 1221.6 2190.72 1223.6 2185.83 1226.62 2181.01 1230.57 2176.67 1235.24 2172.83 1240.72 2171.35 1243.52 2170.31 1246.4 2169.67 1249.26 2169.44 1252.3 2169.77 1256.18 2170.85 1260.03 2172.57 1263.94 2175.02 1267.77 2178.11 1271.72 2181.64 1275.44 2185.62 1278.94 2189.96 1282.23 2199.99 1288.2 2211.27 1292.92 2217.31 1294.74 2223.49 1296.02 2229.71 1296.82 2236.04 1297.07 2241.92 1296.89 2247.72 1296.29 2253.29 1295.27 2258.79 1293.83 2263.96 1292.04 2268.87 1289.83 2273.5 1287.2 2277.81 1284.22 2281.74 1280.9 2285.32 1277.17 2288.42 1273.13 2291.15 1268.71 2293.35 1263.97 2294.9 1258.89 2295.87 1253.44 2296.18 1247.56 2295.89 1241.32 2295.02 1235.55 2293.57 1230.31 2291.45 1225.41 2286.19 1216.91 2283.11 1213.16 2279.76 1209.85 2272.08 1203.84 2263.41 1198.66 2254.89 1194.28 2247.73 1190.54 2241.9 1187.13 2236.98 1183.77 2235.17 1182.21C2235.04 1182.1 2234.93 1181.98 2234.83 1181.85L2233.52 1180.16C2233.39 1180 2233.29 1179.83 2233.21 1179.65L2232.4 1177.84C2232.3 1177.62 2232.23 1177.38 2232.2 1177.14L2231.95 1175.27C2231.91 1174.97 2231.92 1174.66 2231.99 1174.37L2232.24 1173.3C2232.32 1172.98 2232.46 1172.67 2232.66 1172.4L2233.35 1171.46C2233.49 1171.27 2233.65 1171.1 2233.84 1170.96L2234.79 1170.23 2235.17 1169.98C2235.67 1169.65 2236.29 1169.5 2236.89 1169.59L2240.08 1170.03C2240.34 1170.06 2240.58 1170.13 2240.82 1170.25L2243.69 1171.62C2243.84 1171.69 2243.98 1171.78 2244.11 1171.88L2245.85 1173.2 2247.68 1174.97 2249.86 1177.29 2252.09 1180.02 2254.98 1183.47 2257.32 1186.1 2258.18 1186.75 2259.5 1187.3 2261.27 1187.7 2263.43 1187.81 2267.65 1187.19 2272.38 1185.31 2277.31 1182.38 2281.68 1178.84 2285.72 1174.65 2289.22 1169.89 2290.54 1167.46 2291.53 1164.94 2292.07 1162.63 2292.23 1160.38 2292.01 1157.31 2291.28 1154.18 2290.11 1151.21 2288.33 1147.95 2286.04 1144.7 2283.38 1141.62 2280.31 1138.64 2276.78 1135.82 2272.92 1133.2 2268.59 1130.85 2263.87 1128.72 2258.82 1126.85 2253.39 1125.33 2247.8 1124.24 2241.83 1123.62ZM2093.86 1121.78 2102.47 1121.94 2110.3 1122.32 2117.38 1122.88 2123.83 1123.78 2129.68 1125.27C2129.85 1125.31 2130.01 1125.37 2130.17 1125.45L2135.04 1127.89C2135.21 1127.97 2135.37 1128.07 2135.51 1128.19L2139.64 1131.57C2139.78 1131.69 2139.92 1131.82 2140.03 1131.97L2143.41 1136.35C2143.49 1136.46 2143.56 1136.57 2143.63 1136.69L2146.88 1142.69C2146.96 1142.84 2147.02 1142.99 2147.07 1143.16L2148.95 1149.41C2148.98 1149.53 2149.01 1149.65 2149.03 1149.78L2149.9 1155.96 2150.24 1161.93 2150.05 1165.64C2150.04 1165.78 2150.02 1165.92 2149.99 1166.06L2149.3 1169.06C2149.27 1169.19 2149.23 1169.32 2149.18 1169.44L2148.12 1172.06C2148.05 1172.24 2147.96 1172.4 2147.86 1172.55L2146.29 1174.8C2146.2 1174.94 2146.09 1175.06 2145.98 1175.18L2144.16 1176.93C2144.04 1177.04 2143.91 1177.15 2143.77 1177.24L2141.71 1178.55C2141.53 1178.66 2141.34 1178.75 2141.14 1178.82L2138.82 1179.57C2138.65 1179.62 2138.48 1179.66 2138.3 1179.68L2135.8 1179.93 2132.93 1179.88 2129.44 1179.55 2121.56 1178.8 2112.61 1178.12 2103.82 1177.75 2099.97 1177.81 2096.8 1178.06 2094.33 1178.47 2092.81 1178.9 2091.88 1179.4 2091.33 1179.95 2091.03 1180.6 2090.88 1181.56 2091.12 1183.87 2091.69 1185.19 2092.39 1185.81 2093.55 1186.04 2099.3 1185.45 2106.2 1184.29 2113.51 1183.04 2120.45 1182.39C2120.59 1182.37 2120.74 1182.37 2120.88 1182.39L2123.94 1182.64C2124.1 1182.65 2124.26 1182.68 2124.41 1182.72L2127.1 1183.47C2127.29 1183.52 2127.47 1183.59 2127.64 1183.69L2130.01 1185C2130.16 1185.08 2130.29 1185.18 2130.42 1185.28L2132.48 1187.03C2132.67 1187.19 2132.83 1187.37 2132.96 1187.58L2134.59 1190.08C2134.7 1190.25 2134.79 1190.44 2134.86 1190.64L2136.04 1194.14C2136.09 1194.27 2136.13 1194.42 2136.15 1194.56L2136.84 1199.06 2137.11 1204.76 2136.93 1211.08 2136.29 1216.72 2135.25 1221.7 2133.73 1226.14C2133.68 1226.27 2133.62 1226.39 2133.56 1226.51L2131.75 1229.83C2131.65 1229.99 2131.54 1230.15 2131.42 1230.29L2129.29 1232.67C2129.1 1232.89 2128.87 1233.07 2128.61 1233.2L2126.05 1234.58C2125.81 1234.71 2125.55 1234.8 2125.28 1234.84L2122.35 1235.34C2122.17 1235.37 2121.98 1235.38 2121.8 1235.37L2113.05 1234.94 2108.53 1234.56 2103.86 1234.44 2100.39 1234.56 2097.49 1234.86 2095.6 1235.32 2094.21 1235.92 2093.37 1236.57 2092.86 1237.29 2092.51 1238.29 2092.37 1239.7 2092.5 1241.21 2092.61 1241.44 2093.17 1241.55 2094.75 1241.7 2096.93 1241.75 2106.69 1241.32 2115.31 1240.03 2122.95 1238.14 2129.83 1236.05 2135.77 1233.9 2140.59 1231.88 2144.67 1230.45C2144.8 1230.41 2144.93 1230.37 2145.07 1230.35L2148.01 1229.85C2148.27 1229.81 2148.54 1229.8 2148.8 1229.84L2151.3 1230.22C2151.59 1230.26 2151.86 1230.35 2152.12 1230.49L2154.31 1231.68C2154.53 1231.8 2154.73 1231.96 2154.91 1232.14L2156.85 1234.14C2156.98 1234.28 2157.1 1234.44 2157.2 1234.6L2158.83 1237.35C2158.9 1237.47 2158.96 1237.59 2159.01 1237.72L2160.32 1241.1 2161.36 1245.29 2161.97 1249.87 2162.18 1254.9 2162.05 1261.3 2161.67 1267.04 2161.03 1272.13 2160.13 1276.57 2158.72 1280.59C2158.66 1280.75 2158.59 1280.9 2158.5 1281.04L2156.69 1284.04C2156.6 1284.2 2156.49 1284.34 2156.37 1284.47L2154.05 1286.91C2153.9 1287.07 2153.74 1287.2 2153.55 1287.32L2150.61 1289.13 2148.67 1290.11 2146.35 1291.11 2143.68 1292.19 2140.42 1293.31 2133.02 1295.52 2124.43 1297.74 2114.8 1299.7 2104.33 1301.41 2093.07 1302.61 2081.15 1303.06 2075.46 1303 2070.37 1302.88 2065.76 1302.69 2061.65 1302.43 2054.57 1301.61 2048.81 1300.31C2048.7 1300.29 2048.58 1300.25 2048.47 1300.21L2044.22 1298.59C2044.06 1298.52 2043.9 1298.45 2043.76 1298.35L2040.57 1296.29C2040.4 1296.18 2040.25 1296.05 2040.11 1295.91L2037.8 1293.47C2037.64 1293.3 2037.5 1293.1 2037.39 1292.89L2035.83 1289.83C2035.76 1289.71 2035.71 1289.58 2035.67 1289.46L2035.05 1287.52 2034.39 1285.09 2033.69 1282.3 2032.99 1279.1 2031.66 1271.89 2030.45 1263.55 2029.44 1254.21 2028.62 1243.7 2028.06 1232.38 2027.86 1220.48 2027.93 1211.8 2028.05 1203.59 2028.24 1195.88 2028.49 1188.66 2028.87 1181.86 2029.31 1175.64 2029.81 1169.79 2030.44 1164.46 2031.07 1159.62 2031.77 1155.12 2032.39 1151.12 2033.03 1147.51 2033.59 1144.32 2034.24 1141.45 2034.81 1139.05 2035.4 1136.99C2035.46 1136.77 2035.56 1136.56 2035.68 1136.37L2037.43 1133.56C2037.59 1133.3 2037.79 1133.08 2038.03 1132.9L2041.28 1130.4C2041.41 1130.29 2041.55 1130.21 2041.7 1130.13L2046.38 1127.82C2046.49 1127.77 2046.6 1127.72 2046.71 1127.69L2052.84 1125.69 2056.65 1124.76 2060.85 1123.98 2065.36 1123.28 2070.36 1122.76 2075.59 1122.32 2081.38 1122.07 2087.41 1121.88ZM2428.12 1120.33 2434.24 1120.63 2439.98 1121.33 2445.51 1122.49 2450.87 1124.18 2455.89 1126.26 2460.52 1128.66 2468.56 1134.34C2468.66 1134.41 2468.76 1134.49 2468.85 1134.58L2472.16 1137.76 2475.25 1141.3C2475.33 1141.39 2475.41 1141.49 2475.47 1141.59L2480.22 1149.03C2480.29 1149.14 2480.35 1149.25 2480.4 1149.36L2482.15 1153.3 2483.5 1157.5 2484.32 1161.72 2484.61 1166.03 2483.98 1174.51C2483.97 1174.65 2483.95 1174.8 2483.91 1174.95L2482.03 1182.13C2482 1182.25 2481.96 1182.36 2481.92 1182.48L2479.35 1188.54 2476.49 1193.72 2473.66 1197.75 2471.52 1200.37 2471.87 1200.53 2476.24 1203.19 2478.78 1205.16 2481.39 1207.43 2484.11 1210.09 2486.73 1213.22 2489.22 1216.75 2491.56 1220.57 2493.59 1225.12 2495.08 1230.18 2495.96 1235.88 2496.24 1242.02 2495.86 1248.4 2494.76 1254.63C2494.74 1254.75 2494.71 1254.87 2494.67 1254.98L2492.8 1260.6 2490.05 1266.34 2486.66 1271.72 2482.91 1276.64 2478.61 1281.17 2473.89 1285.32 2468.86 1289.07 2463.41 1292.39 2457.73 1295.24 2451.8 1297.63 2445.61 1299.58 2439.4 1300.94 2433.07 1301.79 2426.65 1302.06 2418.7 1301.75 2411.13 1300.66 2404.02 1298.93 2397.28 1296.54 2390.98 1293.57 2385.19 1290.3 2379.88 1286.62 2375.02 1282.62 2370.62 1278.36 2366.79 1273.95 2363.46 1269.34 2360.64 1264.51 2358.41 1259.74 2356.82 1255.2 2355.8 1250.74 2355.43 1246.45C2355.42 1246.29 2355.42 1246.13 2355.44 1245.98L2355.69 1243.73C2355.71 1243.55 2355.75 1243.38 2355.81 1243.21L2356.56 1240.96C2356.6 1240.84 2356.64 1240.72 2356.7 1240.61L2357.89 1238.3C2357.96 1238.17 2358.03 1238.05 2358.12 1237.93L2359.87 1235.62 2364.35 1230.8 2369.63 1226.34 2375.33 1222.44 2381.39 1219.23 2387.32 1217.03C2387.48 1216.97 2387.65 1216.93 2387.82 1216.9L2392.64 1216.21C2392.8 1216.19 2392.96 1216.18 2393.12 1216.19L2395.55 1216.32C2395.71 1216.33 2395.86 1216.35 2396.02 1216.38L2398.08 1216.88C2398.2 1216.91 2398.32 1216.95 2398.43 1217L2400.12 1217.69C2400.34 1217.78 2400.55 1217.9 2400.74 1218.05L2401.99 1219.05C2402.22 1219.24 2402.42 1219.47 2402.58 1219.72L2403.93 1221.99 2402.5 1218.67C2402.45 1218.54 2402.4 1218.4 2402.37 1218.26L2401.12 1212.95C2401.09 1212.81 2401.06 1212.67 2401.06 1212.53L2400.68 1206.28C2400.67 1206.13 2400.68 1205.98 2400.7 1205.83L2400.95 1203.76C2400.98 1203.51 2401.04 1203.27 2401.15 1203.04L2402.02 1201.1C2402.08 1200.96 2402.16 1200.83 2402.24 1200.71L2403.62 1198.71C2403.71 1198.57 2403.82 1198.45 2403.94 1198.33L2405.88 1196.46 2414.88 1188.9 2419.16 1185.18 2422.96 1181.31 2424.26 1179.63 2425.23 1177.84 2425.78 1176.06 2425.96 1174.37 2425.73 1173.23 2425.15 1172.51 2423.97 1171.94 2421.92 1171.7 2420.15 1171.9 2418.39 1172.48 2416.64 1173.48 2414.76 1175.13 2411.1 1179.24 2407.9 1183.76 2401.69 1194.05 2399.97 1196.5C2399.88 1196.63 2399.78 1196.75 2399.66 1196.86L2397.91 1198.55C2397.77 1198.69 2397.61 1198.81 2397.44 1198.91L2395.63 1199.97C2395.37 1200.13 2395.08 1200.23 2394.78 1200.28L2392.9 1200.59C2392.64 1200.64 2392.38 1200.64 2392.13 1200.6L2387.88 1199.98C2387.71 1199.95 2387.54 1199.91 2387.39 1199.85L2382.57 1198.1 2377.26 1195.34 2372.31 1191.93 2367.77 1187.94 2363.72 1183.26 2361.98 1180.71C2361.91 1180.61 2361.85 1180.5 2361.79 1180.38L2360.67 1178.01C2360.6 1177.87 2360.54 1177.71 2360.51 1177.56L2359.88 1175.12C2359.85 1175 2359.83 1174.88 2359.81 1174.76L2359.56 1172.32C2359.55 1172.16 2359.55 1171.99 2359.56 1171.83L2359.88 1168.52C2359.89 1168.39 2359.91 1168.25 2359.94 1168.13L2360.88 1164.5C2360.91 1164.38 2360.95 1164.27 2361 1164.16L2362.62 1160.29 2364.97 1155.88 2367.91 1151.48 2371.28 1147.2 2375.18 1143.09 2379.49 1139.15 2384.26 1135.41 2389.5 1131.97 2395.06 1128.77 2401.05 1125.93 2407.36 1123.54 2414.04 1121.77 2420.99 1120.72ZM2581.92 1120.32 2593.33 1121.01 2603.59 1122.99C2603.72 1123.01 2603.85 1123.05 2603.98 1123.09L2612.66 1126.28C2612.8 1126.33 2612.94 1126.4 2613.07 1126.47L2620.63 1130.91C2620.74 1130.98 2620.85 1131.05 2620.96 1131.14L2624.21 1133.83 2627.21 1136.88 2629.81 1140.32 2631.91 1143.94 2633.54 1147.78 2634.71 1151.97 2635.46 1156.34 2635.67 1160.96 2634.92 1170.58C2634.91 1170.74 2634.88 1170.9 2634.83 1171.06L2632.65 1178.81C2632.6 1178.95 2632.55 1179.09 2632.48 1179.23L2629.3 1185.73 2625.56 1191.28 2621.95 1195.51 2620.78 1196.63 2625.17 1198.67 2631.16 1202.53 2634.42 1205.11 2637.51 1208.17 2640.46 1211.63 2643.32 1215.52 2645.82 1220.13C2645.88 1220.26 2645.94 1220.39 2645.99 1220.52L2647.61 1225.4C2647.65 1225.51 2647.68 1225.63 2647.7 1225.74L2648.7 1231.24 2649.05 1237.62 2648.61 1244.24 2647.38 1250.72 2645.23 1257.06 2642.16 1263.24 2638.4 1269.11 2634.14 1274.55 2629.22 1279.62 2623.73 1284.28 2617.75 1288.54 2611.31 1292.29 2604.39 1295.63 2597.01 1298.46 2589.26 1300.77 2581.25 1302.45 2572.97 1303.42 2564.4 1303.75 2557.15 1303.5 2550.32 1302.87 2543.74 1301.71 2537.58 1300.04 2531.89 1297.98 2526.61 1295.52 2521.75 1292.73 2517.3 1289.61 2513.29 1286.14 2509.75 1282.23 2506.72 1278.1 2504.14 1273.7 2502.12 1268.97 2500.66 1264.16 2499.72 1259.14 2499.43 1253.94 2499.68 1247.71 2500.52 1241.95 2501.96 1236.71 2503.93 1231.92 2506.23 1227.68 2508.7 1223.84 2511.24 1220.44 2513.85 1217.42 2518.89 1212.63 2521.24 1210.74 2523.29 1209.28 2524.08 1208.76 2521.35 1206.57 2517.6 1203.08 2513.62 1198.6C2513.53 1198.5 2513.46 1198.4 2513.39 1198.3L2509.95 1192.98 2508.36 1189.71C2508.31 1189.6 2508.27 1189.49 2508.23 1189.38L2507.17 1186 2506.46 1182.05 2506.24 1177.74 2506.68 1170.9 2507.91 1164.46C2507.93 1164.34 2507.97 1164.22 2508.01 1164.1L2510.07 1158.35 2513.02 1152.66 2516.7 1147.43 2520.8 1142.73 2525.44 1138.52 2530.57 1134.74 2536.15 1131.41 2542.01 1128.51 2548.34 1126.05 2554.94 1123.99 2561.73 1122.38 2568.46 1121.28 2575.17 1120.58ZM1977.95 1119.6 1985.05 1119.94 1991.52 1120.84 1997.53 1122.33 2002.99 1124.5C2003.11 1124.54 2003.23 1124.6 2003.34 1124.67L2007.71 1127.3C2007.87 1127.39 2008.02 1127.51 2008.16 1127.64L2011.47 1130.83C2011.62 1130.96 2011.74 1131.12 2011.85 1131.29L2014.23 1135.04C2014.35 1135.23 2014.44 1135.44 2014.51 1135.66L2015.82 1140.03C2015.86 1140.15 2015.88 1140.27 2015.9 1140.4L2016.21 1142.59 2016.54 1145.34 2016.85 1148.37 2017.11 1151.95 2017.61 1159.72 2018.11 1168.1 2018.86 1186.27 2018.99 1190.74 2019.05 1194.65 2019.11 1197.95 2019.11 1200.75 2019.05 1209.46 2018.86 1217.81 2018.55 1225.73 2018.11 1233.15 2017.61 1240.18 2016.91 1246.82 2016.09 1252.96 2015.21 1258.69 2014.19 1263.97 2013.05 1268.77 2011.9 1273.03 2010.53 1276.9 2009.18 1280.2 2007.62 1283.08 2005.97 1285.44C2005.89 1285.56 2005.8 1285.67 2005.69 1285.77L2004.07 1287.39 1999.69 1290.74 1994.86 1293.54 1989.59 1295.8 1984.03 1297.52 1972.83 1299.65 1961.71 1300.37C1961.56 1300.38 1961.41 1300.38 1961.26 1300.36L1957.51 1299.92C1957.3 1299.9 1957.08 1299.84 1956.88 1299.76L1953.57 1298.45C1953.35 1298.37 1953.15 1298.25 1952.97 1298.11L1950.03 1295.86C1949.89 1295.75 1949.75 1295.62 1949.63 1295.48L1947.07 1292.42C1946.99 1292.32 1946.92 1292.22 1946.85 1292.12L1942.17 1284.43 1937.39 1275.21 1936.57 1273.3 1935.64 1271.2 1934.61 1268.62 1933.43 1265.77 1930.79 1259.18 1927.86 1252.01 1921.61 1236.56 1918.5 1229.16 1915.53 1222.74 1912.88 1217.43 1912.3 1216.42 1912.3 1217.31 1912.8 1229.4 1914.4 1240.07 1916.61 1249.63 1919.02 1258.34 1921.44 1266.07 1923.78 1272.67 1925.51 1278.34C1925.55 1278.47 1925.57 1278.6 1925.59 1278.73L1926.15 1282.92C1926.18 1283.11 1926.18 1283.31 1926.16 1283.51L1925.98 1285.32C1925.96 1285.51 1925.92 1285.7 1925.85 1285.88L1925.23 1287.69C1925.17 1287.86 1925.09 1288.02 1925 1288.17L1923.94 1289.92C1923.88 1290.03 1923.81 1290.12 1923.73 1290.21L1922.3 1291.96C1922.2 1292.08 1922.1 1292.19 1921.98 1292.28L1918.23 1295.47C1918.12 1295.57 1918 1295.65 1917.87 1295.73L1913.25 1298.41 1907.51 1300.81 1901.04 1302.66 1894.09 1303.84 1886.81 1304.25 1879.71 1304 1873.49 1303.23 1868.06 1301.86 1863.37 1300.01C1863.21 1299.95 1863.06 1299.87 1862.92 1299.77L1859.35 1297.39C1859.18 1297.28 1859.02 1297.14 1858.88 1296.99L1856.07 1293.86C1855.95 1293.73 1855.85 1293.59 1855.76 1293.43L1853.57 1289.62C1853.48 1289.46 1853.41 1289.29 1853.35 1289.12L1851.91 1284.49 1850.85 1279.24 1849.84 1273.16 1848.95 1266.26 1848.13 1258.58 1846.87 1241.81 1846.37 1224.64 1846.43 1209.68 1846.74 1196.13 1847.18 1184.1 1847.74 1173.49 1848.12 1168.74 1848.43 1164.45 1848.75 1160.55 1849.06 1157.03 1849.38 1153.94 1849.69 1151.21 1850.01 1148.91 1850.34 1146.97 1851.11 1143.3 1852.1 1140.02 1853.32 1137.14C1853.37 1137.02 1853.43 1136.91 1853.5 1136.8L1854.87 1134.61C1854.97 1134.45 1855.09 1134.3 1855.22 1134.17L1858.53 1130.86C1858.71 1130.69 1858.9 1130.54 1859.11 1130.43L1863.05 1128.3C1863.2 1128.22 1863.36 1128.15 1863.53 1128.11L1865.84 1127.42 1869.43 1126.68 1878.23 1125.52 1888.27 1124.64 1893.24 1124.38 1897.54 1124.25 1902.13 1124.51 1907.1 1125.22 1912.21 1126.59C1912.33 1126.62 1912.44 1126.66 1912.55 1126.71L1917.3 1128.77C1917.42 1128.82 1917.54 1128.89 1917.65 1128.96L1922.34 1131.96C1922.44 1132.02 1922.53 1132.09 1922.62 1132.17L1927.19 1136.11 1931.75 1141.29C1931.83 1141.39 1931.91 1141.5 1931.98 1141.6L1935.73 1147.54 1936.58 1149.16 1937.59 1151.11 1938.75 1153.56 1940.08 1156.46 1945.69 1168.57 1948.64 1175.03 1952.01 1182.4 1955.43 1189.55 1958.36 1195.6 1959 1196.82 1958.89 1195.24 1956.8 1185.79 1953.97 1176.28 1950.76 1167.21 1947.53 1158.63 1944.53 1150.77 1942.35 1143.81C1942.31 1143.67 1942.28 1143.54 1942.26 1143.4L1941.51 1137.84C1941.48 1137.63 1941.48 1137.41 1941.51 1137.2L1941.69 1135.64C1941.72 1135.41 1941.78 1135.19 1941.87 1134.98L1942.49 1133.48C1942.56 1133.33 1942.63 1133.19 1942.72 1133.05L1943.72 1131.55C1943.8 1131.43 1943.89 1131.32 1944 1131.21L1945.37 1129.77C1945.47 1129.67 1945.57 1129.58 1945.69 1129.49L1949.31 1126.81C1949.43 1126.72 1949.55 1126.64 1949.68 1126.58L1954.06 1124.39 1959.49 1122.51 1965.38 1121.02 1971.65 1119.97ZM2708.73 1118.87 2713.56 1119.13 2718.71 1119.97 2723.75 1121.41 2728.39 1123.47C2728.52 1123.53 2728.64 1123.6 2728.76 1123.68L2732.57 1126.24C2732.69 1126.32 2732.81 1126.41 2732.91 1126.51L2736.16 1129.64C2736.29 1129.76 2736.4 1129.89 2736.5 1130.04L2739 1133.72C2739.13 1133.92 2739.23 1134.13 2739.3 1134.35L2740.68 1138.53C2740.72 1138.67 2740.75 1138.81 2740.78 1138.95L2741.46 1143.64 2741.98 1149.66 2742.36 1156.87 2742.55 1165.19 2742.68 1174.47 2742.74 1184.42 2742.8 1194.99 2742.8 1206.31 2742.49 1219.81 2741.42 1234.68 2739.79 1249.71 2737.71 1263.62 2736.44 1270.17 2735.05 1276.3 2733.53 1282.02 2731.8 1287.34 2729.93 1292 2727.85 1295.73C2727.77 1295.87 2727.68 1296.01 2727.57 1296.14L2725.57 1298.45C2725.4 1298.65 2725.2 1298.82 2724.97 1298.95L2722.91 1300.2C2722.75 1300.3 2722.57 1300.38 2722.39 1300.44L2718.77 1301.63 2715.6 1302.43 2710.53 1303.28 2705.34 1303.5 2702.36 1303.5 2699.11 1303.5 2690.66 1302.81C2690.52 1302.79 2690.38 1302.77 2690.25 1302.74L2681.68 1300.55C2681.54 1300.51 2681.41 1300.46 2681.27 1300.41L2677.4 1298.66C2677.26 1298.59 2677.14 1298.52 2677.01 1298.44L2673.64 1296.13C2673.51 1296.04 2673.39 1295.94 2673.28 1295.83L2671.91 1294.46C2671.79 1294.34 2671.69 1294.21 2671.6 1294.08L2670.6 1292.58C2670.49 1292.41 2670.4 1292.24 2670.33 1292.06L2669.71 1290.37C2669.63 1290.17 2669.59 1289.96 2669.56 1289.75L2669.38 1287.88C2669.36 1287.7 2669.36 1287.52 2669.38 1287.34L2669.69 1284.59 2670.54 1280.49 2671.82 1275.62 2673.26 1270.06 2676.65 1258.19 2680.02 1246.2 2681.37 1240.66 2682.5 1235.98 2683.23 1232.32 2683.34 1230.99 2683.25 1230.91 2682.15 1230.24 2680.41 1229.35 2675.56 1226.93 2669.76 1224.06 2663.59 1220.62 2657.62 1216.72 2654.91 1214.39C2654.76 1214.26 2654.63 1214.12 2654.52 1213.96L2652.77 1211.52C2652.65 1211.35 2652.55 1211.16 2652.47 1210.97L2651.41 1208.22C2651.33 1208.03 2651.29 1207.83 2651.26 1207.63L2650.88 1204.69C2650.86 1204.48 2650.86 1204.26 2650.89 1204.05L2651.39 1200.24C2651.41 1200.02 2651.47 1199.81 2651.55 1199.61L2653.05 1195.98C2653.11 1195.85 2653.18 1195.72 2653.25 1195.6L2655.63 1191.85 2658.74 1187.28 2662.27 1181.88 2666.38 1175.41 2668.51 1171.7 2670.71 1167.47 2672.99 1162.73 2675.33 1157.48 2677.89 1151.73 2680.14 1146.67 2682.08 1142.3 2683.79 1138.63 2686.89 1132.55 2690.21 1127.45C2690.29 1127.33 2690.37 1127.22 2690.47 1127.11L2693.78 1123.55C2693.93 1123.39 2694.11 1123.24 2694.3 1123.13L2697.92 1120.88C2698.12 1120.75 2698.34 1120.66 2698.57 1120.59L2702.82 1119.41C2702.96 1119.37 2703.12 1119.34 2703.27 1119.32L2708.38 1118.87C2708.5 1118.86 2708.62 1118.86 2708.73 1118.87ZM1784.35 1118.62 1787.7 1118.82 1791.55 1119.48 1799.39 1121.79 1807.4 1125.41 1814.81 1130 1821.44 1135.38C1821.54 1135.46 1821.63 1135.54 1821.72 1135.64L1827.03 1141.51C1827.11 1141.6 1827.19 1141.7 1827.26 1141.8L1829.38 1144.99C1829.45 1145.1 1829.52 1145.21 1829.57 1145.33L1831.07 1148.58C1831.13 1148.71 1831.18 1148.84 1831.22 1148.98L1832.09 1152.23C1832.13 1152.36 1832.15 1152.5 1832.17 1152.65L1832.48 1156.02C1832.5 1156.21 1832.49 1156.4 1832.47 1156.59L1831.97 1160.22C1831.94 1160.38 1831.9 1160.54 1831.85 1160.7L1830.41 1164.82C1830.37 1164.94 1830.32 1165.05 1830.27 1165.16L1827.96 1169.59 1824.83 1174.38 1817.59 1183.78 1809.64 1193.07 1799.18 1203.41 1791.85 1209.46 1793.34 1210.19 1796.9 1212.46 1800.62 1215.26 1804.55 1218.85 1808.55 1223.66C1808.63 1223.76 1808.7 1223.87 1808.77 1223.98L1814.45 1233.6 1817.01 1238.46 1819.37 1242.81 1821.52 1246.49 1823.4 1249.13 1825.09 1250.81 1827.15 1251.82 1831.72 1254.07C1831.96 1254.19 1832.18 1254.35 1832.37 1254.53L1836.18 1258.28C1836.3 1258.4 1836.41 1258.53 1836.51 1258.68L1838.01 1260.93C1838.08 1261.04 1838.14 1261.15 1838.2 1261.27L1839.26 1263.58C1839.32 1263.71 1839.37 1263.85 1839.41 1263.99L1840.03 1266.37C1840.07 1266.51 1840.09 1266.66 1840.11 1266.81L1840.29 1269.18C1840.31 1269.34 1840.3 1269.5 1840.29 1269.65L1839.91 1273.03C1839.89 1273.23 1839.84 1273.43 1839.77 1273.62L1838.58 1276.81C1838.52 1276.98 1838.44 1277.14 1838.34 1277.3L1836.4 1280.3C1836.31 1280.44 1836.21 1280.57 1836.09 1280.69L1833.4 1283.44C1833.31 1283.53 1833.21 1283.62 1833.1 1283.7L1826.47 1288.58C1826.37 1288.65 1826.26 1288.72 1826.15 1288.78L1818.65 1292.72 1810.3 1295.84 1801.83 1298.16 1794.02 1299.65 1787.54 1300.12C1787.42 1300.13 1787.3 1300.13 1787.19 1300.12L1783.69 1299.87 1780.04 1299.14 1776.58 1297.92C1776.46 1297.87 1776.35 1297.82 1776.24 1297.76L1773.24 1296.14C1773.1 1296.06 1772.96 1295.97 1772.84 1295.87L1770.03 1293.56C1769.89 1293.45 1769.77 1293.32 1769.66 1293.18L1766.97 1289.81C1766.9 1289.72 1766.83 1289.62 1766.77 1289.52L1764.21 1285.14 1761.65 1279.53 1759.07 1272.2 1756.83 1266.11 1754.72 1260.72 1752.57 1255.82 1750.45 1251.63 1748.6 1248.84 1747.16 1247.4 1746.47 1247.14 1745.49 1247.29 1744.61 1247.72 1744.07 1248.5 1743.75 1250.75 1744.05 1257.2 1744.96 1262.99 1746.35 1268.38 1747.94 1273.37 1749.53 1277.78 1750.95 1281.56 1752.05 1284.84C1752.1 1285 1752.14 1285.17 1752.16 1285.34L1752.47 1288.03C1752.5 1288.29 1752.49 1288.57 1752.44 1288.83L1751.94 1291.2C1751.87 1291.51 1751.75 1291.79 1751.59 1292.05L1750.09 1294.36C1749.95 1294.57 1749.78 1294.76 1749.59 1294.93L1747.02 1297.05C1746.87 1297.18 1746.7 1297.29 1746.51 1297.38L1742.76 1299.19C1742.64 1299.25 1742.51 1299.3 1742.38 1299.34L1737.44 1300.78 1731.29 1302.02 1727.61 1302.48 1723.56 1302.81 1719.1 1303 1714.21 1303.06 1708.05 1302.75 1702.43 1301.91C1702.3 1301.89 1702.18 1301.86 1702.06 1301.83L1697.43 1300.39C1697.3 1300.35 1697.17 1300.29 1697.04 1300.23L1693.11 1298.23C1692.97 1298.16 1692.83 1298.07 1692.7 1297.98L1689.33 1295.35C1689.19 1295.24 1689.07 1295.13 1688.96 1294.99L1686.15 1291.68C1686.05 1291.56 1685.96 1291.44 1685.88 1291.3L1683.57 1287.24C1683.51 1287.13 1683.45 1287.02 1683.41 1286.9L1681.6 1282.22 1680.58 1278.61 1679.55 1274.05 1678.47 1268.48 1677.45 1261.68 1676.57 1253.78 1675.87 1244.69 1675.49 1234.34 1675.36 1222.9 1675.43 1214.86 1675.49 1207.23 1675.68 1199.94 1675.99 1193.01 1676.3 1186.51 1676.75 1180.32 1677.18 1174.62 1677.75 1169.18 1678.38 1164.25 1679.15 1159.71 1679.98 1155.74 1680.96 1152.21 1682.08 1149.14 1683.3 1146.6 1684.72 1144.43C1684.81 1144.29 1684.92 1144.16 1685.03 1144.05L1686.35 1142.73C1686.44 1142.64 1686.54 1142.55 1686.65 1142.48L1691.84 1138.73 1697.98 1135.37 1704.53 1132.63 1711.29 1130.27 1725.27 1126.82 1731.85 1125.78 1737.34 1125.44 1741.06 1125.63C1741.21 1125.64 1741.35 1125.66 1741.49 1125.69L1744.49 1126.38C1744.62 1126.41 1744.75 1126.45 1744.88 1126.5L1747.31 1127.5C1747.52 1127.59 1747.72 1127.7 1747.89 1127.84L1749.83 1129.34C1749.97 1129.44 1750.09 1129.56 1750.2 1129.69L1751.7 1131.44C1751.8 1131.56 1751.9 1131.69 1751.98 1131.83L1753.04 1133.71C1753.12 1133.85 1753.19 1134.01 1753.24 1134.17L1753.87 1136.11C1753.93 1136.29 1753.96 1136.47 1753.98 1136.65L1754.17 1138.71C1754.18 1138.87 1754.18 1139.04 1754.16 1139.2L1753.73 1143.45C1753.71 1143.57 1753.69 1143.7 1753.66 1143.82L1752.41 1148.63 1748.99 1159.27 1747.25 1164.92 1745.66 1171.07 1744.58 1177.48 1744.37 1180.89 1746.36 1178.42 1748.71 1175.16 1751.29 1171.35 1753.91 1166.97 1756.75 1161.95 1761.82 1151.99 1765.7 1143.24 1767.16 1139.47 1768.25 1136.26 1768.95 1133.56 1769.35 1131.41 1770.64 1126.65C1770.73 1126.33 1770.89 1126.02 1771.1 1125.76L1773.78 1122.38C1773.99 1122.13 1774.24 1121.91 1774.52 1121.76L1778.33 1119.63C1778.6 1119.48 1778.88 1119.39 1779.18 1119.34L1783.83 1118.65C1784 1118.62 1784.18 1118.61 1784.35 1118.62ZM2235.46 1118.38 2242.02 1118.63 2248.31 1119.26 2254.34 1120.42 2260.16 1122.03 2265.6 1124.03 2270.64 1126.28 2275.31 1128.8 2279.58 1131.68 2283.42 1134.73 2286.85 1138.01 2289.82 1141.43 2292.4 1145.06 2294.49 1148.79 2296 1152.51C2296.05 1152.63 2296.08 1152.75 2296.11 1152.87L2296.92 1156.37C2296.95 1156.5 2296.97 1156.63 2296.98 1156.76L2297.23 1160.2C2297.24 1160.32 2297.24 1160.44 2297.23 1160.55L2297.05 1163.18C2297.04 1163.31 2297.02 1163.44 2296.99 1163.57L2296.36 1166.26C2296.33 1166.38 2296.3 1166.49 2296.25 1166.61L2295.19 1169.3 2293.63 1172.24 2289.76 1177.6 2285.29 1182.29 2280.32 1186.38C2280.22 1186.45 2280.12 1186.52 2280.02 1186.59L2274.77 1189.71C2274.65 1189.78 2274.54 1189.84 2274.41 1189.89L2269.23 1191.95C2269.04 1192.02 2268.85 1192.07 2268.66 1192.1L2263.91 1192.79C2263.75 1192.81 2263.59 1192.82 2263.43 1192.81L2262.92 1192.79 2265.7 1194.22 2274.64 1199.54 2282.84 1205.91 2286.62 1209.59 2290.04 1213.72 2295.8 1222.93C2295.86 1223.04 2295.92 1223.15 2295.97 1223.26L2298.16 1228.32 2299.83 1234.2 2300.83 1240.56 2301.17 1247.32 2300.86 1253.69 2299.83 1259.74 2298.13 1265.41 2295.7 1270.79 2292.68 1275.75 2289.29 1280.21 2285.36 1284.35 2281.04 1288.03 2276.35 1291.31 2271.35 1294.17 2266.02 1296.59 2260.44 1298.55 2254.56 1300.11 2248.63 1301.21 2242.44 1301.86 2236.19 1302.06 2229.52 1301.81 2222.86 1300.98 2216.3 1299.64 2209.83 1297.71 2197.9 1292.75C2197.79 1292.7 2197.69 1292.65 2197.59 1292.59L2187.4 1286.53 2182.61 1282.94 2178.34 1279.19 2174.49 1275.16 2171.09 1270.86 2168.26 1266.48C2168.19 1266.37 2168.13 1266.25 2168.08 1266.14L2166.2 1261.89C2166.15 1261.78 2166.11 1261.66 2166.08 1261.55L2164.89 1257.3C2164.85 1257.15 2164.82 1257 2164.81 1256.84L2164.44 1252.53C2164.42 1252.4 2164.42 1252.26 2164.43 1252.12L2164.68 1248.87 2165.42 1245.35 2166.63 1241.86 2168.4 1238.41 2172.56 1232.39 2177.34 1227.18 2182.65 1222.76 2188.23 1219.26C2188.33 1219.19 2188.44 1219.13 2188.55 1219.09L2193.55 1216.9C2193.73 1216.82 2193.91 1216.77 2194.1 1216.73L2196.23 1216.34 2190.24 1211.58C2190.15 1211.51 2190.06 1211.43 2189.98 1211.34L2183.67 1204.66C2183.57 1204.55 2183.48 1204.44 2183.4 1204.31L2178.21 1196.44C2178.14 1196.33 2178.08 1196.21 2178.02 1196.09L2176.02 1191.65 2174.47 1186.53 2173.52 1180.98 2173.18 1175.08 2173.49 1168.87 2174.46 1162.91 2176.09 1157.24 2178.31 1151.86 2181.12 1146.78 2184.37 1142.08 2188.1 1137.74 2192.28 1133.8 2196.84 1130.27 2201.65 1127.2 2206.8 1124.58 2212.24 1122.37 2217.9 1120.67 2223.65 1119.43 2229.54 1118.65Z" fill="#5B9BD5" fill-rule="evenodd"/><path d="M2572.84 1229.55C2570.05 1229.55 2567.37 1230.03 2564.8 1230.98 2562.23 1231.93 2559.94 1233.16 2557.93 1234.65 2555.91 1236.14 2554.38 1237.72 2553.31 1239.38 2552.25 1241.04 2551.72 1242.61 2551.72 1244.1 2551.72 1245.73 2552.31 1247.23 2553.49 1248.59 2554.68 1249.95 2556.74 1250.63 2559.7 1250.63 2561.65 1250.63 2563.75 1250.19 2566 1249.32 2568.25 1248.45 2570.33 1247.32 2572.24 1245.92 2574.15 1244.53 2575.69 1242.97 2576.86 1241.24 2578.04 1239.51 2578.63 1237.78 2578.63 1236.07 2578.63 1234.44 2578.04 1232.94 2576.86 1231.59 2575.68 1230.23 2574.34 1229.55 2572.84 1229.55ZM2567 1155.59C2565.06 1155.59 2563.06 1155.99 2561.01 1156.8 2558.96 1157.61 2557.21 1158.56 2555.76 1159.66 2554.32 1160.76 2553.16 1162.05 2552.29 1163.51 2551.42 1164.98 2550.99 1166.3 2550.99 1167.46 2550.99 1168.85 2551.43 1169.96 2552.32 1170.79 2553.2 1171.63 2554.94 1172.04 2557.51 1172.04 2561.32 1172.04 2564.78 1170.91 2567.89 1168.63 2571 1166.35 2572.55 1163.61 2572.55 1160.41 2572.55 1158.93 2572.04 1157.75 2571.01 1156.89 2569.99 1156.02 2568.65 1155.59 2567 1155.59ZM2086.92 1117.31C2098.71 1117.31 2108.57 1117.95 2116.5 1119.24 2124.43 1120.54 2130.4 1124.41 2134.41 1130.86 2137.06 1134.78 2138.78 1138.87 2139.56 1143.12 2140.34 1147.38 2140.73 1151.35 2140.73 1155.06 2140.73 1159.87 2139.58 1163.64 2137.26 1166.36 2134.95 1169.07 2132.03 1170.43 2128.52 1170.43 2127.04 1170.43 2125.1 1170.31 2122.7 1170.06 2120.3 1169.81 2117.67 1169.57 2114.82 1169.33 2111.97 1169.09 2108.97 1168.85 2105.81 1168.61 2102.65 1168.36 2099.68 1168.24 2096.89 1168.24 2091.18 1168.24 2087.17 1168.68 2084.85 1169.56 2082.53 1170.44 2081.37 1172.09 2081.37 1174.52 2081.37 1176.73 2081.79 1178.45 2082.63 1179.69 2083.47 1180.92 2084.74 1181.53 2086.43 1181.53 2088.23 1181.53 2090.27 1181.34 2092.55 1180.94 2094.84 1180.55 2097.2 1180.15 2099.63 1179.74 2102.06 1179.34 2104.49 1178.93 2106.91 1178.51 2109.33 1178.09 2111.58 1177.88 2113.68 1177.88 2117.99 1177.88 2121.38 1179.23 2123.86 1181.91 2126.35 1184.6 2127.59 1189.92 2127.59 1197.88 2127.59 1206.45 2126.52 1213.27 2124.36 1218.32 2122.21 1223.37 2119.06 1225.9 2114.89 1225.9 2111.93 1225.9 2109.03 1225.74 2106.2 1225.41 2103.36 1225.09 2100.26 1224.93 2096.89 1224.93 2091.66 1224.93 2088.01 1225.52 2085.93 1226.71 2083.86 1227.91 2082.83 1229.89 2082.83 1232.67 2082.83 1234.44 2083.13 1235.64 2083.72 1236.28 2084.32 1236.92 2086.36 1237.25 2089.84 1237.25 2096.83 1237.25 2103.11 1236.66 2108.66 1235.48 2114.21 1234.31 2119.18 1232.95 2123.57 1231.41 2127.96 1229.86 2131.62 1228.46 2134.55 1227.21 2137.49 1225.95 2139.77 1225.33 2141.41 1225.33 2144.91 1225.33 2147.66 1227.42 2149.66 1231.61 2151.65 1235.79 2152.65 1241.26 2152.65 1247.99 2152.65 1256.8 2151.98 1263.83 2150.65 1269.09 2149.31 1274.35 2146.53 1277.98 2142.32 1280 2140.31 1281.1 2137.08 1282.4 2132.6 1283.92 2128.13 1285.44 2122.87 1286.89 2116.82 1288.28 2110.77 1289.67 2104.13 1290.89 2096.9 1291.95 2089.66 1293.01 2082.04 1293.53 2074.02 1293.53 2066.25 1293.53 2059.83 1293.33 2054.77 1292.91 2049.71 1292.49 2045.57 1291.81 2042.37 1290.86 2039.16 1289.91 2036.67 1288.69 2034.9 1287.21 2033.12 1285.73 2031.83 1283.89 2031.03 1281.69 2030.2 1279.37 2029.33 1275.99 2028.41 1271.57 2027.49 1267.15 2026.67 1262.03 2025.94 1256.21 2025.21 1250.39 2024.6 1243.82 2024.11 1236.51 2023.62 1229.2 2023.37 1221.51 2023.37 1213.45 2023.37 1189.74 2024.23 1171.18 2025.94 1157.76 2027.64 1144.34 2029.27 1135.32 2030.81 1130.69 2032.17 1126.78 2037.44 1123.58 2046.61 1121.07 2055.79 1118.56 2069.22 1117.31 2086.92 1117.31ZM2575.03 1115.85C2590.69 1115.85 2603.12 1119.25 2612.34 1126.05 2621.56 1132.86 2626.17 1142.2 2626.17 1154.08 2626.17 1160.75 2625.18 1166.43 2623.21 1171.15 2621.24 1175.86 2619.01 1179.77 2616.5 1182.87 2614 1185.98 2611.94 1188.16 2610.33 1189.42 2609.93 1189.73 2609.58 1190 2609.28 1190.22L2608.66 1190.63 2609.01 1190.65C2609.73 1190.79 2610.82 1191.13 2612.27 1191.66 2615.17 1192.72 2618.68 1194.71 2622.8 1197.63 2626.93 1200.55 2630.75 1204.67 2634.27 1210 2637.79 1215.32 2639.55 1222.23 2639.55 1230.72 2639.55 1239.25 2637.34 1247.38 2632.92 1255.12 2628.49 1262.85 2622.56 1269.61 2615.12 1275.38 2607.68 1281.14 2599.01 1285.73 2589.11 1289.15 2579.2 1292.56 2568.59 1294.27 2557.27 1294.27 2547.59 1294.27 2538.92 1293.04 2531.26 1290.6 2523.59 1288.16 2517.09 1284.81 2511.73 1280.56 2506.37 1276.31 2502.23 1271.27 2499.32 1265.43 2496.4 1259.6 2494.94 1253.38 2494.94 1246.78 2494.94 1238.48 2496.37 1231.51 2499.23 1225.87 2502.1 1220.23 2505.27 1215.62 2508.76 1212.05 2512.24 1208.48 2515.23 1205.89 2517.72 1204.28 2520.21 1202.67 2521.46 1201.83 2521.46 1201.77 2521.46 1201.82 2520.59 1201.22 2518.86 1199.98 2517.13 1198.73 2514.94 1196.82 2512.29 1194.26 2509.64 1191.69 2507.22 1188.48 2505.03 1184.64 2502.85 1180.79 2501.75 1176.12 2501.75 1170.63 2501.75 1161.61 2503.91 1153.67 2508.23 1146.82 2512.55 1139.96 2518.15 1134.26 2525.06 1129.72 2531.96 1125.17 2539.82 1121.73 2548.64 1119.37 2557.46 1117.02 2566.26 1115.85 2575.03 1115.85ZM2421.27 1115.85C2429.15 1115.85 2436.43 1117.09 2443.1 1119.57 2449.78 1122.05 2455.45 1125.32 2460.11 1129.39 2464.77 1133.46 2468.43 1138.11 2471.09 1143.35 2473.75 1148.59 2475.08 1153.87 2475.08 1159.19 2475.08 1164.95 2474.26 1170.05 2472.61 1174.47 2470.97 1178.89 2469.19 1182.56 2467.27 1185.47 2465.36 1188.38 2463.71 1190.6 2462.32 1192.13 2460.94 1193.67 2460.24 1194.45 2460.24 1194.47 2460.24 1194.24 2461.45 1194.7 2463.87 1195.84 2466.28 1196.97 2469.25 1199.13 2472.76 1202.29 2476.27 1205.46 2479.48 1209.66 2482.39 1214.88 2485.31 1220.11 2486.76 1226.85 2486.76 1235.1 2486.76 1243.46 2484.76 1251.17 2480.77 1258.23 2476.77 1265.29 2471.59 1271.36 2465.24 1276.44 2458.89 1281.53 2451.76 1285.49 2443.84 1288.32 2435.93 1291.15 2427.84 1292.56 2419.57 1292.56 2408.98 1292.56 2399.49 1290.76 2391.11 1287.16 2382.74 1283.55 2375.56 1279.06 2369.59 1273.68 2363.62 1268.3 2359.02 1262.49 2355.77 1256.27 2352.53 1250.04 2350.91 1244.36 2350.91 1239.23 2350.91 1236.31 2352.23 1233.26 2354.86 1230.1 2357.49 1226.94 2360.61 1223.99 2364.21 1221.25 2367.82 1218.5 2371.6 1216.22 2375.57 1214.41 2379.53 1212.61 2383.01 1211.7 2385.99 1211.7 2389.51 1211.7 2391.98 1212.47 2393.4 1214 2394.82 1215.54 2395.53 1217.46 2395.53 1219.77 2395.53 1222.54 2396.06 1225.5 2397.11 1228.65 2398.16 1231.81 2399.67 1234.71 2401.64 1237.36 2403.61 1240.02 2405.88 1242.2 2408.46 1243.92 2411.03 1245.63 2413.84 1246.49 2416.89 1246.49 2420.4 1246.49 2423.22 1245.46 2425.34 1243.41 2427.46 1241.35 2428.52 1238.42 2428.52 1234.61 2428.52 1230.63 2427.2 1227.98 2424.57 1226.66 2421.93 1225.34 2418.8 1224.68 2415.19 1224.68 2412.85 1224.68 2410.54 1224.21 2408.29 1223.27 2406.03 1222.33 2403.98 1220.8 2402.14 1218.68 2400.29 1216.56 2398.84 1213.9 2397.77 1210.69 2396.7 1207.48 2396.17 1203.62 2396.17 1199.09 2396.17 1196.35 2397.64 1193.73 2400.59 1191.25 2403.54 1188.76 2406.51 1186.28 2409.51 1183.82 2412.51 1181.36 2415.26 1178.77 2417.74 1176.06 2420.22 1173.35 2421.47 1170.4 2421.47 1167.22 2421.47 1165.61 2420.89 1164.37 2419.73 1163.48 2418.57 1162.6 2416.97 1162.16 2414.94 1162.16 2411.75 1162.16 2408.79 1163.52 2406.08 1166.23 2403.36 1168.95 2400.96 1171.98 2398.88 1175.33 2396.79 1178.68 2394.69 1182.15 2392.55 1185.73 2390.42 1189.32 2388.07 1191.11 2385.51 1191.11 2382.82 1191.11 2379.78 1190.33 2376.39 1188.76 2373 1187.2 2369.78 1185.23 2366.72 1182.85 2363.66 1180.47 2360.95 1177.73 2358.59 1174.65 2356.23 1171.56 2355.05 1168.36 2355.05 1165.03 2355.05 1160.78 2356.76 1155.8 2360.17 1150.08 2363.58 1144.37 2368.26 1139 2374.19 1133.99 2380.12 1128.97 2387.1 1124.69 2395.1 1121.15 2403.11 1117.61 2411.83 1115.85 2421.27 1115.85ZM1971.12 1115.12C1980.56 1115.12 1988.53 1116.67 1995.02 1119.79 2001.52 1122.9 2005.31 1127.56 2006.4 1133.75 2006.88 1136.42 2007.27 1140.21 2007.6 1145.15 2007.92 1150.08 2008.25 1155.45 2008.58 1161.26 2008.91 1167.07 2009.16 1173.11 2009.34 1179.38 2009.52 1185.65 2009.6 1190.44 2009.6 1193.74 2009.6 1217.58 2008.32 1236.78 2005.74 1251.33 2003.16 1265.88 1999.69 1274.98 1995.31 1278.64 1990.01 1283.09 1983.68 1286.25 1976.3 1288.09 1968.92 1289.94 1961.68 1290.86 1954.58 1290.86 1949.28 1290.86 1945.08 1288.51 1941.97 1283.8 1938.86 1279.1 1935.73 1273.51 1932.58 1267.04 1931.65 1265.02 1930.36 1261.94 1928.7 1257.81 1927.05 1253.67 1925.2 1249.09 1923.18 1244.07 1921.15 1239.05 1919.06 1233.89 1916.91 1228.61 1914.76 1223.33 1912.72 1218.68 1910.8 1214.67 1908.87 1210.66 1907.18 1207.47 1905.72 1205.11 1904.26 1202.75 1903.43 1201.57 1903.24 1201.57 1902.95 1201.57 1902.8 1204.48 1902.8 1210.28 1902.8 1218.85 1903.51 1226.56 1904.93 1233.41 1906.34 1240.25 1907.9 1246.45 1909.58 1251.99 1911.27 1257.53 1912.87 1262.37 1914.39 1266.5 1915.91 1270.63 1916.67 1273.87 1916.67 1276.22 1916.67 1278.68 1915.57 1281.05 1913.37 1283.34 1911.18 1285.64 1908.39 1287.61 1905 1289.26 1901.61 1290.91 1897.74 1292.23 1893.37 1293.24 1889.01 1294.25 1884.43 1294.75 1879.64 1294.75 1869.97 1294.75 1862.53 1293.4 1857.3 1290.7 1852.08 1288 1848.74 1283.35 1847.28 1276.76 1846.6 1273.7 1845.95 1270.03 1845.31 1265.76 1844.68 1261.48 1844.11 1256.67 1843.61 1251.3 1843.12 1245.94 1842.71 1240.38 1842.38 1234.62 1842.05 1228.87 1841.89 1223.19 1841.89 1217.58 1841.89 1196.73 1842.34 1179.75 1843.24 1166.64 1844.14 1153.54 1844.99 1144.77 1845.78 1140.34 1846.64 1135.34 1848.05 1131.54 1850 1128.93 1851.96 1126.33 1854.36 1124.52 1857.2 1123.5 1858.38 1123 1860.27 1122.54 1862.89 1122.13 1865.52 1121.72 1868.4 1121.35 1871.55 1121.02 1874.7 1120.69 1878.01 1120.39 1881.49 1120.13 1884.98 1119.87 1888.01 1119.74 1890.59 1119.74 1893.39 1119.74 1896.42 1120.05 1899.7 1120.67 1902.98 1121.29 1906.19 1122.43 1909.32 1124.08 1912.45 1125.73 1915.53 1128.03 1918.56 1130.96 1921.58 1133.9 1924.26 1137.53 1926.58 1141.85 1927.49 1143.51 1928.9 1146.38 1930.82 1150.47 1932.74 1154.55 1934.61 1158.6 1936.44 1162.61 1938.26 1166.63 1940.37 1171.23 1942.76 1176.42 1945.16 1181.61 1947.28 1186.03 1949.12 1189.68 1950.97 1193.33 1952.51 1196.21 1953.73 1198.32 1954.04 1198.84 1954.3 1199.31 1954.51 1199.7L1954.86 1200.43 1954.92 1200C1954.98 1199.34 1955.02 1198.39 1955.02 1197.15 1955.02 1191.1 1954.09 1184.79 1952.25 1178.21 1950.4 1171.64 1948.36 1165.35 1946.12 1159.35 1943.88 1153.35 1941.81 1147.85 1939.89 1142.85 1937.97 1137.85 1937.01 1133.73 1937.01 1130.49 1937.01 1128.4 1938.07 1126.4 1940.19 1124.47 1942.32 1122.54 1944.97 1120.93 1948.16 1119.63 1951.35 1118.34 1954.96 1117.26 1959 1116.41 1963.04 1115.55 1967.08 1115.12 1971.12 1115.12ZM2701.62 1114.38C2704.82 1114.38 2708.06 1114.74 2711.32 1115.44 2714.58 1116.15 2717.59 1117.26 2720.34 1118.77 2723.09 1120.28 2725.46 1122.16 2727.45 1124.42 2729.43 1126.68 2730.71 1129.3 2731.27 1132.29 2732.27 1137.78 2732.85 1146.44 2733.03 1158.27 2733.21 1170.11 2733.29 1183.8 2733.29 1199.34 2733.29 1207.79 2732.84 1217.19 2731.92 1227.52 2731 1237.84 2729.78 1247.43 2728.24 1256.27 2726.69 1265.11 2724.75 1272.88 2722.4 1279.58 2720.05 1286.28 2717.45 1290.1 2714.6 1291.05 2711.97 1291.99 2709.76 1292.64 2707.97 1293 2706.19 1293.36 2704.57 1293.61 2703.11 1293.78 2701.66 1293.94 2700.03 1294.02 2698.23 1294.02 2696.43 1294.02 2694.4 1294.02 2692.13 1294.02 2689.58 1294.02 2686.81 1293.77 2683.83 1293.28 2680.85 1292.78 2678 1292.05 2675.28 1291.09 2672.56 1290.12 2670.14 1288.78 2668.02 1287.06 2665.9 1285.34 2664.83 1283.19 2664.83 1280.59 2664.83 1279.15 2665.21 1276.95 2665.97 1274.01 2666.72 1271.07 2667.62 1267.62 2668.64 1263.68 2669.67 1259.74 2670.8 1255.79 2672.04 1251.86 2673.27 1247.92 2674.4 1243.92 2675.41 1239.87 2676.43 1235.82 2677.27 1232.37 2677.94 1229.53 2678.61 1226.7 2678.95 1224.58 2678.95 1223.18 2678.95 1222.6 2677.47 1221.58 2674.52 1220.1 2671.56 1218.62 2668.01 1216.85 2663.87 1214.78 2659.73 1212.71 2655.78 1210.33 2652 1207.63 2648.23 1204.93 2646.35 1201.52 2646.35 1197.39 2646.35 1194.72 2647.03 1192.24 2648.39 1189.95 2649.74 1187.65 2651.54 1184.89 2653.78 1181.66 2656.01 1178.44 2658.57 1174.45 2661.46 1169.72 2664.35 1164.98 2667.41 1158.91 2670.62 1151.51 2674.18 1143.33 2676.98 1137.05 2679.02 1132.66 2681.07 1128.27 2683.15 1124.67 2685.27 1121.84 2687.39 1119.01 2689.71 1117.06 2692.24 1115.99 2694.77 1114.92 2697.9 1114.38 2701.62 1114.38ZM1777.22 1114.14C1781.57 1114.14 1786.39 1115.16 1791.69 1117.21 1796.98 1119.26 1801.91 1121.9 1806.49 1125.12 1811.06 1128.34 1814.96 1132.04 1818.18 1136.21 1821.4 1140.39 1823.01 1144.72 1823.01 1149.22 1823.01 1151.52 1822.35 1154.12 1821.04 1157.01 1819.72 1159.91 1817.95 1162.89 1815.73 1165.97 1813.5 1169.05 1811.12 1172.13 1808.59 1175.22 1806.06 1178.31 1803.44 1181.37 1800.75 1184.4 1793.95 1191.7 1786.94 1198.06 1779.7 1203.46 1780.94 1203.38 1782.79 1204.04 1785.26 1205.45 1787.35 1206.66 1789.63 1208.25 1792.11 1210.22 1794.59 1212.18 1797.08 1214.86 1799.58 1218.25 1801.67 1221.3 1803.57 1224.51 1805.29 1227.86 1807.01 1231.21 1808.63 1234.26 1810.17 1237 1811.7 1239.74 1813.13 1241.99 1814.45 1243.73 1815.78 1245.48 1817.32 1246.59 1819.07 1247.07 1822.39 1248.06 1825.17 1250.06 1827.42 1253.06 1829.67 1256.06 1830.79 1259.15 1830.79 1262.35 1830.79 1266.99 1828.73 1271.1 1824.61 1274.68 1820.49 1278.27 1815.78 1281.19 1810.47 1283.47 1805.16 1285.74 1799.73 1287.5 1794.17 1288.75 1788.61 1289.99 1784.01 1290.62 1780.39 1290.62 1775.64 1290.62 1771.31 1289.39 1767.42 1286.95 1763.53 1284.51 1760.03 1279.36 1756.93 1271.51 1755.18 1266.4 1753.6 1261.97 1752.2 1258.23 1750.79 1254.49 1749.35 1251.01 1747.85 1247.79 1746.36 1244.58 1744.92 1242.07 1743.52 1240.27 1742.12 1238.48 1740.87 1237.58 1739.76 1237.58 1738.33 1237.58 1737.05 1237.96 1735.91 1238.71 1734.78 1239.47 1734.21 1241.1 1734.21 1243.61 1734.21 1248.25 1734.63 1252.51 1735.49 1256.39 1736.34 1260.27 1737.35 1263.84 1738.52 1267.1 1739.69 1270.35 1740.73 1273.12 1741.62 1275.4 1742.52 1277.69 1742.96 1279.66 1742.96 1281.32 1742.96 1282.9 1742.31 1284.45 1740.99 1285.99 1739.68 1287.52 1737.57 1288.83 1734.66 1289.93 1731.74 1291.02 1728.11 1291.89 1723.77 1292.55 1719.42 1293.21 1713.88 1293.53 1707.16 1293.53 1698.68 1293.53 1692.02 1292.02 1687.2 1288.98 1682.38 1285.95 1678.96 1281.05 1676.94 1274.29 1675.66 1270.58 1674.32 1263.91 1672.94 1254.29 1671.55 1244.66 1670.86 1231.86 1670.86 1215.88 1670.86 1193.98 1671.64 1176.17 1673.21 1162.44 1674.79 1148.71 1677.41 1140.4 1681.08 1137.5 1684.29 1134.8 1687.98 1132.49 1692.14 1130.58 1696.3 1128.67 1700.63 1127.01 1705.13 1125.62 1709.63 1124.23 1714.2 1123.1 1718.84 1122.24 1723.48 1121.38 1727.37 1120.95 1730.51 1120.95 1735.45 1120.95 1739.04 1122.08 1741.29 1124.33 1743.54 1126.58 1744.67 1129.12 1744.67 1131.95 1744.67 1134.58 1744.12 1137.59 1743.01 1141 1741.91 1144.4 1740.76 1147.9 1739.59 1151.51 1738.41 1155.11 1737.3 1159.08 1736.26 1163.41 1735.22 1167.75 1734.7 1172.26 1734.7 1176.95 1734.7 1178.39 1734.76 1179.1 1734.89 1179.1 1735.97 1179.1 1738.11 1177.06 1741.3 1172.98 1744.5 1168.9 1748.03 1163.3 1751.9 1156.2 1755.71 1149.06 1758.73 1142.74 1760.96 1137.24 1763.2 1131.73 1764.46 1127.62 1764.77 1124.89 1765.15 1121.43 1766.48 1118.77 1768.74 1116.92 1771 1115.07 1773.83 1114.14 1777.22 1114.14ZM2228.59 1113.9C2237.23 1113.9 2245.19 1115.09 2252.47 1117.46 2259.76 1119.83 2265.99 1122.93 2271.18 1126.76 2276.38 1130.59 2280.44 1134.83 2283.37 1139.48 2286.3 1144.13 2287.76 1148.75 2287.76 1153.36 2287.76 1156.9 2286.65 1160.46 2284.41 1164.03 2282.18 1167.6 2279.54 1170.78 2276.5 1173.57 2273.45 1176.36 2270.12 1178.69 2266.49 1180.54 2262.87 1182.4 2259.56 1183.32 2256.57 1183.32 2252.76 1183.32 2250.1 1182.52 2248.58 1180.9 2247.06 1179.29 2245.27 1177.2 2243.2 1174.63 2239.96 1170.64 2237.44 1168.04 2235.63 1166.86 2233.81 1165.67 2231.79 1165.08 2229.57 1165.08 2229.39 1165.08 2228.99 1165.37 2228.37 1165.95 2227.74 1166.54 2227.42 1167.2 2227.42 1167.95 2227.42 1170.51 2228.82 1172.82 2231.6 1174.89 2234.38 1176.96 2237.85 1179.11 2242 1181.34 2246.16 1183.58 2251.34 1186.27 2257.53 1189.44 2263.73 1192.6 2269.31 1196.41 2274.28 1200.86 2279.24 1205.32 2283.38 1210.78 2286.69 1217.23 2290 1223.68 2291.65 1231.42 2291.65 1240.45 2291.65 1248.82 2289.9 1256.25 2286.4 1262.74 2282.9 1269.23 2278.24 1274.7 2272.43 1279.14 2266.62 1283.58 2260 1286.93 2252.58 1289.18 2245.16 1291.44 2237.32 1292.56 2229.08 1292.56 2220.33 1292.56 2211.83 1291.14 2203.57 1288.31 2195.31 1285.47 2188 1281.84 2181.64 1277.4 2175.28 1272.96 2170.07 1267.94 2166.02 1262.34 2161.97 1256.73 2159.94 1251.06 2159.94 1245.32 2159.94 1240.91 2161.16 1236.65 2163.6 1232.55 2166.05 1228.45 2168.91 1224.88 2172.2 1221.85 2175.48 1218.81 2178.94 1216.32 2182.57 1214.38 2186.2 1212.43 2189.22 1211.46 2191.62 1211.46 2194.52 1211.46 2196.87 1212.89 2198.68 1215.76 2200.48 1218.64 2202.53 1221.97 2204.83 1225.77 2207.13 1229.57 2209.45 1232.71 2211.81 1235.21 2214.16 1237.7 2216.92 1238.95 2220.08 1238.95 2222.74 1238.95 2224.65 1238.12 2225.82 1236.45 2226.99 1234.79 2227.58 1233.12 2227.58 1231.45 2227.58 1229.93 2226.29 1228.31 2223.72 1226.6 2221.15 1224.89 2217.71 1222.92 2213.39 1220.68 2209.08 1218.44 2204.37 1215.88 2199.27 1213 2194.17 1210.12 2189.34 1206.65 2184.77 1202.59 2180.2 1198.53 2176.38 1193.69 2173.31 1188.05 2170.24 1182.42 2168.7 1175.72 2168.7 1167.95 2168.7 1159.83 2170.34 1152.44 2173.63 1145.78 2176.92 1139.11 2181.37 1133.4 2186.97 1128.64 2192.58 1123.89 2198.98 1120.24 2206.16 1117.7 2213.35 1115.17 2220.83 1113.9 2228.59 1113.9Z" stroke="#FFFFFF" stroke-width="5" stroke-linejoin="round" stroke-miterlimit="10" fill="#262626" fill-rule="evenodd"/><text fill="#000000" fill-opacity="0" font-family="Arial,Arial_MSFontService,sans-serif" font-size="180.85" x="1670.86" y="1272.14">KNES 381</text></g></svg>
