<svg width="444" height="211" xmlns="http://www.w3.org/2000/svg" xmlns:xlink="http://www.w3.org/1999/xlink" xml:space="preserve" overflow="hidden"><defs><clipPath id="clip0"><rect x="1978" y="1071" width="444" height="211"/></clipPath></defs><g clip-path="url(#clip0)" transform="translate(-1978 -1071)"><path d="M2268.58 1110.31C2275.57 1110.31 2281.42 1110.69 2286.12 1111.45 2290.81 1112.22 2294.35 1114.52 2296.73 1118.34 2298.3 1120.66 2299.32 1123.09 2299.78 1125.61 2300.25 1128.13 2300.48 1130.49 2300.48 1132.68 2300.48 1135.54 2299.79 1137.77 2298.42 1139.38 2297.05 1140.99 2295.32 1141.8 2293.24 1141.8 2292.36 1141.8 2291.21 1141.72 2289.79 1141.57 2288.37 1141.43 2286.81 1141.28 2285.12 1141.14 2283.43 1141 2281.65 1140.86 2279.78 1140.71 2277.91 1140.57 2276.14 1140.5 2274.49 1140.5 2271.11 1140.5 2268.73 1140.76 2267.35 1141.28 2265.98 1141.8 2265.29 1142.78 2265.29 1144.22 2265.29 1145.53 2265.54 1146.55 2266.04 1147.28 2266.54 1148.01 2267.29 1148.38 2268.29 1148.38 2269.36 1148.38 2270.57 1148.26 2271.92 1148.03 2273.28 1147.79 2274.67 1147.56 2276.11 1147.32 2277.56 1147.08 2278.99 1146.83 2280.43 1146.58 2281.86 1146.34 2283.2 1146.21 2284.44 1146.21 2287 1146.21 2289.01 1147.01 2290.48 1148.6 2291.95 1150.19 2292.69 1153.35 2292.69 1158.06 2292.69 1163.15 2292.05 1167.19 2290.78 1170.18 2289.5 1173.18 2287.63 1174.67 2285.16 1174.67 2283.41 1174.67 2281.69 1174.58 2280.01 1174.39 2278.33 1174.19 2276.49 1174.1 2274.49 1174.1 2271.39 1174.1 2269.23 1174.45 2268 1175.16 2266.77 1175.86 2266.16 1177.04 2266.16 1178.68 2266.16 1179.73 2266.33 1180.45 2266.69 1180.83 2267.04 1181.21 2268.25 1181.4 2270.31 1181.4 2274.46 1181.4 2278.18 1181.05 2281.47 1180.36 2284.76 1179.66 2287.71 1178.85 2290.31 1177.94 2292.91 1177.02 2295.08 1176.19 2296.82 1175.45 2298.56 1174.71 2299.91 1174.33 2300.88 1174.33 2302.96 1174.33 2304.58 1175.58 2305.77 1178.06 2306.95 1180.54 2307.54 1183.78 2307.54 1187.77 2307.54 1192.99 2307.15 1197.16 2306.36 1200.27 2305.56 1203.39 2303.92 1205.55 2301.42 1206.74 2300.23 1207.39 2298.31 1208.17 2295.66 1209.07 2293.01 1209.97 2289.89 1210.83 2286.31 1211.65 2282.72 1212.47 2278.78 1213.2 2274.5 1213.82 2270.21 1214.45 2265.69 1214.76 2260.94 1214.76 2256.33 1214.76 2252.52 1214.64 2249.52 1214.39 2246.52 1214.15 2244.07 1213.74 2242.17 1213.18 2240.27 1212.61 2238.8 1211.89 2237.74 1211.02 2236.69 1210.14 2235.93 1209.05 2235.45 1207.74 2234.96 1206.37 2234.45 1204.37 2233.9 1201.75 2233.36 1199.13 2232.87 1196.09 2232.44 1192.64 2232.01 1189.19 2231.65 1185.3 2231.35 1180.96 2231.06 1176.63 2230.92 1172.07 2230.92 1167.29 2230.92 1153.24 2231.42 1142.24 2232.43 1134.29 2233.45 1126.33 2234.41 1120.98 2235.32 1118.24 2236.13 1115.92 2239.25 1114.02 2244.69 1112.54 2250.13 1111.05 2258.09 1110.31 2268.58 1110.31ZM2200.23 1109.01C2205.82 1109.01 2210.55 1109.93 2214.4 1111.78 2218.25 1113.62 2220.5 1116.38 2221.14 1120.05 2221.42 1121.63 2221.66 1123.88 2221.85 1126.81 2222.04 1129.73 2222.24 1132.92 2222.43 1136.36 2222.63 1139.8 2222.78 1143.38 2222.88 1147.1 2222.99 1150.82 2223.04 1153.66 2223.04 1155.61 2223.04 1169.75 2222.28 1181.12 2220.75 1189.75 2219.22 1198.37 2217.16 1203.77 2214.57 1205.93 2211.43 1208.58 2207.67 1210.44 2203.3 1211.54 2198.92 1212.63 2194.63 1213.18 2190.42 1213.18 2187.28 1213.18 2184.79 1211.78 2182.95 1208.99 2181.11 1206.21 2179.25 1202.89 2177.39 1199.06 2176.83 1197.86 2176.07 1196.04 2175.09 1193.59 2174.1 1191.13 2173.01 1188.42 2171.81 1185.44 2170.61 1182.47 2169.37 1179.41 2168.1 1176.28 2166.82 1173.15 2165.61 1170.39 2164.47 1168.02 2163.33 1165.64 2162.33 1163.75 2161.46 1162.35 2160.6 1160.95 2160.11 1160.25 2160 1160.25 2159.82 1160.25 2159.73 1161.98 2159.73 1165.42 2159.73 1170.5 2160.15 1175.07 2160.99 1179.12 2161.83 1183.18 2162.75 1186.85 2163.75 1190.14 2164.75 1193.42 2165.7 1196.29 2166.6 1198.74 2167.5 1201.19 2167.95 1203.11 2167.95 1204.5 2167.95 1205.96 2167.3 1207.36 2166 1208.72 2164.7 1210.08 2163.04 1211.25 2161.04 1212.23 2159.03 1213.21 2156.73 1213.99 2154.14 1214.59 2151.56 1215.19 2148.84 1215.48 2146.01 1215.48 2140.27 1215.48 2135.86 1214.68 2132.77 1213.08 2129.67 1211.48 2127.69 1208.73 2126.82 1204.82 2126.42 1203.01 2126.03 1200.83 2125.66 1198.3 2125.28 1195.77 2124.95 1192.91 2124.65 1189.73 2124.36 1186.55 2124.11 1183.26 2123.92 1179.85 2123.72 1176.43 2123.63 1173.07 2123.63 1169.74 2123.63 1157.38 2123.89 1147.32 2124.43 1139.55 2124.96 1131.78 2125.46 1126.59 2125.93 1123.96 2126.44 1120.99 2127.28 1118.74 2128.44 1117.2 2129.6 1115.66 2131.02 1114.58 2132.71 1113.98 2133.4 1113.68 2134.53 1113.41 2136.08 1113.17 2137.63 1112.92 2139.34 1112.7 2141.21 1112.51 2143.07 1112.31 2145.04 1112.14 2147.1 1111.98 2149.17 1111.82 2150.96 1111.75 2152.5 1111.75 2154.15 1111.75 2155.95 1111.93 2157.9 1112.3 2159.84 1112.67 2161.74 1113.34 2163.6 1114.32 2165.45 1115.3 2167.28 1116.66 2169.07 1118.4 2170.87 1120.14 2172.45 1122.29 2173.83 1124.85 2174.37 1125.84 2175.2 1127.54 2176.34 1129.96 2177.48 1132.38 2178.59 1134.78 2179.67 1137.16 2180.75 1139.54 2182 1142.27 2183.42 1145.35 2184.84 1148.42 2186.1 1151.04 2187.19 1153.2 2188.29 1155.37 2189.2 1157.07 2189.92 1158.32 2190.11 1158.64 2190.26 1158.91 2190.38 1159.15L2190.59 1159.57 2190.66 1158.87C2190.68 1158.54 2190.68 1158.12 2190.68 1157.63 2190.68 1154.05 2190.14 1150.31 2189.04 1146.41 2187.95 1142.51 2186.74 1138.78 2185.41 1135.23 2184.08 1131.67 2182.85 1128.41 2181.72 1125.45 2180.58 1122.48 2180.01 1120.04 2180.01 1118.12 2180.01 1116.88 2180.64 1115.69 2181.9 1114.55 2183.16 1113.41 2184.73 1112.45 2186.62 1111.69 2188.51 1110.92 2190.65 1110.28 2193.05 1109.77 2195.44 1109.26 2197.84 1109.01 2200.23 1109.01ZM2085.25 1108.43C2087.83 1108.43 2090.68 1109.04 2093.82 1110.25 2096.96 1111.47 2099.88 1113.03 2102.59 1114.94 2105.31 1116.84 2107.62 1119.04 2109.52 1121.51 2111.43 1123.99 2112.39 1126.56 2112.39 1129.22 2112.39 1130.59 2112 1132.13 2111.22 1133.84 2110.44 1135.56 2109.39 1137.33 2108.07 1139.15 2106.75 1140.98 2105.34 1142.81 2103.84 1144.63 2102.34 1146.46 2100.79 1148.28 2099.19 1150.08 2095.17 1154.4 2091.01 1158.17 2086.72 1161.38 2087.45 1161.33 2088.55 1161.72 2090.01 1162.55 2091.25 1163.27 2092.6 1164.21 2094.08 1165.38 2095.55 1166.54 2097.02 1168.13 2098.5 1170.14 2099.74 1171.95 2100.87 1173.85 2101.89 1175.84 2102.9 1177.82 2103.87 1179.63 2104.78 1181.25 2105.68 1182.88 2106.53 1184.21 2107.32 1185.25 2108.11 1186.28 2109.02 1186.94 2110.05 1187.22 2112.02 1187.81 2113.67 1188.99 2115 1190.77 2116.34 1192.55 2117 1194.39 2117 1196.28 2117 1199.03 2115.78 1201.47 2113.34 1203.59 2110.9 1205.71 2108.1 1207.45 2104.96 1208.8 2101.81 1210.15 2098.59 1211.19 2095.29 1211.93 2092 1212.67 2089.27 1213.03 2087.12 1213.03 2084.31 1213.03 2081.75 1212.31 2079.44 1210.86 2077.14 1209.41 2075.06 1206.36 2073.22 1201.71 2072.18 1198.68 2071.25 1196.05 2070.42 1193.84 2069.58 1191.62 2068.73 1189.56 2067.84 1187.65 2066.96 1185.74 2066.1 1184.26 2065.27 1183.19 2064.45 1182.13 2063.7 1181.6 2063.04 1181.6 2062.19 1181.6 2061.43 1181.82 2060.76 1182.27 2060.09 1182.72 2059.75 1183.69 2059.75 1185.17 2059.75 1187.92 2060.01 1190.45 2060.51 1192.75 2061.02 1195.05 2061.62 1197.16 2062.31 1199.09 2063 1201.02 2063.62 1202.66 2064.15 1204.02 2064.68 1205.37 2064.94 1206.54 2064.94 1207.53 2064.94 1208.46 2064.55 1209.38 2063.78 1210.29 2063 1211.2 2061.74 1211.98 2060.02 1212.63 2058.29 1213.27 2056.14 1213.79 2053.56 1214.18 2050.99 1214.57 2047.71 1214.76 2043.72 1214.76 2038.69 1214.76 2034.75 1213.86 2031.89 1212.07 2029.03 1210.27 2027.01 1207.37 2025.81 1203.36 2025.05 1201.16 2024.25 1197.2 2023.43 1191.5 2022.61 1185.8 2022.2 1178.21 2022.2 1168.73 2022.2 1155.76 2022.67 1145.2 2023.6 1137.06 2024.53 1128.92 2026.08 1123.99 2028.26 1122.27 2030.16 1120.67 2032.35 1119.31 2034.82 1118.17 2037.28 1117.04 2039.85 1116.06 2042.52 1115.23 2045.18 1114.41 2047.89 1113.74 2050.64 1113.23 2053.4 1112.72 2055.7 1112.47 2057.56 1112.47 2060.49 1112.47 2062.62 1113.14 2063.95 1114.47 2065.29 1115.8 2065.95 1117.31 2065.95 1118.98 2065.95 1120.54 2065.63 1122.33 2064.97 1124.35 2064.32 1126.37 2063.64 1128.44 2062.94 1130.58 2062.24 1132.72 2061.59 1135.07 2060.97 1137.64 2060.35 1140.2 2060.04 1142.88 2060.04 1145.66 2060.04 1146.51 2060.08 1146.93 2060.16 1146.93 2060.8 1146.93 2062.07 1145.72 2063.96 1143.31 2065.85 1140.89 2067.94 1137.57 2070.24 1133.36 2072.5 1129.13 2074.29 1125.38 2075.61 1122.12 2076.93 1118.86 2077.69 1116.42 2077.87 1114.8 2078.09 1112.75 2078.88 1111.18 2080.22 1110.08 2081.56 1108.98 2083.24 1108.43 2085.25 1108.43ZM2353.17 1108.29C2358.29 1108.29 2363.01 1108.99 2367.32 1110.4 2371.64 1111.8 2375.33 1113.64 2378.41 1115.91 2381.49 1118.18 2383.9 1120.69 2385.63 1123.45 2387.37 1126.21 2388.24 1128.95 2388.24 1131.67 2388.24 1133.78 2387.58 1135.88 2386.25 1138 2384.93 1140.12 2383.37 1142 2381.56 1143.66 2379.76 1145.31 2377.78 1146.69 2375.63 1147.79 2373.48 1148.89 2371.52 1149.44 2369.75 1149.44 2367.49 1149.44 2365.91 1148.96 2365.01 1148 2364.11 1147.05 2363.05 1145.81 2361.82 1144.28 2359.91 1141.92 2358.41 1140.38 2357.33 1139.68 2356.26 1138.97 2355.06 1138.62 2353.74 1138.62 2353.64 1138.62 2353.4 1138.8 2353.03 1139.14 2352.66 1139.49 2352.47 1139.88 2352.47 1140.33 2352.47 1141.84 2353.3 1143.21 2354.95 1144.44 2356.6 1145.66 2358.65 1146.94 2361.12 1148.26 2363.58 1149.59 2366.65 1151.19 2370.32 1153.06 2373.99 1154.93 2377.3 1157.19 2380.25 1159.84 2383.19 1162.48 2385.64 1165.71 2387.6 1169.53 2389.56 1173.36 2390.54 1177.95 2390.54 1183.3 2390.54 1188.26 2389.51 1192.66 2387.43 1196.51 2385.36 1200.36 2382.6 1203.6 2379.15 1206.23 2375.71 1208.87 2371.78 1210.85 2367.38 1212.19 2362.99 1213.52 2358.34 1214.19 2353.45 1214.19 2348.27 1214.19 2343.23 1213.35 2338.33 1211.67 2333.44 1209.99 2329.11 1207.83 2325.34 1205.2 2321.56 1202.57 2318.48 1199.59 2316.08 1196.27 2313.67 1192.95 2312.47 1189.59 2312.47 1186.18 2312.47 1183.57 2313.2 1181.05 2314.65 1178.62 2316.09 1176.19 2317.79 1174.07 2319.74 1172.27 2321.69 1170.47 2323.74 1169 2325.89 1167.84 2328.04 1166.69 2329.83 1166.11 2331.25 1166.11 2332.97 1166.11 2334.36 1166.96 2335.43 1168.67 2336.5 1170.37 2337.72 1172.34 2339.08 1174.6 2340.44 1176.85 2341.82 1178.71 2343.22 1180.19 2344.61 1181.67 2346.24 1182.41 2348.12 1182.41 2349.69 1182.41 2350.83 1181.92 2351.52 1180.93 2352.22 1179.94 2352.56 1178.96 2352.56 1177.96 2352.56 1177.06 2351.8 1176.1 2350.28 1175.09 2348.76 1174.08 2346.72 1172.91 2344.16 1171.58 2341.6 1170.25 2338.81 1168.74 2335.79 1167.03 2332.76 1165.32 2329.9 1163.27 2327.19 1160.86 2324.48 1158.45 2322.22 1155.58 2320.4 1152.24 2318.58 1148.9 2317.66 1144.93 2317.66 1140.33 2317.66 1135.51 2318.64 1131.13 2320.59 1127.18 2322.54 1123.23 2325.17 1119.85 2328.5 1117.03 2331.82 1114.21 2335.61 1112.04 2339.87 1110.54 2344.13 1109.04 2348.56 1108.29 2353.17 1108.29Z" fill="#5B9BD5" fill-rule="evenodd"/><path d="M2274.38 1176.62 2271.06 1176.85 2269.36 1177.39 2268.95 1177.8 2268.74 1178.83 2268.74 1178.85 2270.47 1178.94 2276.11 1178.69 2281.15 1177.9 2284.24 1177.14 2279.91 1176.93ZM2340.81 1172.62 2341.24 1173.36 2343.24 1176.37 2344.98 1178.4 2346.56 1179.54 2348.18 1179.89 2349.06 1179.72 2349.58 1179.3 2349.95 1178.65 2350.01 1178.27 2349.93 1178.06 2348.87 1177.16 2346.36 1175.64 2343.02 1173.82ZM2355.88 1141.76 2356.59 1142.52 2357.6 1143.19 2357.57 1143.15 2355.97 1141.8ZM2268.62 1112.81 2261.38 1112.93 2255.09 1113.36 2249.81 1114 2245.49 1114.94 2242.19 1116 2239.62 1117.25 2238.27 1118.33 2237.65 1119.29 2237.1 1121.29 2236.43 1124.72 2235.69 1129.15 2234.95 1134.55 2234.33 1140.98 2233.84 1148.57 2233.59 1157.34 2233.46 1167.23 2233.9 1180.82 2234.32 1186.91 2234.94 1192.33 2235.61 1197.07 2236.34 1201.19 2237.11 1204.53 2237.79 1206.81 2238.47 1208.12 2239.39 1209.13 2240.77 1210 2242.78 1210.75 2245.77 1211.46 2249.68 1211.94 2254.68 1212.25 2260.87 1212.31 2267.64 1212.08 2274.13 1211.41 2280.2 1210.43 2285.73 1209.26 2290.62 1208.04 2294.86 1206.78 2298.06 1205.63 2300.12 1204.62 2302.56 1202.67 2304.01 1199.54 2304.42 1197.43 2304.78 1194.62 2305.03 1191.46 2305.1 1188.01 2304.68 1182.86 2303.49 1179.11 2302.8 1178 2302.15 1177.35 2301.52 1177.02 2300.91 1176.91 2299.79 1177.11 2297.78 1177.82 2294.73 1179.05 2291.09 1180.32 2286.74 1181.68 2281.9 1182.85 2276.32 1183.69 2270.21 1183.93 2267.77 1183.81C2267.52 1183.8 2267.27 1183.75 2267.04 1183.66L2265.85 1183.22C2265.23 1182.99 2264.72 1182.53 2264.44 1181.92L2264.07 1181.11C2263.95 1180.85 2263.87 1180.57 2263.85 1180.29L2263.72 1178.91C2263.7 1178.67 2263.72 1178.42 2263.76 1178.18L2264.2 1176.06C2264.3 1175.58 2264.54 1175.14 2264.88 1174.8L2266.26 1173.42C2266.54 1173.14 2266.89 1172.93 2267.27 1172.8L2269.83 1171.99C2270.03 1171.93 2270.23 1171.89 2270.43 1171.88L2274.67 1171.63 2280.15 1171.94 2285.1 1172.18 2286.13 1172.03 2286.87 1171.6 2287.65 1170.74 2288.48 1169.17 2289.24 1167.08 2289.73 1164.65 2290.09 1161.6 2290.22 1158.16 2290.12 1155.22 2289.72 1152.79 2289.19 1151.2 2288.69 1150.41 2286.94 1149.24 2284.35 1148.77 2280.89 1149.09 2276.56 1149.84 2272.18 1150.55 2268.55 1150.87C2268.33 1150.89 2268.1 1150.87 2267.87 1150.83L2266.56 1150.58C2266.13 1150.5 2265.72 1150.3 2265.39 1150.01L2264.45 1149.2C2264.17 1148.95 2263.94 1148.65 2263.79 1148.3L2263.23 1146.99C2263.13 1146.76 2263.07 1146.51 2263.04 1146.27L2262.85 1144.52C2262.82 1144.2 2262.85 1143.89 2262.93 1143.59L2263.43 1141.77C2263.58 1141.22 2263.92 1140.74 2264.38 1140.41L2265.94 1139.28C2266.23 1139.08 2266.56 1138.93 2266.91 1138.86L2270.07 1138.25 2274.64 1138 2280.04 1138.26 2285.38 1138.7 2290 1139.13 2291.88 1139.25 2293.06 1139.3 2295.08 1138.86 2296.52 1137.77 2297.61 1135.78 2298.01 1132.65 2297.37 1126.12 2296.4 1122.91 2294.68 1119.75 2292.98 1117.57 2290.97 1115.92 2288.57 1114.72 2285.82 1113.98 2282.18 1113.49 2278.08 1113.12 2273.62 1112.88ZM2200.24 1111.52 2193.71 1112.24 2190.44 1113.06 2187.62 1114 2185.39 1115.14 2183.66 1116.38 2182.8 1117.51 2182.57 1118.31 2182.91 1120.89 2184.11 1124.62 2185.86 1129.24 2187.84 1134.48 2191.54 1145.93 2192.77 1151.99 2193.21 1157.69 2193.21 1158.88C2193.21 1159.01 2193.2 1159.15 2193.18 1159.29L2193.05 1160.04C2192.87 1161.13 2191.99 1161.97 2190.89 1162.11 2189.79 1162.24 2188.73 1161.63 2188.29 1160.61L2188.2 1160.37 2187.78 1159.59 2186.5 1157.28 2184.96 1154.34 2183.2 1150.69 2181.19 1146.41 2179.19 1142.04 2177.44 1138.23 2174.15 1131.08 2172.69 1128.05 2171.72 1126.2 2169.64 1122.87 2167.32 1120.22 2164.91 1118.14 2162.47 1116.58 2159.99 1115.49 2157.43 1114.78 2152.59 1114.25 2150.19 1114.31 2147.39 1114.49 2141.52 1115.04 2136.55 1115.65 2134.85 1115.95 2133.7 1116.31 2131.93 1117.27 2130.5 1118.74 2129.31 1120.98 2128.43 1124.38 2128.07 1126.71 2127.7 1130.09 2127.33 1134.43 2126.96 1139.71 2126.59 1145.96 2126.34 1153.04 2126.21 1160.96 2126.15 1169.67 2126.46 1179.7 2127.14 1189.48 2127.63 1193.96 2128.18 1197.92 2128.73 1201.41 2129.22 1204.1 2130.02 1206.57 2131.01 1208.41 2132.29 1209.78 2133.96 1210.9 2135.93 1211.7 2138.75 1212.4 2142.04 1212.88 2145.88 1213 2149.82 1212.78 2153.46 1212.22 2156.9 1211.24 2159.98 1210 2162.38 1208.58 2164.16 1207.06 2165.13 1205.66 2165.43 1204.38 2165.2 1202.59 2164.3 1199.6 2162.83 1195.5 2161.36 1190.85 2159.9 1185.49 2158.55 1179.49 2157.59 1172.8 2157.28 1165.44 2157.28 1163.09 2157.34 1161.4 2157.41 1160.46C2157.42 1160.2 2157.48 1159.94 2157.58 1159.7L2157.7 1159.38C2158.03 1158.58 2158.75 1157.99 2159.61 1157.85 2160.46 1157.7 2161.33 1158.01 2161.91 1158.67L2162.34 1159.17C2162.43 1159.26 2162.5 1159.36 2162.57 1159.47L2163.63 1161.13 2165.13 1163.74 2166.8 1167.03 2168.57 1170.95 2170.47 1175.38 2174.15 1184.55 2175.92 1188.85 2177.4 1192.67 2178.69 1195.8 2179.62 1197.9 2182.35 1203.15 2185.01 1207.55 2186.19 1208.97 2187.51 1209.93 2188.85 1210.49 2190.53 1210.68 2196.37 1210.36 2202.68 1209.14 2208.33 1207.13 2212.91 1204.05 2214.35 1202.38 2215.75 1199.41 2217.08 1195.11 2218.3 1189.4 2219.29 1182.52 2220.03 1174.63 2220.46 1165.66 2220.59 1155.67 2220.53 1152.13 2220.4 1147.23 2219.97 1136.52 2219.41 1127.02 2219.12 1123.37 2218.75 1120.77 2218.09 1118.52 2217.07 1116.84 2215.51 1115.38 2213.36 1114.1 2207.52 1112.21ZM2085.32 1110.95 2083.36 1111.27 2081.91 1112.08 2080.92 1113.3 2080.34 1115.36 2079.56 1118.74 2077.94 1123.12 2075.56 1128.58 2072.44 1134.63 2069.01 1140.5 2065.91 1144.88 2064.52 1146.6 2063.52 1147.72C2063.4 1147.86 2063.26 1147.99 2063.1 1148.1L2062.23 1148.72C2062.09 1148.82 2061.95 1148.9 2061.79 1148.97L2061.23 1149.22C2060.61 1149.5 2059.9 1149.51 2059.27 1149.25 2058.64 1149 2058.14 1148.5 2057.89 1147.87L2057.77 1147.55C2057.65 1147.26 2057.59 1146.94 2057.59 1146.63L2057.59 1145.53 2057.88 1141.2 2058.62 1137.03 2060.59 1129.84 2062.59 1123.79 2063.23 1121.25 2063.44 1119.14 2063.12 1117.65 2062.23 1116.38 2060.57 1115.41 2057.5 1115.01 2054.83 1115.16 2051.25 1115.68 2043.42 1117.59 2035.96 1120.44 2029.96 1124.2 2028.95 1125.47 2027.91 1128.03 2026.94 1131.93 2026.14 1137.3 2025.52 1143.77 2025.09 1151.22 2024.78 1159.52 2024.71 1168.73 2024.77 1175.4 2025.02 1181.39 2025.38 1186.57 2025.93 1191.11 2026.55 1195.07 2027.08 1198.17 2027.68 1200.7 2028.18 1202.49 2029.17 1205.11 2030.33 1207.12 2031.72 1208.77 2033.26 1210.01 2035.21 1210.98 2037.41 1211.66 2040.35 1212.13 2043.72 1212.31 2048.93 1212.2 2053.11 1211.73 2056.42 1211.11 2059.12 1210.29 2060.92 1209.44 2061.88 1208.64 2062.31 1207.96 2062.43 1207.43 2062.32 1206.48 2061.8 1204.91 2061 1202.68 2059.93 1199.81 2058.06 1193.14 2057.47 1189.3 2057.28 1185.3C2057.27 1185.15 2057.28 1185 2057.3 1184.85L2057.55 1183.03C2057.6 1182.64 2057.75 1182.26 2057.98 1181.93L2058.73 1180.87C2059.06 1180.41 2059.53 1180.08 2060.06 1179.92L2062.38 1179.23C2062.94 1179.06 2063.55 1179.1 2064.09 1179.33L2065.09 1179.77C2065.38 1179.9 2065.64 1180.07 2065.86 1180.3L2067.04 1181.48C2067.15 1181.59 2067.24 1181.7 2067.32 1181.82L2068.81 1183.99 2070.21 1186.73 2072.81 1193.02 2074.13 1196.67 2075.56 1200.72 2076.87 1203.67 2078.18 1205.96 2079.57 1207.74 2080.78 1208.72 2083.84 1210.07 2087.25 1210.55 2090.31 1210.36 2094.69 1209.52 2099.32 1208.29 2103.82 1206.59 2108.14 1204.37 2111.7 1201.73 2113.01 1200.41 2113.88 1199.09 2114.33 1197.76 2114.5 1196.38 2114.14 1194.35 2113.01 1192.33 2111.3 1190.63 2109.01 1189.51 2107.57 1188.82C2107.32 1188.7 2107.08 1188.53 2106.88 1188.33L2105.57 1187.02C2105.46 1186.91 2105.36 1186.78 2105.27 1186.65L2104.03 1184.83 2102.57 1182.48 2099.75 1177.15 2096.47 1171.62 2094.51 1169.21 2092.64 1167.48 2088.77 1164.73 2087.34 1164.07 2086.22 1163.81C2085.29 1163.6 2084.56 1162.88 2084.34 1161.95 2084.12 1161.02 2084.45 1160.05 2085.19 1159.44L2091.33 1154.41 2097.32 1148.49 2101.91 1143.17 2105.94 1137.9 2109.01 1132.8 2109.7 1130.87 2109.88 1129.32 2109.33 1126.18 2107.49 1123.04 2104.66 1119.87 2101.19 1116.98 2097.35 1114.64 2093.11 1112.64 2088.83 1111.34ZM2353.19 1110.8 2346.83 1111.35 2340.74 1112.93 2335.09 1115.49 2330.16 1118.97 2326.06 1123.24 2322.85 1128.28 2320.86 1134.04 2320.23 1140.37 2320.85 1146.24 2322.65 1151.11 2325.5 1155.38 2328.78 1158.93 2332.74 1162.14 2337.03 1164.87 2345.41 1169.43 2348.94 1171.36 2351.63 1172.99C2351.75 1173.06 2351.86 1173.13 2351.96 1173.22L2353.65 1174.66C2353.96 1174.93 2354.2 1175.27 2354.35 1175.65L2354.92 1177.09C2355.08 1177.51 2355.13 1177.97 2355.05 1178.41L2354.8 1179.91C2354.76 1180.2 2354.66 1180.48 2354.52 1180.73L2353.7 1182.17C2353.55 1182.44 2353.35 1182.68 2353.11 1182.87L2351.73 1184C2351.41 1184.26 2351.02 1184.44 2350.61 1184.52L2348.61 1184.9C2348.29 1184.96 2347.95 1184.95 2347.63 1184.88L2345 1184.32C2344.66 1184.25 2344.34 1184.1 2344.06 1183.9L2341.81 1182.28C2341.65 1182.16 2341.5 1182.02 2341.37 1181.87L2339.06 1179.13 2336.93 1175.89 2335.1 1172.78 2333.48 1170.23 2332.32 1168.98 2331.18 1168.69 2329.64 1168.97 2327.06 1170.1 2324.38 1171.73 2321.6 1174.02 2319.07 1176.69 2316.84 1179.85 2315.46 1183.05 2315.04 1186.23 2315.25 1188.33 2315.78 1190.51 2316.65 1192.49 2318.1 1194.82 2321.96 1199.26 2326.77 1203.19 2332.43 1206.51 2339.13 1209.31 2346.25 1211.09 2353.48 1211.68 2360.29 1211.21 2366.66 1209.79 2372.52 1207.45 2377.62 1204.26 2381.93 1200.24 2385.28 1195.33 2386.49 1192.68 2387.32 1189.93 2387.9 1186.81 2388.08 1183.37 2387.38 1176.42 2385.38 1170.65 2382.34 1165.78 2378.57 1161.72 2374.31 1158.34 2369.21 1155.29 2364.1 1152.71 2359.88 1150.46 2356.39 1148.39 2353.58 1146.52C2353.42 1146.41 2353.27 1146.29 2353.14 1146.15L2351.33 1144.21C2351.06 1143.92 2350.86 1143.58 2350.75 1143.21L2350.13 1141.08C2349.95 1140.49 2350 1139.86 2350.27 1139.31L2350.83 1138.12C2350.99 1137.78 2351.22 1137.49 2351.51 1137.25L2352.19 1136.69C2352.73 1136.25 2353.42 1136.06 2354.11 1136.15L2355.98 1136.4C2356.24 1136.43 2356.5 1136.51 2356.74 1136.62L2358.42 1137.44C2358.61 1137.53 2358.79 1137.64 2358.95 1137.78L2360.95 1139.46C2361.06 1139.55 2361.15 1139.65 2361.24 1139.76L2363.74 1142.69 2366.64 1146.11 2367.68 1146.7 2369.75 1146.92 2371.94 1146.63 2374.45 1145.6 2379.97 1141.77 2382.22 1139.47 2384.11 1136.74 2385.36 1134.12 2385.75 1131.68 2385.24 1128.38 2383.52 1124.84 2380.7 1121.29 2376.98 1117.96 2372.22 1115.12 2366.57 1112.82 2360.21 1111.29ZM2268.54 1107.81 2273.69 1107.88 2278.35 1108.13 2282.62 1108.51 2286.48 1109.02 2290.1 1109.96C2290.27 1110 2290.43 1110.06 2290.58 1110.14L2293.46 1111.58C2293.62 1111.66 2293.78 1111.76 2293.92 1111.88L2296.36 1113.88C2296.5 1114 2296.63 1114.13 2296.75 1114.27L2298.75 1116.84C2298.83 1116.95 2298.91 1117.06 2298.97 1117.18L2300.91 1120.74C2300.99 1120.89 2301.06 1121.05 2301.1 1121.21L2302.23 1124.9C2302.28 1125.05 2302.31 1125.22 2302.33 1125.38L2303.01 1132.45C2303.03 1132.63 2303.03 1132.82 2303.01 1133.01L2302.51 1136.88C2302.47 1137.19 2302.37 1137.49 2302.22 1137.76L2300.66 1140.63C2300.49 1140.94 2300.26 1141.22 2299.97 1141.43L2297.66 1143.18C2297.37 1143.4 2297.04 1143.55 2296.68 1143.63L2293.81 1144.26C2293.6 1144.3 2293.39 1144.32 2293.17 1144.31L2291.67 1144.25 2289.68 1144.12 2284.92 1143.68 2279.63 1143.24 2274.41 1143 2270.36 1143.25 2268.43 1143.65 2268.01 1143.95 2267.88 1144.46 2267.97 1145.36 2268.16 1145.8 2268.47 1145.85 2271.75 1145.57 2275.75 1144.91 2280.04 1144.16 2284.23 1143.76C2284.46 1143.74 2284.69 1143.75 2284.91 1143.79L2288.35 1144.42C2288.68 1144.48 2289 1144.61 2289.29 1144.8L2291.91 1146.55C2292.21 1146.74 2292.46 1147 2292.65 1147.3L2293.58 1148.8C2293.69 1148.97 2293.77 1149.15 2293.84 1149.33L2294.52 1151.4C2294.56 1151.52 2294.6 1151.65 2294.62 1151.78L2295.05 1154.4 2295.21 1157.97 2295.09 1161.77 2294.7 1165.22 2294.1 1168.24C2294.08 1168.36 2294.05 1168.48 2294 1168.6L2293.13 1171.03C2293.09 1171.15 2293.04 1171.26 2292.98 1171.36L2291.92 1173.36C2291.82 1173.54 2291.7 1173.72 2291.56 1173.87L2290.31 1175.24 2290.2 1175.34 2293.07 1174.33 2295.9 1173.18 2298.32 1172.33C2298.45 1172.28 2298.58 1172.25 2298.71 1172.23L2300.46 1171.91C2300.75 1171.86 2301.04 1171.86 2301.33 1171.91L2302.77 1172.16C2303.02 1172.21 2303.27 1172.29 2303.5 1172.41L2304.81 1173.1C2305.04 1173.22 2305.24 1173.37 2305.42 1173.55L2306.54 1174.67C2306.68 1174.81 2306.8 1174.96 2306.91 1175.13L2307.91 1176.75C2308.01 1176.93 2308.1 1177.11 2308.16 1177.3L2309.53 1181.62C2309.59 1181.8 2309.63 1181.98 2309.64 1182.17L2310.08 1187.61 2310.03 1191.54 2309.77 1195 2309.38 1198.07 2308.85 1200.79C2308.82 1200.99 2308.76 1201.18 2308.67 1201.36L2306.86 1205.3C2306.7 1205.65 2306.45 1205.96 2306.15 1206.2L2303.03 1208.7C2302.88 1208.82 2302.72 1208.92 2302.56 1209L2300.24 1210.12 2296.57 1211.47 2292.06 1212.83 2286.95 1214.11 2281.23 1215.32 2274.93 1216.34 2268.16 1217.05 2261.05 1217.31 2254.63 1217.25 2249.37 1216.93 2245.16 1216.42 2241.65 1215.62 2238.79 1214.6C2238.62 1214.54 2238.46 1214.46 2238.31 1214.36L2236.44 1213.17C2236.25 1213.06 2236.08 1212.91 2235.93 1212.75L2234.56 1211.25C2234.41 1211.09 2234.28 1210.91 2234.18 1210.71L2233.24 1208.9C2233.17 1208.76 2233.11 1208.62 2233.07 1208.47L2232.32 1205.97 2231.47 1202.32 2230.69 1197.93 2229.99 1193.04 2229.35 1187.47 2228.91 1181.18 2228.46 1167.39 2228.59 1157.28 2228.84 1148.43 2229.34 1140.65 2229.98 1134.07 2230.74 1128.48 2231.5 1123.9 2232.2 1120.33 2232.92 1117.6C2232.99 1117.35 2233.1 1117.1 2233.25 1116.88L2234.31 1115.26C2234.45 1115.04 2234.63 1114.84 2234.84 1114.67L2236.71 1113.17C2236.86 1113.06 2237.01 1112.96 2237.18 1112.88L2239.99 1111.5 2243.94 1110.19 2248.74 1109.12 2254.47 1108.39 2261.04 1107.94ZM2200.46 1106.52 2208.26 1107.26C2208.44 1107.28 2208.62 1107.32 2208.8 1107.37L2215.17 1109.43C2215.35 1109.49 2215.52 1109.57 2215.68 1109.66L2218.3 1111.23C2218.46 1111.32 2218.6 1111.43 2218.74 1111.55L2220.74 1113.43C2220.9 1113.58 2221.04 1113.76 2221.16 1113.95L2222.53 1116.2C2222.65 1116.38 2222.74 1116.59 2222.8 1116.8L2223.55 1119.36 2224.06 1122.63 2224.39 1126.61 2224.96 1136.23 2225.4 1147.02 2225.53 1152 2225.59 1155.58 2225.46 1165.72 2225.02 1174.87 2224.27 1182.98 2223.25 1190.1 2221.97 1196.15 2220.48 1201.05C2220.44 1201.16 2220.4 1201.27 2220.35 1201.38L2218.72 1204.82C2218.63 1205.02 2218.51 1205.21 2218.36 1205.38L2216.49 1207.56C2216.34 1207.74 2216.17 1207.89 2215.98 1208.01L2210.86 1211.45C2210.68 1211.57 2210.5 1211.66 2210.3 1211.73L2204.18 1213.92C2204.06 1213.96 2203.94 1213.99 2203.81 1214.02L2197.31 1215.27 2190.61 1215.68C2190.47 1215.69 2190.33 1215.69 2190.19 1215.67L2187.94 1215.42C2187.7 1215.4 2187.47 1215.34 2187.25 1215.24L2185.31 1214.43C2185.13 1214.36 2184.97 1214.26 2184.81 1214.15L2183 1212.84C2182.83 1212.71 2182.67 1212.57 2182.54 1212.41L2181.04 1210.59C2180.96 1210.5 2180.89 1210.4 2180.82 1210.29L2178.07 1205.73 2175.19 1200.22 2174.12 1197.83 2172.78 1194.58 2171.26 1190.65 2169.53 1186.45 2165.83 1177.24 2163.98 1172.92 2162.45 1169.55 2162.59 1172.58 2163.5 1178.77 2164.78 1184.39 2166.19 1189.53 2167.6 1194 2169 1197.9 2170.04 1201.34C2170.08 1201.47 2170.11 1201.61 2170.13 1201.74L2170.44 1204.18C2170.48 1204.47 2170.47 1204.77 2170.4 1205.06L2169.9 1207.24C2169.83 1207.56 2169.7 1207.85 2169.51 1208.12L2168.08 1210.18C2167.96 1210.35 2167.81 1210.51 2167.65 1210.65L2165.47 1212.52C2165.35 1212.62 2165.24 1212.7 2165.11 1212.78L2162.36 1214.4C2162.25 1214.47 2162.14 1214.52 2162.02 1214.57L2158.77 1215.88 2154.84 1217.03 2150.61 1217.72 2146.18 1218 2141.89 1217.87 2138.05 1217.35 2134.74 1216.55 2131.87 1215.45C2131.69 1215.39 2131.53 1215.3 2131.38 1215.2L2129.25 1213.76C2129.09 1213.65 2128.95 1213.53 2128.82 1213.39L2127.13 1211.58C2126.99 1211.42 2126.87 1211.25 2126.76 1211.06L2125.51 1208.75C2125.44 1208.62 2125.38 1208.48 2125.34 1208.34L2124.46 1205.65 2123.82 1202.34 2123.24 1198.7 2122.68 1194.66 2122.17 1190.02 2121.47 1180.05 2121.15 1169.83 2121.21 1160.92 2121.34 1152.96 2121.59 1145.79 2121.97 1139.41 2122.34 1134.07 2122.72 1129.66 2123.1 1126.17 2123.49 1123.62 2124.54 1119.45C2124.59 1119.25 2124.66 1119.06 2124.76 1118.89L2126.26 1116.07C2126.37 1115.87 2126.51 1115.68 2126.67 1115.51L2128.61 1113.51C2128.78 1113.33 2128.99 1113.17 2129.21 1113.05L2131.52 1111.8C2131.66 1111.73 2131.81 1111.67 2131.96 1111.62L2133.33 1111.18 2135.63 1110.73 2140.91 1110.08 2146.92 1109.51 2149.86 1109.32 2152.46 1109.25 2158.16 1109.83C2158.3 1109.84 2158.43 1109.87 2158.57 1109.9L2161.51 1110.72C2161.62 1110.75 2161.74 1110.79 2161.85 1110.84L2164.67 1112.09C2164.78 1112.14 2164.89 1112.2 2164.99 1112.27L2167.74 1114.02C2167.84 1114.08 2167.94 1114.15 2168.03 1114.23L2170.72 1116.54C2170.81 1116.62 2170.89 1116.7 2170.97 1116.79L2173.54 1119.73C2173.62 1119.83 2173.7 1119.94 2173.77 1120.05L2175.96 1123.55 2177.11 1125.7 2178.66 1128.92 2181.98 1136.14 2183.74 1139.96 2185.74 1144.34 2185.91 1144.71 2183.09 1136.02 2181.19 1131.01 2179.44 1126.39 2178.08 1122.21C2178.04 1122.06 2178 1121.92 2177.99 1121.77L2177.55 1118.45C2177.5 1118.11 2177.53 1117.77 2177.62 1117.44L2178.12 1115.69C2178.21 1115.39 2178.35 1115.11 2178.53 1114.86L2179.91 1113.05C2180.06 1112.85 2180.24 1112.67 2180.45 1112.53L2182.64 1110.97C2182.74 1110.89 2182.84 1110.83 2182.95 1110.78L2185.51 1109.46C2185.62 1109.41 2185.74 1109.36 2185.86 1109.32L2188.86 1108.32 2192.47 1107.39 2199.95 1106.52C2200.12 1106.51 2200.29 1106.5 2200.46 1106.52ZM2085.52 1105.94 2089.61 1106.39C2089.77 1106.41 2089.92 1106.44 2090.07 1106.48L2094.57 1107.86 2099.46 1110.11 2103.94 1112.8C2104.05 1112.86 2104.15 1112.94 2104.25 1113.02L2108 1116.14C2108.1 1116.22 2108.18 1116.31 2108.27 1116.4L2111.39 1119.9C2111.5 1120.02 2111.6 1120.16 2111.69 1120.3L2113.87 1124.05C2114.02 1124.31 2114.13 1124.59 2114.18 1124.88L2114.86 1128.82C2114.91 1129.06 2114.91 1129.3 2114.89 1129.53L2114.64 1131.72C2114.61 1131.91 2114.57 1132.1 2114.5 1132.28L2113.63 1134.72C2113.57 1134.87 2113.5 1135.02 2113.42 1135.16L2110.23 1140.47 2105.89 1146.2 2101.11 1151.76 2094.85 1157.96 2091.62 1160.63 2095.53 1163.4 2098.03 1165.66C2098.12 1165.74 2098.2 1165.83 2098.28 1165.92L2100.47 1168.61C2100.54 1168.71 2100.61 1168.81 2100.68 1168.91L2104.05 1174.6 2106.99 1180.14 2108.27 1182.17 2109.27 1183.65 2110.12 1184.49 2111.17 1184.99 2113.87 1186.32C2114.12 1186.44 2114.35 1186.6 2114.54 1186.8L2116.79 1189.05C2116.96 1189.21 2117.1 1189.39 2117.21 1189.59L2118.71 1192.28C2118.84 1192.52 2118.94 1192.79 2118.99 1193.06L2119.49 1195.88C2119.53 1196.12 2119.54 1196.37 2119.51 1196.62L2119.26 1198.62C2119.24 1198.79 2119.2 1198.95 2119.15 1199.1L2118.52 1200.98C2118.45 1201.18 2118.36 1201.38 2118.24 1201.56L2117.05 1203.37C2116.96 1203.51 2116.85 1203.65 2116.73 1203.77L2115.11 1205.39C2115.02 1205.48 2114.93 1205.56 2114.83 1205.63L2110.95 1208.51C2110.84 1208.59 2110.73 1208.66 2110.61 1208.72L2106.11 1211.04 2101.1 1212.96 2095.99 1214.35 2091.25 1215.27 2087.32 1215.56C2087.15 1215.57 2086.98 1215.56 2086.8 1215.54L2082.8 1214.98C2082.58 1214.94 2082.35 1214.88 2082.14 1214.79L2078.46 1213.16C2078.25 1213.07 2078.06 1212.96 2077.88 1212.81L2076.2 1211.44C2076.05 1211.32 2075.92 1211.19 2075.81 1211.04L2074.24 1209.04 2072.56 1206.2 2071 1202.78 2069.42 1198.33 2068.11 1194.73 2065.59 1188.64 2064.36 1186.27 2063.37 1184.88 2062.81 1184.32 2062.4 1184.44 2062.28 1185.3 2062.46 1189.07 2063 1192.36 2064.74 1198.44 2065.68 1200.94 2066.5 1203.21 2067.15 1205.15C2067.2 1205.31 2067.24 1205.48 2067.26 1205.65L2067.45 1207.28C2067.48 1207.56 2067.46 1207.84 2067.4 1208.12L2067.09 1209.49C2067.03 1209.77 2066.91 1210.04 2066.76 1210.28L2065.89 1211.66C2065.75 1211.87 2065.57 1212.07 2065.38 1212.23L2063.88 1213.48C2063.71 1213.62 2063.53 1213.73 2063.34 1213.82L2061.09 1214.89C2060.98 1214.94 2060.87 1214.98 2060.75 1215.02L2057.88 1215.89 2054.06 1216.64 2049.5 1217.17 2043.83 1217.31 2040.08 1217.12 2036.64 1216.6 2033.57 1215.71C2033.43 1215.67 2033.29 1215.61 2033.16 1215.55L2030.78 1214.36C2030.62 1214.28 2030.47 1214.18 2030.33 1214.07L2028.39 1212.51C2028.27 1212.41 2028.16 1212.3 2028.05 1212.18L2026.37 1210.18C2026.27 1210.06 2026.19 1209.94 2026.11 1209.82L2024.74 1207.44C2024.67 1207.32 2024.61 1207.2 2024.56 1207.07L2023.5 1204.26 2022.87 1202.05 2022.22 1199.33 2021.63 1195.93 2020.99 1191.89 2020.42 1187.18 2020.03 1181.74 2019.78 1175.6 2019.71 1168.77 2019.78 1159.48 2020.09 1151.03 2020.53 1143.48 2021.16 1136.83 2021.99 1131.2 2023.1 1126.65C2023.13 1126.53 2023.17 1126.42 2023.21 1126.31L2024.46 1123.24C2024.55 1123.02 2024.67 1122.81 2024.82 1122.63L2026.32 1120.75C2026.5 1120.53 2026.71 1120.35 2026.95 1120.2L2033.51 1116.07C2033.65 1115.98 2033.79 1115.91 2033.95 1115.85L2041.63 1112.92 2050.05 1110.82 2054.1 1110.21 2057.44 1110C2057.6 1110 2057.76 1110 2057.91 1110.02L2061.73 1110.52C2062.06 1110.57 2062.38 1110.67 2062.66 1110.84L2065.23 1112.34C2065.53 1112.52 2065.8 1112.77 2066.01 1113.06L2067.51 1115.18C2067.7 1115.46 2067.84 1115.78 2067.91 1116.11L2068.41 1118.49C2068.46 1118.74 2068.48 1118.99 2068.45 1119.25L2068.2 1121.75 2067.46 1124.96 2065.34 1131.41 2063.44 1138.35 2063.12 1140.17 2064.92 1137.62 2068.12 1132.12 2071.12 1126.29 2073.36 1121.13 2074.87 1117.01 2075.46 1114.27 2076.24 1111.45C2076.34 1111.12 2076.49 1110.82 2076.71 1110.55L2078.34 1108.55C2078.54 1108.3 2078.78 1108.09 2079.06 1107.94L2081.31 1106.69C2081.56 1106.55 2081.84 1106.45 2082.12 1106.41L2084.85 1105.96C2085.07 1105.93 2085.3 1105.92 2085.52 1105.94ZM2353.34 1105.79 2360.77 1106.32C2360.9 1106.33 2361.04 1106.35 2361.17 1106.38L2367.92 1108.01C2368.05 1108.04 2368.16 1108.07 2368.28 1108.12L2374.28 1110.56C2374.4 1110.61 2374.51 1110.66 2374.62 1110.73L2379.75 1113.79C2379.88 1113.87 2380.01 1113.97 2380.13 1114.07L2384.19 1117.7C2384.3 1117.79 2384.4 1117.9 2384.48 1118.01L2387.61 1121.95C2387.72 1122.09 2387.82 1122.24 2387.9 1122.41L2389.9 1126.53C2390.01 1126.76 2390.08 1127 2390.12 1127.25L2390.75 1131.31C2390.79 1131.56 2390.79 1131.82 2390.75 1132.08L2390.25 1135.26C2390.21 1135.5 2390.14 1135.74 2390.03 1135.96L2388.53 1139.08C2388.47 1139.2 2388.41 1139.32 2388.33 1139.43L2386.21 1142.49C2386.13 1142.6 2386.04 1142.71 2385.94 1142.81L2383.38 1145.43C2383.27 1145.55 2383.15 1145.65 2383.02 1145.74L2377.08 1149.87C2376.93 1149.97 2376.77 1150.06 2376.6 1150.13L2373.53 1151.38C2373.34 1151.46 2373.13 1151.51 2372.92 1151.54L2372.71 1151.57 2376.87 1154.04 2381.82 1157.91C2381.92 1157.99 2382.02 1158.08 2382.11 1158.17L2386.17 1162.55C2386.28 1162.67 2386.38 1162.79 2386.46 1162.93L2389.77 1168.24C2389.87 1168.4 2389.95 1168.57 2390.01 1168.74L2392.2 1175.06C2392.26 1175.24 2392.31 1175.43 2392.33 1175.62L2393.08 1183.06C2393.09 1183.19 2393.09 1183.32 2393.09 1183.44L2392.9 1187.07 2392.24 1190.82 2391.24 1194.27C2391.2 1194.38 2391.16 1194.5 2391.11 1194.6L2389.74 1197.6C2389.68 1197.73 2389.61 1197.86 2389.53 1197.97L2385.9 1203.28C2385.8 1203.44 2385.68 1203.58 2385.54 1203.7L2380.86 1208.08C2380.74 1208.19 2380.61 1208.29 2380.48 1208.37L2374.98 1211.81C2374.85 1211.89 2374.72 1211.95 2374.58 1212.01L2368.33 1214.51C2368.2 1214.56 2368.08 1214.6 2367.94 1214.63L2361.19 1216.13C2361.07 1216.16 2360.95 1216.17 2360.82 1216.18L2353.64 1216.68C2353.51 1216.69 2353.39 1216.69 2353.26 1216.68L2345.63 1216.05C2345.5 1216.04 2345.36 1216.02 2345.23 1215.99L2337.73 1214.11C2337.61 1214.08 2337.49 1214.04 2337.37 1213.99L2330.5 1211.12 2324.08 1207.41C2323.97 1207.35 2323.86 1207.27 2323.76 1207.19L2318.63 1203C2318.52 1202.91 2318.42 1202.81 2318.33 1202.7L2314.2 1197.95C2314.12 1197.85 2314.04 1197.75 2313.97 1197.64L2312.41 1195.14 2311.12 1192.34C2311.06 1192.2 2311.01 1192.05 2310.97 1191.91L2310.35 1189.34C2310.32 1189.23 2310.3 1189.11 2310.29 1188.99L2310.04 1186.43C2310.02 1186.24 2310.02 1186.05 2310.05 1185.86L2310.55 1182.05C2310.58 1181.82 2310.64 1181.59 2310.73 1181.38L2312.36 1177.63C2312.43 1177.47 2312.51 1177.33 2312.61 1177.19L2314.98 1173.81 2317.95 1170.6 2321.18 1167.89 2324.58 1165.75C2324.68 1165.69 2324.79 1165.63 2324.9 1165.58L2327.61 1164.4 2325.64 1162.82 2321.7 1158.65C2321.61 1158.55 2321.52 1158.44 2321.45 1158.32L2318.32 1153.64C2318.21 1153.47 2318.12 1153.3 2318.05 1153.11L2316.05 1147.68C2315.98 1147.48 2315.94 1147.28 2315.92 1147.08L2315.23 1140.64C2315.21 1140.47 2315.21 1140.3 2315.23 1140.13L2315.91 1133.25C2315.93 1133.06 2315.98 1132.87 2316.04 1132.68L2318.23 1126.37C2318.29 1126.19 2318.38 1126.01 2318.48 1125.85L2321.98 1120.35C2322.07 1120.21 2322.17 1120.08 2322.28 1119.96L2326.72 1115.33C2326.83 1115.22 2326.95 1115.11 2327.08 1115.02L2332.4 1111.27C2332.53 1111.18 2332.66 1111.1 2332.81 1111.04L2338.87 1108.29C2339 1108.23 2339.13 1108.18 2339.27 1108.14L2345.77 1106.46C2345.91 1106.42 2346.05 1106.4 2346.18 1106.38L2352.95 1105.8C2353.08 1105.79 2353.21 1105.78 2353.34 1105.79Z" fill="#5B9BD5" fill-rule="evenodd"/><path d="M2263.65 1105.37C2270.64 1105.37 2276.48 1105.76 2281.18 1106.52 2285.88 1107.29 2289.42 1109.58 2291.8 1113.41 2293.37 1115.73 2294.39 1118.15 2294.85 1120.68 2295.31 1123.2 2295.55 1125.56 2295.55 1127.75 2295.55 1130.6 2294.86 1132.84 2293.49 1134.45 2292.12 1136.06 2290.39 1136.86 2288.31 1136.86 2287.43 1136.86 2286.28 1136.79 2284.86 1136.64 2283.43 1136.49 2281.88 1136.35 2280.19 1136.21 2278.5 1136.07 2276.72 1135.93 2274.85 1135.78 2272.97 1135.64 2271.21 1135.57 2269.56 1135.57 2266.18 1135.57 2263.8 1135.83 2262.42 1136.35 2261.05 1136.87 2260.36 1137.85 2260.36 1139.29 2260.36 1140.6 2260.61 1141.62 2261.1 1142.35 2261.6 1143.08 2262.35 1143.44 2263.36 1143.44 2264.42 1143.44 2265.63 1143.33 2266.99 1143.09 2268.34 1142.86 2269.74 1142.62 2271.18 1142.38 2272.62 1142.14 2274.06 1141.9 2275.5 1141.65 2276.93 1141.4 2278.27 1141.28 2279.51 1141.28 2282.06 1141.28 2284.08 1142.08 2285.55 1143.67 2287.02 1145.26 2287.76 1148.41 2287.76 1153.13 2287.76 1158.22 2287.12 1162.26 2285.84 1165.25 2284.57 1168.24 2282.7 1169.74 2280.23 1169.74 2278.47 1169.74 2276.76 1169.65 2275.07 1169.45 2273.39 1169.26 2271.55 1169.16 2269.56 1169.16 2266.46 1169.16 2264.29 1169.52 2263.07 1170.22 2261.84 1170.93 2261.22 1172.11 2261.22 1173.75 2261.22 1174.8 2261.4 1175.52 2261.75 1175.9 2262.11 1176.28 2263.32 1176.47 2265.38 1176.47 2269.52 1176.47 2273.24 1176.12 2276.54 1175.42 2279.83 1174.73 2282.77 1173.92 2285.37 1173.01 2287.97 1172.09 2290.14 1171.26 2291.88 1170.52 2293.62 1169.77 2294.98 1169.4 2295.95 1169.4 2298.02 1169.4 2299.65 1170.64 2300.83 1173.12 2302.02 1175.61 2302.61 1178.84 2302.61 1182.84 2302.61 1188.06 2302.22 1192.22 2301.42 1195.34 2300.63 1198.46 2298.98 1200.61 2296.49 1201.81 2295.3 1202.46 2293.38 1203.23 2290.73 1204.13 2288.08 1205.03 2284.96 1205.89 2281.37 1206.72 2277.79 1207.54 2273.85 1208.27 2269.56 1208.89 2265.27 1209.52 2260.76 1209.83 2256.01 1209.83 2251.4 1209.83 2247.59 1209.71 2244.59 1209.46 2241.59 1209.21 2239.14 1208.81 2237.24 1208.24 2235.34 1207.68 2233.86 1206.96 2232.81 1206.08 2231.76 1205.21 2231 1204.12 2230.52 1202.81 2230.03 1201.43 2229.51 1199.43 2228.97 1196.81 2228.42 1194.19 2227.94 1191.16 2227.5 1187.71 2227.07 1184.26 2226.71 1180.37 2226.42 1176.03 2226.13 1171.7 2225.98 1167.14 2225.98 1162.36 2225.98 1148.31 2226.49 1137.31 2227.5 1129.35 2228.51 1121.4 2229.48 1116.05 2230.39 1113.31 2231.2 1110.99 2234.32 1109.09 2239.76 1107.6 2245.2 1106.12 2253.16 1105.37 2263.65 1105.37ZM2195.29 1104.08C2200.89 1104.08 2205.61 1105 2209.47 1106.84 2213.32 1108.69 2215.56 1111.45 2216.21 1115.12 2216.49 1116.7 2216.73 1118.95 2216.92 1121.88 2217.11 1124.8 2217.3 1127.98 2217.5 1131.43 2217.7 1134.87 2217.85 1138.45 2217.95 1142.17 2218.06 1145.89 2218.11 1148.72 2218.11 1150.68 2218.11 1164.81 2217.34 1176.19 2215.82 1184.82 2214.29 1193.44 2212.23 1198.84 2209.64 1201 2206.5 1203.64 2202.74 1205.51 2198.36 1206.61 2193.99 1207.7 2189.7 1208.25 2185.49 1208.25 2182.35 1208.25 2179.86 1206.85 2178.02 1204.06 2176.18 1201.27 2174.32 1197.96 2172.45 1194.13 2171.9 1192.93 2171.13 1191.11 2170.15 1188.65 2169.17 1186.2 2168.08 1183.49 2166.88 1180.51 2165.68 1177.53 2164.44 1174.48 2163.16 1171.35 2161.89 1168.22 2160.68 1165.46 2159.54 1163.08 2158.4 1160.71 2157.39 1158.82 2156.53 1157.42 2155.66 1156.02 2155.18 1155.32 2155.06 1155.32 2154.89 1155.32 2154.8 1157.04 2154.8 1160.48 2154.8 1165.56 2155.22 1170.13 2156.06 1174.19 2156.9 1178.25 2157.82 1181.92 2158.82 1185.21 2159.82 1188.49 2160.77 1191.36 2161.67 1193.81 2162.57 1196.26 2163.02 1198.18 2163.02 1199.57 2163.02 1201.02 2162.37 1202.43 2161.07 1203.79 2159.77 1205.15 2158.11 1206.32 2156.1 1207.3 2154.1 1208.27 2151.8 1209.06 2149.21 1209.66 2146.62 1210.25 2143.91 1210.55 2141.07 1210.55 2135.34 1210.55 2130.93 1209.75 2127.83 1208.15 2124.74 1206.55 2122.76 1203.8 2121.89 1199.89 2121.49 1198.07 2121.1 1195.9 2120.72 1193.37 2120.35 1190.83 2120.01 1187.98 2119.72 1184.8 2119.42 1181.62 2119.18 1178.33 2118.99 1174.91 2118.79 1171.5 2118.69 1168.13 2118.69 1164.81 2118.69 1152.45 2118.96 1142.39 2119.5 1134.62 2120.03 1126.85 2120.53 1121.65 2121 1119.03 2121.51 1116.06 2122.35 1113.81 2123.5 1112.27 2124.66 1110.72 2126.09 1109.65 2127.77 1109.05 2128.47 1108.75 2129.59 1108.48 2131.15 1108.23 2132.7 1107.99 2134.41 1107.77 2136.28 1107.57 2138.14 1107.38 2140.11 1107.2 2142.17 1107.05 2144.23 1106.89 2146.03 1106.81 2147.56 1106.81 2149.22 1106.81 2151.02 1107 2152.96 1107.37 2154.91 1107.73 2156.81 1108.41 2158.66 1109.39 2160.52 1110.37 2162.34 1111.73 2164.14 1113.47 2165.93 1115.21 2167.52 1117.36 2168.89 1119.92 2169.43 1120.91 2170.27 1122.61 2171.41 1125.03 2172.55 1127.45 2173.66 1129.85 2174.74 1132.23 2175.82 1134.61 2177.07 1137.34 2178.49 1140.41 2179.91 1143.49 2181.16 1146.11 2182.26 1148.27 2183.35 1150.43 2184.26 1152.14 2184.99 1153.39 2185.17 1153.7 2185.33 1153.98 2185.45 1154.21L2185.66 1154.64 2185.73 1153.94C2185.74 1153.6 2185.75 1153.19 2185.75 1152.7 2185.75 1149.12 2185.2 1145.37 2184.11 1141.48 2183.02 1137.58 2181.81 1133.85 2180.48 1130.29 2179.15 1126.74 2177.92 1123.48 2176.78 1120.51 2175.65 1117.55 2175.08 1115.11 2175.08 1113.19 2175.08 1111.95 2175.71 1110.76 2176.96 1109.62 2178.22 1108.47 2179.8 1107.52 2181.69 1106.75 2183.58 1105.99 2185.72 1105.35 2188.11 1104.84 2190.51 1104.33 2192.9 1104.08 2195.29 1104.08ZM2080.32 1103.5C2082.89 1103.5 2085.75 1104.1 2088.89 1105.32 2092.03 1106.53 2094.95 1108.09 2097.66 1110 2100.37 1111.91 2102.68 1114.1 2104.59 1116.58 2106.5 1119.06 2107.45 1121.63 2107.45 1124.29 2107.45 1125.65 2107.07 1127.19 2106.29 1128.91 2105.51 1130.62 2104.46 1132.39 2103.14 1134.22 2101.82 1136.05 2100.41 1137.87 2098.91 1139.7 2097.41 1141.53 2095.86 1143.34 2094.26 1145.14 2090.23 1149.47 2086.08 1153.24 2081.79 1156.44 2082.52 1156.4 2083.62 1156.79 2085.08 1157.62 2086.32 1158.34 2087.67 1159.28 2089.14 1160.44 2090.61 1161.61 2092.09 1163.2 2093.57 1165.21 2094.81 1167.02 2095.94 1168.92 2096.95 1170.9 2097.97 1172.89 2098.94 1174.7 2099.84 1176.32 2100.75 1177.95 2101.6 1179.28 2102.39 1180.31 2103.17 1181.35 2104.08 1182.01 2105.12 1182.29 2107.09 1182.88 2108.74 1184.06 2110.07 1185.84 2111.4 1187.62 2112.07 1189.45 2112.07 1191.35 2112.07 1194.1 2110.85 1196.53 2108.41 1198.66 2105.96 1200.78 2103.17 1202.52 2100.02 1203.86 2096.88 1205.21 2093.66 1206.26 2090.36 1206.99 2087.06 1207.73 2084.34 1208.1 2082.19 1208.1 2079.38 1208.1 2076.81 1207.38 2074.51 1205.93 2072.2 1204.48 2070.13 1201.43 2068.29 1196.78 2067.25 1193.75 2066.32 1191.12 2065.48 1188.9 2064.65 1186.69 2063.79 1184.63 2062.91 1182.72 2062.02 1180.81 2061.17 1179.33 2060.34 1178.26 2059.51 1177.2 2058.77 1176.66 2058.11 1176.66 2057.26 1176.66 2056.5 1176.89 2055.83 1177.34 2055.16 1177.79 2054.82 1178.75 2054.82 1180.24 2054.82 1182.99 2055.07 1185.51 2055.58 1187.81 2056.08 1190.11 2056.68 1192.23 2057.38 1194.16 2058.07 1196.09 2058.68 1197.73 2059.21 1199.09 2059.75 1200.44 2060.01 1201.61 2060.01 1202.59 2060.01 1203.53 2059.62 1204.45 2058.84 1205.36 2058.06 1206.27 2056.81 1207.04 2055.08 1207.69 2053.36 1208.34 2051.21 1208.86 2048.63 1209.25 2046.05 1209.64 2042.77 1209.83 2038.79 1209.83 2033.76 1209.83 2029.82 1208.93 2026.96 1207.13 2024.1 1205.33 2022.07 1202.43 2020.88 1198.43 2020.11 1196.22 2019.32 1192.27 2018.5 1186.57 2017.68 1180.86 2017.27 1173.28 2017.27 1163.8 2017.27 1150.82 2017.74 1140.26 2018.67 1132.13 2019.6 1123.99 2021.15 1119.06 2023.33 1117.34 2025.23 1115.74 2027.42 1114.38 2029.88 1113.24 2032.35 1112.11 2034.92 1111.13 2037.58 1110.3 2040.25 1109.48 2042.96 1108.81 2045.71 1108.3 2048.46 1107.79 2050.77 1107.54 2052.63 1107.54 2055.56 1107.54 2057.69 1108.2 2059.02 1109.54 2060.35 1110.87 2061.02 1112.38 2061.02 1114.05 2061.02 1115.61 2060.69 1117.4 2060.04 1119.42 2059.38 1121.43 2058.71 1123.51 2058.01 1125.65 2057.31 1127.78 2056.65 1130.14 2056.04 1132.7 2055.42 1135.27 2055.11 1137.95 2055.11 1140.73 2055.11 1141.58 2055.15 1142 2055.22 1142 2055.87 1142 2057.13 1140.79 2059.03 1138.37 2060.92 1135.95 2063.01 1132.64 2065.31 1128.43 2067.56 1124.2 2069.35 1120.45 2070.68 1117.19 2072 1113.92 2072.75 1111.48 2072.94 1109.87 2073.16 1107.82 2073.95 1106.24 2075.29 1105.15 2076.63 1104.05 2078.31 1103.5 2080.32 1103.5ZM2348.23 1103.35C2353.35 1103.35 2358.07 1104.06 2362.39 1105.46 2366.7 1106.87 2370.4 1108.71 2373.48 1110.98 2376.56 1113.25 2378.96 1115.76 2380.7 1118.52 2382.44 1121.27 2383.31 1124.01 2383.31 1126.74 2383.31 1128.84 2382.64 1130.95 2381.32 1133.07 2380 1135.19 2378.43 1137.07 2376.63 1138.73 2374.82 1140.38 2372.85 1141.76 2370.7 1142.86 2368.55 1143.96 2366.59 1144.51 2364.82 1144.51 2362.56 1144.51 2360.98 1144.03 2360.08 1143.07 2359.18 1142.11 2358.12 1140.87 2356.89 1139.35 2354.97 1136.98 2353.48 1135.45 2352.4 1134.74 2351.33 1134.04 2350.13 1133.69 2348.81 1133.69 2348.71 1133.69 2348.47 1133.86 2348.1 1134.21 2347.73 1134.55 2347.54 1134.95 2347.54 1135.39 2347.54 1136.91 2348.37 1138.28 2350.01 1139.51 2351.66 1140.73 2353.72 1142.01 2356.18 1143.33 2358.65 1144.65 2361.71 1146.25 2365.39 1148.13 2369.06 1150 2372.37 1152.26 2375.31 1154.9 2378.26 1157.54 2380.71 1160.78 2382.67 1164.6 2384.63 1168.43 2385.61 1173.01 2385.61 1178.37 2385.61 1183.33 2384.57 1187.73 2382.5 1191.58 2380.42 1195.42 2377.66 1198.66 2374.22 1201.3 2370.77 1203.93 2366.85 1205.92 2362.45 1207.25 2358.05 1208.59 2353.41 1209.25 2348.52 1209.25 2343.34 1209.25 2338.3 1208.41 2333.4 1206.73 2328.51 1205.05 2324.17 1202.9 2320.4 1200.27 2316.63 1197.64 2313.55 1194.66 2311.14 1191.34 2308.74 1188.02 2307.54 1184.66 2307.54 1181.25 2307.54 1178.64 2308.26 1176.11 2309.71 1173.68 2311.16 1171.25 2312.86 1169.14 2314.81 1167.34 2316.75 1165.54 2318.8 1164.07 2320.95 1162.91 2323.11 1161.76 2324.89 1161.18 2326.32 1161.18 2328.04 1161.18 2329.43 1162.03 2330.5 1163.73 2331.57 1165.44 2332.79 1167.41 2334.15 1169.66 2335.51 1171.91 2336.89 1173.78 2338.28 1175.26 2339.68 1176.74 2341.31 1177.48 2343.19 1177.48 2344.76 1177.48 2345.9 1176.98 2346.59 1176 2347.28 1175.01 2347.63 1174.02 2347.63 1173.03 2347.63 1172.13 2346.87 1171.17 2345.35 1170.16 2343.82 1169.14 2341.78 1167.97 2339.22 1166.65 2336.67 1165.32 2333.88 1163.8 2330.85 1162.1 2327.83 1160.39 2324.97 1158.33 2322.26 1155.93 2319.55 1153.52 2317.29 1150.65 2315.46 1147.31 2313.64 1143.97 2312.73 1140 2312.73 1135.39 2312.73 1130.58 2313.71 1126.2 2315.66 1122.25 2317.6 1118.3 2320.24 1114.91 2323.56 1112.09 2326.89 1109.27 2330.68 1107.11 2334.94 1105.61 2339.2 1104.11 2343.63 1103.35 2348.23 1103.35Z" stroke="#FFFFFF" stroke-width="5" stroke-linejoin="round" stroke-miterlimit="10" fill="#262626" fill-rule="evenodd"/><text fill="#000000" fill-opacity="0" font-family="Arial,Arial_MSFontService,sans-serif" font-size="107.198" x="2017.27" y="1197.15">KNES</text></g></svg>